<svg width="25" height="24" viewBox="0 0 25 24" fill="none" xmlns="http://www.w3.org/2000/svg">
<path d="M20.5469 16.473C19.3429 15 18.4939 14.25 18.4939 10.188C18.4939 6.468 16.5939 5.144 15.0309 4.5C14.9229 4.45479 14.8255 4.38735 14.7452 4.30207C14.665 4.21679 14.6035 4.11558 14.5649 4.005C14.2899 3.072 13.5219 2.25 12.4999 2.25C11.4779 2.25 10.7089 3.073 10.4369 4.006C10.3986 4.11663 10.3373 4.21788 10.2569 4.30304C10.1766 4.3882 10.0791 4.45533 9.9709 4.5C8.4059 5.145 6.5079 6.465 6.5079 10.188C6.5059 14.25 5.6559 15 4.4519 16.473C3.9529 17.083 4.3899 18 5.2619 18H19.7419C20.6089 18 21.0429 17.08 20.5469 16.473Z" stroke="#673AB7" stroke-width="2" stroke-linecap="round" stroke-linejoin="round"/>
<path d="M15.5 18V18.75C15.5 19.5456 15.1839 20.3087 14.6213 20.8713C14.0587 21.4339 13.2956 21.75 12.5 21.75C11.7044 21.75 10.9413 21.4339 10.3787 20.8713C9.81607 20.3087 9.5 19.5456 9.5 18.75V18" stroke="#673AB7" stroke-width="2" stroke-linecap="round" stroke-linejoin="round"/>
</svg>
