<svg width="24" height="24" viewBox="0 0 24 24" fill="none" xmlns="http://www.w3.org/2000/svg">
<path fill-rule="evenodd" clip-rule="evenodd" d="M13.7335 10.2673C13.6009 10.762 13.1198 11.0702 12.6252 10.9984C12.6088 10.9992 12.5924 10.9996 12.5758 10.9996H9.08295L8.54698 12.9999H10.0038C10.5561 12.9999 11.0038 13.4476 11.0038 13.9999C11.0038 14.5522 10.5561 14.9999 10.0038 14.9999H8.01109L7.19269 18.0542C7.04975 18.5877 6.50141 18.9043 5.96795 18.7613C5.43449 18.6184 5.11791 18.07 5.26085 17.5366L5.94056 14.9999H3.0039C2.45162 14.9999 2.00391 14.5522 2.00391 13.9999C2.00391 13.4476 2.45162 12.9999 3.0039 12.9999H6.47645L7.01242 10.9996H5.00484C4.45256 10.9996 4.00485 10.5519 4.00485 9.99965C4.00485 9.44737 4.45256 8.99966 5.00484 8.99966H7.54831L8.36665 5.94559C8.50959 5.41213 9.05792 5.09555 9.59138 5.23849C10.1248 5.38143 10.4414 5.92976 10.2985 6.46322L9.61884 8.99966H12.0026L12.821 5.94558C12.9639 5.41212 13.5122 5.09554 14.0457 5.23848C14.5791 5.38143 14.8957 5.92976 14.7528 6.46322L13.7335 10.2673ZM18.0321 18.4459C17.4366 18.7978 16.7419 18.9997 16.0001 18.9997C13.791 18.9997 12.0002 17.2089 12.0002 14.9998C12.0002 12.7907 13.791 10.9998 16.0001 10.9998C18.2092 10.9998 20.0001 12.7907 20.0001 14.9998C20.0001 15.7416 19.7982 16.4362 19.4463 17.0317L21.6959 19.2813C22.0864 19.6718 22.0864 20.305 21.6959 20.6955C21.3054 21.086 20.6722 21.086 20.2817 20.6955L18.0321 18.4459ZM18.0001 14.9998C18.0001 16.1043 17.1047 16.9997 16.0001 16.9997C14.8956 16.9997 14.0001 16.1043 14.0001 14.9998C14.0001 13.8952 14.8956 12.9998 16.0001 12.9998C17.1047 12.9998 18.0001 13.8952 18.0001 14.9998Z" fill="#673AB7"/>
</svg>
