<svg width="24" height="25" viewBox="0 0 24 25" fill="none" xmlns="http://www.w3.org/2000/svg">
<path d="M20.2012 15.6686C20.1542 15.4996 20.2572 15.2656 20.3552 15.0966C20.3852 15.0466 20.4182 14.9986 20.4542 14.9516C21.2964 13.7005 21.7469 12.2268 21.7482 10.7186C21.7622 6.39663 18.1152 2.89062 13.6052 2.89062C9.67322 2.89062 6.39122 5.56762 5.62322 9.12062C5.50803 9.64719 5.4497 10.1846 5.44922 10.7236C5.44922 15.0496 8.95522 18.6496 13.4652 18.6496C14.1822 18.6496 15.1482 18.4346 15.6772 18.2896C16.2072 18.1436 16.7322 17.9516 16.8672 17.8996C17.1613 17.7885 17.4867 17.7935 17.7772 17.9136L20.4352 18.8566C20.4932 18.8806 20.5552 18.8966 20.6182 18.9026C20.7177 18.9026 20.8131 18.8631 20.8834 18.7928C20.9537 18.7225 20.9932 18.6271 20.9932 18.5276C20.9897 18.4849 20.9817 18.4426 20.9692 18.4016L20.2012 15.6686Z" stroke="#673AB7" stroke-width="2" stroke-linecap="round"/>
<path d="M3.11492 11.5156C2.50033 12.6201 2.20307 13.873 2.25602 15.1359C2.30896 16.3988 2.71004 17.6224 3.41492 18.6716C3.52292 18.8356 3.58492 18.9616 3.56492 19.0466C3.54692 19.1316 3.00592 21.9466 3.00592 21.9466C2.99292 22.0125 2.99785 22.0807 3.02019 22.144C3.04253 22.2073 3.08146 22.2635 3.13292 22.3066C3.18551 22.3482 3.24811 22.3753 3.31444 22.3851C3.38078 22.395 3.44853 22.3872 3.51092 22.3626L6.14592 21.3316C6.32737 21.2599 6.52987 21.2631 6.70892 21.3406C7.59692 21.6866 8.57893 21.9036 9.55993 21.9036C10.8776 21.9048 12.1722 21.557 13.3119 20.8956" stroke="#673AB7" stroke-width="2" stroke-linecap="round"/>
</svg>
