<svg width="24" height="24" viewBox="0 0 24 24" fill="none" xmlns="http://www.w3.org/2000/svg">
<path d="M7.6879 7.00844C8.88713 5.97453 10.4165 5.40349 11.9999 5.39844C15.2279 5.39844 17.9079 7.79844 18.1999 10.8934C20.1099 11.1634 21.5999 12.7634 21.5999 14.7264C21.5999 16.8814 19.8029 18.5984 17.6249 18.5984H6.9379C4.4499 18.5984 2.3999 16.6384 2.3999 14.1804C2.3999 12.0644 3.9199 10.3124 5.9299 9.86844C6.1019 8.83344 6.7679 7.80144 7.6879 7.00844ZM8.4709 7.91844C7.5629 8.70144 7.0879 9.64544 7.0879 10.3844V10.9224L6.5539 10.9814C4.8769 11.1644 3.5999 12.5414 3.5999 14.1804C3.5999 15.9404 5.0759 17.3984 6.9379 17.3984H17.6249C19.1759 17.3984 20.3999 16.1844 20.3999 14.7264C20.3999 13.2664 19.1759 12.0524 17.6249 12.0524H17.0249V11.4524C17.0259 8.78844 14.7939 6.59844 11.9999 6.59844C10.7038 6.60366 9.45226 7.0718 8.4709 7.91844Z" fill="#673AB7"/>
<path fill-rule="evenodd" clip-rule="evenodd" d="M11.9983 4.89844L11.9999 4.89844C15.344 4.89844 18.1602 7.29265 18.6508 10.4689C20.6079 10.9187 22.0999 12.6328 22.0999 14.7264C22.0999 17.1726 20.0637 19.0984 17.6249 19.0984H6.9379C4.18915 19.0984 1.8999 16.9297 1.8999 14.1804C1.8999 11.9287 3.43847 10.0595 5.5048 9.4611C5.77249 8.4004 6.46925 7.39877 7.36141 6.62975M5.9299 9.86844C3.9199 10.3124 2.3999 12.0644 2.3999 14.1804C2.3999 16.6384 4.4499 18.5984 6.9379 18.5984H17.6249C19.8029 18.5984 21.5999 16.8814 21.5999 14.7264C21.5999 12.7634 20.1099 11.1634 18.1999 10.8934C17.9079 7.79844 15.2279 5.39844 11.9999 5.39844C10.4165 5.40349 8.88713 5.97453 7.6879 7.00844C6.7679 7.80144 6.1019 8.83344 5.9299 9.86844ZM8.79743 8.2971C7.95821 9.02078 7.5879 9.83782 7.5879 10.3844V11.3702L6.60881 11.4784C5.17182 11.6352 4.0999 12.8101 4.0999 14.1804C4.0999 15.6507 5.33824 16.8984 6.9379 16.8984H17.6249C18.9134 16.8984 19.8999 15.8949 19.8999 14.7264C19.8999 13.5558 18.9131 12.5524 17.6249 12.5524H16.5249V11.4524C16.5258 9.07908 14.5325 7.09897 12.0009 7.09844C10.8244 7.10342 9.68827 7.52855 8.79743 8.2971ZM17.0249 11.4524C17.0259 8.78844 14.7939 6.59844 11.9999 6.59844C10.7038 6.60366 9.45226 7.0718 8.4709 7.91844C7.5629 8.70144 7.0879 9.64544 7.0879 10.3844V10.9224L6.5539 10.9814C4.8769 11.1644 3.5999 12.5414 3.5999 14.1804C3.5999 15.9404 5.0759 17.3984 6.9379 17.3984H17.6249C19.1759 17.3984 20.3999 16.1844 20.3999 14.7264C20.3999 13.2664 19.1759 12.0524 17.6249 12.0524H17.0249V11.4524ZM11.9983 4.89844C10.2956 4.90387 8.65099 5.51796 7.36141 6.62975L11.9983 4.89844Z" fill="#673AB7"/>
</svg>
