<svg width="24" height="24" viewBox="0 0 24 24" fill="none" xmlns="http://www.w3.org/2000/svg">
<path fill-rule="evenodd" clip-rule="evenodd" d="M7.19067 18.0553C7.04773 18.5887 6.49939 18.9053 5.96593 18.7624C5.43246 18.6194 5.11588 18.0711 5.25882 17.5376L5.93866 15.0004H3C2.44772 15.0004 2 14.5527 2 14.0004C2 13.4481 2.44772 13.0004 3 13.0004H6.47456L7.01004 11.002H5.00002C4.44774 11.002 4.00002 10.5543 4.00002 10.002C4.00002 9.4497 4.44774 9.00198 5.00002 9.00198H7.54594L8.36465 5.94651C8.50759 5.41304 9.05593 5.09646 9.58939 5.2394C10.1229 5.38234 10.4394 5.93068 10.2965 6.46415L9.61649 9.00198H11.9955L12.8139 5.94751C12.9569 5.41404 13.5052 5.09746 14.0387 5.2404C14.5721 5.38334 14.8887 5.93168 14.7458 6.46515L13.7264 10.2693C13.5941 10.7632 13.1144 11.0711 12.6207 11.0008C12.6042 11.0016 12.5877 11.002 12.5711 11.002H9.08059L8.54511 13.0004H10C10.5523 13.0004 11 13.4481 11 14.0004C11 14.5527 10.5523 15.0004 10 15.0004H8.00921L7.19067 18.0553ZM18.0319 18.447C17.4364 18.7989 16.7418 19.0008 16 19.0008C13.7908 19.0008 12 17.2099 12 15.0008C12 12.7917 13.7908 11.0008 16 11.0008C18.2091 11.0008 20 12.7917 20 15.0008C20 15.7426 19.798 16.4372 19.4461 17.0328L21.6958 19.2824C22.0863 19.6729 22.0863 20.3061 21.6958 20.6966C21.3053 21.0871 20.6721 21.0871 20.2816 20.6966L18.0319 18.447ZM18 15.0008C18 16.1054 17.1045 17.0008 16 17.0008C14.8954 17.0008 14 16.1054 14 15.0008C14 13.8962 14.8954 13.0008 16 13.0008C17.1045 13.0008 18 13.8962 18 15.0008Z" fill="#673AB7"/>
</svg>
