<svg width="24" height="24" viewBox="0 0 24 24" fill="none" xmlns="http://www.w3.org/2000/svg">
<path d="M20.2029 15.028C20.1559 14.859 20.2589 14.625 20.3569 14.456C20.3869 14.406 20.4199 14.358 20.4559 14.311C21.2981 13.0598 21.7486 11.5862 21.7499 10.078C21.7639 5.756 18.1169 2.25 13.6069 2.25C9.67493 2.25 6.39293 4.927 5.62493 8.48C5.50974 9.00657 5.45141 9.54398 5.45093 10.083C5.45093 14.409 8.95693 18.009 13.4669 18.009C14.1839 18.009 15.1499 17.794 15.6789 17.649C16.2089 17.503 16.7339 17.311 16.8689 17.259C17.163 17.1479 17.4884 17.1529 17.7789 17.273L20.4369 18.216C20.4949 18.24 20.5569 18.256 20.6199 18.262C20.7194 18.262 20.8148 18.2225 20.8851 18.1522C20.9554 18.0818 20.9949 17.9865 20.9949 17.887C20.9915 17.8443 20.9834 17.802 20.9709 17.761L20.2029 15.028Z" stroke="#673AB7" stroke-width="2" stroke-linecap="round"/>
<path d="M3.11492 10.875C2.50033 11.9795 2.20307 13.2324 2.25602 14.4953C2.30896 15.7582 2.71004 16.9818 3.41492 18.031C3.52292 18.195 3.58492 18.321 3.56492 18.406C3.54692 18.491 3.00592 21.306 3.00592 21.306C2.99292 21.3719 2.99785 21.44 3.02019 21.5034C3.04253 21.5667 3.08146 21.6229 3.13292 21.666C3.18551 21.7076 3.24811 21.7347 3.31444 21.7445C3.38078 21.7543 3.44853 21.7466 3.51092 21.722L6.14592 20.691C6.32737 20.6193 6.52987 20.6225 6.70892 20.7C7.59692 21.046 8.57893 21.263 9.55993 21.263C10.8776 21.2641 12.1722 20.9163 13.3119 20.255" stroke="#673AB7" stroke-width="2" stroke-linecap="round"/>
</svg>
