<svg width="24" height="24" viewBox="0 0 24 24" fill="none" xmlns="http://www.w3.org/2000/svg">
<path d="M12 9.00781C16.418 9.00781 20 7.66481 20 6.00781C20 4.35081 16.418 3.00781 12 3.00781C7.582 3.00781 4 4.35081 4 6.00781C4 7.66481 7.582 9.00781 12 9.00781Z" stroke="#673AB7" stroke-width="1.5" stroke-linecap="round" stroke-linejoin="round"/>
<path d="M4 6.00781V12.0078C4 12.8038 4.843 13.5668 6.343 14.1288C7.843 14.6918 9.878 15.0078 12 15.0078C14.122 15.0078 16.157 14.6918 17.657 14.1288C19.157 13.5678 20 12.8038 20 12.0078V6.00781" stroke="#673AB7" stroke-width="1.5" stroke-linecap="round" stroke-linejoin="round"/>
<path d="M4 12.0078V18.0078C4 18.8038 4.843 19.5668 6.343 20.1288C7.843 20.6918 9.878 21.0078 12 21.0078C14.122 21.0078 16.157 20.6918 17.657 20.1288C19.157 19.5678 20 18.8038 20 18.0078V12.0078" stroke="#673AB7" stroke-width="1.5" stroke-linecap="round" stroke-linejoin="round"/>
</svg>
