<svg width="24" height="24" viewBox="0 0 24 24" fill="none" xmlns="http://www.w3.org/2000/svg">
<mask id="path-1-outside-1_1206_412276" maskUnits="userSpaceOnUse" x="2.24707" y="1.24805" width="19" height="21" fill="black">
<rect fill="white" x="2.24707" y="1.24805" width="19" height="21"/>
<path fill-rule="evenodd" clip-rule="evenodd" d="M17.7521 2.24805V4.24805H18.9996C19.9629 4.24805 20.7521 5.03724 20.7521 6.00055V20.0005C20.7521 20.9639 19.9629 21.753 18.9996 21.753H4.99957C4.02707 21.753 3.24707 20.9647 3.24707 20.0005L3.25707 6.00055C3.25707 5.0348 4.02868 4.24805 4.99957 4.24805H6.24707V2.24805H7.75207V4.24805H16.2471V2.24805H17.7521ZM4.75207 8.24805H19.2471V5.75305H4.75207V8.24805ZM4.75207 20.248H19.2471V9.75305H4.75207V20.248ZM8.75207 11.248V12.753H7.24707V11.248H8.75207ZM16.7521 12.753H15.2471V11.248H16.7521V12.753ZM11.2471 11.248H12.7521V12.753H11.2471V11.248Z"/>
</mask>
<path fill-rule="evenodd" clip-rule="evenodd" d="M17.7521 2.24805V4.24805H18.9996C19.9629 4.24805 20.7521 5.03724 20.7521 6.00055V20.0005C20.7521 20.9639 19.9629 21.753 18.9996 21.753H4.99957C4.02707 21.753 3.24707 20.9647 3.24707 20.0005L3.25707 6.00055C3.25707 5.0348 4.02868 4.24805 4.99957 4.24805H6.24707V2.24805H7.75207V4.24805H16.2471V2.24805H17.7521ZM4.75207 8.24805H19.2471V5.75305H4.75207V8.24805ZM4.75207 20.248H19.2471V9.75305H4.75207V20.248ZM8.75207 11.248V12.753H7.24707V11.248H8.75207ZM16.7521 12.753H15.2471V11.248H16.7521V12.753ZM11.2471 11.248H12.7521V12.753H11.2471V11.248Z" fill="#673AB7"/>
<path d="M17.7521 4.24805H17.4521V4.54805H17.7521V4.24805ZM17.7521 2.24805H18.0521V1.94805H17.7521V2.24805ZM3.24707 20.0005L2.94707 20.0003V20.0005H3.24707ZM3.25707 6.00055L3.55707 6.00076V6.00055H3.25707ZM6.24707 4.24805V4.54805H6.54707V4.24805H6.24707ZM6.24707 2.24805V1.94805H5.94707V2.24805H6.24707ZM7.75207 2.24805H8.05207V1.94805H7.75207V2.24805ZM7.75207 4.24805H7.45207V4.54805H7.75207V4.24805ZM16.2471 4.24805V4.54805H16.5471V4.24805H16.2471ZM16.2471 2.24805V1.94805H15.9471V2.24805H16.2471ZM19.2471 8.24805V8.54805H19.5471V8.24805H19.2471ZM4.75207 8.24805H4.45207V8.54805H4.75207V8.24805ZM19.2471 5.75305H19.5471V5.45305H19.2471V5.75305ZM4.75207 5.75305V5.45305H4.45207V5.75305H4.75207ZM19.2471 20.248V20.548H19.5471V20.248H19.2471ZM4.75207 20.248H4.45207V20.548H4.75207V20.248ZM19.2471 9.75305H19.5471V9.45305H19.2471V9.75305ZM4.75207 9.75305V9.45305H4.45207V9.75305H4.75207ZM8.75207 12.753V13.053H9.05207V12.753H8.75207ZM8.75207 11.248H9.05207V10.948H8.75207V11.248ZM7.24707 12.753H6.94707V13.053H7.24707V12.753ZM7.24707 11.248V10.948H6.94707V11.248H7.24707ZM15.2471 12.753H14.9471V13.053H15.2471V12.753ZM16.7521 12.753V13.053H17.0521V12.753H16.7521ZM15.2471 11.248V10.948H14.9471V11.248H15.2471ZM16.7521 11.248H17.0521V10.948H16.7521V11.248ZM12.7521 11.248H13.0521V10.948H12.7521V11.248ZM11.2471 11.248V10.948H10.9471V11.248H11.2471ZM12.7521 12.753V13.053H13.0521V12.753H12.7521ZM11.2471 12.753H10.9471V13.053H11.2471V12.753ZM18.0521 4.24805V2.24805H17.4521V4.24805H18.0521ZM18.9996 3.94805H17.7521V4.54805H18.9996V3.94805ZM21.0521 6.00055C21.0521 4.87155 20.1286 3.94805 18.9996 3.94805V4.54805C19.7972 4.54805 20.4521 5.20292 20.4521 6.00055H21.0521ZM21.0521 20.0005V6.00055H20.4521V20.0005H21.0521ZM18.9996 22.053C20.1286 22.053 21.0521 21.1295 21.0521 20.0005H20.4521C20.4521 20.7982 19.7972 21.453 18.9996 21.453V22.053ZM4.99957 22.053H18.9996V21.453H4.99957V22.053ZM2.94707 20.0005C2.94707 21.1294 3.86045 22.053 4.99957 22.053V21.453C4.19369 21.453 3.54707 20.7999 3.54707 20.0005H2.94707ZM2.95707 6.00033L2.94707 20.0003L3.54707 20.0008L3.55707 6.00076L2.95707 6.00033ZM4.99957 3.94805C3.86019 3.94805 2.95707 4.87194 2.95707 6.00055H3.55707C3.55707 5.19767 4.19717 4.54805 4.99957 4.54805V3.94805ZM6.24707 3.94805H4.99957V4.54805H6.24707V3.94805ZM5.94707 2.24805V4.24805H6.54707V2.24805H5.94707ZM7.75207 1.94805H6.24707V2.54805H7.75207V1.94805ZM8.05207 4.24805V2.24805H7.45207V4.24805H8.05207ZM16.2471 3.94805H7.75207V4.54805H16.2471V3.94805ZM15.9471 2.24805V4.24805H16.5471V2.24805H15.9471ZM17.7521 1.94805H16.2471V2.54805H17.7521V1.94805ZM19.2471 7.94805H4.75207V8.54805H19.2471V7.94805ZM18.9471 5.75305V8.24805H19.5471V5.75305H18.9471ZM4.75207 6.05305H19.2471V5.45305H4.75207V6.05305ZM5.05207 8.24805V5.75305H4.45207V8.24805H5.05207ZM19.2471 19.948H4.75207V20.548H19.2471V19.948ZM18.9471 9.75305V20.248H19.5471V9.75305H18.9471ZM4.75207 10.053H19.2471V9.45305H4.75207V10.053ZM5.05207 20.248V9.75305H4.45207V20.248H5.05207ZM9.05207 12.753V11.248H8.45207V12.753H9.05207ZM7.24707 13.053H8.75207V12.453H7.24707V13.053ZM6.94707 11.248V12.753H7.54707V11.248H6.94707ZM8.75207 10.948H7.24707V11.548H8.75207V10.948ZM15.2471 13.053H16.7521V12.453H15.2471V13.053ZM14.9471 11.248V12.753H15.5471V11.248H14.9471ZM16.7521 10.948H15.2471V11.548H16.7521V10.948ZM17.0521 12.753V11.248H16.4521V12.753H17.0521ZM12.7521 10.948H11.2471V11.548H12.7521V10.948ZM13.0521 12.753V11.248H12.4521V12.753H13.0521ZM11.2471 13.053H12.7521V12.453H11.2471V13.053ZM10.9471 11.248V12.753H11.5471V11.248H10.9471Z" fill="#673AB7" mask="url(#path-1-outside-1_1206_412276)"/>
</svg>
