<svg width="24" height="24" viewBox="0 0 24 24" fill="none" xmlns="http://www.w3.org/2000/svg">
<path fill-rule="evenodd" clip-rule="evenodd" d="M2.00977 8C2.00977 6.9 2.89977 6 3.99977 6H15.9998C17.0998 6 17.9998 6.9 17.9998 8L18 17C18 18.1 17.1 19 16 19H6L2 23L2.00977 8ZM16 8H4V18.17L5.17 17H16V8ZM6.0013 13H11.0013V15H6.0013V13ZM14.0013 10H6.0013V12H14.0013V10Z" fill="#673AB7"/>
<path fill-rule="evenodd" clip-rule="evenodd" d="M20.0002 1.99994C21.1002 1.99994 21.9902 2.89994 21.9902 3.99994L22 18.9999L18 14.9999L18 12.9999H18.83L20 14.1699V3.99994H8V5.99994H6.00019L6.00024 3.99994C6.00024 2.89994 6.90024 1.99994 8.00024 1.99994H20.0002Z" fill="#673AB7"/>
</svg>
