<svg width="24" height="24" viewBox="0 0 24 24" fill="none" xmlns="http://www.w3.org/2000/svg">
<path d="M20.0469 16.473C18.8429 15 17.9939 14.25 17.9939 10.188C17.9939 6.468 16.0939 5.144 14.5309 4.5C14.4229 4.45479 14.3255 4.38735 14.2452 4.30207C14.165 4.21679 14.1035 4.11558 14.0649 4.005C13.7899 3.072 13.0219 2.25 11.9999 2.25C10.9779 2.25 10.2089 3.073 9.9369 4.006C9.89861 4.11663 9.83728 4.21788 9.75695 4.30304C9.67661 4.3882 9.57911 4.45533 9.4709 4.5C7.9059 5.145 6.0079 6.465 6.0079 10.188C6.0059 14.25 5.1559 15 3.9519 16.473C3.4529 17.083 3.8899 18 4.7619 18H19.2419C20.1089 18 20.5429 17.08 20.0469 16.473Z" stroke="#673AB7" stroke-width="2" stroke-linecap="round" stroke-linejoin="round"/>
<path d="M15 18V18.75C15 19.5456 14.6839 20.3087 14.1213 20.8713C13.5587 21.4339 12.7956 21.75 12 21.75C11.2044 21.75 10.4413 21.4339 9.87868 20.8713C9.31607 20.3087 9 19.5456 9 18.75V18" stroke="#673AB7" stroke-width="2" stroke-linecap="round" stroke-linejoin="round"/>
<path fill-rule="evenodd" clip-rule="evenodd" d="M9 7H14.9996V9L11.4037 13H15V15H9V13L12.1315 9H9V7Z" fill="#673AB7"/>
</svg>
