<svg width="24" height="24" viewBox="0 0 24 24" fill="none" xmlns="http://www.w3.org/2000/svg">
<path fill-rule="evenodd" clip-rule="evenodd" d="M6.00779 2.00049H14.0077L20.0076 8.00042V11.0216C19.4024 10.6342 18.7286 10.3444 18.0086 10.1744V9.00056H13.0087V4.00061H6.00875V20.0004H11.0306C11.5462 20.8056 12.2344 21.4897 13.043 22.0003H5.99779C4.8978 22.0003 4.00781 21.1003 4.00781 20.0003L4.01781 4.00047C4.01781 2.90048 4.9078 2.00049 6.00779 2.00049ZM18.0323 19.446C17.4368 19.7979 16.7421 19.9999 16.0003 19.9999C13.7912 19.9999 12.0003 18.209 12.0003 15.9999C12.0003 13.7908 13.7912 11.9999 16.0003 11.9999C18.2094 11.9999 20.0003 13.7908 20.0003 15.9999C20.0003 16.7417 19.7983 17.4363 19.4465 18.0318L21.6961 20.2814C22.0866 20.672 22.0866 21.3051 21.6961 21.6956C21.3056 22.0862 20.6724 22.0862 20.2819 21.6956L18.0323 19.446ZM18.0003 15.9999C18.0003 17.1045 17.1049 17.9999 16.0003 17.9999C14.8957 17.9999 14.0003 17.1045 14.0003 15.9999C14.0003 14.8953 14.8957 13.9999 16.0003 13.9999C17.1049 13.9999 18.0003 14.8953 18.0003 15.9999Z" fill="#673AB7"/>
</svg>
