<svg width="24" height="24" viewBox="0 0 24 24" fill="none" xmlns="http://www.w3.org/2000/svg">
<path d="M12 21.0078C13.1819 21.0078 14.3522 20.775 15.4442 20.3227C16.5361 19.8704 17.5282 19.2075 18.364 18.3718C19.1997 17.536 19.8626 16.5439 20.3149 15.452C20.7672 14.36 21 13.1897 21 12.0078C21 10.8259 20.7672 9.65559 20.3149 8.56366C19.8626 7.47173 19.1997 6.47958 18.364 5.64385C17.5282 4.80812 16.5361 4.14519 15.4442 3.6929C14.3522 3.2406 13.1819 3.00781 12 3.00781C9.61305 3.00781 7.32387 3.95602 5.63604 5.64385C3.94821 7.33168 3 9.62086 3 12.0078C3 14.3948 3.94821 16.6839 5.63604 18.3718C7.32387 20.0596 9.61305 21.0078 12 21.0078Z" stroke="#673AB7" stroke-width="1.5" stroke-linecap="round" stroke-linejoin="round"/>
<path d="M12 13.0078C12.7956 13.0078 13.5587 12.6917 14.1213 12.1291C14.6839 11.5665 15 10.8035 15 10.0078C15 9.21216 14.6839 8.4491 14.1213 7.88649C13.5587 7.32388 12.7956 7.00781 12 7.00781C11.2044 7.00781 10.4413 7.32388 9.87868 7.88649C9.31607 8.4491 9 9.21216 9 10.0078C9 10.8035 9.31607 11.5665 9.87868 12.1291C10.4413 12.6917 11.2044 13.0078 12 13.0078Z" stroke="#673AB7" stroke-width="1.5" stroke-linecap="round" stroke-linejoin="round"/>
<path d="M6.16797 18.8568C6.41548 18.033 6.92194 17.311 7.61222 16.7978C8.30249 16.2846 9.13982 16.0076 9.99997 16.0078H14C14.8612 16.0075 15.6996 16.2852 16.3904 16.7996C17.0811 17.314 17.5874 18.0376 17.834 18.8628" stroke="#673AB7" stroke-width="1.5" stroke-linecap="round" stroke-linejoin="round"/>
</svg>
