<svg width="40" height="40" viewBox="0 0 40 40" fill="none" xmlns="http://www.w3.org/2000/svg">
<g id="satification-score-icon">
<path id="Vector" d="M36.6649 14.77C36.6707 17.3346 35.6827 19.8017 33.9083 21.6533C29.84 25.8717 25.8933 30.27 21.6749 34.3333C20.7066 35.25 19.1716 35.2167 18.2466 34.2583L6.08828 21.655C2.41328 17.845 2.41328 11.695 6.08828 7.88667C6.95685 6.975 8.00151 6.2492 9.15893 5.75329C10.3164 5.25737 11.5624 5.00167 12.8216 5.00167C14.0808 5.00167 15.3269 5.25737 16.4843 5.75329C17.6417 6.2492 18.6864 6.975 19.5549 7.88667L19.9983 8.34333L20.4399 7.88667C21.3103 6.97716 22.3552 6.25269 23.5122 5.75667C24.6692 5.26065 25.9144 5.00329 27.1733 5C29.7066 5 32.1283 6.04 33.9066 7.88667C35.6816 9.73807 36.6702 12.2052 36.6649 14.77Z" stroke="#673AB7" stroke-width="2.33333" stroke-linejoin="round"/>
</g>
</svg>
