<svg width="24" height="24" viewBox="0 0 24 24" fill="none" xmlns="http://www.w3.org/2000/svg">
    <path d="M15.4986 7.50098L18.9986 4.00098M20.9986 2.00098L18.9986 4.00098L20.9986 2.00098ZM11.3886 11.611C11.9049 12.1204 12.3154 12.727 12.5963 13.3958C12.8773 14.0645 13.0232 14.7822 13.0256 15.5076C13.028 16.233 12.8869 16.9517 12.6105 17.6223C12.334 18.2929 11.9276 18.9022 11.4147 19.4151C10.9018 19.928 10.2925 20.3344 9.62187 20.6109C8.95125 20.8874 8.23257 21.0284 7.5072 21.026C6.78183 21.0236 6.06411 20.8777 5.39536 20.5967C4.7266 20.3158 4.12003 19.9053 3.61057 19.389C2.6087 18.3517 2.05433 16.9624 2.06686 15.5203C2.07939 14.0782 2.65782 12.6987 3.67756 11.679C4.69731 10.6592 6.07678 10.0808 7.51886 10.0683C8.96094 10.0557 10.3503 10.6101 11.3876 11.612L11.3886 11.611ZM11.3886 11.611L15.4986 7.50098L11.3886 11.611ZM15.4986 7.50098L18.4986 10.501L21.9986 7.00098L18.9986 4.00098L15.4986 7.50098Z" stroke="#673AB7" stroke-width="1.92" stroke-linecap="round" stroke-linejoin="round"/>
</svg>