<svg width="17" height="16" viewBox="0 0 17 16" fill="none" xmlns="http://www.w3.org/2000/svg">
<g id="Frame">
<path id="Vector" d="M11.482 13.3337H3.23398C3.1279 13.3337 3.02616 13.2915 2.95114 13.2165C2.87613 13.1415 2.83398 13.0398 2.83398 12.9337V6.40035C2.83398 6.29426 2.87613 6.19252 2.95114 6.1175C3.02616 6.04249 3.1279 6.00035 3.23398 6.00035H5.07932C5.30963 6.00028 5.536 5.94056 5.73637 5.82699C5.93673 5.71343 6.10427 5.54991 6.22265 5.35235L8.02932 2.34101C8.16558 2.11358 8.38023 1.94377 8.63292 1.86351C8.88561 1.78326 9.15891 1.79809 9.40143 1.90522C9.64394 2.01235 9.83896 2.2044 9.94981 2.44524C10.0606 2.68608 10.0797 2.95912 10.0033 3.21301L9.32198 5.48501C9.30413 5.54469 9.30046 5.6077 9.31126 5.66905C9.32206 5.73039 9.34704 5.78836 9.3842 5.83835C9.42137 5.88833 9.46969 5.92895 9.52532 5.95695C9.58096 5.98496 9.64236 5.99959 9.70465 5.99968H12.7547C12.9597 5.99964 13.162 6.04688 13.3458 6.13773C13.5296 6.22858 13.6899 6.3606 13.8144 6.52351C13.9389 6.68643 14.0241 6.87586 14.0635 7.07707C14.1028 7.27829 14.0952 7.48587 14.0413 7.68368L12.768 12.3503C12.6912 12.6325 12.5238 12.8816 12.2916 13.0593C12.0593 13.237 11.7744 13.3334 11.482 13.3337Z" stroke="#673AB7" stroke-width="1.4" stroke-linecap="round" stroke-linejoin="round"/>
<path id="Vector_2" d="M5.16602 13.3333V6" stroke="#673AB7" stroke-width="1.4" stroke-linecap="round" stroke-linejoin="round"/>
</g>
</svg>
