<svg width="24" height="24" viewBox="0 0 24 24" fill="none" xmlns="http://www.w3.org/2000/svg">
<g id="Direct messages">
<path id="icon/communication/chat_bubble_outline_24px" fill-rule="evenodd" clip-rule="evenodd" d="M4 2H20C21.1 2 22 2.9 22 4V16C22 17.1 21.1 18 20 18H6L2 22V4C2 2.9 2.9 2 4 2ZM5 16H20V4H4V17L5 16Z" fill="#673AB7"/>
<path id="Path" d="M12 11C13.65 11 15 9.65 15 8C15 6.35 13.65 5 12 5C10.35 5 9 6.35 9 8C9 9.65 10.35 11 12 11Z" fill="#673AB7"/>
<path id="Path_2" d="M18 15C18 13 15 12.01 12 12.01C9 12.01 6 13 6 15H18Z" fill="#673AB7"/>
</g>
</svg>
