<svg width="24" height="24" viewBox="0 0 24 24" fill="none" xmlns="http://www.w3.org/2000/svg">
<path d="M15 5C15 4.20435 14.6839 3.44129 14.1213 2.87868C13.5587 2.31607 12.7956 2 12 2C11.2044 2 10.4413 2.31607 9.87868 2.87868C9.31607 3.44129 9 4.20435 9 5V11C9 11.7956 9.31607 12.5587 9.87868 13.1213C10.4413 13.6839 11.2044 14 12 14C12.7956 14 13.5587 13.6839 14.1213 13.1213C14.6839 12.5587 15 11.7956 15 11V5Z" stroke="#673AB7" stroke-width="2" stroke-linecap="round" stroke-linejoin="round"/>
<path d="M5 10V11C5 11.9193 5.18106 12.8295 5.53284 13.6788C5.88463 14.5281 6.40024 15.2997 7.05025 15.9497C7.70026 16.5998 8.47194 17.1154 9.32122 17.4672C10.1705 17.8189 11.0807 18 12 18C12.9193 18 13.8295 17.8189 14.6788 17.4672C15.5281 17.1154 16.2997 16.5998 16.9497 15.9497C17.5998 15.2997 18.1154 14.5281 18.4672 13.6788C18.8189 12.8295 19 11.9193 19 11V10" stroke="#673AB7" stroke-width="2" stroke-linecap="round" stroke-linejoin="round"/>
<path d="M12 22H15M12 22V18M12 22H9" stroke="#673AB7" stroke-width="2" stroke-linecap="round" stroke-linejoin="round"/>
</svg>
