<svg width="24" height="24" viewBox="0 0 24 24" fill="none" xmlns="http://www.w3.org/2000/svg">
<g id="mic_24px">
<path id="icon/av/mic_24px" fill-rule="evenodd" clip-rule="evenodd" d="M14.999 11.4999C14.999 13.1599 13.659 14.4999 11.999 14.4999C10.339 14.4999 8.99902 13.1599 8.99902 11.4999V5.49988C8.99902 3.83988 10.339 2.49988 11.999 2.49988C13.659 2.49988 14.999 3.83988 14.999 5.49988V11.4999ZM12 16.4999C14.76 16.4999 17 14.2599 17 11.4999H19C19 15.0299 16.39 17.9299 13 18.4199V21.4999H11V18.4199C7.61 17.9299 5 15.0299 5 11.4999H7C7 14.2599 9.24 16.4999 12 16.4999Z" fill="#673AB7"/>
</g>
</svg>
