<svg width="24" height="24" viewBox="0 0 24 24" fill="none" xmlns="http://www.w3.org/2000/svg">
<path d="M16 4H8C7.73478 4 7.48043 4.10536 7.29289 4.29289C7.10536 4.48043 7 4.73478 7 5V19C7 19.2652 7.10536 19.5196 7.29289 19.7071C7.48043 19.8946 7.73478 20 8 20H16C16.2652 20 16.5196 19.8946 16.7071 19.7071C16.8946 19.5196 17 19.2652 17 19V5C17 4.73478 16.8946 4.48043 16.7071 4.29289C16.5196 4.10536 16.2652 4 16 4Z" stroke="#673AB7" stroke-width="2" stroke-linecap="round" stroke-linejoin="round"/>
<path d="M11 5H13" stroke="#673AB7" stroke-width="2" stroke-linecap="round" stroke-linejoin="round"/>
<path d="M12 17V17.01" stroke="#673AB7" stroke-width="2" stroke-linecap="round" stroke-linejoin="round"/>
</svg>
