<svg width="24" height="24" viewBox="0 0 24 24" fill="none" xmlns="http://www.w3.org/2000/svg">
<path d="M12 16C13.0609 16 14.0783 15.5786 14.8284 14.8284C15.5786 14.0783 16 13.0609 16 12C16 10.9391 15.5786 9.92172 14.8284 9.17157C14.0783 8.42143 13.0609 8 12 8C10.9391 8 9.92172 8.42143 9.17157 9.17157C8.42143 9.92172 8 10.9391 8 12C8 13.0609 8.42143 14.0783 9.17157 14.8284C9.92172 15.5786 10.9391 16 12 16Z" stroke="#673AB7" stroke-width="2" stroke-linecap="round" stroke-linejoin="round"/>
<path d="M16 12.0038V13.5038C16 14.1668 16.2634 14.8027 16.7322 15.2715C17.2011 15.7404 17.837 16.0038 18.5 16.0038C19.163 16.0038 19.7989 15.7404 20.2678 15.2715C20.7366 14.8027 21 14.1668 21 13.5038V12.0038C21.0025 10.0699 20.382 8.18659 19.2304 6.63295C18.0788 5.0793 16.4574 3.93791 14.6064 3.37785C12.7554 2.8178 10.7732 2.86888 8.95343 3.52352C7.13371 4.17815 5.57324 5.40154 4.50321 7.01243C3.43317 8.62332 2.91047 10.536 3.01255 12.4672C3.11463 14.3984 3.83605 16.2454 5.06995 17.7345C6.30385 19.2236 7.98459 20.2757 9.86319 20.7348C11.7418 21.194 13.7183 21.0358 15.5 20.2838" stroke="#673AB7" stroke-width="2" stroke-linecap="round" stroke-linejoin="round"/>
</svg>
