<svg width="25" height="24" viewBox="0 0 25 24" fill="none" xmlns="http://www.w3.org/2000/svg">
<path d="M6.52295 9.59375C6.5113 9.79287 6.50563 9.99229 6.50595 10.1918C6.50595 14.2538 5.65595 15.0037 4.45195 16.4767C3.95395 17.0867 4.38995 18.0037 5.26195 18.0037H15.4999" stroke="#673AB7" stroke-width="2" stroke-linecap="round" stroke-linejoin="round"/>
<path d="M19.93 15.717C19.063 14.618 18.494 13.512 18.494 10.186C18.494 6.469 16.595 5.144 15.031 4.5C14.923 4.45479 14.8256 4.38735 14.7453 4.30207C14.6651 4.21679 14.6036 4.11558 14.565 4.005C14.29 3.072 13.523 2.25 12.5 2.25C11.477 2.25 10.71 3.073 10.437 4.006C10.3987 4.11692 10.3371 4.21837 10.2564 4.30357C10.1757 4.38876 10.0777 4.45573 9.969 4.5C9.679 4.618 9.397 4.756 9.125 4.912" stroke="#673AB7" stroke-width="2" stroke-linecap="round" stroke-linejoin="round"/>
<path d="M15.5 18V18.75C15.5 19.5456 15.1839 20.3087 14.6213 20.8713C14.0587 21.4339 13.2956 21.75 12.5 21.75C11.7044 21.75 10.9413 21.4339 10.3787 20.8713C9.81607 20.3087 9.5 19.5456 9.5 18.75V18" stroke="#673AB7" stroke-width="2" stroke-linecap="round" stroke-linejoin="round"/>
<path d="M21.5 21L3.5 3" stroke="#673AB7" stroke-width="2" stroke-linecap="round" stroke-linejoin="round"/>
</svg>
