<svg width="24" height="24" viewBox="0 0 24 24" fill="none" xmlns="http://www.w3.org/2000/svg">
<path d="M10 6H7C6.46957 6 5.96086 6.21071 5.58579 6.58579C5.21071 6.96086 5 7.46957 5 8V17C5 17.5304 5.21071 18.0391 5.58579 18.4142C5.96086 18.7893 6.46957 19 7 19H16C16.5304 19 17.0391 18.7893 17.4142 18.4142C17.7893 18.0391 18 17.5304 18 17V14" stroke="#673AB7" stroke-width="1.5" stroke-linecap="round" stroke-linejoin="round"/>
<path d="M17 10C17.394 10 17.7841 9.9224 18.1481 9.77164C18.512 9.62087 18.8427 9.3999 19.1213 9.12132C19.3999 8.84274 19.6209 8.51203 19.7716 8.14805C19.9224 7.78407 20 7.39397 20 7C20 6.60603 19.9224 6.21593 19.7716 5.85195C19.6209 5.48797 19.3999 5.15726 19.1213 4.87868C18.8427 4.6001 18.512 4.37913 18.1481 4.22836C17.7841 4.0776 17.394 4 17 4C16.2044 4 15.4413 4.31607 14.8787 4.87868C14.3161 5.44129 14 6.20435 14 7C14 7.79565 14.3161 8.55871 14.8787 9.12132C15.4413 9.68393 16.2044 10 17 10Z" stroke="#673AB7" stroke-width="1.5" stroke-linecap="round" stroke-linejoin="round"/>
</svg>
