<svg width="24" height="24" viewBox="0 0 24 24" fill="none" xmlns="http://www.w3.org/2000/svg">
<path d="M8 19.0078C9.06087 19.0078 10.0783 18.5864 10.8284 17.8362C11.5786 17.0861 12 16.0687 12 15.0078C12 13.9469 11.5786 12.9295 10.8284 12.1794C10.0783 11.4292 9.06087 11.0078 8 11.0078C6.93913 11.0078 5.92172 11.4292 5.17157 12.1794C4.42143 12.9295 4 13.9469 4 15.0078C4 16.0687 4.42143 17.0861 5.17157 17.8362C5.92172 18.5864 6.93913 19.0078 8 19.0078Z" stroke="#673AB7" stroke-width="1.5" stroke-linecap="round" stroke-linejoin="round"/>
<path d="M10.8477 12.1578L18.9977 4.00781" stroke="#673AB7" stroke-width="1.5" stroke-linecap="round" stroke-linejoin="round"/>
<path d="M18 5.00781L20 7.00781" stroke="#673AB7" stroke-width="1.5" stroke-linecap="round" stroke-linejoin="round"/>
<path d="M15 8.00781L17 10.0078" stroke="#673AB7" stroke-width="1.5" stroke-linecap="round" stroke-linejoin="round"/>
</svg>
