<svg width="24" height="24" viewBox="0 0 24 24" fill="none" xmlns="http://www.w3.org/2000/svg">
    <path d="M15.0465 4.99902C16.0233 5.18959 16.9209 5.66728 17.6246 6.37096C18.3283 7.07464 18.806 7.97229 18.9965 8.94902M15.0465 0.999023C17.0758 1.22446 18.9681 2.1332 20.4128 3.57603C21.8574 5.01886 22.7685 6.91003 22.9965 8.93902M21.9965 16.919V19.919C21.9977 20.1975 21.9406 20.4732 21.829 20.7284C21.7175 20.9835 21.5538 21.2126 21.3486 21.4009C21.1434 21.5892 20.9011 21.7325 20.6373 21.8217C20.3734 21.911 20.0939 21.9441 19.8165 21.919C16.7394 21.5847 13.7835 20.5332 11.1865 18.849C8.77034 17.3137 6.72185 15.2652 5.18652 12.849C3.49649 10.2402 2.44476 7.27002 2.11652 4.17902C2.09153 3.90249 2.12439 3.62378 2.21302 3.36065C2.30164 3.09751 2.44409 2.85571 2.63128 2.65064C2.81848 2.44558 3.04632 2.28173 3.30031 2.16955C3.55429 2.05736 3.82886 1.99928 4.10652 1.99902H7.10652C7.59182 1.99425 8.06231 2.1661 8.43028 2.48256C8.79825 2.79901 9.03859 3.23847 9.10652 3.71902C9.23314 4.67909 9.46797 5.62175 9.80652 6.52902C9.94106 6.88695 9.97018 7.27594 9.89042 7.6499C9.81067 8.02387 9.62538 8.36713 9.35652 8.63902L8.08652 9.90902C9.51007 12.4126 11.583 14.4855 14.0865 15.909L15.3565 14.639C15.6284 14.3702 15.9717 14.1849 16.3456 14.1051C16.7196 14.0254 17.1086 14.0545 17.4665 14.189C18.3738 14.5276 19.3165 14.7624 20.2765 14.889C20.7623 14.9576 21.2059 15.2022 21.5231 15.5765C21.8402 15.9508 22.0087 16.4286 21.9965 16.919Z" stroke="#6F38BA" stroke-width="1.92" stroke-linecap="round" stroke-linejoin="round"/>
</svg>