<svg width="24" height="24" viewBox="0 0 24 24" fill="none" xmlns="http://www.w3.org/2000/svg">
<g clip-path="url(#clip0_5265_176216)">
<path fill-rule="evenodd" clip-rule="evenodd" d="M9.99805 12C12.208 12 13.998 10.21 13.998 8C13.998 5.79 12.208 4 9.99805 4C7.78805 4 5.99805 5.79 5.99805 8C5.99805 10.21 7.78805 12 9.99805 12ZM9.99805 6C11.098 6 11.998 6.9 11.998 8C11.998 9.1 11.098 10 9.99805 10C8.89805 10 7.99805 9.1 7.99805 8C7.99805 6.9 8.89805 6 9.99805 6ZM3.99805 18V17.35C3.99805 17.01 4.15805 16.69 4.40805 16.54C6.09805 15.53 8.02805 15 9.99805 15C10.028 15 10.048 15 10.078 15.01C10.178 14.31 10.378 13.64 10.668 13.03C10.448 13.01 10.228 13 9.99805 13C7.57805 13 5.31805 13.67 3.38805 14.82C2.50805 15.34 1.99805 16.32 1.99805 17.35V20H11.258C10.838 19.4 10.508 18.72 10.288 18H3.99805ZM17.9941 11V15.0023L21.998 15.0023V16.9961H17.9941V21H16.0004V16.9961L11.998 16.9961V15.0023L16.0004 15.0023V11H17.9941Z" fill="#673AB7"/>
</g>
<defs>
<clipPath id="clip0_5265_176216">
<rect width="24" height="24" fill="white"/>
</clipPath>
</defs>
</svg>
