<svg width="24" height="24" viewBox="0 0 24 24" fill="none" xmlns="http://www.w3.org/2000/svg">
<path d="M4 8.00781V6.00781C4 5.47738 4.21071 4.96867 4.58579 4.5936C4.96086 4.21853 5.46957 4.00781 6 4.00781H8" stroke="#673AB7" stroke-width="1.5" stroke-linecap="round" stroke-linejoin="round"/>
<path d="M4 16.0078V18.0078C4 18.5382 4.21071 19.047 4.58579 19.422C4.96086 19.7971 5.46957 20.0078 6 20.0078H8" stroke="#673AB7" stroke-width="1.5" stroke-linecap="round" stroke-linejoin="round"/>
<path d="M16 4.00781H18C18.5304 4.00781 19.0391 4.21853 19.4142 4.5936C19.7893 4.96867 20 5.47738 20 6.00781V8.00781" stroke="#673AB7" stroke-width="1.5" stroke-linecap="round" stroke-linejoin="round"/>
<path d="M16 20.0078H18C18.5304 20.0078 19.0391 19.7971 19.4142 19.422C19.7893 19.047 20 18.5382 20 18.0078V16.0078" stroke="#673AB7" stroke-width="1.5" stroke-linecap="round" stroke-linejoin="round"/>
<path d="M15 11.0078H9C8.73478 11.0078 8.48043 11.1132 8.29289 11.3007C8.10536 11.4882 8 11.7426 8 12.0078V15.0078C8 15.273 8.10536 15.5274 8.29289 15.7149C8.48043 15.9025 8.73478 16.0078 9 16.0078H15C15.2652 16.0078 15.5196 15.9025 15.7071 15.7149C15.8946 15.5274 16 15.273 16 15.0078V12.0078C16 11.7426 15.8946 11.4882 15.7071 11.3007C15.5196 11.1132 15.2652 11.0078 15 11.0078Z" stroke="#673AB7" stroke-width="1.5" stroke-linecap="round" stroke-linejoin="round"/>
<path d="M10 11.0078V9.00781C10 8.47738 10.2107 7.96867 10.5858 7.5936C10.9609 7.21853 11.4696 7.00781 12 7.00781C12.5304 7.00781 13.0391 7.21853 13.4142 7.5936C13.7893 7.96867 14 8.47738 14 9.00781V11.0078" stroke="#673AB7" stroke-width="1.5" stroke-linecap="round" stroke-linejoin="round"/>
</svg>
