<svg width="40" height="40" viewBox="0 0 40 40" fill="none" xmlns="http://www.w3.org/2000/svg">
<g id="response-time-icon">
<path id="Vector" d="M11.668 15L20.0013 20.8333L28.3346 15" stroke="#673AB7" stroke-width="2.33333" stroke-linecap="round" stroke-linejoin="round"/>
<path id="Vector_2" d="M3.33203 28.3335V11.6668C3.33203 10.7828 3.68322 9.93493 4.30834 9.30981C4.93346 8.68469 5.78131 8.3335 6.66536 8.3335H33.332C34.2161 8.3335 35.0639 8.68469 35.6891 9.30981C36.3142 9.93493 36.6654 10.7828 36.6654 11.6668V28.3335C36.6654 29.2176 36.3142 30.0654 35.6891 30.6905C35.0639 31.3156 34.2161 31.6668 33.332 31.6668H6.66536C5.78131 31.6668 4.93346 31.3156 4.30834 30.6905C3.68322 30.0654 3.33203 29.2176 3.33203 28.3335Z" stroke="#673AB7" stroke-width="2.33333" stroke-linecap="round" stroke-linejoin="round"/>
</g>
</svg>
