<svg width="24" height="24" viewBox="0 0 24 24" fill="none" xmlns="http://www.w3.org/2000/svg">
<path d="M9 12L11 14L15 10" stroke="#673AB7" stroke-width="2" stroke-linecap="round" stroke-linejoin="round"/>
<path d="M12.0008 3C14.3366 5.06658 17.3853 6.14257 20.5008 6C20.9543 7.54302 21.0929 9.16143 20.9086 10.7591C20.7243 12.3568 20.2207 13.9011 19.4278 15.3003C18.6349 16.6995 17.5689 17.9251 16.293 18.9043C15.0172 19.8834 13.5575 20.5961 12.0008 21C10.444 20.5962 8.98429 19.8836 7.70836 18.9045C6.43242 17.9254 5.36632 16.6998 4.57341 15.3005C3.78049 13.9013 3.27694 12.3569 3.09269 10.7592C2.90843 9.16147 3.04722 7.54302 3.50081 6C6.61634 6.14257 9.66498 5.06658 12.0008 3Z" stroke="#673AB7" stroke-width="2" stroke-linecap="round" stroke-linejoin="round"/>
</svg>
