<svg width="24" height="24" viewBox="0 0 24 24" fill="none" xmlns="http://www.w3.org/2000/svg">
<path d="M22 12.6V20.4C22 20.4788 21.9845 20.5568 21.9543 20.6296C21.9242 20.7024 21.88 20.7685 21.8243 20.8243C21.7685 20.88 21.7024 20.9242 21.6296 20.9543C21.5568 20.9845 21.4788 21 21.4 21H13.6C13.4409 21 13.2883 20.9368 13.1757 20.8243C13.0632 20.7117 13 20.5591 13 20.4V12.6C13 12.4409 13.0632 12.2883 13.1757 12.1757C13.2883 12.0632 13.4409 12 13.6 12H21.4C21.4788 12 21.5568 12.0155 21.6296 12.0457C21.7024 12.0758 21.7685 12.12 21.8243 12.1757C21.88 12.2315 21.9242 12.2976 21.9543 12.3704C21.9845 12.4432 22 12.5212 22 12.6Z" stroke="#673AB7" stroke-width="1.5" stroke-linecap="round" stroke-linejoin="round"/>
<path d="M16.918 14.5756C16.8271 14.5188 16.7226 14.4873 16.6154 14.4846C16.5083 14.4818 16.4023 14.5078 16.3086 14.5599C16.2149 14.6119 16.1368 14.6882 16.0826 14.7806C16.0283 14.8731 15.9998 14.9784 16 15.0856V17.9196C15.9998 18.0268 16.0283 18.1321 16.0826 18.2245C16.1368 18.317 16.2149 18.3932 16.3086 18.4453C16.4023 18.4973 16.5083 18.5233 16.6154 18.5206C16.7226 18.5178 16.8271 18.4864 16.918 18.4296L19.186 17.0116C19.2724 16.9577 19.3436 16.8827 19.393 16.7936C19.4424 16.7046 19.4683 16.6044 19.4683 16.5026C19.4683 16.4007 19.4424 16.3006 19.393 16.2116C19.3436 16.1225 19.2724 16.0475 19.186 15.9936L16.918 14.5756Z" stroke="#673AB7" stroke-width="1.5" stroke-linecap="round" stroke-linejoin="round"/>
<path d="M22 9V6.6C22 6.52121 21.9845 6.44319 21.9543 6.37039C21.9242 6.29759 21.88 6.23145 21.8243 6.17574C21.7685 6.12002 21.7024 6.07583 21.6296 6.04567C21.5568 6.01552 21.4788 6 21.4 6H12.722C12.579 6.00001 12.4407 5.94894 12.332 5.856L9.168 3.144C9.05932 3.05106 8.92101 2.99999 8.778 3H2.6C2.44087 3 2.28826 3.06321 2.17574 3.17574C2.06321 3.28826 2 3.44087 2 3.6V18.4C2 18.5591 2.06321 18.7117 2.17574 18.8243C2.28826 18.9368 2.44087 19 2.6 19H10" stroke="#673AB7" stroke-width="1.5" stroke-linecap="round" stroke-linejoin="round"/>
<path d="M2 10H10" stroke="#673AB7" stroke-width="1.5" stroke-linecap="round" stroke-linejoin="round"/>
</svg>
