<svg width="40" height="40" viewBox="0 0 40 40" fill="none" xmlns="http://www.w3.org/2000/svg">
<g id="standard-icon">
<path id="Vector" d="M15 19.9998L18.3333 23.3332L25 16.6665" stroke="#673AB7" stroke-width="2.33333" stroke-linecap="round" stroke-linejoin="round"/>
<path id="Vector_2" d="M19.9981 5C23.8911 8.44429 28.9722 10.2376 34.1648 10C34.9205 12.5717 35.1516 15.2691 34.8444 17.9318C34.5372 20.5946 33.698 23.1685 32.3765 25.5005C31.055 27.8326 29.2782 29.8752 27.1518 31.5071C25.0254 33.139 22.5926 34.3268 19.9981 35C17.4034 34.327 14.9706 33.1393 12.844 31.5075C10.7174 29.8756 8.94061 27.833 7.61909 25.5009C6.29757 23.1688 5.45832 20.5948 5.15122 17.932C4.84412 15.2691 5.07544 12.5717 5.83143 10C11.024 10.2376 16.105 8.44429 19.9981 5Z" stroke="#673AB7" stroke-width="2.33333" stroke-linecap="round" stroke-linejoin="round"/>
</g>
</svg>
