<svg width="49" height="48" viewBox="0 0 49 48" fill="none" xmlns="http://www.w3.org/2000/svg">
<circle cx="24.5" cy="24" r="24" fill="#673AB7"/>
<g clip-path="url(#clip0_2613_126690)">
<path d="M13.1489 24.6138L19.0071 27.6538C19.1324 27.7165 19.2744 27.7496 19.4191 27.75C19.5638 27.7503 19.7061 27.7179 19.8318 27.6558C19.9575 27.5937 20.0622 27.5042 20.1356 27.3962C20.209 27.2882 20.2484 27.1654 20.25 27.04L20.25 20.9599C20.2484 20.8346 20.209 20.7118 20.1356 20.6038C20.0622 20.4958 19.9575 20.4063 19.8318 20.3442C19.7061 20.2821 19.5638 20.2496 19.4191 20.25C19.2744 20.2504 19.1324 20.2835 19.0071 20.3462L13.1489 23.3862C13.0271 23.4502 12.9264 23.5403 12.8566 23.6478C12.7867 23.7553 12.75 23.8766 12.75 24C12.75 24.1234 12.7867 24.2447 12.8566 24.3522C12.9264 24.4597 13.0271 24.5498 13.1489 24.6138Z" fill="white" stroke="white" stroke-width="2" stroke-linecap="round" stroke-linejoin="round"/>
</g>
<g clip-path="url(#clip1_2613_126690)">
<path d="M35.8511 23.3862L29.9929 20.3462C29.8676 20.2835 29.7256 20.2504 29.5809 20.25C29.4362 20.2497 29.2939 20.2821 29.1682 20.3442C29.0425 20.4063 28.9378 20.4958 28.8644 20.6038C28.791 20.7118 28.7516 20.8346 28.75 20.9599L28.75 27.0401C28.7516 27.1654 28.791 27.2882 28.8644 27.3962C28.9378 27.5042 29.0425 27.5937 29.1682 27.6558C29.2939 27.7179 29.4362 27.7503 29.5809 27.75C29.7256 27.7496 29.8676 27.7165 29.9929 27.6538L35.8511 24.6138C35.9729 24.5498 36.0736 24.4597 36.1434 24.3522C36.2133 24.2447 36.25 24.1234 36.25 24C36.25 23.8766 36.2133 23.7553 36.1434 23.6478C36.0736 23.5403 35.9729 23.4502 35.8511 23.3862Z" fill="white" stroke="white" stroke-width="2" stroke-linecap="round" stroke-linejoin="round"/>
</g>
<defs>
<clipPath id="clip0_2613_126690">
<rect width="10" height="10" fill="white" transform="translate(11.5 29) rotate(-90)"/>
</clipPath>
<clipPath id="clip1_2613_126690">
<rect width="10" height="10" fill="white" transform="translate(37.5 19) rotate(90)"/>
</clipPath>
</defs>
</svg>
