<svg width="40" height="40" viewBox="0 0 40 40" fill="none" xmlns="http://www.w3.org/2000/svg">
<g id="support-icon">
<path id="Vector" d="M13.3346 24.9998C13.3346 24.1158 12.9834 23.2679 12.3583 22.6428C11.7332 22.0177 10.8854 21.6665 10.0013 21.6665C9.11725 21.6665 8.2694 22.0177 7.64428 22.6428C7.01916 23.2679 6.66797 24.1158 6.66797 24.9998V28.3332C6.66797 29.2172 7.01916 30.0651 7.64428 30.6902C8.2694 31.3153 9.11725 31.6665 10.0013 31.6665C10.8854 31.6665 11.7332 31.3153 12.3583 30.6902C12.9834 30.0651 13.3346 29.2172 13.3346 28.3332V24.9998Z" stroke="#673AB7" stroke-width="2.33333" stroke-linecap="round" stroke-linejoin="round"/>
<path id="Vector_2" d="M33.3346 24.9998C33.3346 24.1158 32.9834 23.2679 32.3583 22.6428C31.7332 22.0177 30.8854 21.6665 30.0013 21.6665C29.1172 21.6665 28.2694 22.0177 27.6443 22.6428C27.0192 23.2679 26.668 24.1158 26.668 24.9998V28.3332C26.668 29.2172 27.0192 30.0651 27.6443 30.6902C28.2694 31.3153 29.1172 31.6665 30.0013 31.6665C30.8854 31.6665 31.7332 31.3153 32.3583 30.6902C32.9834 30.0651 33.3346 29.2172 33.3346 28.3332V24.9998Z" stroke="#673AB7" stroke-width="2.33333" stroke-linecap="round" stroke-linejoin="round"/>
<path id="Vector_3" d="M6.66797 24.9998V19.9998C6.66797 16.4636 8.07273 13.0722 10.5732 10.5717C13.0737 8.07126 16.4651 6.6665 20.0013 6.6665C23.5375 6.6665 26.9289 8.07126 29.4294 10.5717C31.9299 13.0722 33.3346 16.4636 33.3346 19.9998V24.9998" stroke="#673AB7" stroke-width="2.33333" stroke-linecap="round" stroke-linejoin="round"/>
<path id="Vector_4" d="M30 31.6665C30 32.9932 28.9467 34.2648 27.0717 35.2015C25.195 36.1398 22.65 36.6665 20 36.6665" stroke="#673AB7" stroke-width="2.33333" stroke-linecap="round" stroke-linejoin="round"/>
</g>
</svg>
