<svg width="24" height="24" viewBox="0 0 24 24" fill="none" xmlns="http://www.w3.org/2000/svg">
<path fill-rule="evenodd" clip-rule="evenodd" d="M7.96739 18.7624C8.50086 18.9053 9.04919 18.5887 9.19214 18.0553L10.016 14.9805H12.3939L11.7087 17.5376C11.5658 18.0711 11.8824 18.6194 12.4158 18.7624C12.9493 18.9053 13.4976 18.5887 13.6406 18.0553L14.4645 14.9805H17.0015C17.5538 14.9805 18.0015 14.5328 18.0015 13.9805C18.0015 13.4282 17.5538 12.9805 17.0015 12.9805H15.0004L15.5361 10.9809H19.0007C19.553 10.9809 20.0007 10.5332 20.0007 9.98089C20.0007 9.4286 19.553 8.98089 19.0007 8.98089H16.072L16.7464 6.46415C16.8893 5.93068 16.5728 5.38234 16.0393 5.2394C15.5058 5.09646 14.9575 5.41304 14.8146 5.94651L14.0015 8.98089H11.6236L12.298 6.46415C12.4409 5.93068 12.1243 5.38234 11.5909 5.2394C11.0574 5.09646 10.5091 5.41304 10.3661 5.94651L9.55305 8.98089H7.00068C6.4484 8.98089 6.00068 9.4286 6.00068 9.98089C6.00068 10.5332 6.4484 10.9809 7.00068 10.9809H9.01716L8.48136 12.9805H5.00147C4.44918 12.9805 4.00146 13.4282 4.00146 13.9805C4.00146 14.5328 4.44918 14.9805 5.00146 14.9805H7.94546L7.26028 17.5376C7.11734 18.0711 7.43392 18.6194 7.96739 18.7624ZM13.4656 10.9809H11.0877L10.5519 12.9805H12.9298L13.4656 10.9809Z" fill="#673AB7"/>
</svg>
