<svg width="24" height="24" viewBox="0 0 24 24" fill="none" xmlns="http://www.w3.org/2000/svg">
<path d="M7.24805 9.09805H7.09805V9.24805V10.7531V10.9031H7.24805H8.75305H8.90305V10.7531V9.24805V9.09805H8.75305H7.24805ZM12.753 10.9031H12.903V10.7531V9.24805V9.09805H12.753H11.248H11.098V9.24805V10.7531V10.9031H11.248H12.753ZM15.248 9.09805H15.098V9.24805V10.7531V10.9031H15.248H16.753H16.903V10.7531V9.24805V9.09805H16.753H15.248ZM2.09805 21.403V21.7652L2.35411 21.5091L5.96016 17.903H20.0005C21.0467 17.903 21.903 17.0467 21.903 16.0005V4.00055C21.903 2.95439 21.0467 2.09805 20.0005 2.09805H4.00055C2.95439 2.09805 2.09805 2.95439 2.09805 4.00055V21.403ZM5.13909 16.1465L3.90305 17.4908V3.90305H20.098V16.0981H5.24951H5.18366L5.13909 16.1465Z" fill="#673AB7" stroke="#673AB7" stroke-width="0.3"/>
</svg>
