<svg width="24" height="24" viewBox="0 0 24 24" fill="none" xmlns="http://www.w3.org/2000/svg">
<path d="M19.5 6.75H4.5C3.90326 6.75 3.33097 6.98705 2.90901 7.40901C2.48705 7.83097 2.25 8.40326 2.25 9V18C2.25 18.5967 2.48705 19.169 2.90901 19.591C3.33097 20.0129 3.90326 20.25 4.5 20.25H19.5C20.0967 20.25 20.669 20.0129 21.091 19.591C21.5129 19.169 21.75 18.5967 21.75 18V9C21.75 8.40326 21.5129 7.83097 21.091 7.40901C20.669 6.98705 20.0967 6.75 19.5 6.75Z" stroke="#673AB7" stroke-width="2" stroke-linejoin="round"/>
<path d="M19.282 6.75029V5.34229C19.2817 4.9975 19.2054 4.65701 19.0585 4.34509C18.9116 4.03318 18.6976 3.75752 18.4319 3.53777C18.1663 3.31802 17.8554 3.15958 17.5214 3.07377C17.1875 2.98795 16.8387 2.97686 16.5 3.04129L4.155 5.14829C3.61891 5.2505 3.13528 5.53657 2.78752 5.95717C2.43976 6.37777 2.24966 6.90654 2.25 7.45229V9.75029" stroke="#673AB7" stroke-width="2" stroke-linejoin="round"/>
<path d="M17.25 15C16.8522 15 16.4706 14.842 16.1893 14.5607C15.908 14.2794 15.75 13.8978 15.75 13.5C15.75 13.1022 15.908 12.7206 16.1893 12.4393C16.4706 12.158 16.8522 12 17.25 12C17.6478 12 18.0294 12.158 18.3107 12.4393C18.592 12.7206 18.75 13.1022 18.75 13.5C18.75 13.8978 18.592 14.2794 18.3107 14.5607C18.0294 14.842 17.6478 15 17.25 15Z" fill="#673AB7"/>
</svg>
