<svg width="33" height="32" viewBox="0 0 33 32" fill="none" xmlns="http://www.w3.org/2000/svg">
<path fill-rule="evenodd" clip-rule="evenodd" d="M11.2097 24.953C11.1887 24.6209 10.926 24.353 10.5912 24.3236C10.3418 24.3015 10.0891 24.2778 9.83282 24.2529C8.77453 24.1492 7.94146 23.3217 7.83644 22.2737C7.39309 17.8459 7.39374 14.1329 7.83903 9.70251C7.94243 8.67051 8.76645 7.85195 9.80858 7.74955C12.122 7.52203 14.1584 7.42027 16.1719 7.42027C18.1851 7.42027 20.2212 7.52203 22.5339 7.74923C23.5761 7.85163 24.4027 8.66763 24.5064 9.69995C24.5407 10.0436 24.5726 10.3828 24.6017 10.7182C24.7071 11.9374 25.735 12.8689 26.9704 12.8689H28.81C29.7113 12.8689 30.5705 12.4926 31.1777 11.8327C31.7845 11.1732 32.086 10.29 32.0017 9.40139C31.9235 8.57675 31.8311 7.73227 31.7248 6.86059C31.3244 3.57996 28.7063 0.994679 25.3934 0.598199C18.7196 -0.19988 13.6139 -0.19924 6.9436 0.599159C3.63074 0.995959 1.01975 3.58828 0.6197 6.86891C-0.186218 13.4779 -0.185571 18.5339 0.620669 25.1393C1.02104 28.4202 3.63882 31.0055 6.952 31.4017C13.6259 32.2001 18.7315 32.1991 25.4018 31.4007C28.7147 31.0042 31.3257 28.4119 31.7257 25.131C31.8317 24.2625 31.9235 23.4206 32.0014 22.5985C32.0857 21.7092 31.7874 20.826 31.1799 20.1662C30.5724 19.506 29.7119 19.131 28.81 19.131H26.9704C25.7372 19.131 24.7071 20.0651 24.6017 21.2817C24.5726 21.6174 24.5407 21.9566 24.5064 22.3003C24.4023 23.3345 23.578 24.1482 22.5336 24.2506C21.2165 24.3802 19.9902 24.4679 18.8062 24.5201C18.3764 24.539 17.9683 24.6983 17.6406 24.9738C15.5259 26.7527 13.5076 28.073 12.3886 28.7604C12.1989 28.8769 11.9614 28.8862 11.7626 28.785C11.5642 28.6836 11.4337 28.4865 11.4198 28.2657L11.2097 24.953Z" fill="#8350BE"/>
</svg>
