<svg width="43" height="32" viewBox="0 0 43 32" fill="none" xmlns="http://www.w3.org/2000/svg">
<path d="M35.5704 2.65263C32.8935 1.42484 30.0228 0.520263 27.0214 0.00217332C26.9668 -0.00782564 26.9122 0.0171623 26.884 0.0671394C26.5148 0.723494 26.1059 1.57976 25.8195 2.25278C22.5913 1.76969 19.3797 1.76969 16.2177 2.25278C15.9313 1.5648 15.5075 0.723494 15.1366 0.0671394C15.1085 0.0188298 15.0539 -0.00615816 14.9992 0.00217332C11.9995 0.518607 9.12886 1.42318 6.45026 2.65263C6.42707 2.66262 6.4072 2.67929 6.39401 2.70093C0.94906 10.8322 -0.542538 18.7636 0.18919 26.5967C0.192501 26.635 0.214022 26.6717 0.243822 26.695C3.83624 29.3321 7.31611 30.933 10.7314 31.9942C10.786 32.0108 10.8439 31.9909 10.8787 31.9459C11.6866 30.8431 12.4067 29.6803 13.0242 28.4575C13.0606 28.3858 13.0259 28.3009 12.9514 28.2726C11.8091 27.8394 10.7214 27.3113 9.67515 26.7116C9.59239 26.6633 9.58577 26.545 9.6619 26.4883C9.88208 26.3234 10.1023 26.1518 10.3125 25.9786C10.3506 25.947 10.4036 25.9403 10.4483 25.9603C17.3219 29.0972 24.7633 29.0972 31.5558 25.9603C31.6005 25.9386 31.6535 25.9453 31.6932 25.9769C31.9035 26.1502 32.1237 26.3234 32.3455 26.4883C32.4216 26.545 32.4167 26.6633 32.3339 26.7116C31.2876 27.323 30.2 27.8394 29.056 28.2709C28.9815 28.2992 28.9484 28.3858 28.9849 28.4575C29.6156 29.6786 30.3357 30.8414 31.1287 31.9442C31.1618 31.9909 31.2214 32.0108 31.276 31.9942C34.7079 30.933 38.1877 29.3321 41.7801 26.695C41.8116 26.6717 41.8315 26.6367 41.8348 26.5983C42.7105 17.5424 40.368 9.67608 35.625 2.70259C35.6134 2.67929 35.5936 2.66262 35.5704 2.65263ZM14.0507 21.8272C11.9812 21.8272 10.2761 19.9281 10.2761 17.5958C10.2761 15.2635 11.9482 13.3644 14.0507 13.3644C16.1697 13.3644 17.8583 15.2802 17.8252 17.5958C17.8252 19.9281 16.1531 21.8272 14.0507 21.8272ZM28.0064 21.8272C25.9371 21.8272 24.2319 19.9281 24.2319 17.5958C24.2319 15.2635 25.9039 13.3644 28.0064 13.3644C30.1255 13.3644 31.8141 15.2802 31.781 17.5958C31.781 19.9281 30.1255 21.8272 28.0064 21.8272Z" fill="#8350BE"/>
</svg>
