<svg width="34" height="32" viewBox="0 0 34 32" fill="none" xmlns="http://www.w3.org/2000/svg">
<path fill-rule="evenodd" clip-rule="evenodd" d="M30.1391 25.3088C30.2651 27.1145 31.5458 28.1433 32.5747 28.8992C33.593 29.6551 32.5747 30.033 32.1757 30.096C29.9081 30.4949 27.588 30.222 25.4674 29.3296C25.2679 29.2456 24.911 29.3611 24.4911 29.5606C20.3548 32.1536 15.2632 32.71 10.665 31.0828C2.32946 28.1328 -2.02726 18.9889 0.922717 10.6639C3.8727 2.33885 12.9956 -2.02838 21.3311 0.921603C29.6667 3.87159 34.0234 13.0155 31.0734 21.3405V21.351C30.9369 21.729 30.79 22.1069 30.622 22.4743C30.3491 23.2617 30.0761 24.343 30.1391 25.3088ZM11.2862 8.74268H22.0363C23.0336 8.74268 23.8419 9.55103 23.8419 10.5484V10.6219C23.8419 11.6192 23.0336 12.4276 22.0363 12.4276H11.2862C10.2888 12.4276 9.48047 11.6192 9.48047 10.6219V10.5484C9.48047 9.55103 10.2888 8.74268 11.2862 8.74268ZM11.2862 14.2123H18.0785C19.0758 14.2123 19.8841 15.0207 19.8841 16.018V16.102C19.8841 17.0993 19.0758 17.9077 18.0785 17.9077H11.2862C10.2888 17.9077 9.48047 17.0993 9.48047 16.102V16.018C9.48047 15.0207 10.2888 14.2123 11.2862 14.2123ZM12.5144 19.5874H11.2862C10.2888 19.5874 9.48047 20.3957 9.48047 21.3931V21.4665C9.48047 22.4639 10.2888 23.2722 11.2862 23.2722H12.5144C13.5118 23.2722 14.3201 22.4639 14.3201 21.4665V21.3931C14.3201 20.3957 13.5118 19.5874 12.5144 19.5874Z" fill="#8350BE"/>
</svg>
