<svg width="33" height="32" viewBox="0 0 33 32" fill="none" xmlns="http://www.w3.org/2000/svg">
<path d="M21.1276 1.48687H21.0952C21.0628 1.51919 21.0304 1.51919 20.9655 1.58384C20.771 1.77777 20.0904 2.68283 20.0904 2.68283L18.5994 4.52525L16.849 6.62626L13.867 10.3434C13.867 10.3434 12.5057 12.0566 12.7974 14.1576C13.0891 16.2586 14.6774 17.2929 15.8766 17.6808C17.0759 18.101 18.9559 18.2303 20.4793 16.7434C22.0028 15.2566 21.9379 13.0586 21.9379 13.0586L21.8083 8.30707L21.711 5.5596L21.6462 3.2C21.6462 3.2 21.6462 2.06869 21.6138 1.77778C21.6138 1.71313 21.5814 1.6808 21.5814 1.64848V1.61616C21.549 1.55152 21.4841 1.48687 21.3869 1.45455C21.3545 1.45455 21.3221 1.42222 21.2572 1.42222C21.2248 1.45454 21.16 1.45454 21.1276 1.48687ZM16.2656 0C9.6533 0.0646465 3.49479 4.26667 1.25828 10.8606C-1.56168 19.2323 2.91135 28.3152 11.274 31.1596C12.9595 31.7414 14.6774 32 16.3953 32H16.4277C23.1048 32 29.2957 27.798 31.5647 21.1394C33.8662 14.3515 31.3378 7.04646 25.8275 3.03838L25.9896 6.43232C28.7447 9.47071 29.8468 13.7697 28.453 17.8424C26.411 23.8869 19.669 27.0545 13.3808 24.9535C7.09265 22.8202 3.65685 16.1939 5.7313 10.1495C7.09265 6.07677 10.5933 3.32929 14.6449 2.58586L16.849 0C16.7518 0 16.6546 0 16.5573 0H16.2656Z" fill="#8350BE"/>
</svg>
