<svg width="35" height="32" viewBox="0 0 35 32" fill="none" xmlns="http://www.w3.org/2000/svg">
<g clip-path="url(#clip0_9830_76100)">
<path d="M24.0122 11.999H32.8978C33.7373 11.999 34.4178 12.6795 34.4178 13.519V21.6126C34.4178 24.6979 31.9167 27.199 28.8314 27.199H28.805C25.7197 27.1995 23.2182 24.6987 23.2178 21.6134C23.2178 21.6131 23.2178 21.6129 23.2178 21.6126V12.7934C23.2178 12.3547 23.5735 11.999 24.0122 11.999Z" fill="#6F38BA"/>
<path d="M30.017 10.3992C32.0052 10.3992 33.617 8.78744 33.617 6.79922C33.617 4.81099 32.0052 3.19922 30.017 3.19922C28.0288 3.19922 26.417 4.81099 26.417 6.79922C26.417 8.78744 28.0288 10.3992 30.017 10.3992Z" fill="#6F38BA"/>
<path fill-rule="evenodd" clip-rule="evenodd" d="M24.0172 5.20001C24.0172 8.07189 21.6891 10.4 18.8172 10.4C18.6821 10.4 18.5481 10.3949 18.4156 10.3847V8.66717C18.4156 7.63641 17.58 6.80078 16.5492 6.80078H13.8682C13.7052 6.29651 13.6172 5.75854 13.6172 5.20001C13.6172 2.32812 15.9453 0 18.8172 0C21.6891 0 24.0172 2.32812 24.0172 5.20001ZM18.0156 10.3386C16.2039 10.0583 14.7011 8.84274 14.016 7.20078H16.5492C17.3591 7.20078 18.0156 7.85732 18.0156 8.66717V10.3386Z" fill="#8350BE"/>
<path fill-rule="evenodd" clip-rule="evenodd" d="M9.88865 25.2008C10.8579 29.0267 14.2776 31.8987 18.4158 32C23.3934 31.8782 27.3316 27.7474 27.2158 22.7696V13.5384C27.235 12.7089 26.5788 12.0205 25.7494 12L18.4156 12.0003V23.3344C18.4156 24.3652 17.58 25.2008 16.5492 25.2008H9.88865ZM9.79701 24.8008C9.66273 24.1461 9.59956 23.4661 9.61577 22.7696L10.2056 21.5005V13.6005C11.949 13.6005 12.6441 13.7356 12.9205 13.4563C13.1198 13.2549 13.1016 12.8383 13.1016 12.0005L18.0156 12.0003V23.3344C18.0156 24.1442 17.3591 24.8008 16.5492 24.8008H9.79701Z" fill="#8350BE"/>
<path opacity="0.2" d="M17.6146 8.6642V10.2562C15.9946 9.87255 14.6563 8.73641 14.0146 7.2002H16.1506C16.9579 7.20327 17.6116 7.85693 17.6146 8.6642Z" fill="black"/>
<path fill-rule="evenodd" clip-rule="evenodd" d="M16.5506 7.2002H1.88338C1.07353 7.2002 0.416992 7.85673 0.416992 8.66659V23.3338C0.416992 24.1133 1.02528 24.7508 1.7931 24.7974C1.82245 24.7992 1.85203 24.8001 1.88182 24.8001H16.549C17.3589 24.8001 18.0154 24.1436 18.0154 23.3337V8.66649C18.0154 7.8881 17.4089 7.25135 16.6427 7.20304C16.6122 7.20115 16.5815 7.2002 16.5506 7.2002ZM10.1448 12.7827H13.0768V11.2339H5.3584V12.7827H8.2768V20.7667H10.1448V12.7827Z" fill="#8350BE"/>
</g>
<defs>
<clipPath id="clip0_9830_76100">
<rect width="34.4" height="32" fill="white" transform="translate(0.015625)"/>
</clipPath>
</defs>
</svg>
