<svg width="33" height="32" viewBox="0 0 33 32" fill="none" xmlns="http://www.w3.org/2000/svg">
<path d="M11.7244 0.0214844C9.96036 0.0214844 8.51902 1.45848 8.51902 3.21719C8.51902 4.9759 9.96036 6.4129 11.7244 6.4129H14.9298V3.21719C14.9298 1.45848 13.51 0.0214844 11.7244 0.0214844ZM11.7244 8.53623H3.20539C1.44135 8.53623 0 9.97322 0 11.7319C0 13.4906 1.44135 14.9276 3.20539 14.9276H11.7459C13.51 14.9276 14.9513 13.4906 14.9513 11.7319C14.9298 9.97322 13.51 8.53623 11.7244 8.53623Z" fill="#8350BE"/>
<path d="M32.0138 11.7319C32.0138 9.97319 30.5725 8.53619 28.8084 8.53619C27.0444 8.53619 25.603 9.97319 25.603 11.7319V14.9276H28.8084C30.5725 14.9491 32.0138 13.5121 32.0138 11.7319ZM23.4733 11.7319V3.19571C23.4733 1.437 22.0319 0 20.2679 0C18.5038 0 17.0625 1.437 17.0625 3.19571V11.7319C17.0625 13.4906 18.5038 14.9276 20.2679 14.9276C22.0534 14.9491 23.4733 13.5121 23.4733 11.7319Z" fill="#8350BE"/>
<path d="M20.2679 31.9999C22.0319 31.9999 23.4733 30.5629 23.4733 28.8042C23.4733 27.0455 22.0319 25.6085 20.2679 25.6085H17.0625V28.8042C17.0625 30.5629 18.5038 31.9999 20.2679 31.9999ZM20.2679 23.4637H28.8084C30.5725 23.4637 32.0138 22.0267 32.0138 20.268C32.0138 18.5093 30.5725 17.0723 28.8084 17.0723H20.2679C18.5038 17.0723 17.0625 18.5093 17.0625 20.268C17.0625 22.0267 18.5038 23.4637 20.2679 23.4637Z" fill="#8350BE"/>
<path d="M0 20.268C0 22.0267 1.44135 23.4637 3.20539 23.4637C4.96943 23.4637 6.41077 22.0267 6.41077 20.268V17.0723H3.20539C1.41984 17.0723 0 18.5093 0 20.268ZM8.54053 20.268V28.8042C8.54053 30.5629 9.98188 31.9999 11.7459 31.9999C13.51 31.9999 14.9513 30.5629 14.9513 28.8042V20.268C14.9513 18.5093 13.51 17.0723 11.7459 17.0723C9.96037 17.0723 8.54053 18.5093 8.54053 20.268Z" fill="#8350BE"/>
</svg>
