<svg width="32" height="33" viewBox="0 0 32 33" fill="none" xmlns="http://www.w3.org/2000/svg">
<g clip-path="url(#clip0_79_29045)">
<path fill-rule="evenodd" clip-rule="evenodd" d="M28.092 10.6165C27.0365 10.6165 26.182 11.448 26.182 12.4735V20.4228C26.182 21.4483 27.0365 22.2798 28.092 22.2798C29.1455 22.2798 30 21.4483 30 20.4228V12.4735C30 11.4483 29.1455 10.6165 28.092 10.6165ZM3.91 10.6165C2.8545 10.6165 2 11.448 2 12.4735V20.4228C2 21.4483 2.8545 22.2798 3.91 22.2798C4.9635 22.2798 5.818 21.4483 5.818 20.4228V12.4735C5.818 11.4483 4.9635 10.6165 3.91 10.6165ZM7.22925 10.6165H7.092V24.2423C7.092 25.324 7.99475 26.2048 9.10825 26.2048H10.562C10.5118 26.3685 10.4847 26.5398 10.4847 26.7203V30.6433C10.4847 31.6688 11.3412 32.5003 12.3947 32.5003C13.4482 32.5003 14.3048 31.6688 14.3048 30.6433V26.72C14.3048 26.5395 14.2758 26.3683 14.2275 26.2045H17.773C17.7248 26.3683 17.6975 26.5395 17.6975 26.72V30.643C17.6975 31.6685 18.552 32.5 19.6055 32.5C20.661 32.5 21.5175 31.6685 21.5175 30.643V26.72C21.5175 26.5395 21.4885 26.3683 21.4382 26.2045H22.894C24.0075 26.2045 24.9083 25.324 24.9083 24.242V10.6165H7.22925ZM20.3825 3.17903L20.7383 2.65603L21.094 2.14053L21.8865 0.981531C21.985 0.838531 21.9445 0.646531 21.7975 0.552531C21.6525 0.456531 21.4535 0.496031 21.3587 0.639031L20.1485 2.40203L19.7852 2.93253C18.635 2.49803 17.3533 2.25528 16 2.25528C14.6488 2.25528 13.365 2.49803 12.2148 2.93253L11.8532 2.40203L11.4955 1.88078L10.645 0.639031C10.5465 0.496031 10.3492 0.458531 10.2022 0.552531C10.0572 0.646531 10.0167 0.838531 10.1132 0.981531L10.9058 2.14053L11.2615 2.65603L11.6193 3.17903C8.9185 4.40378 7.09175 6.72378 7.09175 9.37853H24.9077C24.908 6.72378 23.0812 4.40403 20.3825 3.17903ZM12.182 6.90053C11.6543 6.90053 11.227 6.48478 11.227 5.97103C11.227 5.45728 11.6543 5.04353 12.182 5.04353C12.7098 5.04353 13.137 5.45753 13.137 5.97103C13.137 6.48478 12.7098 6.90053 12.182 6.90053ZM19.818 6.90053C19.2903 6.90053 18.863 6.48478 18.863 5.97103C18.863 5.45728 19.2903 5.04353 19.818 5.04353C20.3458 5.04353 20.773 5.45753 20.773 5.97103C20.773 6.48478 20.3458 6.90053 19.818 6.90053Z" fill="white"/>
</g>
<defs>
<clipPath id="clip0_79_29045">
<rect width="32" height="32" fill="white" transform="translate(0 0.5)"/>
</clipPath>
</defs>
</svg>
