<svg width="28" height="33" viewBox="0 0 28 33" fill="none" xmlns="http://www.w3.org/2000/svg">
<path d="M27.0563 25.4377C26.5723 26.5557 25.9995 27.5848 25.3358 28.531C24.4312 29.8208 23.6905 30.7136 23.1196 31.2094C22.2347 32.0232 21.2866 32.44 20.2713 32.4637C19.5424 32.4637 18.6635 32.2563 17.6403 31.8356C16.6137 31.4168 15.6704 31.2094 14.8078 31.2094C13.9031 31.2094 12.9329 31.4168 11.8951 31.8356C10.8557 32.2563 10.0184 32.4755 9.37822 32.4973C8.40462 32.5387 7.43418 32.1101 6.46552 31.2094C5.84727 30.6702 5.07396 29.7457 4.14757 28.4361C3.15363 27.0377 2.33647 25.416 1.69629 23.5672C1.01068 21.5702 0.666992 19.6364 0.666992 17.7643C0.666992 15.6197 1.13038 13.7701 2.05855 12.2201C2.78801 10.9751 3.75845 9.99305 4.97303 9.27209C6.18761 8.55112 7.49996 8.18372 8.91325 8.16022C9.68656 8.16022 10.7006 8.39942 11.9609 8.86953C13.2175 9.34122 14.0244 9.58042 14.3782 9.58042C14.6426 9.58042 15.539 9.30073 17.0586 8.74311C18.4956 8.22599 19.7084 8.01188 20.7019 8.09622C23.3942 8.3135 25.4168 9.3748 26.762 11.2868C24.3541 12.7458 23.1631 14.7892 23.1868 17.4105C23.2085 19.4523 23.9492 21.1514 25.405 22.5005C26.0647 23.1267 26.8015 23.6106 27.6212 23.9543C27.4434 24.4699 27.2558 24.9637 27.0563 25.4377ZM20.8817 1.14018C20.8817 2.74055 20.297 4.2348 19.1316 5.61787C17.7252 7.26207 16.0241 8.21217 14.1794 8.06225C14.1559 7.87025 14.1423 7.66818 14.1423 7.45584C14.1423 5.9195 14.8111 4.2753 15.9988 2.93094C16.5918 2.25027 17.346 1.6843 18.2605 1.23282C19.1731 0.788073 20.0362 0.542119 20.8481 0.5C20.8718 0.713944 20.8817 0.927901 20.8817 1.14016V1.14018Z" fill="white"/>
</svg>
