<svg width="32" height="33" viewBox="0 0 32 33" fill="none" xmlns="http://www.w3.org/2000/svg">
<g clip-path="url(#clip0_79_29059)">
<path d="M6.63573 16.4993C6.63573 18.1472 5.37415 19.4836 3.81694 19.4836C2.26158 19.4836 1 18.1474 1 16.4993C1 14.852 2.26158 13.516 3.81694 13.516C5.37415 13.516 6.63573 14.852 6.63573 16.4993ZM22.6662 31.0082C23.4444 32.4343 25.1669 32.9234 26.5146 32.1004C27.8622 31.2763 28.3239 29.4512 27.5458 28.0239C26.7677 26.5969 25.0451 26.1089 23.6975 26.9329C22.3498 27.757 21.8881 29.5812 22.6662 31.0082ZM27.5456 4.97545C28.3237 3.54807 27.8629 1.72344 26.5145 0.900286C25.1677 0.0763123 23.4444 0.56526 22.666 1.99198C21.888 3.41904 22.3497 5.2435 23.6974 6.06748C25.0451 6.89145 26.7685 6.4025 27.5456 4.97545ZM18.0097 7.99052C22.2082 7.99052 25.6534 11.3987 26.0132 15.7462L30.0909 15.6781C29.8973 12.4479 28.5742 9.54267 26.5353 7.40054C25.4561 7.84151 24.2038 7.78158 23.1234 7.12053C22.0423 6.45949 21.367 5.34044 21.1884 4.12806C20.175 3.83659 19.1091 3.68054 18.0097 3.68054C16.0814 3.68054 14.2587 4.15803 12.6401 5.00738L14.6242 8.7806C15.6525 8.27462 16.8008 7.99052 18.0097 7.99052ZM9.97405 16.4993C9.97405 13.6211 11.3245 11.0758 13.3908 9.53678L11.2972 5.83053C8.87205 7.54562 7.06558 10.1618 6.30344 13.2291C7.20536 13.9982 7.78319 15.1772 7.78319 16.4994C7.78319 17.8225 7.2052 19.0015 6.30344 19.7708C7.06558 22.8379 8.87205 25.4541 11.2972 27.1702L13.3908 23.4639C11.3245 21.9237 9.97405 19.3794 9.97405 16.4993ZM18.0097 25.0097C16.801 25.0097 15.6526 24.7258 14.6242 24.2188L12.6401 27.992C14.2587 28.842 16.0812 29.319 18.0097 29.319C19.1089 29.319 20.175 29.1641 21.1884 28.8722C21.3669 27.659 22.0421 26.5399 23.1234 25.88C24.2038 25.219 25.4561 25.1589 26.5353 25.5998C28.5744 23.4567 29.8973 20.5515 30.0909 17.3213L26.0132 17.2543C25.6532 21.6007 22.2082 25.0097 18.0097 25.0097Z" fill="white"/>
</g>
<defs>
<clipPath id="clip0_79_29059">
<rect width="32" height="32" fill="white" transform="translate(0 0.5)"/>
</clipPath>
</defs>
</svg>
