<svg width="32" height="33" viewBox="0 0 32 33" fill="none" xmlns="http://www.w3.org/2000/svg">
<path d="M4.68315 20.5003H10.8962C10.7463 19.2368 10.667 17.8929 10.667 16.5003C10.667 15.1077 10.7463 13.7639 10.8962 12.5003H4.68315C4.24094 13.7514 4.00033 15.0978 4.00033 16.5003C4.00033 17.9029 4.24094 19.2492 4.68315 20.5003ZM5.24768 21.8337C6.83486 25.0275 9.80309 27.4138 13.371 28.2114C12.3322 26.7974 11.5365 24.5498 11.0853 21.8337H5.24768ZM27.3175 20.5003C27.7597 19.2492 28.0003 17.9029 28.0003 16.5003C28.0003 15.0978 27.7597 13.7514 27.3175 12.5003H21.1045C21.2543 13.7639 21.3337 15.1077 21.3337 16.5003C21.3337 17.8929 21.2543 19.2368 21.1045 20.5003H27.3175ZM26.753 21.8337H20.9153C20.4641 24.5498 19.6685 26.7974 18.6296 28.2114C22.1976 27.4138 25.1658 25.0275 26.753 21.8337ZM12.2462 20.5003H19.7545C19.9123 19.2502 20.0003 17.9041 20.0003 16.5003C20.0003 15.0966 19.9123 13.7505 19.7545 12.5003H12.2462C12.0883 13.7505 12.0003 15.0966 12.0003 16.5003C12.0003 17.9041 12.0883 19.2502 12.2462 20.5003ZM12.447 21.8337C13.1432 25.7908 14.5578 28.5003 16.0003 28.5003C17.4429 28.5003 18.8574 25.7908 19.5537 21.8337H12.447ZM5.24768 11.167H11.0853C11.5365 8.45081 12.3322 6.20329 13.371 4.78927C9.80309 5.58684 6.83486 7.9732 5.24768 11.167ZM26.753 11.167C25.1658 7.9732 22.1976 5.58684 18.6296 4.78927C19.6685 6.20329 20.4641 8.45081 20.9153 11.167H26.753ZM12.447 11.167H19.5537C18.8574 7.20989 17.4429 4.50033 16.0003 4.50033C14.5578 4.50033 13.1432 7.20989 12.447 11.167ZM16.0003 29.8337C8.63653 29.8337 2.66699 23.8641 2.66699 16.5003C2.66699 9.13653 8.63653 3.16699 16.0003 3.16699C23.3641 3.16699 29.3337 9.13653 29.3337 16.5003C29.3337 23.8641 23.3641 29.8337 16.0003 29.8337Z" fill="white"/>
</svg>
