<svg width="300" height="300" viewBox="0 0 300 300" fill="none" xmlns="http://www.w3.org/2000/svg">
<path d="M235 0H65C29.1015 0 0 29.1015 0 65V235C0 270.899 29.1015 300 65 300H235C270.899 300 300 270.899 300 235V65C300 29.1015 270.899 0 235 0Z" fill="black"/>
<path d="M63 227C63 220.925 67.9249 216 74 216H140C146.075 216 151 220.925 151 227C151 233.075 146.075 238 140 238H74C67.9249 238 63 233.075 63 227Z" fill="white"/>
<path fill-rule="evenodd" clip-rule="evenodd" d="M117.738 63C87.5068 63 63 87.4005 63 117.5V150.2C63 162.24 72.8028 172 84.8951 172H183.262C213.493 172 238 147.6 238 117.5C238 87.4005 213.493 63 183.262 63H117.738ZM117.657 84.7757C99.5181 84.7757 84.814 99.416 84.814 117.476V139.276C84.814 145.296 89.7154 150.176 95.7615 150.176H183.221C201.36 150.176 216.064 135.535 216.064 117.476C216.064 99.416 201.36 84.7757 183.221 84.7757H117.657Z" fill="white"/>
</svg>
