<svg width="24" height="24" viewBox="0 0 24 24" fill="none" xmlns="http://www.w3.org/2000/svg">
    <path d="M0.5 4C0.5 2.067 2.067 0.5 4 0.5H20C21.933 0.5 23.5 2.067 23.5 4V20C23.5 21.933 21.933 23.5 20 23.5H4C2.067 23.5 0.5 21.933 0.5 20V4Z" fill="black"/>
    <path d="M0.5 4C0.5 2.067 2.067 0.5 4 0.5H20C21.933 0.5 23.5 2.067 23.5 4V20C23.5 21.933 21.933 23.5 20 23.5H4C2.067 23.5 0.5 21.933 0.5 20V4Z" stroke="#253238"/>
    <path fill-rule="evenodd" clip-rule="evenodd" d="M18.0086 9.52512L10.9376 16.5961C10.5476 16.9871 9.91456 16.9871 9.52356 16.5961L5.98856 13.0611C5.59756 12.6701 5.59756 12.0371 5.98856 11.6471L6.69556 10.9401C7.08556 10.5491 7.71856 10.5491 8.10956 10.9401L10.2306 13.0611L15.8876 7.40408C16.2786 7.01308 16.9116 7.01308 17.3016 7.40408L18.0086 8.11111C18.3996 8.50211 18.3996 9.13512 18.0086 9.52512Z" fill="white"/>
</svg>
