<svg width="16" height="16" viewBox="0 0 16 16" fill="none" xmlns="http://www.w3.org/2000/svg">
    <mask id="mask0_30205_60140" style="mask-type:alpha" maskUnits="userSpaceOnUse" x="0" y="0" width="16" height="16">
        <rect width="16" height="16" fill="#D9D9D9"/>
    </mask>
    <g mask="url(#mask0_30205_60140)">
        <path d="M7.33594 11.3335H8.66927V7.3335H7.33594V11.3335ZM8.0026 6.00016C8.19149 6.00016 8.34983 5.93627 8.4776 5.8085C8.60538 5.68072 8.66927 5.52239 8.66927 5.3335C8.66927 5.14461 8.60538 4.98627 8.4776 4.8585C8.34983 4.73072 8.19149 4.66683 8.0026 4.66683C7.81372 4.66683 7.65538 4.73072 7.5276 4.8585C7.39983 4.98627 7.33594 5.14461 7.33594 5.3335C7.33594 5.52239 7.39983 5.68072 7.5276 5.8085C7.65538 5.93627 7.81372 6.00016 8.0026 6.00016ZM8.0026 14.6668C7.08038 14.6668 6.21372 14.4918 5.4026 14.1418C4.59149 13.7918 3.88594 13.3168 3.28594 12.7168C2.68594 12.1168 2.21094 11.4113 1.86094 10.6002C1.51094 9.78905 1.33594 8.92239 1.33594 8.00016C1.33594 7.07794 1.51094 6.21127 1.86094 5.40016C2.21094 4.58905 2.68594 3.8835 3.28594 3.2835C3.88594 2.6835 4.59149 2.2085 5.4026 1.8585C6.21372 1.5085 7.08038 1.3335 8.0026 1.3335C8.92483 1.3335 9.79149 1.5085 10.6026 1.8585C11.4137 2.2085 12.1193 2.6835 12.7193 3.2835C13.3193 3.8835 13.7943 4.58905 14.1443 5.40016C14.4943 6.21127 14.6693 7.07794 14.6693 8.00016C14.6693 8.92239 14.4943 9.78905 14.1443 10.6002C13.7943 11.4113 13.3193 12.1168 12.7193 12.7168C12.1193 13.3168 11.4137 13.7918 10.6026 14.1418C9.79149 14.4918 8.92483 14.6668 8.0026 14.6668ZM8.0026 13.3335C9.49149 13.3335 10.7526 12.8168 11.7859 11.7835C12.8193 10.7502 13.3359 9.48905 13.3359 8.00016C13.3359 6.51127 12.8193 5.25016 11.7859 4.21683C10.7526 3.1835 9.49149 2.66683 8.0026 2.66683C6.51372 2.66683 5.2526 3.1835 4.21927 4.21683C3.18594 5.25016 2.66927 6.51127 2.66927 8.00016C2.66927 9.48905 3.18594 10.7502 4.21927 11.7835C5.2526 12.8168 6.51372 13.3335 8.0026 13.3335Z" fill="#1E88E5"/>
    </g>
</svg>
