<svg width="81" height="77" viewBox="0 0 81 77" fill="none" xmlns="http://www.w3.org/2000/svg">
<path d="M55.5008 39.0965L48.4008 31.9965H53.0008C54.1341 31.9965 55.0841 32.3798 55.8508 33.1465C56.6175 33.9132 57.0008 34.8632 57.0008 35.9965C57.0008 36.6632 56.8675 37.2631 56.6008 37.7965C56.3341 38.3298 55.9674 38.7631 55.5008 39.0965ZM75.0008 75.5965C74.2674 76.3298 73.3341 76.6965 72.2008 76.6965C71.0675 76.6965 70.1341 76.3298 69.4008 75.5965L1.40078 7.59648C0.667448 6.86315 0.300781 5.92982 0.300781 4.79648C0.300781 3.66315 0.667448 2.72982 1.40078 1.99648C2.13411 1.26315 3.06745 0.896484 4.20078 0.896484C5.33411 0.896484 6.26745 1.26315 7.00078 1.99648L75.0008 69.9965C75.7341 70.7298 76.1008 71.6632 76.1008 72.7965C76.1008 73.9298 75.7341 74.8632 75.0008 75.5965ZM21.0008 55.9965C15.4674 55.9965 10.7508 54.0465 6.85078 50.1465C2.95078 46.2465 1.00078 41.5298 1.00078 35.9965C1.00078 31.3965 2.40078 27.2965 5.20078 23.6965C8.00078 20.0965 11.6008 17.7298 16.0008 16.5965L23.4008 23.9965H21.0008C17.6674 23.9965 14.8341 25.1631 12.5008 27.4965C10.1674 29.8298 9.00078 32.6632 9.00078 35.9965C9.00078 39.3298 10.1674 42.1632 12.5008 44.4965C14.8341 46.8298 17.6674 47.9965 21.0008 47.9965H33.0008C34.1341 47.9965 35.0841 48.3798 35.8508 49.1465C36.6174 49.9131 37.0008 50.8632 37.0008 51.9965C37.0008 53.1298 36.6174 54.0798 35.8508 54.8465C35.0841 55.6131 34.1341 55.9965 33.0008 55.9965H21.0008ZM29.0008 39.9965C27.8674 39.9965 26.9174 39.6132 26.1508 38.8465C25.3841 38.0798 25.0008 37.1298 25.0008 35.9965C25.0008 34.8632 25.3841 33.9132 26.1508 33.1465C26.9174 32.3798 27.8674 31.9965 29.0008 31.9965H31.5008L39.4008 39.9965H29.0008ZM67.0008 51.1965C66.4008 50.2631 66.1841 49.2631 66.3508 48.1965C66.5174 47.1298 67.0675 46.2965 68.0008 45.6965C69.5341 44.5631 70.7508 43.1632 71.6508 41.4965C72.5508 39.8298 73.0008 37.9965 73.0008 35.9965C73.0008 32.6632 71.8341 29.8298 69.5008 27.4965C67.1674 25.1631 64.3341 23.9965 61.0008 23.9965H49.0008C47.8674 23.9965 46.9174 23.6132 46.1508 22.8465C45.3841 22.0798 45.0008 21.1298 45.0008 19.9965C45.0008 18.8631 45.3841 17.9131 46.1508 17.1465C46.9174 16.3798 47.8674 15.9965 49.0008 15.9965H61.0008C66.5341 15.9965 71.2508 17.9465 75.1508 21.8465C79.0508 25.7465 81.0008 30.4632 81.0008 35.9965C81.0008 39.2631 80.2508 42.3131 78.7508 45.1465C77.2508 47.9798 75.1674 50.3298 72.5008 52.1965C71.5675 52.7965 70.5675 53.0131 69.5008 52.8465C68.4341 52.6798 67.6008 52.1298 67.0008 51.1965Z" fill="#75919F"/>
</svg>
