<svg width="134" height="24" viewBox="0 0 134 24" fill="none" xmlns="http://www.w3.org/2000/svg">
    <path d="M0.726562 8.12841C0.726562 12.7335 4.34346 16.1641 8.85685 16.1641C12.01 16.1641 14.6068 14.5879 15.9361 11.899L12.5033 10.2757C11.7922 11.5429 10.3716 12.354 8.79502 12.354C6.60016 12.354 4.65213 10.4155 4.65213 8.12841C4.65213 5.84133 6.60016 3.92556 8.79502 3.92556C10.4025 3.92556 12.0541 4.75938 12.7342 6.11926L15.967 4.45053C14.6377 1.73076 12.041 0 8.85685 0C4.34346 0 0.726562 3.55425 0.726562 8.12841Z" fill="#455A64"/>
    <path d="M25.8502 0C21.5398 0 19.0459 1.79258 18.4917 4.66688L22.3403 5.77951C22.7713 4.04875 24.0644 3.36881 25.6654 3.36881C27.2665 3.36881 28.4364 4.25847 28.4364 5.77289V6.58109C25.142 6.95197 23.9105 7.1703 23.0176 7.44846C19.7848 8.28294 18.2761 9.82826 18.2761 12.1462C18.2761 14.7115 20.185 16.1641 23.4179 16.1641C25.7886 16.1641 27.8514 15.3075 28.8983 13.8549V16.1641H33.0547V5.81042C33.0547 1.8853 30.3761 0 25.8502 0ZM22.8945 11.4303C22.8945 10.5958 23.4487 9.89007 24.5878 9.5501C25.4191 9.30285 26.6199 9.16024 28.4364 9.00571V10.6221C28.4364 12.1365 26.5583 13.0425 24.9573 13.0425C23.7873 13.0425 22.8945 12.4502 22.8945 11.4303Z" fill="#455A64"/>
    <path d="M51.7589 0H46.9097L40.675 7.3893V0H36.2876V16.1641H40.675V12.4694L43.3305 9.46754L47.1406 16.1641H52.2207L46.4478 6.58109L51.7589 0Z" fill="#455A64"/>
    <path d="M61.0268 16.1641C64.4646 16.1641 67.1026 14.7856 68.0072 12.2154L64.235 10.8325C63.843 11.9782 62.5647 12.6649 60.9665 12.6649C59.1873 12.6649 57.8502 11.7548 57.3979 9.6801H68.243C68.3033 9.27754 68.3848 8.42252 68.3848 7.92706C68.3848 2.97245 65.4899 0 60.7554 0C55.6289 0 52.6826 3.60762 52.6826 8.06676C52.6826 12.8975 55.6892 16.1641 61.0268 16.1641ZM57.1621 6.68385C57.524 4.45428 58.859 3.45716 60.6986 3.45716C62.4174 3.45716 63.8731 4.54718 64.235 6.68385H57.1621Z" fill="#455A64"/>
    <path d="M72.0795 16.1641C73.0871 16.1641 73.9268 15.3462 73.9268 14.3027C73.9268 13.2873 73.0871 12.4694 72.0795 12.4694C71.0719 12.4694 70.2322 13.2873 70.2322 14.3027C70.2322 15.3462 71.0719 16.1641 72.0795 16.1641Z" fill="#455A64"/>
    <path d="M75.0814 8.02218C75.0814 6.92462 75.2833 5.88692 75.6872 4.90909C76.091 3.93127 76.6543 3.08315 77.377 2.36475C78.121 1.62639 79.0031 1.04767 80.0234 0.628604C81.0436 0.209535 82.1702 0 83.403 0C84.976 0 86.347 0.339246 87.516 1.01774C88.6851 1.67628 89.4957 2.55718 90.0909 3.69465L88.0127 4.3874C87.545 3.58917 86.9421 2.92351 86.1132 2.48448C85.2842 2.0255 84.3596 1.79601 83.3393 1.79601C82.489 1.79601 81.6919 1.95566 80.948 2.27495C80.2253 2.59424 79.5876 3.03326 79.035 3.59202C78.5036 4.13082 78.0785 4.77938 77.7596 5.5377C77.462 6.29601 77.3132 7.12417 77.3132 8.02218C77.3132 8.90023 77.4727 9.72839 77.7915 10.5067C78.1103 11.2849 78.5461 11.9634 79.0987 12.5421C79.6514 13.1009 80.2891 13.5499 81.0118 13.8891C81.7557 14.2084 82.5422 14.3681 83.3712 14.3681C83.9025 14.3681 84.4233 14.2982 84.9335 14.1585C85.4649 14.0189 85.9537 13.8293 86.4001 13.5898C86.8465 13.3304 87.2291 13.041 87.5479 12.7217C87.8668 12.4024 88.0127 12.2385 88.2436 11.7767L90.3218 12.2385C90.088 12.7973 89.7479 13.3803 89.3015 13.8592C88.8552 14.3182 88.3238 14.7273 87.7073 15.0865C87.1122 15.4257 86.4426 15.6852 85.6987 15.8648C84.976 16.0643 84.2214 16.1641 83.4349 16.1641C82.2233 16.1641 81.1074 15.9546 80.0871 15.5355C79.0669 15.0965 78.1847 14.5078 77.4408 13.7694C76.6968 13.0111 76.1123 12.143 75.6872 11.1652C75.2833 10.1874 75.0814 9.1397 75.0814 8.02218Z" fill="#455A64"/>
    <path d="M99.5584 16.1641C98.4065 16.1641 97.3456 15.9546 96.3755 15.5355C95.4257 15.0965 94.5972 14.5078 93.8898 13.7694C93.2028 13.0311 92.6672 12.173 92.2832 11.1951C91.8993 10.2173 91.7073 9.18958 91.7073 8.11198C91.7073 7.01442 91.8993 5.97672 92.2832 4.99889C92.6874 4.02107 93.2331 3.16297 93.9202 2.42461C94.6275 1.68625 95.456 1.09756 96.4058 0.658537C97.3759 0.219512 98.4267 0 99.5584 0C100.69 0 101.731 0.219512 102.681 0.658537C103.651 1.09756 104.479 1.68625 105.166 2.42461C105.874 3.16297 106.419 4.02107 106.803 4.99889C107.207 5.97672 107.41 7.01442 107.41 8.11198C107.41 9.18958 107.207 10.2173 106.803 11.1951C106.419 12.173 105.874 13.0311 105.166 13.7694C104.479 14.5078 103.651 15.0965 102.681 15.5355C101.731 15.9546 100.69 16.1641 99.5584 16.1641ZM93.8292 8.14191C93.8292 9.01996 93.9707 9.83814 94.2536 10.5965C94.5567 11.3348 94.9609 11.9934 95.4661 12.5721C95.9916 13.1308 96.5978 13.5699 97.2849 13.8891C97.9922 14.2084 98.74 14.3681 99.5281 14.3681C100.316 14.3681 101.054 14.2084 101.741 13.8891C102.448 13.5499 103.065 13.1009 103.59 12.5421C104.116 11.9634 104.53 11.2949 104.833 10.5366C105.136 9.77828 105.288 8.96009 105.288 8.08204C105.288 7.22395 105.136 6.41575 104.833 5.65743C104.53 4.87916 104.116 4.21065 103.59 3.65189C103.065 3.07317 102.458 2.62417 101.771 2.30488C101.084 1.96563 100.347 1.79601 99.5584 1.79601C98.7703 1.79601 98.0226 1.96563 97.3152 2.30488C96.6282 2.62417 96.0219 3.07317 95.4965 3.65189C94.9912 4.2306 94.5871 4.90909 94.2839 5.68737C93.9808 6.44568 93.8292 7.26386 93.8292 8.14191Z" fill="#455A64"/>
    <path d="M127.559 0C125.675 0 123.282 0.95083 122.354 3.10604C121.367 0.982523 119.304 0 117.21 0C115.355 0 113.567 0.837636 112.49 2.77099V0.230916H110.181V16.1641H112.532L112.573 7.70171C112.573 3.77162 115.026 2.2186 117 2.2186C118.975 2.2186 120.53 3.39129 120.53 6.27547V16.1641H122.923V7.47985C122.923 4.08856 125.017 2.2186 127.35 2.2186C129.324 2.2186 130.879 3.39129 130.879 6.27547V16.1641H133.272V6.02192C133.272 1.83827 130.431 0 127.559 0Z" fill="#455A64"/>
    <path d="M1.25802 23.9229V19.5341H2.74095C3.08525 19.5341 3.3667 19.5962 3.58528 19.7205C3.80529 19.8434 3.96816 20.0098 4.07388 20.2198C4.1796 20.4298 4.23246 20.6641 4.23246 20.9227C4.23246 21.1813 4.1796 21.4163 4.07388 21.6277C3.96959 21.8392 3.80815 22.0078 3.58957 22.1335C3.37098 22.2578 3.09097 22.3199 2.74952 22.3199H1.68661V21.8485H2.73238C2.96811 21.8485 3.1574 21.8077 3.30027 21.7263C3.44313 21.6449 3.54671 21.5349 3.611 21.3963C3.67671 21.2563 3.70957 21.0984 3.70957 20.9227C3.70957 20.747 3.67671 20.5898 3.611 20.4512C3.54671 20.3127 3.44242 20.2041 3.29812 20.1255C3.15383 20.0455 2.96239 20.0055 2.72381 20.0055H1.78947V23.9229H1.25802Z" fill="#455A64"/>
    <path d="M5.32996 23.9229V19.5341H6.81289C7.15576 19.5341 7.43721 19.5926 7.65722 19.7098C7.87723 19.8255 8.04009 19.9848 8.14581 20.1877C8.25153 20.3905 8.30439 20.6213 8.30439 20.8798C8.30439 21.1384 8.25153 21.3677 8.14581 21.5677C8.04009 21.7677 7.87794 21.9249 7.65936 22.0392C7.44078 22.152 7.16148 22.2085 6.82146 22.2085H5.6214V21.7285H6.80432C7.03861 21.7285 7.22719 21.6942 7.37006 21.6256C7.51435 21.557 7.61864 21.4599 7.68293 21.3342C7.74865 21.207 7.78151 21.0556 7.78151 20.8798C7.78151 20.7041 7.74865 20.5505 7.68293 20.4191C7.61722 20.2877 7.51221 20.1862 7.36792 20.1148C7.22362 20.0419 7.0329 20.0055 6.79574 20.0055H5.86141V23.9229H5.32996ZM7.39578 21.9513L8.47583 23.9229H7.85866L6.79574 21.9513H7.39578Z" fill="#455A64"/>
    <path d="M13.1344 21.7285C13.1344 22.1913 13.0508 22.5914 12.8837 22.9285C12.7165 23.2657 12.4872 23.5257 12.1958 23.7086C11.9043 23.8914 11.5715 23.9829 11.1972 23.9829C10.8229 23.9829 10.49 23.8914 10.1985 23.7086C9.9071 23.5257 9.6778 23.2657 9.51065 22.9285C9.3435 22.5914 9.25992 22.1913 9.25992 21.7285C9.25992 21.2656 9.3435 20.8656 9.51065 20.5284C9.6778 20.1912 9.9071 19.9312 10.1985 19.7484C10.49 19.5655 10.8229 19.4741 11.1972 19.4741C11.5715 19.4741 11.9043 19.5655 12.1958 19.7484C12.4872 19.9312 12.7165 20.1912 12.8837 20.5284C13.0508 20.8656 13.1344 21.2656 13.1344 21.7285ZM12.6201 21.7285C12.6201 21.3484 12.5565 21.0277 12.4294 20.7663C12.3036 20.5048 12.1329 20.307 11.9172 20.1727C11.7029 20.0384 11.4629 19.9712 11.1972 19.9712C10.9314 19.9712 10.6907 20.0384 10.475 20.1727C10.2607 20.307 10.09 20.5048 9.96281 20.7663C9.83709 21.0277 9.77423 21.3484 9.77423 21.7285C9.77423 22.1085 9.83709 22.4292 9.96281 22.6906C10.09 22.9521 10.2607 23.15 10.475 23.2843C10.6907 23.4185 10.9314 23.4857 11.1972 23.4857C11.4629 23.4857 11.7029 23.4185 11.9172 23.2843C12.1329 23.15 12.3036 22.9521 12.4294 22.6906C12.5565 22.4292 12.6201 22.1085 12.6201 21.7285Z" fill="#455A64"/>
    <path d="M15.6238 23.9229H14.2694V19.5341H15.6838C16.1095 19.5341 16.4738 19.6219 16.7767 19.7976C17.0795 19.9719 17.3117 20.2227 17.4731 20.5498C17.6346 20.8756 17.7153 21.2656 17.7153 21.7199C17.7153 22.1771 17.6339 22.5706 17.471 22.9007C17.3081 23.2292 17.071 23.4821 16.7595 23.6593C16.4481 23.835 16.0695 23.9229 15.6238 23.9229ZM14.8009 23.4514H15.5895C15.9523 23.4514 16.2531 23.3814 16.4917 23.2414C16.7302 23.1014 16.9081 22.9021 17.0253 22.6435C17.1424 22.3849 17.201 22.077 17.201 21.7199C17.201 21.3656 17.1431 21.0606 17.0274 20.8048C16.9117 20.5477 16.7388 20.3505 16.5088 20.2134C16.2788 20.0748 15.9923 20.0055 15.6495 20.0055H14.8009V23.4514Z" fill="#455A64"/>
    <path d="M21.7283 19.5341H22.2598V22.4399C22.2598 22.7399 22.189 23.0078 22.0476 23.2435C21.9076 23.4778 21.7097 23.6628 21.454 23.7986C21.1983 23.9329 20.8983 24 20.554 24C20.2097 24 19.9096 23.9329 19.6539 23.7986C19.3982 23.6628 19.1996 23.4778 19.0582 23.2435C18.9182 23.0078 18.8482 22.7399 18.8482 22.4399V19.5341H19.3796V22.3971C19.3796 22.6114 19.4268 22.8021 19.521 22.9692C19.6153 23.135 19.7496 23.2657 19.9239 23.3614C20.0996 23.4557 20.3097 23.5028 20.554 23.5028C20.7983 23.5028 21.0083 23.4557 21.184 23.3614C21.3597 23.2657 21.494 23.135 21.5869 22.9692C21.6812 22.8021 21.7283 22.6114 21.7283 22.3971V19.5341Z" fill="#455A64"/>
    <path d="M27.0941 20.9056H26.5626C26.5312 20.7527 26.4762 20.6184 26.3976 20.5027C26.3204 20.387 26.2262 20.2898 26.1147 20.2112C26.0047 20.1312 25.8826 20.0712 25.7483 20.0312C25.614 19.9912 25.474 19.9712 25.3282 19.9712C25.0625 19.9712 24.8218 20.0384 24.6061 20.1727C24.3918 20.307 24.221 20.5048 24.0939 20.7663C23.9682 21.0277 23.9053 21.3484 23.9053 21.7285C23.9053 22.1085 23.9682 22.4292 24.0939 22.6906C24.221 22.9521 24.3918 23.15 24.6061 23.2843C24.8218 23.4185 25.0625 23.4857 25.3282 23.4857C25.474 23.4857 25.614 23.4657 25.7483 23.4257C25.8826 23.3857 26.0047 23.3264 26.1147 23.2478C26.2262 23.1678 26.3204 23.07 26.3976 22.9542C26.4762 22.8371 26.5312 22.7028 26.5626 22.5514H27.0941C27.0541 22.7757 26.9812 22.9764 26.8755 23.1535C26.7698 23.3307 26.6383 23.4814 26.4812 23.6057C26.324 23.7286 26.1476 23.8221 25.9519 23.8864C25.7576 23.9507 25.5497 23.9829 25.3282 23.9829C24.9539 23.9829 24.6211 23.8914 24.3296 23.7086C24.0382 23.5257 23.8089 23.2657 23.6417 22.9285C23.4746 22.5914 23.391 22.1913 23.391 21.7285C23.391 21.2656 23.4746 20.8656 23.6417 20.5284C23.8089 20.1912 24.0382 19.9312 24.3296 19.7484C24.6211 19.5655 24.9539 19.4741 25.3282 19.4741C25.5497 19.4741 25.7576 19.5062 25.9519 19.5705C26.1476 19.6348 26.324 19.7291 26.4812 19.8534C26.6383 19.9762 26.7698 20.1262 26.8755 20.3034C26.9812 20.4791 27.0541 20.6798 27.0941 20.9056Z" fill="#455A64"/>
    <path d="M27.9542 20.0055V19.5341H31.2458V20.0055H29.8657V23.9229H29.3343V20.0055H27.9542Z" fill="#455A64"/>
    <path d="M32.8389 19.5341V23.9229H32.3074V19.5341H32.8389Z" fill="#455A64"/>
    <path d="M34.3259 19.5341L35.6288 23.2285H35.6802L36.9831 19.5341H37.5403L35.9288 23.9229H35.3802L33.7687 19.5341H34.3259Z" fill="#455A64"/>
    <path d="M38.9968 19.5341V23.9229H38.4653V19.5341H38.9968Z" fill="#455A64"/>
    <path d="M40.0637 20.0055V19.5341H43.3553V20.0055H41.9752V23.9229H41.4438V20.0055H40.0637Z" fill="#455A64"/>
    <path d="M44.0398 19.5341H44.6484L45.8656 21.5827H45.917L47.1342 19.5341H47.7428L46.157 22.1142V23.9229H45.6256V22.1142L44.0398 19.5341Z" fill="#455A64"/>
    <path d="M53.0103 20.6313C52.9846 20.4141 52.8803 20.2455 52.6974 20.1255C52.5145 20.0055 52.2902 19.9455 52.0245 19.9455C51.8302 19.9455 51.6602 19.9769 51.5145 20.0398C51.3702 20.1027 51.2573 20.1891 51.1759 20.2991C51.0959 20.4091 51.0559 20.5341 51.0559 20.6741C51.0559 20.7913 51.0837 20.892 51.1395 20.9763C51.1966 21.0591 51.2695 21.1284 51.358 21.1841C51.4466 21.2384 51.5395 21.2834 51.6366 21.3191C51.7338 21.3534 51.8231 21.3813 51.9045 21.4027L52.3502 21.5227C52.4645 21.5527 52.5917 21.5942 52.7317 21.647C52.8731 21.6999 53.0081 21.772 53.1367 21.8635C53.2667 21.9535 53.3739 22.0692 53.4582 22.2106C53.5424 22.3521 53.5846 22.5256 53.5846 22.7314C53.5846 22.9685 53.5224 23.1828 53.3982 23.3743C53.2753 23.5657 53.0953 23.7178 52.8581 23.8307C52.6224 23.9436 52.336 24 51.9988 24C51.6845 24 51.4123 23.9493 51.1823 23.8478C50.9537 23.7464 50.7737 23.605 50.6423 23.4235C50.5123 23.2421 50.4387 23.0314 50.4216 22.7914H50.9702C50.9845 22.9571 51.0402 23.0942 51.1373 23.2028C51.2359 23.31 51.3602 23.39 51.5102 23.4428C51.6616 23.4943 51.8245 23.52 51.9988 23.52C52.2017 23.52 52.3838 23.4871 52.5452 23.4214C52.7067 23.3543 52.8346 23.2614 52.9288 23.1428C53.0231 23.0228 53.0703 22.8828 53.0703 22.7228C53.0703 22.5771 53.0296 22.4585 52.9481 22.3671C52.8667 22.2756 52.7596 22.2013 52.6267 22.1442C52.4938 22.087 52.3502 22.037 52.1959 21.9942L51.6559 21.8399C51.313 21.7413 51.0416 21.6006 50.8416 21.4177C50.6416 21.2349 50.5416 20.9956 50.5416 20.6998C50.5416 20.4541 50.608 20.2398 50.7409 20.0569C50.8752 19.8726 51.0552 19.7298 51.2809 19.6283C51.5081 19.5255 51.7616 19.4741 52.0417 19.4741C52.3245 19.4741 52.576 19.5248 52.796 19.6262C53.016 19.7262 53.1903 19.8634 53.3189 20.0377C53.4489 20.2119 53.5174 20.4098 53.5246 20.6313H53.0103Z" fill="#455A64"/>
    <path d="M57.5799 19.5341H58.1114V22.4399C58.1114 22.7399 58.0406 23.0078 57.8992 23.2435C57.7592 23.4778 57.5613 23.6628 57.3056 23.7986C57.0499 23.9329 56.7499 24 56.4056 24C56.0613 24 55.7612 23.9329 55.5055 23.7986C55.2498 23.6628 55.0512 23.4778 54.9098 23.2435C54.7698 23.0078 54.6998 22.7399 54.6998 22.4399V19.5341H55.2312V22.3971C55.2312 22.6114 55.2784 22.8021 55.3727 22.9692C55.467 23.135 55.6012 23.2657 55.7755 23.3614C55.9513 23.4557 56.1613 23.5028 56.4056 23.5028C56.6499 23.5028 56.8599 23.4557 57.0356 23.3614C57.2113 23.2657 57.3456 23.135 57.4385 22.9692C57.5328 22.8021 57.5799 22.6114 57.5799 22.3971V19.5341Z" fill="#455A64"/>
    <path d="M59.9455 19.5341V23.9229H59.4141V19.5341H59.9455Z" fill="#455A64"/>
    <path d="M61.0125 20.0055V19.5341H64.3041V20.0055H62.924V23.9229H62.3926V20.0055H61.0125Z" fill="#455A64"/>
    <path d="M65.3657 23.9229V19.5341H68.0144V20.0055H65.8971V21.4884H67.8772V21.9599H65.8971V23.4514H68.0487V23.9229H65.3657Z" fill="#455A64"/>
</svg>
