<svg width="142" height="63" viewBox="0 0 142 63" fill="none" xmlns="http://www.w3.org/2000/svg">
<path d="M2.47656 13.4156L14.9635 13.4181L22.5564 13.4193V5.97266L2.47656 13.4156Z" fill="#C6D2D9"/>
<path d="M22.5576 5.97139V32.2619L32.041 2.45508L22.5576 5.97139Z" fill="#C6D2D9"/>
<path d="M22.5558 13.4172L14.9629 13.416L22.5558 32.2611V13.4172Z" fill="#C6D2D9"/>
<path d="M2.47656 13.4141L16.9106 18.252L14.9635 13.4165L2.47656 13.4141Z" fill="#C6D2D9"/>
<path d="M48.4772 25.3411C48.367 25.4501 48.1836 25.586 47.9271 25.7493C47.6701 25.9129 47.3357 26.0762 46.9232 26.2397C46.5106 26.4028 46.0061 26.5433 45.4105 26.6617C44.8143 26.7794 44.1316 26.8386 43.3614 26.8386C41.8761 26.8386 40.5925 26.6025 39.5109 26.1308C38.4287 25.6591 37.5349 25.0006 36.8292 24.1568C36.1232 23.3126 35.6054 22.3145 35.2753 21.1616C34.9453 20.0091 34.7803 18.7431 34.7803 17.3634C34.7803 15.9843 34.959 14.7088 35.3166 13.538C35.6741 12.3672 36.2104 11.3556 36.9255 10.502C37.6406 9.64916 38.5345 8.98193 39.6072 8.50076C40.6798 8.02016 41.9402 7.7793 43.3889 7.7793C44.1041 7.7793 44.7504 7.84303 45.328 7.96987C45.9056 8.09697 46.4097 8.24688 46.8408 8.41911C47.2713 8.59191 47.629 8.77305 47.9134 8.96369C48.1975 9.15424 48.4129 9.31346 48.5598 9.44012C48.7248 9.58567 48.8667 9.75798 48.9861 9.95737C49.1052 10.1574 49.1649 10.3752 49.1649 10.6109C49.1649 10.9743 49.0273 11.3372 48.7523 11.7001C48.4773 12.0634 48.1748 12.3992 47.8446 12.7075C47.6245 12.4897 47.3771 12.2677 47.1021 12.0405C46.827 11.8137 46.5198 11.6142 46.1806 11.4415C45.8412 11.2692 45.4561 11.124 45.0255 11.0058C44.5945 10.888 44.1132 10.8288 43.5816 10.8288C42.6464 10.8288 41.8627 11.0151 41.23 11.387C40.5974 11.7593 40.0885 12.2446 39.7035 12.8437C39.3186 13.4427 39.0435 14.128 38.8784 14.8994C38.7134 15.6711 38.6309 16.456 38.6309 17.2546C38.6309 18.1079 38.7134 18.9247 38.8784 19.7049C39.0433 20.4855 39.3274 21.1755 39.731 21.7742C40.1341 22.3732 40.6615 22.8544 41.3125 23.2172C41.9631 23.5806 42.7745 23.7618 43.7466 23.7618C44.2596 23.7618 44.732 23.6985 45.163 23.5713C45.5936 23.4444 45.9743 23.29 46.3044 23.1082C46.6344 22.9271 46.9233 22.7366 47.1707 22.5368C47.4183 22.337 47.6245 22.1649 47.7896 22.0193C47.8997 22.1466 48.0276 22.301 48.1746 22.4823C48.3224 22.6655 48.4601 22.8563 48.5871 23.0541C48.7153 23.254 48.8253 23.4535 48.9172 23.6528C49.0088 23.853 49.0547 24.0342 49.0547 24.1973C49.0547 24.4336 49.0088 24.6331 48.9172 24.7964C48.8252 24.9599 48.6786 25.1415 48.4772 25.3411ZM62.651 23.2528C62.651 24.6956 62.8628 25.7457 63.2874 26.403C62.9554 26.5306 62.6463 26.622 62.3604 26.6768C62.0742 26.7317 61.7746 26.7589 61.4612 26.7589C60.7972 26.7589 60.2943 26.6311 59.9532 26.3755C59.6118 26.1201 59.3951 25.7549 59.3031 25.2798C58.897 25.7003 58.3622 26.0562 57.6982 26.3484C57.0342 26.64 56.2222 26.7866 55.2633 26.7866C54.7652 26.7866 54.2672 26.7182 53.7691 26.5821C53.271 26.4449 52.8189 26.2223 52.4132 25.9132C52.0073 25.6035 51.6753 25.1894 51.4171 24.6705C51.1586 24.1517 51.0298 23.5192 51.0298 22.773C51.0298 21.8447 51.2555 21.089 51.7077 20.5068C52.1596 19.9241 52.7267 19.4645 53.4094 19.1276C54.0917 18.7911 54.8297 18.5595 55.6231 18.4318C56.416 18.3041 57.1449 18.2225 57.8089 18.1857C58.0304 18.1677 58.2468 18.1583 58.4592 18.1583H59.054V17.6597C59.054 16.9577 58.8646 16.4591 58.4868 16.1639C58.1084 15.8685 57.495 15.7204 56.6467 15.7204C55.8534 15.7204 55.1478 15.8484 54.53 16.1039C53.9117 16.3598 53.3077 16.6517 52.7177 16.9804C52.4591 16.6701 52.2515 16.3278 52.0951 15.9533C51.9382 15.5793 51.8599 15.3006 51.8599 15.1178C51.8599 14.8623 52.0025 14.6158 52.2888 14.3782C52.5746 14.1411 52.9667 13.9263 53.4648 13.7345C53.9629 13.5427 54.5345 13.3878 55.1804 13.2689C55.8258 13.1502 56.5084 13.0908 57.2279 13.0908C58.224 13.0908 59.0679 13.1914 59.7596 13.3922C60.4513 13.5933 61.0139 13.9036 61.4475 14.3234C61.8807 14.7438 62.1897 15.2685 62.3743 15.8984C62.5585 16.5285 62.6511 17.2638 62.6511 18.1034V23.2528H62.651ZM59.1092 20.0756H58.722C58.5925 20.0756 58.4633 20.0851 58.3345 20.1031C57.8731 20.1398 57.4166 20.1945 56.965 20.2672C56.5127 20.3404 56.1114 20.4683 55.7614 20.6508C55.4106 20.8335 55.1249 21.0711 54.9036 21.3629C54.6822 21.6552 54.5714 22.0298 54.5714 22.4861C54.5714 22.9975 54.7189 23.4309 55.0141 23.7871C55.309 24.1433 55.8071 24.3213 56.5083 24.3213C56.8586 24.3213 57.1907 24.276 57.5045 24.1842C57.8179 24.0933 58.0945 23.9745 58.3345 23.8283C58.574 23.6822 58.7634 23.5225 58.9018 23.3488C59.0401 23.1755 59.1093 23.0159 59.1093 22.8696V20.0756H59.1092ZM69.5403 14.6794C69.8343 14.3328 70.2943 13.9809 70.9194 13.6248C71.5446 13.2687 72.3353 13.0907 73.2916 13.0907C73.9722 13.0907 74.6203 13.2049 75.2365 13.433C75.852 13.6615 76.3994 14.0314 76.8775 14.5425C77.3557 15.0539 77.7372 15.7296 78.0224 16.5693C78.3074 17.4095 78.4501 18.4415 78.4501 19.6646C78.4501 21.0889 78.2843 22.2625 77.9535 23.1844C77.6222 24.1069 77.195 24.8374 76.6711 25.3759C76.147 25.9146 75.5628 26.2936 74.9195 26.5125C74.2758 26.7317 73.6321 26.8415 72.9888 26.8415C72.4553 26.8415 71.9908 26.782 71.5958 26.6633C71.2002 26.5444 70.8647 26.4125 70.5889 26.2661C70.313 26.1202 70.1017 25.9743 69.9547 25.8278C69.8077 25.6819 69.7156 25.5812 69.6789 25.5264V32.2599H65.9158V13.4741C66.0084 13.4562 66.1199 13.4378 66.2504 13.4194C66.3621 13.4015 66.4921 13.3877 66.6408 13.3783C66.7895 13.3693 66.9661 13.3646 67.1704 13.3646C67.7835 13.3646 68.304 13.4652 68.7315 13.6659C69.1589 13.8671 69.4288 14.2047 69.5403 14.6794ZM74.5209 19.7467C74.5209 19.199 74.475 18.6879 74.3833 18.2129C74.2917 17.7383 74.1404 17.3274 73.9294 16.9803C73.7185 16.6336 73.4338 16.364 73.0764 16.1721C72.7184 15.9805 72.2831 15.8848 71.7698 15.8848C70.9995 15.8848 70.463 16.0311 70.1602 16.3228C69.8577 16.6152 69.7063 16.935 69.7063 17.2817V23.0887C69.8529 23.2351 70.1139 23.4082 70.4901 23.6091C70.8663 23.8103 71.3015 23.9102 71.797 23.9102C72.7326 23.9102 73.4204 23.5454 73.8607 22.8148C74.3009 22.0845 74.5209 21.0616 74.5209 19.7467ZM81.3544 24.4583C81.2251 24.0933 81.1421 23.7095 81.1054 23.3077C81.0682 22.9062 81.0501 22.5046 81.0501 22.1023V9.39274C81.1789 9.37483 81.3173 9.35642 81.4651 9.33801C81.5937 9.32001 81.7322 9.30643 81.88 9.29693C82.0275 9.28793 82.1749 9.28327 82.3226 9.28327C82.6178 9.28327 82.9134 9.31068 83.2081 9.36542C83.5029 9.42023 83.7704 9.52979 84.0106 9.69408C84.25 9.85837 84.444 10.0823 84.5918 10.3652C84.7396 10.6485 84.8131 11.0183 84.8131 11.4744V13.4192H88.6867V16.1859H84.8131V22.0271C84.8131 23.3009 85.339 23.9377 86.3899 23.9377C86.6483 23.9377 86.8927 23.8968 87.1239 23.8144C87.3542 23.7323 87.5614 23.6411 87.7464 23.5407C87.9305 23.4403 88.0923 23.3352 88.2301 23.2256C88.3688 23.1159 88.4654 23.034 88.5208 22.9791C88.7973 23.3812 89.0095 23.7291 89.1573 24.0227C89.3042 24.3167 89.3785 24.5926 89.3785 24.8504C89.3785 25.0902 89.2819 25.3254 89.0879 25.5557C88.8939 25.786 88.6215 25.9983 88.2714 26.1917C87.9214 26.3851 87.497 26.5418 86.9992 26.6616C86.5005 26.7815 85.9565 26.8415 85.3662 26.8415C84.2228 26.8415 83.3328 26.6223 82.6963 26.1841C82.0598 25.7457 81.6123 25.1704 81.3544 24.4583ZM98.2172 24.1021C98.6804 24.1021 99.0874 24.0521 99.4391 23.9514C99.7908 23.8513 100.105 23.728 100.384 23.5819C100.661 23.4359 100.902 23.2761 101.105 23.1025C101.309 22.9292 101.494 22.7694 101.661 22.623C101.883 22.8968 102.114 23.2487 102.355 23.6775C102.595 24.1069 102.716 24.4583 102.716 24.7321C102.716 25.134 102.485 25.4992 102.024 25.8278C101.637 26.1202 101.088 26.3713 100.378 26.5809C99.6677 26.7908 98.8323 26.896 97.8738 26.896C97.0061 26.896 96.1532 26.7866 95.3145 26.5674C94.4748 26.3483 93.7277 25.9648 93.073 25.4168C92.4175 24.8692 91.8875 24.1343 91.4821 23.212C91.0759 22.2898 90.8728 21.126 90.8728 19.7194C90.8728 18.5689 91.0528 17.5787 91.4128 16.7475C91.7727 15.9168 92.2516 15.2274 92.8518 14.6795C93.4511 14.1317 94.1289 13.7303 94.8852 13.4742C95.6414 13.2188 96.4166 13.0908 97.21 13.0908C98.2428 13.0908 99.1187 13.2509 99.8378 13.5701C100.558 13.8898 101.143 14.319 101.595 14.8575C102.047 15.3962 102.374 16.0126 102.577 16.7065C102.78 17.4006 102.882 18.1308 102.882 18.8977V19.2811C102.882 19.4277 102.877 19.5825 102.868 19.7468C102.859 19.9113 102.85 20.0713 102.84 20.2261C102.831 20.3817 102.817 20.5048 102.799 20.596H94.6358C94.7101 21.6004 95.0247 22.4358 95.5803 23.1025C96.1351 23.7693 97.0143 24.1021 98.2172 24.1021ZM99.4787 18.5416C99.4787 17.6651 99.3061 16.9529 98.9635 16.4051C98.6201 15.8573 98.0034 15.5833 97.1126 15.5833C96.3522 15.5833 95.7446 15.8436 95.2905 16.364C94.8356 16.8845 94.6086 17.6103 94.6086 18.5415H99.4787V18.5416ZM109.43 14.7486C109.541 14.5857 109.689 14.4046 109.873 14.2051C110.057 14.0057 110.283 13.8246 110.551 13.6616C110.818 13.4986 111.114 13.3624 111.436 13.2538C111.758 13.1451 112.105 13.0908 112.474 13.0908C112.695 13.0908 112.931 13.1092 113.179 13.1451C113.429 13.1815 113.659 13.2495 113.871 13.3488C114.083 13.4486 114.254 13.5842 114.383 13.7563C114.512 13.9284 114.577 14.1411 114.577 14.3945C114.577 14.7929 114.475 15.2505 114.272 15.767C114.069 16.284 113.867 16.725 113.664 17.09C113.35 16.8344 113.036 16.6381 112.723 16.5011C112.409 16.3641 112.04 16.2956 111.616 16.2956C111.044 16.2956 110.565 16.4604 110.177 16.7899C109.79 17.1195 109.596 17.5133 109.596 17.9711V26.8384H105.833V13.4741C105.926 13.4562 106.036 13.4378 106.165 13.4194C106.276 13.4015 106.405 13.3877 106.552 13.3783C106.7 13.3693 106.875 13.3646 107.078 13.3646C107.668 13.3646 108.18 13.4779 108.614 13.7041C109.047 13.93 109.32 14.2784 109.43 14.7486ZM120.129 14.7486C120.24 14.5857 120.387 14.4046 120.572 14.2051C120.756 14.0057 120.983 13.8246 121.25 13.6616C121.517 13.4986 121.812 13.3624 122.135 13.2538C122.458 13.1451 122.804 13.0908 123.173 13.0908C123.394 13.0908 123.629 13.1092 123.878 13.1451C124.127 13.1815 124.358 13.2495 124.57 13.3488C124.782 13.4486 124.953 13.5842 125.082 13.7563C125.211 13.9284 125.276 14.1411 125.276 14.3945C125.276 14.7929 125.174 15.2505 124.971 15.767C124.768 16.284 124.566 16.725 124.363 17.09C124.049 16.8344 123.735 16.6381 123.421 16.5011C123.108 16.3641 122.739 16.2956 122.315 16.2956C121.743 16.2956 121.263 16.4604 120.876 16.7899C120.489 17.1195 120.295 17.5133 120.295 17.9711V26.8384H116.532V13.4741C116.624 13.4562 116.735 13.4378 116.865 13.4194C116.975 13.4015 117.104 13.3877 117.252 13.3783C117.399 13.3693 117.574 13.3646 117.777 13.3646C118.367 13.3646 118.879 13.4779 119.312 13.7041C119.746 13.93 120.018 14.2784 120.129 14.7486ZM138.087 23.2528C138.087 24.6956 138.299 25.7457 138.724 26.403C138.391 26.5306 138.082 26.622 137.796 26.6768C137.51 26.7317 137.21 26.7589 136.897 26.7589C136.233 26.7589 135.73 26.6311 135.389 26.3755C135.047 26.1201 134.831 25.7549 134.738 25.2798C134.333 25.7003 133.798 26.0562 133.134 26.3484C132.47 26.64 131.658 26.7866 130.699 26.7866C130.201 26.7866 129.703 26.7182 129.205 26.5821C128.707 26.4449 128.254 26.2223 127.849 25.9132C127.443 25.6035 127.111 25.1894 126.853 24.6705C126.595 24.1517 126.466 23.5192 126.466 22.773C126.466 21.8447 126.692 21.089 127.144 20.5068C127.596 19.9241 128.163 19.4645 128.845 19.1276C129.527 18.7911 130.265 18.5595 131.059 18.4318C131.851 18.3041 132.58 18.2225 133.245 18.1857C133.466 18.1677 133.683 18.1583 133.896 18.1583H134.49V17.6597C134.49 16.9577 134.301 16.4591 133.923 16.1639C133.544 15.8685 132.931 15.7204 132.083 15.7204C131.289 15.7204 130.584 15.8484 129.966 16.1039C129.347 16.3598 128.744 16.6517 128.154 16.9804C127.895 16.6701 127.687 16.3278 127.531 15.9533C127.374 15.5793 127.296 15.3006 127.296 15.1178C127.296 14.8623 127.439 14.6158 127.725 14.3782C128.011 14.1411 128.403 13.9263 128.901 13.7345C129.399 13.5427 129.97 13.3878 130.616 13.2689C131.262 13.1502 131.945 13.0908 132.664 13.0908C133.659 13.0908 134.504 13.1914 135.196 13.3922C135.887 13.5933 136.45 13.9036 136.883 14.3234C137.317 14.7438 137.626 15.2685 137.81 15.8984C137.995 16.5285 138.087 17.2638 138.087 18.1034V23.2528ZM134.545 20.0756H134.158C134.028 20.0756 133.9 20.0851 133.771 20.1031C133.309 20.1398 132.853 20.1945 132.4 20.2672C131.949 20.3404 131.548 20.4683 131.198 20.6508C130.847 20.8335 130.561 21.0711 130.34 21.3629C130.118 21.6552 130.007 22.0298 130.007 22.4861C130.007 22.9975 130.155 23.4309 130.45 23.7871C130.745 24.1433 131.243 24.3213 131.945 24.3213C132.295 24.3213 132.627 24.276 132.94 24.1842C133.254 24.0933 133.531 23.9745 133.771 23.8283C134.009 23.6822 134.199 23.5225 134.338 23.3488C134.476 23.1755 134.545 23.0159 134.545 22.8696V20.0756Z" fill="#C6D2D9"/>
<path d="M22.2943 43.7676L25.5596 49.139L31.7292 50.5536L27.5778 55.2878L28.1254 61.5336L22.2943 59.088L16.4631 61.5336L17.0107 55.2878L12.8594 50.5536L19.0289 49.139L22.2943 43.7676Z" fill="#FFBF00"/>
<path d="M46.6146 43.7676L49.88 49.139L56.0495 50.5536L51.8982 55.2878L52.4457 61.5336L46.6146 59.088L40.7835 61.5336L41.331 55.2878L37.1797 50.5536L43.3492 49.139L46.6146 43.7676Z" fill="#FFBF00"/>
<path d="M70.9359 43.7676L74.2013 49.139L80.3708 50.5536L76.2194 55.2878L76.767 61.5336L70.9359 59.088L65.1048 61.5336L65.6523 55.2878L61.501 50.5536L67.6705 49.139L70.9359 43.7676Z" fill="#FFBF00"/>
<path d="M95.257 43.7676L98.5222 49.139L104.692 50.5536L100.541 55.2878L101.088 61.5336L95.257 59.088L89.4259 61.5336L89.9733 55.2878L85.8223 50.5536L91.991 49.139L95.257 43.7676Z" fill="#FFBF00"/>
<path d="M119.578 43.7676L122.844 49.139L129.014 50.5536L124.862 55.2878L125.41 61.5336L119.578 59.088L113.747 61.5336L114.295 55.2878L110.144 50.5536L116.313 49.139L119.578 43.7676Z" fill="#FFBF00"/>
<path d="M119.508 44.6855L122.328 49.3242L122.441 49.5112L122.656 49.5604L127.982 50.7817L124.398 54.869L124.254 55.0339L124.273 55.2516L124.746 60.6444L119.71 58.5325L119.508 58.4475L119.305 58.5325L114.269 60.6444L114.742 55.2516L114.761 55.0339L114.617 54.869L111.032 50.7817L116.36 49.5604L116.574 49.5112L116.687 49.3242L119.508 44.6855Z" fill="white" stroke="#FFBF00" stroke-width="1.25992"/>
<path d="M113.815 61.4515L119.646 59.006V43.6855L116.381 49.057L110.211 50.4715L114.362 55.2058L113.815 61.4515Z" fill="#FFBF00"/>
</svg>
