<svg width="142" height="63" viewBox="0 0 142 63" fill="none" xmlns="http://www.w3.org/2000/svg">
<path d="M22.304 42.9746L25.5695 48.3461L31.739 49.7607L27.5876 54.4949L28.1351 60.7407L22.304 58.2951L16.473 60.7407L17.0205 54.4949L12.8691 49.7607L19.0386 48.3461L22.304 42.9746Z" fill="#FFBF00"/>
<path d="M46.6244 42.9746L49.8898 48.3461L56.0593 49.7607L51.9079 54.4949L52.4554 60.7407L46.6244 58.2951L40.7932 60.7407L41.3408 54.4949L37.1895 49.7607L43.3589 48.3461L46.6244 42.9746Z" fill="#FFBF00"/>
<path d="M70.9457 42.9746L74.2111 48.3461L80.3806 49.7607L76.2292 54.4949L76.7767 60.7407L70.9457 58.2951L65.1146 60.7407L65.6621 54.4949L61.5107 49.7607L67.6802 48.3461L70.9457 42.9746Z" fill="#FFBF00"/>
<path d="M95.2676 42.9746L98.5328 48.3461L104.702 49.7607L100.55 54.4949L101.099 60.7407L95.2676 58.2951L89.4365 60.7407L89.9839 54.4949L85.832 49.7607L92.0016 48.3461L95.2676 42.9746Z" fill="#FFBF00"/>
<path d="M119.588 42.9746L122.854 48.3461L129.024 49.7607L124.872 54.4949L125.419 60.7407L119.588 58.2951L113.757 60.7407L114.305 54.4949L110.153 49.7607L116.323 48.3461L119.588 42.9746Z" fill="#FFBF00"/>
<path d="M119.517 43.8906L122.337 48.5293L122.451 48.7163L122.665 48.7654L127.992 49.9867L124.408 54.074L124.264 54.239L124.283 54.4567L124.756 59.8495L119.72 57.7376L119.517 57.6526L119.314 57.7376L114.279 59.8495L114.752 54.4567L114.771 54.239L114.626 54.074L111.042 49.9867L116.369 48.7654L116.583 48.7163L116.697 48.5293L119.517 43.8906Z" fill="white" stroke="#FFBF00" stroke-width="1.25992"/>
<path d="M113.824 60.6586L119.655 58.213V42.8926L116.39 48.2641L110.221 49.6786L114.372 54.4129L113.824 60.6586Z" fill="#FFBF00"/>
<path fill-rule="evenodd" clip-rule="evenodd" d="M53.8594 4.9082H54.7673V31.6142H53.8594V4.9082ZM67.0399 24.6328C66.2617 25.0982 65.289 25.339 64.1541 25.339C62.9707 25.339 61.9817 25.1464 61.2197 24.7452C60.4416 24.3439 59.939 23.7982 59.6796 23.092C59.4363 22.3859 59.3067 21.3267 59.3067 19.9143V15.6933C59.3067 14.6501 59.3391 13.8797 59.4202 13.3501C59.5012 12.8365 59.7282 12.323 60.1173 11.8415C60.5064 11.3601 61.0252 10.9749 61.7061 10.702C62.387 10.4291 63.1652 10.2847 64.0406 10.2847C65.2403 10.2847 66.2293 10.4934 67.0074 10.9267C67.7856 11.3601 68.2882 11.8897 68.5476 12.5316C68.7908 13.1736 68.8395 12.981 68.8395 14.3292V15.4526L65.5322 15.4045V14.4255C65.5322 13.6872 65.4511 13.2217 65.2728 13.0291C65.0944 12.8526 64.7215 12.7563 64.1541 12.7563C63.4894 12.7563 63.0841 12.8687 62.9058 13.0934C62.7274 13.318 62.6464 13.7995 62.6464 14.5378V21.1341C62.6464 21.8402 62.7274 22.3057 62.9058 22.5304C63.0841 22.755 63.4732 22.8513 64.1055 22.8513C64.7054 22.8513 65.0782 22.739 65.2728 22.5304C65.4511 22.3057 65.5484 22.0168 65.5484 21.2143L65.5322 20.1711H68.8556V20.3958C68.8556 21.8883 68.807 22.3698 68.5801 22.9797C68.3207 23.6056 67.8181 24.1674 67.0399 24.6328ZM76.4915 14.1045C76.4915 13.6551 76.2646 13.1254 75.8269 12.981C75.3891 12.8365 74.8217 12.7724 73.6544 12.7724V16.8649C74.7893 16.8649 75.3567 16.8007 75.7944 16.6884C76.2484 16.576 76.4753 15.5329 76.4753 14.8908V14.1045H76.4915ZM76.4915 20.5724C76.4915 19.802 76.3295 19.3365 76.0052 19.1439C75.681 18.9674 75.0487 18.8711 73.6707 18.8711V25.1143H70.412L70.4607 10.6057H73.395C75.3567 10.6057 76.6861 10.6699 77.3832 10.8143C78.0804 10.9588 78.6478 11.2958 79.0855 11.8576C79.5232 12.4193 79.7502 13.318 79.7502 14.5538C79.7502 15.6773 79.5557 16.6884 79.2638 17.0736C78.9558 17.4588 78.3559 17.6995 77.4643 17.7798C78.2749 17.9724 78.8261 18.2131 79.1017 18.518C79.3773 18.8229 79.5557 19.1118 79.6205 19.3687C79.6854 19.6254 79.7665 20.0587 79.7665 21.2304V25.034L76.524 25.1143V20.5724H76.4915ZM88.0998 14.3292C88.0998 13.6551 87.9859 13.2378 87.7753 13.0452C87.5648 12.8526 87.1107 12.7724 86.4461 12.7724C85.8781 12.7724 85.4406 12.8526 85.1326 12.9971C84.8247 13.1415 84.6786 13.5909 84.6786 14.3292V21.0378C84.6786 21.8723 84.776 22.3859 84.9708 22.5785C85.1648 22.7711 85.6354 22.8674 86.3487 22.8674C87.0942 22.8674 87.5648 22.755 87.7753 22.5304C87.9859 22.3057 88.0833 21.776 88.0833 20.9254V14.3292H88.0998ZM90.6451 23.7822C90.2397 24.2797 89.6717 24.6649 88.9749 24.9378C88.2781 25.2106 87.4509 25.339 86.5105 25.339C85.6189 25.339 84.8247 25.2106 84.1114 24.9538C83.3981 24.697 82.8309 24.3279 82.409 23.8143C81.9712 23.3168 81.7281 22.755 81.647 22.1612C81.566 21.5674 81.5173 20.5242 81.5173 19.0316V16.56C81.5173 15.1156 81.5498 14.0884 81.6308 13.4786C81.7118 12.8687 81.9551 12.323 82.3766 11.8254C82.7979 11.3279 83.3494 10.9428 84.0462 10.6699C84.7438 10.3971 85.5702 10.2687 86.5105 10.2687C87.4022 10.2687 88.1964 10.3971 88.9097 10.6539C89.6238 10.9106 90.191 11.2798 90.612 11.7934C91.0339 12.2909 91.2931 12.8526 91.374 13.4464C91.4558 14.0403 91.5037 15.0834 91.5037 16.56V19.0476C91.5037 20.4921 91.4715 21.5193 91.3905 22.1291C91.3096 22.739 91.0661 23.2846 90.6451 23.7822ZM102.739 25.034C102.269 22.8193 101.166 17.3785 100.794 14.5378C100.631 15.7575 99.3343 21.1983 98.7349 25.034H95.1676L92.3953 10.5897H95.5242L96.4167 15.6292L97.0648 21.6156C97.2109 19.0958 98.5079 14.6662 99.1238 10.5897H102.756C102.804 11.0069 103.42 12.5958 103.663 15.3563L104.571 21.5193C104.815 18.0205 105.641 13.9279 106.192 10.5897H109.094L106.111 25.034H102.739ZM116.439 14.7625C116.439 14.1205 116.39 13.7032 116.293 13.5106C116.195 13.3341 115.952 13.1897 115.579 13.1094C115.206 13.0291 114.525 12.981 113.504 12.981V22.6267C114.849 22.6267 115.66 22.5143 115.985 22.3057C116.293 22.0971 116.454 21.5032 116.454 20.5402V14.7625H116.439ZM119.405 23.3489C119.275 23.7822 119.032 24.1353 118.692 24.376C118.352 24.6167 117.946 24.7933 117.443 24.8896C116.957 24.9859 116.439 25.034 115.433 25.034H110.196V10.5897H113.31C115.32 10.5897 116.454 10.6699 117.152 10.8465C117.865 11.0069 118.4 11.2798 118.773 11.665C119.146 12.0501 119.373 12.4675 119.47 12.9328C119.568 13.3983 119.6 14.3131 119.6 15.6773V20.7328C119.616 22.0328 119.551 22.8994 119.405 23.3489Z" fill="#C6D2D9"/>
<path d="M35.9613 31.7838C29.9182 31.7676 24.6526 27.9885 22.9349 22.3519C21.5004 17.6288 22.4304 13.3117 25.6571 9.53895C27.6406 7.22055 30.1985 5.79949 33.2056 5.19136C34.8877 4.85174 36.6203 4.83772 38.3078 5.15004C38.4965 5.18418 38.4984 5.23448 38.4249 5.38539C37.5949 7.09569 36.7689 8.80839 35.9468 10.5235C35.9264 10.5771 35.8886 10.6225 35.8394 10.6526C35.7901 10.6827 35.7322 10.6957 35.6746 10.6896C33.9455 10.7334 32.281 11.3484 30.9457 12.4367C29.6104 13.525 28.6811 15.0241 28.3057 16.6955C27.4773 20.3488 29.4735 24.1278 32.996 25.4671C35.7917 26.5297 38.3931 26.1066 40.7595 24.2904C40.8802 24.2005 40.9302 24.1826 41.0164 24.3308C41.9238 25.9028 42.839 27.4717 43.7621 29.0377C43.8428 29.1751 43.8139 29.2372 43.6941 29.3198C41.9116 30.5682 39.8497 31.3696 37.6853 31.6553C37.1134 31.7283 36.5379 31.7712 35.9613 31.7838Z" fill="#C6D2D9"/>
<path d="M45.3498 27.8948C45.2755 27.8552 45.2546 27.7744 45.2165 27.7089C44.1845 25.9422 43.1561 24.1738 42.1314 22.4037C42.0966 22.3311 42.0397 22.2712 41.9688 22.2322C41.8978 22.1933 41.8164 22.1772 41.7358 22.1863C39.6868 22.1926 37.6389 22.1863 35.5901 22.1863H35.335C35.3332 22.1083 35.3619 22.0327 35.415 21.9752C36.4554 20.1858 37.4965 18.3965 38.5381 16.6071C38.5658 16.548 38.6114 16.4988 38.6687 16.4666C38.726 16.4344 38.792 16.4207 38.8576 16.4274C40.9548 16.4328 43.0515 16.4328 45.1475 16.4274C45.2127 16.4207 45.2783 16.4345 45.3351 16.4667C45.3919 16.499 45.4371 16.548 45.4642 16.6071C46.5101 18.4115 47.5608 20.2134 48.6164 22.0129C48.6517 22.0591 48.6716 22.1149 48.6731 22.1727C48.6748 22.2306 48.6581 22.2874 48.6255 22.3354C47.5651 24.1481 46.5086 25.959 45.456 27.7681C45.4279 27.8139 45.4152 27.8768 45.3498 27.8948Z" fill="#C6D2D9"/>
<path d="M40.932 8.8922C40.5564 8.52034 40.2061 8.16462 39.8432 7.81429C39.7306 7.7065 39.8096 7.62656 39.8577 7.54481C40.273 6.82887 40.9493 6.2973 41.7478 6.05907C42.2317 5.90099 42.7436 5.8449 43.2507 5.89441C43.7578 5.94391 44.2488 6.09791 44.6922 6.34652C46.3255 7.22053 46.1794 9.24795 45.2366 10.1641C44.8792 10.5049 44.4743 10.7932 44.0344 11.0202C43.5807 11.2591 43.127 11.4846 42.6823 11.7388C42.3131 11.9481 42.0254 12.2373 41.892 12.656C41.8376 12.8249 41.8702 12.8689 42.0527 12.8671C43.2522 12.8599 44.4526 12.8671 45.6531 12.8599C45.8346 12.8599 45.9027 12.894 45.8954 13.0898C45.8791 13.5093 45.8854 13.9297 45.8954 14.3474C45.8954 14.4804 45.8582 14.527 45.7203 14.527C43.7912 14.5235 41.8627 14.5235 39.9348 14.527C39.8441 14.527 39.7597 14.527 39.7588 14.3968C39.7588 13.0746 40.0056 11.8431 41.0509 10.8999C41.5488 10.4634 42.1077 10.1003 42.7105 9.8219C43.0408 9.66203 43.3747 9.50936 43.6632 9.27757C43.9155 9.07457 44.0897 8.82846 44.1079 8.49604C44.1351 7.97598 43.7195 7.58972 43.0916 7.5493C42.1887 7.48553 41.5373 7.88795 41.0817 8.63529C41.0364 8.70893 40.9946 8.78445 40.932 8.8922Z" fill="#C6D2D9"/>
</svg>
