<svg width="142" height="63" viewBox="0 0 142 63" fill="none" xmlns="http://www.w3.org/2000/svg">
<path d="M37.8671 18.1999L28.7923 9.21625C28.4787 8.92792 28.0081 8.92792 27.7168 9.21625L25.9243 10.9908L33.2065 18.1999C33.4978 18.4882 33.4978 18.9763 33.2065 19.2646L25.7002 26.6955L27.4928 28.47C27.8065 28.7584 28.277 28.7584 28.5683 28.47L37.8447 19.2868C38.1584 18.9763 38.1584 18.5105 37.8671 18.1999Z" fill="#C6D2D9"/>
<path d="M22.4066 9.88105L21.7567 9.23779C21.443 8.94938 20.9725 8.94938 20.6812 9.23779L18.8887 11.0123L20.0762 12.1879L22.4066 14.4949L24.7368 12.1879L22.4066 9.88105Z" fill="#C6D2D9"/>
<path d="M22.2043 23.2344L19.874 25.5413L18.6865 26.717L20.479 28.4914C20.7927 28.7798 21.2632 28.7798 21.5546 28.4914L22.2043 27.8482L24.5347 25.5413L22.2043 23.2344Z" fill="#C6D2D9"/>
<path d="M26.1925 18.1995C26.4838 18.51 26.4838 18.9758 26.1925 19.2642L22.2041 23.2125L24.5344 25.5195L30.8531 19.2642C31.1444 18.9758 31.1444 18.4879 30.8531 18.1995L24.7585 12.166L22.4058 14.473L26.1925 18.1995Z" fill="#C6D2D9"/>
<path d="M11.3822 18.4217L17.7008 12.1664L15.3705 9.85958L14.6983 9.21625C14.3846 8.92792 13.9141 8.92792 13.6228 9.21625L4.3464 18.4217C4.05511 18.7101 4.05511 19.1981 4.3464 19.4864L13.4212 28.47C13.7348 28.7584 14.2054 28.7584 14.4967 28.47L15.1688 27.8268L17.4992 25.5198L11.4045 19.4864C11.0909 19.1981 11.0909 18.7323 11.3822 18.4217Z" fill="#C6D2D9"/>
<path d="M18.4184 18.4225L21.1968 15.672L18.8665 13.3651L17.6789 12.1895L11.405 18.4447C11.1137 18.733 11.1137 19.2211 11.405 19.5094L17.4773 25.5207L18.6648 24.345L20.9951 22.0382L18.4184 19.4872C18.127 19.2211 18.127 18.733 18.4184 18.4225Z" fill="#C6D2D9"/>
<path d="M18.4175 19.4871L20.9942 22.0381L23.7727 19.2875C24.064 18.9991 24.064 18.5111 23.7727 18.2228L21.1959 15.6719L18.4175 18.4224C18.1486 18.7329 18.1486 19.1988 18.4175 19.4871Z" fill="#C6D2D9"/>
<path d="M45.1493 16.3136C45.1717 15.2932 45.3734 14.295 45.7543 13.3412C46.1128 12.4761 46.6506 11.6776 47.3227 11.0343C48.0622 10.3689 48.9361 9.8587 49.8772 9.5482C51.0199 9.1711 52.2298 8.99364 53.4174 9.01581C54.7618 8.97147 56.1063 9.1711 57.361 9.61472C58.2573 9.94747 59.1087 10.4354 59.8258 11.0787C60.3859 11.5667 60.8117 12.1656 61.1029 12.8311C61.327 13.319 61.4615 13.8293 61.5287 14.3616C61.5511 14.5612 61.4839 14.7608 61.327 14.894C61.1702 15.0271 60.9909 15.0936 60.7893 15.0936H58.571C58.3917 15.0936 58.2349 15.0492 58.1005 14.9383C57.9884 14.8496 57.8988 14.7387 57.8539 14.6278C57.8092 14.5612 57.7195 14.406 57.5627 14.162C57.361 13.8736 57.1146 13.6074 56.8233 13.4078C56.4199 13.1194 55.9718 12.8754 55.5013 12.698C54.8515 12.4761 54.1345 12.3653 53.4398 12.3875C52.2523 12.3209 51.0647 12.7201 50.1461 13.4743C49.317 14.2285 48.8464 15.2932 48.8241 16.4245C48.7792 17.1121 48.7792 17.8442 48.7792 18.6427C48.7792 19.4191 48.7792 20.1732 48.8241 20.8609C48.8688 22.3692 49.317 23.4561 50.1461 24.1216C51.0872 24.8314 52.2523 25.1863 53.4174 25.1419C54.0448 25.1419 54.6722 25.0754 55.2772 24.9201C55.8149 24.787 56.3079 24.543 56.7336 24.2103C57.1594 23.8776 57.4955 23.434 57.6972 22.9238C57.9436 22.3027 58.0556 21.6372 58.0333 20.9717V20.7499H54.6946C54.4929 20.7499 54.3137 20.6834 54.1793 20.5281C54.0448 20.395 53.9552 20.2176 53.9552 20.018V18.0881C53.9552 17.6889 54.2913 17.3561 54.6946 17.3561H61.0134C61.4167 17.3561 61.7528 17.6889 61.7528 18.0881V21.0605C61.7752 22.0809 61.5959 23.1012 61.2374 24.0551C60.9013 24.9423 60.3636 25.7408 59.6689 26.4063C58.9295 27.0939 58.0333 27.6263 57.0697 27.959C54.7171 28.691 52.1851 28.691 49.81 27.959C48.8688 27.6485 47.995 27.1383 47.278 26.4729C46.6057 25.8074 46.068 25.0088 45.7319 24.1216C45.3734 23.1677 45.1717 22.1474 45.1493 21.127C45.1493 20.7943 45.1269 20.395 45.1045 19.9957C45.1045 19.5743 45.1045 19.1528 45.1045 18.7092C45.1045 18.2656 45.1045 17.8442 45.1045 17.4449C45.1045 17.0234 45.1269 16.6685 45.1493 16.3136Z" fill="#C6D2D9"/>
<path d="M70.1997 17.1576C69.7292 17.1354 69.2811 17.2242 68.833 17.3794C68.4744 17.5125 68.1607 17.7122 67.8918 17.9783C67.6454 18.2001 67.4437 18.4885 67.3093 18.799C67.1748 19.0653 67.0852 19.3536 67.0628 19.642H73.2471C73.2023 19.3536 73.135 19.0653 73.0454 18.799C72.9334 18.4885 72.7766 18.2224 72.5525 17.9783C72.306 17.7122 71.9923 17.5125 71.6562 17.3794C71.1857 17.202 70.6927 17.1354 70.1997 17.1576ZM63.5002 21.2168C63.5002 20.2409 63.657 19.2871 63.9707 18.3554C64.262 17.4903 64.7101 16.6918 65.3151 16.0042C65.8976 15.3387 66.6371 14.8064 67.4437 14.4515C68.3176 14.0744 69.2587 13.8747 70.1997 13.8747C71.1408 13.8525 72.0819 14.0522 72.9558 14.4293C73.7625 14.7841 74.5019 15.2943 75.1068 15.9376C75.6895 16.5809 76.16 17.3129 76.4737 18.1336C76.7874 18.9765 76.9666 19.8638 76.9443 20.7732V21.9932C76.9443 22.3925 76.6081 22.7252 76.2048 22.7252H67.0628C67.0628 23.1023 67.1524 23.4794 67.3093 23.8121C67.4885 24.1227 67.7126 24.3888 68.0039 24.5885C68.3176 24.8103 68.6537 24.9656 69.0122 25.0765C69.3932 25.1874 69.7965 25.2317 70.1997 25.2317C70.6703 25.254 71.1633 25.1874 71.6338 25.0544C71.9475 24.9656 72.2612 24.8103 72.5301 24.6107C72.6869 24.4998 72.8438 24.3888 73.023 24.3002C73.1798 24.2336 73.3592 24.2114 73.5384 24.2114H75.7343C75.9359 24.2114 76.1376 24.3002 76.272 24.4332C76.4288 24.5663 76.496 24.7438 76.4737 24.9434C76.4065 25.2983 76.272 25.631 76.0479 25.9194C75.7343 26.3852 75.3309 26.7845 74.8604 27.0951C74.2554 27.5165 73.5832 27.8492 72.8886 28.0711C72.0147 28.3594 71.096 28.4925 70.1997 28.4703C69.2587 28.4703 68.3176 28.2929 67.4437 27.938C66.6371 27.6052 65.8976 27.0951 65.3151 26.4518C64.7101 25.7641 64.262 24.9878 63.9707 24.1227C63.6346 23.2132 63.4777 22.215 63.5002 21.2168Z" fill="#C6D2D9"/>
<path d="M83.5092 23.1695C83.4869 23.6576 83.6438 24.1455 83.9575 24.5004C84.2489 24.8332 84.8095 25.0107 85.6384 25.0107H87.2962C87.6999 25.0107 88.0359 25.3433 88.0359 25.7426V27.5393C88.0359 27.9386 87.6999 28.2714 87.2962 28.2714H85.257C83.5323 28.2714 82.2325 27.8499 81.3138 27.0292C80.395 26.2085 79.9469 24.9441 79.9245 23.2583V17.4245H78.1096C77.9079 17.4245 77.7287 17.358 77.5942 17.2027C77.4598 17.0696 77.3701 16.8921 77.3701 16.6925V14.8957C77.3701 14.6961 77.4374 14.5186 77.5942 14.3856C77.7287 14.2525 77.9079 14.1638 78.1096 14.1638H79.9245V9.74961C79.9245 9.35033 80.2606 9.01758 80.6639 9.01758H82.748C83.1509 9.01758 83.4869 9.35033 83.4869 9.74961V14.1638H87.0279C87.4307 14.186 87.7222 14.4965 87.7445 14.8957V16.6925C87.7445 17.0917 87.4084 17.4245 87.0047 17.4245H83.4646L83.5092 23.1695Z" fill="#C6D2D9"/>
<path d="M101.502 21.1942L98.4774 13.475L95.4756 21.1942H101.502ZM99.9791 9.28267C100.225 9.26049 100.45 9.34927 100.629 9.50448C100.808 9.70411 100.943 9.94809 101.033 10.1922L107.732 27.3386C107.754 27.4051 107.754 27.4717 107.754 27.5161C107.754 27.9154 107.418 28.248 107.015 28.248H105.043C104.774 28.2703 104.483 28.2037 104.281 28.0262C104.147 27.8932 104.058 27.7379 103.99 27.5826L102.803 24.5659H94.153L92.9658 27.5826C92.8981 27.7601 92.7867 27.8932 92.6744 28.0262C92.4507 28.2037 92.1815 28.2925 91.9124 28.248H89.9409C89.5372 28.248 89.2012 27.9154 89.2012 27.5161C89.2012 27.4495 89.2012 27.383 89.2235 27.3386L95.9231 10.1922C96.013 9.94809 96.1476 9.70411 96.3268 9.50448C96.5059 9.34927 96.7528 9.26049 96.9765 9.28267H99.9791Z" fill="#C6D2D9"/>
<path d="M119.495 21.9703C119.54 21.4601 119.54 20.95 119.495 20.4619C119.383 19.2863 119.024 18.4434 118.397 17.9333C117.77 17.4009 116.963 17.1347 116.134 17.1569C115.305 17.1347 114.498 17.4009 113.871 17.9333C113.221 18.51 112.863 19.3307 112.817 20.1736C112.773 20.5063 112.751 20.8612 112.773 21.194C112.773 21.5489 112.795 21.8816 112.817 22.2143C112.863 23.0572 113.243 23.8558 113.871 24.4325C114.498 24.9871 115.305 25.2754 116.134 25.2532C116.963 25.2754 117.77 24.9871 118.397 24.4768C119.024 23.9667 119.383 23.1238 119.495 21.9703ZM116.963 28.5361C116.448 28.5361 115.932 28.4917 115.439 28.3809C115.036 28.2921 114.633 28.1591 114.251 27.9816C113.961 27.8263 113.669 27.6489 113.4 27.427C113.199 27.2718 112.997 27.0943 112.817 26.8947V32.6619C112.817 33.0612 112.481 33.394 112.079 33.394H110.017C109.613 33.394 109.277 33.0612 109.277 32.6619V14.8944C109.277 14.4951 109.613 14.1624 110.017 14.1624H112.101C112.505 14.1624 112.841 14.4951 112.841 14.8944V15.5155C113.02 15.3158 113.199 15.1384 113.423 14.9831C113.692 14.7834 113.983 14.606 114.297 14.4507C114.677 14.2733 115.081 14.1402 115.484 14.0514C115.977 13.9405 116.493 13.8962 117.008 13.8962C117.859 13.874 118.71 14.0737 119.495 14.4285C120.212 14.7613 120.862 15.2492 121.377 15.8481C121.915 16.447 122.318 17.1347 122.61 17.8889C122.901 18.6652 123.08 19.4638 123.125 20.2845C123.147 20.5507 123.147 20.8612 123.147 21.2383C123.147 21.6154 123.147 21.926 123.125 22.1922C123.08 23.0129 122.923 23.8336 122.61 24.5878C122.318 25.342 121.915 26.0296 121.377 26.6285C120.862 27.2274 120.212 27.6932 119.495 28.0481C118.666 28.3809 117.815 28.5583 116.963 28.5361Z" fill="#C6D2D9"/>
<path d="M134.978 21.9703C135.023 21.4601 135.023 20.95 134.978 20.4619C134.866 19.2863 134.507 18.4434 133.88 17.9333C133.253 17.4009 132.446 17.1347 131.617 17.1569C130.788 17.1347 129.981 17.4009 129.354 17.9333C128.704 18.51 128.346 19.3307 128.301 20.1736C128.256 20.5063 128.234 20.8612 128.256 21.194C128.256 21.5489 128.278 21.8816 128.301 22.2143C128.346 23.0572 128.727 23.8558 129.354 24.4325C129.981 24.9871 130.788 25.2754 131.617 25.2532C132.446 25.2754 133.253 24.9871 133.88 24.4768C134.507 23.9667 134.866 23.1238 134.978 21.9703ZM132.423 28.5139C131.908 28.5139 131.393 28.4696 130.9 28.3587C130.497 28.2699 130.094 28.1368 129.712 27.9594C129.399 27.8041 129.108 27.6267 128.861 27.427C128.66 27.2718 128.457 27.0943 128.278 26.8947V32.6619C128.278 32.8616 128.189 33.039 128.054 33.1721C127.92 33.3052 127.741 33.394 127.539 33.394H125.456C125.052 33.394 124.716 33.0612 124.716 32.6619V14.8944C124.716 14.4951 125.052 14.1624 125.456 14.1624H127.539C127.942 14.1624 128.278 14.4951 128.278 14.8944V15.5155C128.457 15.3158 128.66 15.1384 128.861 14.9831C129.13 14.7834 129.422 14.606 129.712 14.4507C130.094 14.2733 130.497 14.1402 130.9 14.0514C131.393 13.9405 131.908 13.8962 132.423 13.8962C133.275 13.874 134.127 14.0737 134.911 14.4285C135.628 14.7613 136.278 15.2492 136.793 15.8481C137.331 16.447 137.734 17.1347 138.026 17.8889C138.316 18.6652 138.496 19.4638 138.541 20.2845C138.563 20.5507 138.563 20.8612 138.563 21.2383C138.563 21.6154 138.563 21.926 138.541 22.1922C138.496 23.0129 138.339 23.8336 138.026 24.5878C137.734 25.342 137.331 26.0296 136.793 26.6285C136.255 27.2274 135.628 27.6932 134.911 28.0481C134.127 28.4031 133.275 28.5805 132.423 28.5805" fill="#C6D2D9"/>
<path d="M23.1205 42.9668L26.3859 48.3383L32.5554 49.7529L28.404 54.4871L28.9516 60.7329L23.1205 58.2873L17.2894 60.7329L17.8369 54.4871L13.6855 49.7529L19.855 48.3383L23.1205 42.9668Z" fill="#FFBF00"/>
<path d="M47.4417 42.9668L50.7072 48.3383L56.8767 49.7529L52.7253 54.4871L53.2728 60.7329L47.4417 58.2873L41.6107 60.7329L42.1582 54.4871L38.0068 49.7529L44.1763 48.3383L47.4417 42.9668Z" fill="#FFBF00"/>
<path d="M71.7621 42.9668L75.0275 48.3383L81.197 49.7529L77.0456 54.4871L77.5931 60.7329L71.7621 58.2873L65.931 60.7329L66.4785 54.4871L62.3271 49.7529L68.4966 48.3383L71.7621 42.9668Z" fill="#FFBF00"/>
<path d="M96.084 42.9668L99.3492 48.3383L105.519 49.7529L101.367 54.4871L101.915 60.7329L96.084 58.2873L90.2529 60.7329L90.8003 54.4871L86.6484 49.7529L92.818 48.3383L96.084 42.9668Z" fill="#FFBF00"/>
<path d="M120.404 42.9668L123.67 48.3383L129.84 49.7529L125.688 54.4871L126.236 60.7329L120.404 58.2873L114.573 60.7329L115.122 54.4871L110.97 49.7529L117.139 48.3383L120.404 42.9668Z" fill="#FFBF00"/>
<path d="M120.334 43.8848L123.154 48.5234L123.267 48.7104L123.482 48.7597L128.808 49.981L125.225 54.0682L125.08 54.2331L125.099 54.4508L125.572 59.8436L120.536 57.7318L120.334 57.6467L120.131 57.7318L115.096 59.8436L115.569 54.4508L115.588 54.2331L115.443 54.0682L111.858 49.981L117.186 48.7597L117.4 48.7104L117.514 48.5234L120.334 43.8848Z" fill="white" stroke="#FFBF00" stroke-width="1.25992"/>
<path d="M114.641 60.6508L120.472 58.2053V42.8848L117.207 48.2563L111.037 49.6708L115.188 54.4051L114.641 60.6508Z" fill="#FFBF00"/>
</svg>
