<svg width="142" height="63" viewBox="0 0 142 63" fill="none" xmlns="http://www.w3.org/2000/svg">
<path d="M128.35 11.1361C128.35 10.3963 128.957 9.81836 129.681 9.81836H139.583C140.33 9.81836 140.914 10.4195 140.914 11.1361V15.9449C140.914 16.6848 140.307 17.2627 139.583 17.2627H138.555C137.808 17.2627 136.687 17.5633 136.033 17.9101L132.437 19.8984C131.783 20.2451 131.526 19.9908 131.829 19.3435L132.25 18.4418C132.553 17.7713 132.203 17.2396 131.456 17.2396H129.658C128.91 17.2396 128.326 16.6385 128.326 15.9218V11.1361" fill="#C6D2D9"/>
<path d="M128.35 23.6664C128.42 23.6664 128.49 23.6433 128.537 23.6202C128.583 23.5971 128.607 23.5508 128.607 23.4584C128.607 23.4122 128.607 23.3658 128.583 23.3428C128.56 23.3196 128.537 23.2965 128.514 23.2734C128.49 23.2503 128.444 23.2503 128.42 23.2503C128.374 23.2503 128.35 23.2503 128.303 23.2503H128.07V23.6433L128.35 23.6664ZM128.35 22.9729C128.56 22.9729 128.724 23.0191 128.817 23.1116C128.91 23.204 128.98 23.3196 128.98 23.4815C128.98 23.6202 128.934 23.7357 128.864 23.8051C128.794 23.8745 128.701 23.9207 128.583 23.9439L128.98 24.6143H128.583L128.187 23.967H128.047V24.6143H127.696V22.9959L128.35 22.9729ZM127.323 24.1982C127.369 24.3369 127.439 24.4525 127.532 24.5449C127.626 24.6375 127.743 24.7299 127.86 24.7761C128 24.8224 128.14 24.8686 128.28 24.8686C128.444 24.8686 128.583 24.8455 128.701 24.7761C128.841 24.7299 128.934 24.6375 129.027 24.5449C129.121 24.4525 129.191 24.3369 129.237 24.1982C129.284 24.0594 129.307 23.9207 129.307 23.7821C129.307 23.6433 129.284 23.5046 129.237 23.3658C129.191 23.2272 129.121 23.1116 129.027 23.0191C128.934 22.9266 128.817 22.8341 128.701 22.7879C128.56 22.7417 128.42 22.6954 128.28 22.6954C128.117 22.6954 127.976 22.7186 127.86 22.7879C127.72 22.8341 127.626 22.9266 127.532 23.0191C127.439 23.1116 127.369 23.2272 127.323 23.3658C127.276 23.5046 127.252 23.6433 127.252 23.7821C127.252 23.9439 127.276 24.0826 127.323 24.1982ZM126.902 23.204C126.973 23.0191 127.089 22.8573 127.229 22.7185C127.369 22.5798 127.532 22.4642 127.72 22.3949C127.906 22.3255 128.093 22.2793 128.303 22.2793C128.514 22.2793 128.701 22.3255 128.887 22.3949C129.074 22.4642 129.237 22.5798 129.377 22.7185C129.518 22.8573 129.634 23.0191 129.704 23.204C129.775 23.389 129.822 23.5739 129.822 23.7821C129.822 23.9901 129.775 24.175 129.704 24.36C129.634 24.5449 129.518 24.7068 129.377 24.8455C129.237 24.9842 129.074 25.0767 128.887 25.1692C128.701 25.2385 128.514 25.2848 128.303 25.2848C128.093 25.2848 127.906 25.2385 127.72 25.1692C127.532 25.0998 127.369 24.9842 127.229 24.8455C127.089 24.7068 126.973 24.5449 126.902 24.36C126.832 24.175 126.785 23.9901 126.785 23.7821C126.785 23.5739 126.832 23.389 126.902 23.204Z" fill="#C6D2D9"/>
<path d="M123.329 19.2746H121.134C120.97 19.2746 120.923 19.1822 120.923 19.0665L120.946 18.7891C120.993 18.2111 121.531 17.795 122.255 17.795C122.955 17.795 123.515 18.2111 123.563 18.7659L123.586 19.0434C123.586 19.1822 123.539 19.2746 123.329 19.2746ZM122.185 15.5293C119.826 15.5293 118.121 17.217 118.121 19.1359V21.7022C118.121 23.8522 119.733 25.3319 122.185 25.3319C123.515 25.3319 124.473 24.8694 125.15 24.2221C125.477 23.8984 125.734 23.5285 125.944 23.1586C126.061 22.9505 126.014 22.7425 125.874 22.6731L123.889 21.679C123.772 21.6096 123.656 21.6558 123.586 21.8408C123.306 22.5344 122.838 22.8581 122.161 22.8581C121.414 22.8581 120.9 22.3726 120.9 21.7252V21.2859C120.9 21.1473 120.97 21.0779 121.134 21.0779H125.991C126.108 21.0779 126.201 21.0086 126.201 20.8698V19.1359C126.178 17.2401 124.519 15.5293 122.185 15.5293Z" fill="#C6D2D9"/>
<path d="M113.496 17.9555C114.127 17.9555 114.571 18.3485 114.921 19.1577C114.991 19.2965 115.084 19.3427 115.225 19.2733L117.186 18.3948C117.303 18.3254 117.35 18.2098 117.28 18.048C117.093 17.6319 116.906 17.262 116.649 16.9383C115.995 16.0597 115.014 15.5742 113.473 15.5742C110.974 15.5742 109.479 17.0539 109.479 19.204V21.6315C109.479 23.7816 110.974 25.2381 113.473 25.2381C114.874 25.2381 115.808 24.8219 116.462 24.0821C116.812 23.7122 117.069 23.2498 117.28 22.7412C117.35 22.5793 117.303 22.4869 117.186 22.4175L115.225 21.5159C115.084 21.4466 114.991 21.4928 114.921 21.6315C114.571 22.4175 114.127 22.8337 113.496 22.8337C112.749 22.8337 112.282 22.325 112.282 21.6777V19.0884C112.282 18.4873 112.772 17.9555 113.496 17.9555Z" fill="#C6D2D9"/>
<path d="M107.729 15.8066H105.346C105.206 15.8066 105.137 15.8759 105.137 16.0147V24.8462C105.137 24.9849 105.206 25.0543 105.346 25.0543H107.729C107.845 25.0543 107.916 24.9849 107.916 24.8462V16.0147C107.893 15.8529 107.822 15.8066 107.729 15.8066Z" fill="#C6D2D9"/>
<path d="M106.514 11.8984C105.743 11.8984 105.113 12.5226 105.113 13.2856C105.113 14.0485 105.743 14.6727 106.514 14.6727C107.285 14.6727 107.915 14.0485 107.915 13.2856C107.938 12.5226 107.285 11.8984 106.514 11.8984Z" fill="#C6D2D9"/>
<path d="M103.875 15.8066H101.33C101.236 15.8066 101.143 15.8759 101.119 15.9685L99.6248 20.2455C99.5546 20.4536 99.4142 20.9853 99.3911 21.2396H99.321C99.2747 20.9853 99.1814 20.4998 99.0873 20.2455L97.5228 15.9453C97.4766 15.8529 97.4296 15.8066 97.3131 15.8066H94.7671C94.5805 15.8066 94.5334 15.9222 94.5805 16.084L98.1767 24.8925C98.2238 24.9849 98.2939 25.0311 98.3872 25.0311H100.256C100.349 25.0311 100.442 24.9849 100.465 24.8925L104.085 16.084C104.132 15.9222 104.062 15.8066 103.875 15.8066Z" fill="#C6D2D9"/>
<path d="M90.727 21.6093C90.727 22.2566 90.1904 22.7652 89.4894 22.7652C88.7654 22.7652 88.275 22.2797 88.275 21.6093V19.2279C88.275 18.5806 88.7654 18.1182 89.4894 18.1182C90.2135 18.1182 90.727 18.6038 90.727 19.2279V21.6093ZM93.2962 12.5234H90.9375C90.8442 12.5234 90.727 12.5927 90.727 12.7315V15.4826C90.727 15.7832 90.7972 16.3612 90.7972 16.3612C90.4001 16.0144 89.7231 15.8063 89.2558 15.8063C87.0606 15.8063 85.4961 17.2628 85.4961 19.4129V21.4243C85.4961 23.7362 86.8509 25.0309 89.3028 25.0309C89.8634 25.0309 90.5173 24.8459 90.9375 24.4992C91.0539 24.4067 91.1943 24.4298 91.1943 24.5916V24.8921C91.1943 24.9615 91.2644 25.0309 91.3577 25.0309H93.2962C93.4126 25.0309 93.5059 24.9615 93.5059 24.8228V12.7083C93.5059 12.5927 93.4126 12.5234 93.2962 12.5234Z" fill="#C6D2D9"/>
<path d="M80.2647 20.7769H79.0504C78.8402 20.7769 78.7701 20.6614 78.8168 20.5458L79.2372 18.9274C79.4473 18.1876 79.5875 17.3091 79.6342 16.8005H79.7042C79.751 17.3091 79.8677 18.1876 80.0545 18.9274L80.4749 20.5458C80.5216 20.6382 80.4282 20.7769 80.2647 20.7769ZM80.7318 12.6621C80.6851 12.5697 80.6384 12.5234 80.5216 12.5234H78.7234C78.6066 12.5234 78.5599 12.5697 78.5132 12.6621L74.6131 24.7766C74.543 24.9384 74.6365 25.0309 74.8233 25.0309H77.3455C77.4389 25.0309 77.4856 24.9847 77.5324 24.8921L78.1162 23.0889C78.1629 22.9964 78.1862 22.9733 78.3263 22.9733H80.9653C81.1055 22.9733 81.1521 22.9964 81.1755 23.0889L81.736 24.8921C81.7827 24.9847 81.8061 25.0309 81.9462 25.0309H84.4914C84.7019 25.0309 84.7489 24.9384 84.7019 24.7766L80.7318 12.6621Z" fill="#C6D2D9"/>
<path d="M67.3962 19.2746H65.201C65.0376 19.2746 64.9908 19.1822 64.9908 19.0665L65.0142 18.7891C65.0609 18.2111 65.5981 17.795 66.322 17.795C67.0226 17.795 67.5831 18.2111 67.6298 18.7659L67.6532 19.0434C67.6298 19.1822 67.6064 19.2746 67.3962 19.2746ZM66.2286 15.5293C63.8699 15.5293 62.165 17.217 62.165 19.1359V21.7022C62.165 23.8522 63.7765 25.3319 66.2286 25.3319C67.5598 25.3319 68.5172 24.8694 69.1945 24.2221C69.5215 23.8984 69.7784 23.5285 69.9886 23.1586C70.1053 22.9505 70.0586 22.7425 69.9185 22.6731L67.9335 21.679C67.8166 21.6096 67.6999 21.6558 67.6298 21.8408C67.3496 22.5344 66.8825 22.8581 66.2053 22.8581C65.458 22.8581 64.9441 22.3726 64.9441 21.7252V21.2859C64.9441 21.1473 65.0142 21.0779 65.1777 21.0779H70.0119C70.1287 21.0779 70.2221 21.0086 70.2221 20.8698V19.1359C70.2454 17.2401 68.5873 15.5293 66.2286 15.5293Z" fill="#C6D2D9"/>
<path d="M60.9746 15.8529C60.8344 15.8297 60.6709 15.8066 60.4608 15.8066C59.6901 15.8066 58.9661 16.1534 58.6626 16.5695C58.5691 16.662 58.4056 16.6389 58.4056 16.4771V16.0147C58.4056 15.8759 58.3356 15.8066 58.1954 15.8066H56.2804C56.1637 15.8066 56.0703 15.8759 56.0703 16.0147V24.8462C56.0703 24.9849 56.1403 25.0543 56.2804 25.0543H58.6392C58.7559 25.0543 58.8494 24.9849 58.8494 24.8462V19.575C58.8494 18.8815 59.3398 18.3729 60.0637 18.3729C60.3674 18.3729 60.6242 18.4191 60.8578 18.4653C61.0446 18.5115 61.1614 18.4422 61.1614 18.2573V16.0147C61.1614 15.9453 61.0913 15.8529 60.9746 15.8529Z" fill="#C6D2D9"/>
<path d="M50.3488 22.903H49.6015C49.1811 22.903 48.9476 22.6487 48.9476 22.0938C48.9476 21.7008 49.2278 21.4234 49.6249 21.4234H51.3297C51.4464 21.4234 51.4932 21.6315 51.4932 21.7008C51.4464 22.4175 50.8859 22.903 50.3488 22.903ZM50.2787 15.5742C49.041 15.5742 48.1069 15.9673 47.4296 16.5915C47.0559 16.9383 46.7523 17.3313 46.4954 17.7705C46.3787 17.9786 46.4254 18.1868 46.5655 18.2561L48.5506 19.2502C48.6674 19.3195 48.7841 19.2733 48.8542 19.0884C49.1344 18.3948 49.6015 18.0711 50.2787 18.0711C51.0261 18.0711 51.4932 18.5797 51.4932 19.204V19.2965C51.4932 19.4351 51.4231 19.5045 51.283 19.5045H49.5081C47.7332 19.5045 46.3086 20.4524 46.3086 22.117V22.325C46.3086 24.0128 47.5931 25.03 49.3212 25.03H50.0219C50.559 25.03 51.1662 24.845 51.5865 24.5214C51.6566 24.452 51.7734 24.4751 51.7967 24.5445L51.8668 24.8913C51.8902 24.9837 51.9602 25.0531 52.077 25.0531H54.0387C54.1555 25.0531 54.2489 24.9837 54.2489 24.845V19.2271C54.2489 17.077 52.7309 15.5742 50.2787 15.5742Z" fill="#C6D2D9"/>
<path d="M45.514 15.8066H43.0852C42.9684 15.8066 42.875 15.8759 42.875 15.9685L41.9642 19.6906C41.8708 20.1068 41.7774 20.7079 41.754 21.124H41.6839C41.6606 20.7079 41.5906 20.1761 41.4737 19.6906L40.563 15.9685C40.5396 15.8759 40.4696 15.8066 40.3528 15.8066H38.3677C38.2509 15.8066 38.1809 15.8759 38.1576 15.9685L37.2701 19.6906C37.1767 20.1068 37.0833 20.6385 37.0599 21.0315H37.0132C36.9899 20.6385 36.9198 20.1068 36.803 19.6906L35.8689 15.9685C35.8455 15.8759 35.7988 15.8066 35.6587 15.8066H33.1832C32.9963 15.8066 32.9496 15.8991 32.9963 16.0609L35.8221 24.8925C35.8689 24.9849 35.9156 25.0311 36.0323 25.0311H37.8073C37.924 25.0311 37.9941 24.9849 38.0175 24.8925L39.1151 20.7773C39.2318 20.3148 39.3253 19.5519 39.3253 19.5519H39.3953C39.3953 19.5519 39.4887 20.338 39.6055 20.7773L40.6797 24.8693C40.7031 24.9618 40.7498 25.0311 40.8899 25.0311H42.6415C42.7349 25.0311 42.8049 24.9849 42.8516 24.8925L45.7242 16.0609C45.7709 15.9222 45.7008 15.8066 45.514 15.8066Z" fill="#C6D2D9"/>
<path d="M31.9929 15.8055H30.6385C30.4517 15.8055 30.4049 15.7362 30.4049 15.5974V14.3491C30.4049 14.2103 30.3582 14.1641 30.2181 14.1641H28.957C28.8869 14.1641 28.7701 14.2103 28.7235 14.2565L26.2246 16.7303V18.0712C26.2246 18.2099 26.2947 18.2562 26.4348 18.2562H27.439C27.6259 18.2562 27.6725 18.3255 27.6725 18.4643V21.5622C27.6725 23.9435 29.1671 25.1688 31.0822 25.1688H31.9229C32.1098 25.1688 32.1798 25.0995 32.1798 24.9607V22.9262C32.1798 22.8106 32.1098 22.7182 31.9696 22.7182H31.6427C30.8253 22.7182 30.4283 22.2326 30.4283 21.3772V18.4873C30.4283 18.3487 30.4983 18.2793 30.6618 18.2793H32.0163C32.1565 18.2793 32.2031 18.233 32.2031 18.0944V15.9905C32.1798 15.8517 32.1331 15.8055 31.9929 15.8055Z" fill="#C6D2D9"/>
<path d="M25.9907 12.4317C25.6404 12.3624 25.0799 12.293 24.5661 12.293C21.6002 12.293 20.4792 14.3275 20.4792 15.9458V16.4313C20.4792 16.57 20.4091 16.6394 20.269 16.6394H19.8019C19.6852 16.6394 19.5918 16.7088 19.5918 16.8475V18.9282C19.5918 19.0669 19.6618 19.1362 19.8019 19.1362H20.269C20.4558 19.1362 20.4792 19.2056 20.4792 19.3444V24.8698C20.4792 25.0086 20.5492 25.0779 20.6894 25.0779H23.0481C23.1883 25.0779 23.2583 25.0086 23.2583 24.8698V19.3444C23.2583 19.2056 23.3284 19.1362 23.4685 19.1362H24.7763C24.9164 19.1362 24.9865 19.0669 24.9865 18.9282V16.8475C24.9865 16.7088 24.9164 16.6394 24.7763 16.6394H23.4685C23.305 16.6394 23.2583 16.57 23.2583 16.4313V15.8996C23.2583 15.206 23.7488 14.7667 24.5194 14.7667C24.7763 14.7667 25.0566 14.813 25.29 14.8592C25.4302 14.9055 25.5002 14.8592 25.547 14.7437L26.1775 12.7092C26.2009 12.5704 26.1542 12.4548 25.9907 12.4317Z" fill="#C6D2D9"/>
<path d="M15.6217 21.7239C15.6217 22.3713 15.1079 22.8799 14.4073 22.8799C13.6599 22.8799 13.1462 22.3713 13.1462 21.7239V19.1346C13.1462 18.5103 13.6599 17.9786 14.4073 17.9786C15.1079 17.9786 15.6217 18.4873 15.6217 19.1346V21.7239ZM14.4073 15.5742C11.9551 15.5742 10.3438 17.0539 10.3438 19.204V21.6315C10.3438 23.7816 11.9551 25.2381 14.4073 25.2381C16.8128 25.2381 18.4241 23.7816 18.4241 21.6315V19.204C18.4241 17.0539 16.8128 15.5742 14.4073 15.5742Z" fill="#C6D2D9"/>
<path d="M6.04639 17.5635C4.94876 17.1473 3.75772 16.8468 3.75772 15.9452C3.75772 15.2284 4.29485 14.7429 4.99546 14.7429H5.29906C5.97632 14.7429 6.44339 15.0666 6.72364 15.7602C6.7937 15.9452 6.91047 15.9682 7.02724 15.922L9.01232 14.9279C9.12906 14.8585 9.19915 14.6505 9.08233 14.4424C8.91887 14.1419 8.73204 13.8413 8.4752 13.587C7.77456 12.8241 6.77035 12.2461 5.29906 12.2461H4.99546C2.49662 12.2461 0.93191 13.7257 0.93191 15.9682C0.93191 18.2571 2.42655 19.1125 4.27149 19.8523C5.48589 20.3378 6.51346 20.5921 6.51346 21.5862C6.51346 22.3954 5.88291 22.7653 5.15894 22.7653H4.66851C3.99125 22.7653 3.52418 22.4416 3.24393 21.748C3.17388 21.5631 3.05711 21.54 2.94033 21.5862L0.955265 22.5804C0.838495 22.6497 0.768436 22.8578 0.885207 23.0659C1.07204 23.3896 1.28222 23.6901 1.53911 23.9906C2.21637 24.7536 3.22058 25.2622 4.64516 25.2622H5.27571C7.82127 25.2622 9.31589 23.8057 9.31589 21.5631C9.31589 19.228 7.93803 18.3033 6.04639 17.5635Z" fill="#C6D2D9"/>
<path d="M22.2923 43.375L25.5578 48.7464L31.7272 50.161L27.5759 54.8952L28.1234 61.141L22.2923 58.6955L16.4612 61.141L17.0088 54.8952L12.8574 50.161L19.0269 48.7464L22.2923 43.375Z" fill="#FFBF00"/>
<path d="M46.6126 43.375L49.8781 48.7464L56.0476 50.161L51.8962 54.8952L52.4437 61.141L46.6126 58.6955L40.7816 61.141L41.3291 54.8952L37.1777 50.161L43.3472 48.7464L46.6126 43.375Z" fill="#FFBF00"/>
<path d="M70.9339 43.375L74.1994 48.7464L80.3688 50.161L76.2175 54.8952L76.765 61.141L70.9339 58.6955L65.1028 61.141L65.6504 54.8952L61.499 50.161L67.6685 48.7464L70.9339 43.375Z" fill="#FFBF00"/>
<path d="M95.2549 43.375L98.5201 48.7464L104.69 50.161L100.538 54.8952L101.086 61.141L95.2549 58.6955L89.4238 61.141L89.9712 54.8952L85.8193 50.161L91.9889 48.7464L95.2549 43.375Z" fill="#FFBF00"/>
<path d="M119.576 43.375L122.842 48.7464L129.012 50.161L124.86 54.8952L125.407 61.141L119.576 58.6955L113.745 61.141L114.293 54.8952L110.142 50.161L116.311 48.7464L119.576 43.375Z" fill="#FFBF00"/>
<path d="M119.506 44.293L122.325 48.9316L122.439 49.1186L122.654 49.1679L127.98 50.3892L124.396 54.4764L124.252 54.6413L124.271 54.8591L124.744 60.2518L119.708 58.14L119.506 58.055L119.303 58.14L114.267 60.2518L114.74 54.8591L114.759 54.6413L114.615 54.4764L111.03 50.3892L116.357 49.1679L116.572 49.1186L116.685 48.9316L119.506 44.293Z" fill="white" stroke="#FFBF00" stroke-width="1.25992"/>
<path d="M113.813 61.059L119.644 58.6134V43.293L116.379 48.6644L110.209 50.079L114.36 54.8132L113.813 61.059Z" fill="#FFBF00"/>
</svg>
