<svg width="169" height="58" viewBox="0 0 169 58" fill="none" xmlns="http://www.w3.org/2000/svg">
<rect width="169" height="58" rx="5" fill="#1A1C20"/>
<g clip-path="url(#clip0_11537_118321)">
<path fill-rule="evenodd" clip-rule="evenodd" d="M45.092 22.1165C44.0365 22.1165 43.182 22.948 43.182 23.9735V31.9228C43.182 32.9483 44.0365 33.7798 45.092 33.7798C46.1455 33.7798 47 32.9483 47 31.9228V23.9735C47 22.9483 46.1455 22.1165 45.092 22.1165ZM20.91 22.1165C19.8545 22.1165 19 22.948 19 23.9735V31.9228C19 32.9483 19.8545 33.7798 20.91 33.7798C21.9635 33.7798 22.818 32.9483 22.818 31.9228V23.9735C22.818 22.9483 21.9635 22.1165 20.91 22.1165ZM24.2292 22.1165H24.092V35.7423C24.092 36.824 24.9947 37.7048 26.1082 37.7048H27.562C27.5118 37.8685 27.4847 38.0398 27.4847 38.2203V42.1433C27.4847 43.1688 28.3412 44.0003 29.3947 44.0003C30.4482 44.0003 31.3048 43.1688 31.3048 42.1433V38.22C31.3048 38.0395 31.2758 37.8683 31.2275 37.7045H34.773C34.7248 37.8683 34.6975 38.0395 34.6975 38.22V42.143C34.6975 43.1685 35.552 44 36.6055 44C37.661 44 38.5175 43.1685 38.5175 42.143V38.22C38.5175 38.0395 38.4885 37.8683 38.4382 37.7045H39.894C41.0075 37.7045 41.9083 36.824 41.9083 35.742V22.1165H24.2292ZM37.3825 14.679L37.7383 14.156L38.094 13.6405L38.8865 12.4815C38.985 12.3385 38.9445 12.1465 38.7975 12.0525C38.6525 11.9565 38.4535 11.996 38.3587 12.139L37.1485 13.902L36.7852 14.4325C35.635 13.998 34.3533 13.7553 33 13.7553C31.6488 13.7553 30.365 13.998 29.2148 14.4325L28.8532 13.902L28.4955 13.3808L27.645 12.139C27.5465 11.996 27.3492 11.9585 27.2022 12.0525C27.0572 12.1465 27.0167 12.3385 27.1132 12.4815L27.9058 13.6405L28.2615 14.156L28.6193 14.679C25.9185 15.9038 24.0918 18.2238 24.0918 20.8785H41.9077C41.908 18.2238 40.0812 15.904 37.3825 14.679ZM29.182 18.4005C28.6543 18.4005 28.227 17.9848 28.227 17.471C28.227 16.9573 28.6543 16.5435 29.182 16.5435C29.7098 16.5435 30.137 16.9575 30.137 17.471C30.137 17.9848 29.7098 18.4005 29.182 18.4005ZM36.818 18.4005C36.2903 18.4005 35.863 17.9848 35.863 17.471C35.863 16.9573 36.2903 16.5435 36.818 16.5435C37.3458 16.5435 37.773 16.9575 37.773 17.471C37.773 17.9848 37.3458 18.4005 36.818 18.4005Z" fill="white"/>
</g>
<path d="M67.2227 24.3369L62.9863 36H61.2549L66.1328 23.2031H67.249L67.2227 24.3369ZM70.7734 36L66.5283 24.3369L66.502 23.2031H67.6182L72.5137 36H70.7734ZM70.5537 31.2627V32.6514H63.3643V31.2627H70.5537ZM75.6074 28.5205V36H73.9814V26.4902H75.5195L75.6074 28.5205ZM75.2207 30.8848L74.5439 30.8584C74.5498 30.208 74.6465 29.6074 74.834 29.0566C75.0215 28.5 75.2852 28.0166 75.625 27.6064C75.9648 27.1963 76.3691 26.8799 76.8379 26.6572C77.3125 26.4287 77.8369 26.3145 78.4111 26.3145C78.8799 26.3145 79.3018 26.3789 79.6768 26.5078C80.0518 26.6309 80.3711 26.8301 80.6348 27.1055C80.9043 27.3809 81.1094 27.7383 81.25 28.1777C81.3906 28.6113 81.4609 29.1416 81.4609 29.7686V36H79.8262V29.751C79.8262 29.2529 79.7529 28.8545 79.6064 28.5557C79.46 28.251 79.2461 28.0312 78.9648 27.8965C78.6836 27.7559 78.3379 27.6855 77.9277 27.6855C77.5234 27.6855 77.1543 27.7705 76.8203 27.9404C76.4922 28.1104 76.208 28.3447 75.9678 28.6436C75.7334 28.9424 75.5488 29.2852 75.4141 29.6719C75.2852 30.0527 75.2207 30.457 75.2207 30.8848ZM89.9248 34.1543V22.5H91.5596V36H90.0654L89.9248 34.1543ZM83.5264 31.3506V31.166C83.5264 30.4395 83.6143 29.7803 83.79 29.1885C83.9717 28.5908 84.2266 28.0781 84.5547 27.6504C84.8887 27.2227 85.2842 26.8945 85.7412 26.666C86.2041 26.4316 86.7197 26.3145 87.2881 26.3145C87.8857 26.3145 88.4072 26.4199 88.8525 26.6309C89.3037 26.8359 89.6846 27.1377 89.9951 27.5361C90.3115 27.9287 90.5605 28.4033 90.7422 28.96C90.9238 29.5166 91.0498 30.1465 91.1201 30.8496V31.6582C91.0557 32.3555 90.9297 32.9824 90.7422 33.5391C90.5605 34.0957 90.3115 34.5703 89.9951 34.9629C89.6846 35.3555 89.3037 35.6572 88.8525 35.8682C88.4014 36.0732 87.874 36.1758 87.2705 36.1758C86.7139 36.1758 86.2041 36.0557 85.7412 35.8154C85.2842 35.5752 84.8887 35.2383 84.5547 34.8047C84.2266 34.3711 83.9717 33.8613 83.79 33.2754C83.6143 32.6836 83.5264 32.042 83.5264 31.3506ZM85.1611 31.166V31.3506C85.1611 31.8252 85.208 32.2705 85.3018 32.6865C85.4014 33.1025 85.5537 33.4688 85.7588 33.7852C85.9639 34.1016 86.2246 34.3506 86.541 34.5322C86.8574 34.708 87.2354 34.7959 87.6748 34.7959C88.2139 34.7959 88.6562 34.6816 89.002 34.4531C89.3535 34.2246 89.6348 33.9229 89.8457 33.5479C90.0566 33.1729 90.2207 32.7656 90.3379 32.3262V30.208C90.2676 29.8857 90.165 29.5752 90.0303 29.2764C89.9014 28.9717 89.7314 28.7021 89.5205 28.4678C89.3154 28.2275 89.0605 28.0371 88.7559 27.8965C88.457 27.7559 88.1025 27.6855 87.6924 27.6855C87.2471 27.6855 86.8633 27.7793 86.541 27.9668C86.2246 28.1484 85.9639 28.4004 85.7588 28.7227C85.5537 29.0391 85.4014 29.4082 85.3018 29.8301C85.208 30.2461 85.1611 30.6914 85.1611 31.166ZM95.7168 27.9844V36H94.0908V26.4902H95.6729L95.7168 27.9844ZM98.6875 26.4375L98.6787 27.9492C98.5439 27.9199 98.415 27.9023 98.292 27.8965C98.1748 27.8848 98.04 27.8789 97.8877 27.8789C97.5127 27.8789 97.1816 27.9375 96.8945 28.0547C96.6074 28.1719 96.3643 28.3359 96.165 28.5469C95.9658 28.7578 95.8076 29.0098 95.6904 29.3027C95.5791 29.5898 95.5059 29.9062 95.4707 30.252L95.0137 30.5156C95.0137 29.9414 95.0693 29.4023 95.1807 28.8984C95.2979 28.3945 95.4766 27.9492 95.7168 27.5625C95.957 27.1699 96.2617 26.8652 96.6309 26.6484C97.0059 26.4258 97.4512 26.3145 97.9668 26.3145C98.084 26.3145 98.2188 26.3291 98.3711 26.3584C98.5234 26.3818 98.6289 26.4082 98.6875 26.4375ZM99.584 31.3506V31.1484C99.584 30.4629 99.6836 29.8271 99.8828 29.2412C100.082 28.6494 100.369 28.1367 100.744 27.7031C101.119 27.2637 101.573 26.9238 102.106 26.6836C102.64 26.4375 103.237 26.3145 103.899 26.3145C104.567 26.3145 105.168 26.4375 105.701 26.6836C106.24 26.9238 106.697 27.2637 107.072 27.7031C107.453 28.1367 107.743 28.6494 107.942 29.2412C108.142 29.8271 108.241 30.4629 108.241 31.1484V31.3506C108.241 32.0361 108.142 32.6719 107.942 33.2578C107.743 33.8438 107.453 34.3564 107.072 34.7959C106.697 35.2295 106.243 35.5693 105.71 35.8154C105.183 36.0557 104.585 36.1758 103.917 36.1758C103.249 36.1758 102.648 36.0557 102.115 35.8154C101.582 35.5693 101.125 35.2295 100.744 34.7959C100.369 34.3564 100.082 33.8438 99.8828 33.2578C99.6836 32.6719 99.584 32.0361 99.584 31.3506ZM101.21 31.1484V31.3506C101.21 31.8252 101.266 32.2734 101.377 32.6953C101.488 33.1113 101.655 33.4805 101.878 33.8027C102.106 34.125 102.391 34.3799 102.73 34.5674C103.07 34.749 103.466 34.8398 103.917 34.8398C104.362 34.8398 104.752 34.749 105.086 34.5674C105.426 34.3799 105.707 34.125 105.93 33.8027C106.152 33.4805 106.319 33.1113 106.431 32.6953C106.548 32.2734 106.606 31.8252 106.606 31.3506V31.1484C106.606 30.6797 106.548 30.2373 106.431 29.8213C106.319 29.3994 106.149 29.0273 105.921 28.7051C105.698 28.377 105.417 28.1191 105.077 27.9316C104.743 27.7441 104.351 27.6504 103.899 27.6504C103.454 27.6504 103.062 27.7441 102.722 27.9316C102.388 28.1191 102.106 28.377 101.878 28.7051C101.655 29.0273 101.488 29.3994 101.377 29.8213C101.266 30.2373 101.21 30.6797 101.21 31.1484ZM112.047 26.4902V36H110.412V26.4902H112.047ZM110.289 23.9678C110.289 23.7041 110.368 23.4814 110.526 23.2998C110.69 23.1182 110.931 23.0273 111.247 23.0273C111.558 23.0273 111.795 23.1182 111.959 23.2998C112.129 23.4814 112.214 23.7041 112.214 23.9678C112.214 24.2197 112.129 24.4365 111.959 24.6182C111.795 24.7939 111.558 24.8818 111.247 24.8818C110.931 24.8818 110.69 24.7939 110.526 24.6182C110.368 24.4365 110.289 24.2197 110.289 23.9678ZM120.651 34.1543V22.5H122.286V36H120.792L120.651 34.1543ZM114.253 31.3506V31.166C114.253 30.4395 114.341 29.7803 114.517 29.1885C114.698 28.5908 114.953 28.0781 115.281 27.6504C115.615 27.2227 116.011 26.8945 116.468 26.666C116.931 26.4316 117.446 26.3145 118.015 26.3145C118.612 26.3145 119.134 26.4199 119.579 26.6309C120.03 26.8359 120.411 27.1377 120.722 27.5361C121.038 27.9287 121.287 28.4033 121.469 28.96C121.65 29.5166 121.776 30.1465 121.847 30.8496V31.6582C121.782 32.3555 121.656 32.9824 121.469 33.5391C121.287 34.0957 121.038 34.5703 120.722 34.9629C120.411 35.3555 120.03 35.6572 119.579 35.8682C119.128 36.0732 118.601 36.1758 117.997 36.1758C117.44 36.1758 116.931 36.0557 116.468 35.8154C116.011 35.5752 115.615 35.2383 115.281 34.8047C114.953 34.3711 114.698 33.8613 114.517 33.2754C114.341 32.6836 114.253 32.042 114.253 31.3506ZM115.888 31.166V31.3506C115.888 31.8252 115.935 32.2705 116.028 32.6865C116.128 33.1025 116.28 33.4688 116.485 33.7852C116.69 34.1016 116.951 34.3506 117.268 34.5322C117.584 34.708 117.962 34.7959 118.401 34.7959C118.94 34.7959 119.383 34.6816 119.729 34.4531C120.08 34.2246 120.361 33.9229 120.572 33.5479C120.783 33.1729 120.947 32.7656 121.064 32.3262V30.208C120.994 29.8857 120.892 29.5752 120.757 29.2764C120.628 28.9717 120.458 28.7021 120.247 28.4678C120.042 28.2275 119.787 28.0371 119.482 27.8965C119.184 27.7559 118.829 27.6855 118.419 27.6855C117.974 27.6855 117.59 27.7793 117.268 27.9668C116.951 28.1484 116.69 28.4004 116.485 28.7227C116.28 29.0391 116.128 29.4082 116.028 29.8301C115.935 30.2461 115.888 30.6914 115.888 31.166Z" fill="white"/>
<defs>
<clipPath id="clip0_11537_118321">
<rect width="32" height="32" fill="white" transform="translate(17 12)"/>
</clipPath>
</defs>
</svg>
