<svg width="82" height="10" viewBox="0 0 82 10" fill="none" xmlns="http://www.w3.org/2000/svg">
<path d="M0 5.02868C0 7.87763 2.23761 10 5.02985 10C6.98059 10 8.58708 9.02486 9.40945 7.36138L7.28571 6.35714C6.84584 7.14108 5.96697 7.64286 4.9916 7.64286C3.63373 7.64286 2.42857 6.4436 2.42857 5.02868C2.42857 3.61377 3.63373 2.42857 4.9916 2.42857C5.98609 2.42857 7.00782 2.94441 7.42857 3.78571L9.42857 2.75335C8.6062 1.07075 6.99971 0 5.02985 0C2.23761 0 0 2.19885 0 5.02868Z" fill="#3D4853"/>
<path d="M15.5431 0C12.8765 0 11.3336 1.10899 10.9908 2.88719L13.3717 3.57553C13.6384 2.50478 14.4384 2.08413 15.4289 2.08413C16.4193 2.08413 17.1431 2.63453 17.1431 3.57143V4.07143C15.105 4.30087 14.3431 4.43595 13.7908 4.60803C11.7908 5.12428 10.8574 6.08031 10.8574 7.51434C10.8574 9.10134 12.0384 10 14.0384 10C15.505 10 16.7812 9.47009 17.4289 8.57143V10H20.0003V7.2849V3.59465C20.0003 1.16635 18.3431 0 15.5431 0ZM13.7146 7.07143C13.7146 6.55518 14.0574 6.11855 14.7622 5.90822C15.2765 5.75526 16.0193 5.66703 17.1431 5.57143V6.57143C17.1431 7.50833 15.9812 8.06883 14.9908 8.06883C14.2669 8.06883 13.7146 7.7024 13.7146 7.07143Z" fill="#3D4853"/>
<path d="M31.5714 0H28.5714L24.7143 4.57143V0H22V10H24.7143V7.71429L26.3571 5.85714L28.7143 10H31.8571L28.2857 4.07143L31.5714 0Z" fill="#3D4853"/>
<path d="M37.3048 10C39.4316 10 41.0636 9.14716 41.6233 7.5571L39.2896 6.70158C39.047 7.41041 38.2562 7.83521 37.2675 7.83521C36.1668 7.83521 35.3396 7.2722 35.0597 5.98865H41.7691C41.8064 5.7396 41.8569 5.21064 41.8569 4.90412C41.8569 1.83892 40.0659 0 37.1369 0C33.9653 0 32.1426 2.23187 32.1426 4.99055C32.1426 7.97911 34.0026 10 37.3048 10ZM34.9139 4.135C35.1377 2.75566 35.9637 2.13879 37.1017 2.13879C38.1651 2.13879 39.0657 2.81313 39.2896 4.135H34.9139Z" fill="#3D4853"/>
<path d="M44.1429 9.99861C44.7662 9.99861 45.2857 9.49261 45.2857 8.84702C45.2857 8.21889 44.7662 7.71289 44.1429 7.71289C43.5195 7.71289 43 8.21889 43 8.84702C43 9.49261 43.5195 9.99861 44.1429 9.99861Z" fill="#3D4853"/>
<path d="M46 4.96296C46 4.28395 46.1249 3.64198 46.3748 3.03704C46.6246 2.4321 46.9731 1.90741 47.4202 1.46296C47.8805 1.00617 48.4262 0.648148 49.0574 0.388889C49.6886 0.12963 50.3855 0 51.1482 0C52.1213 0 52.9695 0.209877 53.6928 0.62963C54.416 1.03704 54.9175 1.58201 55.2857 2.28571L54 2.71429C53.7107 2.22046 53.3377 1.80864 52.8249 1.53704C52.312 1.25309 51.74 1.11111 51.1088 1.11111C50.5828 1.11111 50.0897 1.20988 49.6294 1.40741C49.1823 1.60494 48.7878 1.87654 48.4459 2.22222C48.1172 2.55556 47.8542 2.95679 47.6569 3.42593C47.4728 3.89506 47.3808 4.40741 47.3808 4.96296C47.3808 5.50617 47.4794 6.01852 47.6766 6.5C47.8739 6.98148 48.1435 7.40124 48.4854 7.75926C48.8273 8.10494 49.2218 8.38272 49.6689 8.59259C50.1291 8.79012 50.6157 8.88889 51.1285 8.88889C51.4573 8.88889 51.7794 8.84568 52.095 8.75926C52.4238 8.67284 52.7262 8.55556 53.0024 8.40741C53.2785 8.24691 53.5152 8.0679 53.7125 7.87037C53.9097 7.67284 54 7.57143 54.1429 7.28571L55.4286 7.57143C55.2839 7.91711 55.0735 8.27778 54.7974 8.57407C54.5212 8.85803 54.1925 9.11111 53.8111 9.33333C53.4429 9.54321 53.0287 9.7037 52.5684 9.81482C52.1213 9.93827 51.6545 10 51.168 10C50.4184 10 49.728 9.87037 49.0968 9.61111C48.4656 9.33951 47.9199 8.97531 47.4597 8.51852C46.9994 8.04938 46.6378 7.51235 46.3748 6.90741C46.1249 6.30247 46 5.65432 46 4.96296Z" fill="#3D4853"/>
<path d="M61.1423 10C60.4297 10 59.7733 9.87037 59.1732 9.61111C58.5856 9.33951 58.073 8.97531 57.6354 8.51852C57.2103 8.06173 56.879 7.53086 56.6415 6.92593C56.4039 6.32099 56.2852 5.68519 56.2852 5.01852C56.2852 4.33951 56.4039 3.69753 56.6415 3.09259C56.8915 2.48765 57.2291 1.95679 57.6542 1.5C58.0917 1.04321 58.6043 0.679012 59.1919 0.407408C59.7921 0.135803 60.4422 0 61.1423 0C61.8424 0 62.4863 0.135803 63.0739 0.407408C63.674 0.679012 64.1866 1.04321 64.6117 1.5C65.0493 1.95679 65.3868 2.48765 65.6244 3.09259C65.8744 3.69753 65.9994 4.33951 65.9994 5.01852C65.9994 5.68519 65.8744 6.32099 65.6244 6.92593C65.3868 7.53086 65.0493 8.06173 64.6117 8.51852C64.1866 8.97531 63.674 9.33951 63.0739 9.61111C62.4863 9.87037 61.8424 10 61.1423 10ZM57.5979 5.03704C57.5979 5.58025 57.6854 6.08642 57.8604 6.55556C58.048 7.01235 58.298 7.41975 58.6106 7.77778C58.9356 8.12346 59.3107 8.39506 59.7358 8.59259C60.1734 8.79012 60.636 8.88889 61.1235 8.88889C61.6111 8.88889 62.0675 8.79012 62.4925 8.59259C62.9301 8.38272 63.3114 8.10494 63.6365 7.75926C63.9616 7.40124 64.2179 6.98765 64.4054 6.51852C64.5929 6.04938 64.6867 5.54321 64.6867 5C64.6867 4.46914 64.5929 3.96914 64.4054 3.5C64.2179 3.01852 63.9616 2.60494 63.6365 2.25926C63.3114 1.90123 62.9364 1.62346 62.5113 1.42593C62.0862 1.21605 61.6299 1.11111 61.1423 1.11111C60.6547 1.11111 60.1921 1.21605 59.7545 1.42593C59.3295 1.62346 58.9544 1.90123 58.6293 2.25926C58.3168 2.61728 58.0667 3.03704 57.8792 3.51852C57.6917 3.98765 57.5979 4.49383 57.5979 5.03704Z" fill="#3D4853"/>
<path d="M78.4661 0C77.3003 0 75.82 0.588236 75.2463 1.92157C74.6356 0.607843 73.3588 0 72.0635 0C70.9162 0 69.8096 0.518208 69.1434 1.71429V0.142857H67.7148V10H69.1698L69.1952 4.76471C69.1952 2.33333 70.7126 1.37255 71.9339 1.37255C73.1553 1.37255 74.1175 2.09804 74.1175 3.88235V10H75.5979V4.62745C75.5979 2.52941 76.8932 1.37255 78.3366 1.37255C79.5579 1.37255 80.5202 2.09804 80.5202 3.88235V10H82.0006V3.72549C82.0006 1.13726 80.2426 0 78.4661 0Z" fill="#3D4853"/>
</svg>
