<svg width="32" height="32" viewBox="0 0 32 32" fill="none" xmlns="http://www.w3.org/2000/svg">
<path d="M25.0667 -0.00195312H6.93333C3.10416 -0.00195312 0 3.10221 0 6.93138V25.0647C0 28.8939 3.10416 31.998 6.93333 31.998H25.0667C28.8958 31.998 32 28.8939 32 25.0647V6.93138C32 3.10221 28.8958 -0.00195312 25.0667 -0.00195312Z" fill="#03A9F4"/>
<path d="M20.587 9.11277C21.1467 8.55338 21.0262 7.61331 20.287 7.33023C19.2556 6.9352 18.1357 6.71875 16.9652 6.71875C11.837 6.71875 7.67969 10.8735 7.67969 15.9987C7.67969 21.124 11.837 25.2787 16.9652 25.2787C18.1285 25.2787 19.2418 25.065 20.2679 24.6746C21.0091 24.3926 21.1307 23.4508 20.57 22.8904C20.2066 22.5272 19.6567 22.4424 19.1691 22.6045C18.478 22.8341 17.7388 22.9584 16.9706 22.9584C13.1244 22.9584 10.0064 19.8423 10.0064 15.9984C10.0064 12.1545 13.1244 9.03839 16.9706 9.03839C17.7444 9.03839 18.4887 9.16452 19.1841 9.39733C19.6721 9.5607 20.2231 9.47645 20.587 9.11277Z" fill="white"/>
<path d="M18.2864 16.0533C18.2864 16.6977 17.7641 17.22 17.1198 17.22C16.4754 17.22 15.9531 16.6977 15.9531 16.0533C15.9531 15.409 16.4754 14.8867 17.1198 14.8867C17.7641 14.8867 18.2864 15.409 18.2864 16.0533Z" fill="white"/>
<path d="M19.0244 14.2593C18.6065 13.8408 18.6065 13.1625 19.0244 12.7441L22.5052 9.25912C22.9231 8.84071 23.6006 8.84071 24.0185 9.25912C24.4364 9.67753 24.4364 10.3559 24.0185 10.7743L20.5378 14.2593C20.1198 14.6777 19.4423 14.6777 19.0244 14.2593Z" fill="white"/>
<path d="M19.0244 17.737C18.6065 18.1554 18.6065 18.8338 19.0244 19.2522L22.5052 22.7371C22.9231 23.1555 23.6006 23.1555 24.0185 22.7371C24.4364 22.3187 24.4364 21.6403 24.0185 21.2219L20.5378 17.737C20.1198 17.3186 19.4423 17.3186 19.0244 17.737Z" fill="white"/>
</svg>
