<svg width="60" height="60" viewBox="0 0 60 60" fill="none" xmlns="http://www.w3.org/2000/svg">
<circle cx="30" cy="30" r="30" fill="#673AB7"/>
<path fill-rule="evenodd" clip-rule="evenodd" d="M30 45.8333C38.7445 45.8333 45.8333 38.7445 45.8333 30C45.8333 21.2555 38.7445 14.1667 30 14.1667C21.2555 14.1667 14.1667 21.2555 14.1667 30C14.1667 38.7445 21.2555 45.8333 30 45.8333ZM35.8848 24.1152C36.5116 24.7419 36.5116 25.7581 35.8848 26.3848L32.2696 30L35.8848 33.6152C36.5116 34.2419 36.5116 35.2581 35.8848 35.8848C35.2581 36.5116 34.2419 36.5116 33.6152 35.8848L30 32.2696L26.3848 35.8848C25.7581 36.5116 24.7419 36.5116 24.1152 35.8848C23.4884 35.2581 23.4884 34.2419 24.1152 33.6152L27.7304 30L24.1152 26.3848C23.4884 25.7581 23.4884 24.7419 24.1152 24.1152C24.7419 23.4884 25.7581 23.4884 26.3848 24.1152L30 27.7304L33.6152 24.1152C34.2419 23.4884 35.2581 23.4884 35.8848 24.1152Z" fill="white"/>
</svg>
