<svg width="1438" height="326" viewBox="0 0 1438 326" fill="none" xmlns="http://www.w3.org/2000/svg">
<g opacity="0.4">
<path d="M315.275 286.063C356.621 257.114 399.171 231.096 443.304 209.093C462.531 199.498 482.118 191.446 502.137 185.444C520.447 179.972 538.732 176.973 557.053 176.445C584.056 175.666 610.918 175.816 637.714 176.504C655.863 176.96 673.451 179.867 690.492 184.514C710.117 189.86 730.491 191.744 751.232 192.253C773.475 192.8 795.929 191.451 818.322 190.787C871.023 189.269 923.313 190.471 975.216 194.19C1005.51 196.36 1035.03 201.898 1063 212.061C1084.78 219.951 1104.97 230.922 1124.39 243.325C1158.16 264.838 1188.77 290.335 1214.45 322.253" stroke="#9A67EA" stroke-dasharray="10 20"/>
<path d="M315.275 286.063C356.621 257.114 399.171 231.096 443.304 209.093C462.531 199.498 482.118 191.446 502.137 185.444C520.447 179.972 538.732 176.973 557.053 176.445C584.056 175.666 610.918 175.816 637.714 176.504C655.863 176.96 673.451 179.867 690.492 184.514C710.117 189.86 730.491 191.744 751.232 192.253C773.475 192.8 795.929 191.451 818.322 190.787C871.023 189.269 923.313 190.471 975.216 194.19C1005.51 196.36 1035.03 201.898 1063 212.061C1084.78 219.951 1104.97 230.922 1124.39 243.325C1158.16 264.838 1188.77 290.335 1214.45 322.253" stroke="black" stroke-opacity="0.2" stroke-dasharray="10 20"/>
</g>
<g opacity="0.4">
<path d="M199.955 315.696C224.416 288.384 250.974 264.081 280.243 243.61C325.069 212.225 371.2 184.016 419.049 160.161C439.894 149.759 461.13 141.029 482.833 134.522C502.685 128.589 522.509 125.337 542.372 124.766C571.647 123.921 600.771 124.084 629.822 124.83C649.499 125.324 668.567 128.476 687.043 133.514C708.32 139.309 730.408 141.352 752.895 141.904C777.01 142.497 801.354 141.034 825.632 140.315C882.769 138.669 939.46 139.972 995.732 144.004C1028.58 146.356 1060.58 152.36 1090.9 163.38C1114.52 171.934 1136.41 183.828 1157.46 197.275C1194.07 220.598 1227.26 248.241 1255.1 282.846" stroke="#9A67EA" stroke-dasharray="10 20"/>
<path d="M199.955 315.696C224.416 288.384 250.974 264.081 280.243 243.61C325.069 212.225 371.2 184.016 419.049 160.161C439.894 149.759 461.13 141.029 482.833 134.522C502.685 128.589 522.509 125.337 542.372 124.766C571.647 123.921 600.771 124.084 629.822 124.83C649.499 125.324 668.567 128.476 687.043 133.514C708.32 139.309 730.408 141.352 752.895 141.904C777.01 142.497 801.354 141.034 825.632 140.315C882.769 138.669 939.46 139.972 995.732 144.004C1028.58 146.356 1060.58 152.36 1090.9 163.38C1114.52 171.934 1136.41 183.828 1157.46 197.275C1194.07 220.598 1227.26 248.241 1255.1 282.846" stroke="black" stroke-opacity="0.2" stroke-dasharray="10 20"/>
</g>
<g opacity="0.4">
<path d="M99.4854 297.809C128.577 265.326 160.163 236.422 194.974 212.076C248.286 174.748 303.151 141.2 360.058 112.828C384.85 100.457 410.106 90.0733 435.917 82.3354C459.528 75.2789 483.105 71.4113 506.729 70.7317C541.546 69.7272 576.183 69.9203 610.734 70.8074C634.137 71.395 656.815 75.144 678.788 81.1357C704.093 88.0284 730.364 90.4575 757.107 91.1142C785.788 91.82 814.741 90.0798 843.615 89.224C911.569 87.2674 978.992 88.8167 1045.92 93.6116C1084.99 96.4097 1123.04 103.55 1159.11 116.656C1187.2 126.829 1213.23 140.975 1238.27 156.968C1281.81 184.707 1321.28 217.584 1354.39 258.74" stroke="#9A67EA" stroke-dasharray="10 20"/>
<path d="M99.4854 297.809C128.577 265.326 160.163 236.422 194.974 212.076C248.286 174.748 303.151 141.2 360.058 112.828C384.85 100.457 410.106 90.0733 435.917 82.3354C459.528 75.2789 483.105 71.4113 506.729 70.7317C541.546 69.7272 576.183 69.9203 610.734 70.8074C634.137 71.395 656.815 75.144 678.788 81.1357C704.093 88.0284 730.364 90.4575 757.107 91.1142C785.788 91.82 814.741 90.0798 843.615 89.224C911.569 87.2674 978.992 88.8167 1045.92 93.6116C1084.99 96.4097 1123.04 103.55 1159.11 116.656C1187.2 126.829 1213.23 140.975 1238.27 156.968C1281.81 184.707 1321.28 217.584 1354.39 258.74" stroke="black" stroke-opacity="0.2" stroke-dasharray="10 20"/>
</g>
<g opacity="0.4">
<path d="M1 325.367C15.9072 304.034 30.8565 282.776 48.1786 263.441C79.6135 228.342 113.743 197.11 151.357 170.803C208.963 130.47 268.246 94.2192 329.736 63.5628C356.525 50.1952 383.815 38.9754 411.706 30.6143C437.217 22.9895 462.694 18.8105 488.22 18.076C525.841 16.9907 563.268 17.1994 600.601 18.158C625.889 18.7929 650.394 22.8439 674.136 29.3181C701.479 36.7659 729.866 39.3906 758.763 40.1002C789.754 40.8628 821.038 38.9825 852.238 38.0578C925.665 35.9436 998.518 37.6176 1070.83 42.7987C1113.05 45.8222 1154.17 53.538 1193.14 67.6988C1223.49 78.6915 1251.62 93.9766 1278.68 111.258C1325.72 141.231 1368.37 176.755 1404.15 221.226C1419.66 240.5 1430.04 255.5 1436.54 270" stroke="#9A67EA" stroke-dasharray="10 20"/>
<path d="M1 325.367C15.9072 304.034 30.8565 282.776 48.1786 263.441C79.6135 228.342 113.743 197.11 151.357 170.803C208.963 130.47 268.246 94.2192 329.736 63.5628C356.525 50.1952 383.815 38.9754 411.706 30.6143C437.217 22.9895 462.694 18.8105 488.22 18.076C525.841 16.9907 563.268 17.1994 600.601 18.158C625.889 18.7929 650.394 22.8439 674.136 29.3181C701.479 36.7659 729.866 39.3906 758.763 40.1002C789.754 40.8628 821.038 38.9825 852.238 38.0578C925.665 35.9436 998.518 37.6176 1070.83 42.7987C1113.05 45.8222 1154.17 53.538 1193.14 67.6988C1223.49 78.6915 1251.62 93.9766 1278.68 111.258C1325.72 141.231 1368.37 176.755 1404.15 221.226C1419.66 240.5 1430.04 255.5 1436.54 270" stroke="black" stroke-opacity="0.2" stroke-dasharray="10 20"/>
</g>
<path d="M394.705 107.375V104.556C394.705 103.06 394.196 101.626 393.29 100.569C392.383 99.5111 391.154 98.917 389.872 98.917H380.205C378.924 98.917 377.694 99.5111 376.788 100.569C375.881 101.626 375.372 103.06 375.372 104.556V107.375" fill="#D1BAF4"/>
<path d="M385.039 96.4997C387.709 96.4997 389.873 94.3357 389.873 91.6663C389.873 88.997 387.709 86.833 385.039 86.833C382.37 86.833 380.206 88.997 380.206 91.6663C380.206 94.3357 382.37 96.4997 385.039 96.4997Z" fill="#D1BAF4"/>
<path d="M611.705 25.3753V22.5559C611.705 21.0604 611.196 19.6261 610.29 18.5686C609.383 17.5111 608.154 16.917 606.872 16.917H597.205C595.924 16.917 594.694 17.5111 593.788 18.5686C592.881 19.6261 592.372 21.0604 592.372 22.5559V25.3753" fill="#D1BAF4"/>
<path d="M602.039 14.4997C604.709 14.4997 606.873 12.3357 606.873 9.66634C606.873 6.99696 604.709 4.83301 602.039 4.83301C599.37 4.83301 597.206 6.99696 597.206 9.66634C597.206 12.3357 599.37 14.4997 602.039 14.4997Z" fill="#D1BAF4"/>
<path d="M729.705 145.375V142.556C729.705 141.06 729.196 139.626 728.29 138.569C727.383 137.511 726.154 136.917 724.872 136.917H715.205C713.924 136.917 712.694 137.511 711.788 138.569C710.881 139.626 710.372 141.06 710.372 142.556V145.375" fill="#D1BAF4"/>
<path d="M720.039 134.5C722.709 134.5 724.873 132.336 724.873 129.666C724.873 126.997 722.709 124.833 720.039 124.833C717.37 124.833 715.206 126.997 715.206 129.666C715.206 132.336 717.37 134.5 720.039 134.5Z" fill="#D1BAF4"/>
<path d="M939.705 95.3753V92.5559C939.705 91.0604 939.196 89.6261 938.29 88.5686C937.383 87.5111 936.154 86.917 934.872 86.917H925.205C923.924 86.917 922.694 87.5111 921.788 88.5686C920.881 89.6261 920.372 91.0604 920.372 92.5559V95.3753" fill="#D1BAF4"/>
<path d="M930.039 84.4997C932.709 84.4997 934.873 82.3357 934.873 79.6663C934.873 76.997 932.709 74.833 930.039 74.833C927.37 74.833 925.206 76.997 925.206 79.6663C925.206 82.3357 927.37 84.4997 930.039 84.4997Z" fill="#D1BAF4"/>
<path d="M1202.71 74.3753V71.5559C1202.71 70.0604 1202.2 68.6261 1201.29 67.5686C1200.38 66.5111 1199.15 65.917 1197.87 65.917H1188.21C1186.92 65.917 1185.69 66.5111 1184.79 67.5686C1183.88 68.6261 1183.37 70.0604 1183.37 71.5559V74.3753" fill="#D1BAF4"/>
<path d="M1193.04 63.4997C1195.71 63.4997 1197.87 61.3357 1197.87 58.6663C1197.87 55.997 1195.71 53.833 1193.04 53.833C1190.37 53.833 1188.21 55.997 1188.21 58.6663C1188.21 61.3357 1190.37 63.4997 1193.04 63.4997Z" fill="#D1BAF4"/>
<path d="M1296.71 198.375V195.556C1296.71 194.06 1296.2 192.626 1295.29 191.569C1294.38 190.511 1293.15 189.917 1291.87 189.917H1282.21C1280.92 189.917 1279.69 190.511 1278.79 191.569C1277.88 192.626 1277.37 194.06 1277.37 195.556V198.375" fill="#D1BAF4"/>
<path d="M1287.04 187.5C1289.71 187.5 1291.87 185.336 1291.87 182.666C1291.87 179.997 1289.71 177.833 1287.04 177.833C1284.37 177.833 1282.21 179.997 1282.21 182.666C1282.21 185.336 1284.37 187.5 1287.04 187.5Z" fill="#D1BAF4"/>
<path d="M184.705 158.375V155.556C184.705 154.06 184.196 152.626 183.29 151.569C182.383 150.511 181.154 149.917 179.872 149.917H170.205C168.924 149.917 167.694 150.511 166.788 151.569C165.881 152.626 165.372 154.06 165.372 155.556V158.375" fill="#D1BAF4"/>
<path d="M175.039 147.5C177.709 147.5 179.873 145.336 179.873 142.666C179.873 139.997 177.709 137.833 175.039 137.833C172.37 137.833 170.206 139.997 170.206 142.666C170.206 145.336 172.37 147.5 175.039 147.5Z" fill="#D1BAF4"/>
</svg>
