<svg width="60" height="47" viewBox="0 0 60 47" fill="none" xmlns="http://www.w3.org/2000/svg">
<g clip-path="url(#clip0)">
<path d="M50.7925 4.13967C46.9683 2.38496 42.8675 1.09217 38.5797 0.351739C38.5017 0.337449 38.4237 0.373161 38.3834 0.444586C37.856 1.38262 37.2718 2.60637 36.8627 3.56823C32.251 2.87781 27.663 2.87781 23.1458 3.56823C22.7366 2.58499 22.1312 1.38262 21.6014 0.444586C21.5612 0.375544 21.4832 0.339832 21.4051 0.351739C17.1198 1.08981 13.0189 2.38259 9.19234 4.13967C9.15921 4.15395 9.13082 4.17778 9.11197 4.20871C1.33348 15.8296 -0.797376 27.1649 0.24795 38.3596C0.25268 38.4144 0.283425 38.4668 0.325995 38.5001C5.45802 42.2689 10.4293 44.5569 15.3082 46.0735C15.3863 46.0973 15.469 46.0688 15.5187 46.0045C16.6728 44.4284 17.7016 42.7666 18.5837 41.019C18.6357 40.9166 18.5861 40.7952 18.4797 40.7547C16.8478 40.1357 15.294 39.381 13.7993 38.5239C13.6811 38.4548 13.6716 38.2857 13.7804 38.2048C14.0949 37.9691 14.4095 37.7239 14.7099 37.4763C14.7642 37.431 14.8399 37.4215 14.9038 37.4501C24.7232 41.9332 35.3539 41.9332 45.0574 37.4501C45.1213 37.4191 45.197 37.4287 45.2537 37.4739C45.5541 37.7215 45.8686 37.9691 46.1856 38.2048C46.2943 38.2857 46.2872 38.4548 46.169 38.5239C44.6743 39.3976 43.1205 40.1357 41.4863 40.7523C41.3799 40.7928 41.3326 40.9166 41.3846 41.019C42.2856 42.7641 43.3144 44.4259 44.4472 46.0021C44.4946 46.0688 44.5797 46.0973 44.6577 46.0735C49.5603 44.5569 54.5315 42.2689 59.6636 38.5001C59.7085 38.4668 59.7369 38.4167 59.7417 38.362C60.9927 25.4196 57.6462 14.1773 50.8705 4.21107C50.854 4.17778 50.8257 4.15395 50.7925 4.13967ZM20.0501 31.5432C17.0937 31.5432 14.6578 28.8291 14.6578 25.4959C14.6578 22.1626 17.0465 19.4485 20.0501 19.4485C23.0772 19.4485 25.4895 22.1865 25.4422 25.4959C25.4422 28.8291 23.0535 31.5432 20.0501 31.5432ZM39.9869 31.5432C37.0306 31.5432 34.5947 28.8291 34.5947 25.4959C34.5947 22.1626 36.9833 19.4485 39.9869 19.4485C43.0141 19.4485 45.4263 22.1865 45.3791 25.4959C45.3791 28.8291 43.0141 31.5432 39.9869 31.5432Z" fill="#5865F2"/>
</g>
<defs>
<clipPath id="clip0">
<rect width="60" height="46.4789" fill="white"/>
</clipPath>
</defs>
</svg>
