<svg width="24" height="27" viewBox="0 0 24 27" fill="none" xmlns="http://www.w3.org/2000/svg">
<path d="M11 4.48682H4C3.46957 4.48682 2.96086 4.72317 2.58579 5.14388C2.21071 5.5646 2 6.13521 2 6.73018V22.4338C2 23.0287 2.21071 23.5993 2.58579 24.0201C2.96086 24.4408 3.46957 24.6771 4 24.6771H18C18.5304 24.6771 19.0391 24.4408 19.4142 24.0201C19.7893 23.5993 20 23.0287 20 22.4338V14.582" stroke="#FF9800" stroke-width="2" stroke-linecap="round" stroke-linejoin="round"/>
<path d="M18.5 2.80435C18.8978 2.35811 19.4374 2.10742 20 2.10742C20.5626 2.10742 21.1022 2.35811 21.5 2.80435C21.8978 3.25058 22.1213 3.8558 22.1213 4.48687C22.1213 5.11794 21.8978 5.72316 21.5 6.1694L12 16.8254L8 17.9471L9 13.4603L18.5 2.80435Z" stroke="#FF9800" stroke-width="2" stroke-linecap="round" stroke-linejoin="round"/>
</svg>
