<svg width="60" height="60" viewBox="0 0 60 60" fill="none" xmlns="http://www.w3.org/2000/svg">
<path d="M58.1696 51.8319C56.3956 50.5285 54.1871 48.7545 53.9699 45.6409C53.8613 43.9755 54.3319 42.1109 54.8026 40.7533C55.0922 40.1197 55.3457 39.468 55.581 38.8163V38.7982C60.6677 24.443 53.1553 8.67591 38.782 3.58915C24.4088 -1.49761 8.67784 6.03297 3.59107 20.3881C-1.49568 34.7433 6.01678 50.5104 20.39 55.5972C28.3189 58.403 37.0985 57.4436 44.2308 52.9723C44.9549 52.6284 45.5704 52.4293 45.9143 52.5741C49.571 54.1128 53.5716 54.5834 57.4817 53.8956C58.1696 53.7869 59.9255 53.1353 58.1696 51.8319Z" fill="#0ABE51"/>
<path d="M21.4583 17.0752H39.9951C41.7148 17.0752 43.1087 18.4691 43.1087 20.1889V20.3156C43.1087 22.0353 41.7148 23.4292 39.9951 23.4292H21.4583C19.7386 23.4292 18.3447 22.0353 18.3447 20.3156V20.1889C18.3447 18.4691 19.7386 17.0752 21.4583 17.0752Z" fill="white"/>
<path d="M21.4583 26.5068H33.1705C34.8903 26.5068 36.2841 27.9007 36.2841 29.6204V29.7653C36.2841 31.485 34.8903 32.8789 33.1705 32.8789H21.4583C19.7386 32.8789 18.3447 31.485 18.3447 29.7653V29.6204C18.3447 27.9007 19.7386 26.5068 21.4583 26.5068Z" fill="white"/>
<path d="M21.4583 35.7749H23.5763C25.296 35.7749 26.6899 37.1688 26.6899 38.8885V39.0152C26.6899 40.7349 25.296 42.1288 23.5763 42.1288H21.4583C19.7386 42.1288 18.3447 40.7349 18.3447 39.0152V38.8885C18.3447 37.1688 19.7386 35.7749 21.4583 35.7749Z" fill="white"/>
</svg>
