<svg width="1600" height="553" viewBox="0 0 1600 553" fill="none" xmlns="http://www.w3.org/2000/svg">
<path fill-rule="evenodd" clip-rule="evenodd" d="M0 151.615C-6.30737 151.035 -9.92786 150.26 -9.92786 148.996C-9.92786 147.796 -13.739 146.796 -19.4558 146.096C-30.2463 144.802 -36.4645 142.984 -42.4817 141.225C-43.9029 140.809 -45.3128 140.397 -46.7692 139.996C-49.4046 139.344 -49.8085 138.446 -50.2294 137.51C-50.5186 136.867 -50.8158 136.207 -51.8507 135.596C-53.7563 134.496 -56.2972 133.496 -60.7436 132.395C-66.1011 131.322 -66.6037 129.896 -67.1194 128.432C-67.2762 127.987 -67.4343 127.538 -67.7306 127.095C-68.6176 126.048 -68.9627 125 -69.3064 123.957C-69.9474 122.012 -70.5834 120.082 -74.718 118.195C-77.4552 116.974 -75.2776 115.804 -73.127 114.649C-72.2832 114.196 -71.4436 113.745 -70.9066 113.294C-67.7306 110.294 -64.5549 107.394 -60.1086 104.394C-56.2974 101.394 -56.9324 98.1935 -57.5676 95.0933C-57.5676 94.0272 -56.5678 93.024 -55.578 92.0309C-54.8036 91.2539 -54.0354 90.4831 -53.7566 89.693C-53.1214 89.093 -50.5808 88.693 -48.0401 88.293L-48.0397 88.2929C-39.7821 86.8929 -34.7004 85.2928 -35.9708 83.2926C-36.606 82.3926 -35.3358 81.4925 -33.4302 80.6925C-31.5383 79.8585 -29.9282 79.0067 -28.3145 78.1531C-24.5101 76.1407 -20.686 74.1177 -13.1038 72.292C-10.3999 71.6298 -6.98545 71.0571 -3.59985 70.4892C0.172493 69.8564 3.90905 69.2297 6.58711 68.4918C10.3983 67.4918 13.5744 66.5917 15.48 65.4916C23.7376 61.9914 33.2655 58.6912 52.3214 56.2911C59.0968 55.4244 64.1785 54.291 69.2602 53.1576C71.8009 52.5909 74.3417 52.0242 77.0942 51.4908C86.6221 49.5907 97.4203 48.1906 112.665 47.5906C118.382 47.3906 121.558 46.8906 124.734 46.2905C129.816 45.0905 136.803 44.1904 145.695 43.6904C158.621 42.9442 169.208 41.5999 179.837 40.2505C184.877 39.6104 189.928 38.9692 195.241 38.3901C195.651 38.3398 196.058 38.2896 196.463 38.2396C201.7 37.5932 206.586 36.99 213.661 36.99C220.013 36.89 224.459 36.19 228.905 35.49L228.906 35.4899C235.605 34.3797 244.066 33.67 252.442 32.9675C259.155 32.4044 265.812 31.846 271.464 31.0896C272.735 30.8896 276.546 30.8897 279.087 30.9897C292.426 31.1897 301.318 30.0896 308.306 28.5895C312.117 27.6895 316.563 26.9894 323.55 26.7894C329.267 26.6894 334.349 26.2894 338.16 25.5893C338.31 25.5657 338.46 25.5366 338.618 25.5058C339.13 25.4061 339.73 25.2893 340.701 25.2893C350.607 25.1022 358.783 24.3702 367.078 23.6275C372.081 23.1796 377.128 22.7278 382.624 22.3892C383.294 22.3469 383.937 22.3003 384.562 22.2548C386.901 22.0848 389.011 21.9314 391.517 22.0891C402.95 22.6892 411.208 21.7891 418.195 20.589C418.523 20.5375 418.869 20.477 419.234 20.4132C420.993 20.1063 423.187 19.7234 425.817 19.889C434.964 20.3691 442.053 19.769 449.141 19.169C453.867 18.769 458.593 18.3689 463.929 18.2889C465.199 18.2889 466.47 18.2889 467.105 18.3889C474.264 19.863 479.992 19.0817 485.528 18.3264C486.377 18.2105 487.222 18.0953 488.067 17.9889C497.595 16.7889 507.758 15.8888 518.556 15.2888C519.402 15.2355 520.294 15.1893 521.194 15.1426C523.673 15.0141 526.22 14.8821 528.084 14.5887C536.341 13.3886 544.599 12.5886 556.668 13.2886C561.114 13.5887 566.196 12.9886 570.007 12.3886C576.994 11.2885 585.252 10.5885 595.415 10.4885C598.591 10.4885 601.767 10.2885 603.672 9.98847C621.458 8.18836 641.149 7.18828 662.746 7.5883C667.368 7.67926 670.413 7.19112 673.316 6.72582C673.605 6.67954 673.892 6.63348 674.179 6.58825C681.166 5.38818 689.424 4.68815 699.587 5.18817C709.115 5.5882 717.373 4.68815 721.819 3.68809C728.171 2.38801 735.793 2.188 744.051 2.08799C745.277 2.08799 746.504 2.13274 747.694 2.17615C749.585 2.24515 751.384 2.31077 752.943 2.188C763.742 1.48796 775.175 0.987952 785.974 1.98801C796.772 0.987952 808.841 0.98794 820.91 1.28796C832.343 -0.612151 845.682 -0.0121291 859.021 0.587905C860.546 0.647909 862.07 0.599913 863.595 0.551917C864.611 0.51992 865.628 0.487924 866.644 0.487924L872.361 0.187888C876.384 -0.0835907 879.627 0.238599 882.973 0.57095C887.022 0.973174 891.22 1.39028 897.133 0.787929C905.485 -0.0338988 910.834 1.03528 915.648 1.99748C916.692 2.20615 917.711 2.40979 918.73 2.58802C921.906 3.08805 925.082 3.28808 929.528 2.98807C932.913 2.77494 936.537 2.63752 940.174 2.49961C946.778 2.24925 953.423 1.9973 958.747 1.28796C960.653 0.98794 963.829 0.987934 965.734 1.18795C974.057 1.75767 982.792 1.93791 991.47 2.11697C998.025 2.25222 1004.55 2.3868 1010.83 2.68803C1018.77 3.05535 1026.01 3.74647 1033.33 4.44423C1035.97 4.69633 1038.63 4.9493 1041.32 5.18817C1041.82 5.23996 1042.35 5.31186 1042.91 5.38652C1044.5 5.60019 1046.26 5.83643 1047.67 5.6882C1054.67 4.95382 1060.64 5.40587 1066.59 5.85628C1068.74 6.01923 1070.89 6.18197 1073.08 6.28824C1081.34 6.68827 1089.6 6.88828 1098.49 6.88828C1109.27 6.96909 1119.63 7.31109 1129.92 7.65047C1132.36 7.73108 1134.8 7.81155 1137.24 7.88834C1140.41 7.98835 1142.32 8.28835 1144.86 8.68837L1145.71 8.8219C1153.05 9.98232 1160.6 11.1737 1173.44 10.7885C1177.26 10.6885 1181.07 11.0885 1184.24 11.4886C1190.59 12.1886 1198.22 12.8886 1204.57 12.8886C1216.39 12.8197 1224.89 13.7005 1233.39 14.5821C1237.23 14.9799 1241.07 15.3778 1245.22 15.6888C1247.13 15.7888 1249.03 15.9888 1250.3 16.1888C1260.47 17.9889 1273.17 18.689 1288.41 18.489C1292.86 18.489 1296.04 18.789 1299.21 19.289L1300.26 19.4312C1308.77 20.5818 1316.89 21.6812 1329.7 21.4891C1336.17 21.4042 1340.36 22.1845 1344.58 22.9729C1345.33 23.113 1346.09 23.2534 1346.85 23.3892C1353.2 24.4893 1359.56 25.2893 1367.81 25.9894C1376.07 26.5894 1383.69 27.2894 1390.68 28.2895C1397.67 29.2896 1407.83 29.5896 1417.36 29.7896C1426.25 30.0896 1432.6 30.6896 1436.42 31.8897C1439.7 32.7942 1444.57 33.49 1449.49 34.1928C1452.19 34.5779 1454.9 34.9651 1457.38 35.3899C1459.28 35.7899 1461.82 35.99 1465.63 35.99C1476.43 35.99 1484.69 36.99 1492.31 38.09C1496.08 38.6526 1500.17 39.1663 1504.25 39.68C1513.23 40.8101 1522.21 41.9403 1527.88 43.5904C1528.76 43.8659 1531.14 44.0941 1533.37 44.3074C1534.38 44.4038 1535.35 44.4971 1536.14 44.5904C1536.34 44.6116 1536.56 44.634 1536.79 44.6573C1538.69 44.8541 1541.29 45.1223 1541.86 45.3905C1542.92 46.7312 1547.55 47.7286 1552.21 48.7314C1555.89 49.5238 1559.59 50.3196 1561.55 51.2908C1562.18 51.5908 1562.82 51.8908 1564.73 52.0908C1575.24 53.3487 1580.74 55.0886 1586.21 56.8174C1589 57.7001 1591.78 58.58 1595.21 59.3913C1596.4 59.6578 1597.67 59.9243 1598.97 60.1946C1602.53 60.9385 1606.22 61.7112 1608.55 62.5914C1618.08 65.7916 1624.43 69.1918 1628.88 72.692C1632.69 75.5922 1636.5 78.4924 1639.68 81.3925C1642.22 83.5927 1640.95 85.7928 1637.14 87.9929C1635.23 89.193 1634.6 90.393 1633.96 91.5931C1633.53 93.5783 1631.01 95.4699 1628.44 97.396C1627.26 98.2836 1626.07 99.1787 1625.07 100.094C1624.95 100.187 1624.85 100.281 1624.76 100.374C1624.34 100.774 1623.96 101.15 1621.89 101.394C1613.32 102.601 1611.16 104.213 1609.03 105.797C1608.16 106.444 1607.3 107.086 1606.01 107.694C1605.76 107.851 1605.71 108.04 1605.66 108.216C1605.58 108.489 1605.51 108.733 1604.74 108.794C1602.93 109.036 1601.37 109.294 1600 109.565V553H0V151.615Z" fill="#F9F5FF"/>
</svg>
