<svg width="42" height="42" viewBox="0 0 42 42" fill="none" xmlns="http://www.w3.org/2000/svg">
<path d="M36.4707 8.06679C35.5769 7.17255 34.5156 6.46317 33.3476 5.97919C32.1795 5.4952 30.9275 5.24609 29.6632 5.24609C28.3988 5.24609 27.1469 5.4952 25.9788 5.97919C24.8108 6.46317 23.7495 7.17255 22.8557 8.06679L21.0007 9.92179L19.1457 8.06679C17.3402 6.26133 14.8915 5.24703 12.3382 5.24703C9.78489 5.24703 7.33616 6.26133 5.5307 8.06679C3.72524 9.87225 2.71094 12.321 2.71094 14.8743C2.71094 17.4276 3.72524 19.8763 5.5307 21.6818L7.3857 23.5368L21.0007 37.1518L34.6157 23.5368L36.4707 21.6818C37.3649 20.788 38.0743 19.7267 38.5583 18.5587C39.0423 17.3906 39.2914 16.1386 39.2914 14.8743C39.2914 13.6099 39.0423 12.358 38.5583 11.1899C38.0743 10.0219 37.3649 8.96061 36.4707 8.06679V8.06679Z" stroke="#673AB7" stroke-width="3.5" stroke-linecap="round" stroke-linejoin="round"/>
</svg>
