<svg width="20" height="20" viewBox="0 0 20 20" fill="none" xmlns="http://www.w3.org/2000/svg">
<path d="M10 20C4.52632 20 0 15.5536 0 10.0039C0 4.45417 4.5 0.00390625 10 0C15.4737 0 20 4.55498 20 10C20 15.5497 15.5789 20 10 20ZM10 1C5.05263 1 1 5.07854 1 10C1 14.9215 5.05263 19 10 19C14.9474 19 19 14.9215 19 10C19 4.97382 14.9474 1 10 1Z" fill="#828292"/>
<path d="M9.5 8.5C9.5 8.22386 9.72386 8 10 8C10.2761 8 10.5 8.22386 10.5 8.5V15.5C10.5 15.7761 10.2761 16 10 16C9.72386 16 9.5 15.7761 9.5 15.5V8.5Z" fill="#828292"/>
<path d="M10.5 5.5C10.5 5.77614 10.2761 6 10 6C9.72386 6 9.5 5.77614 9.5 5.5C9.5 5.22386 9.72386 5 10 5C10.2761 5 10.5 5.22386 10.5 5.5Z" fill="#828292"/>
</svg>
