<svg width="16" height="16" viewBox="0 0 16 16" fill="none" xmlns="http://www.w3.org/2000/svg">
<path d="M10.4902 6.01367H5.04307C5.04307 6.01367 2.77344 8.73723 2.77344 10.5529C2.77344 12.3686 7.76663 15.5461 7.76663 15.5461C7.76663 15.5461 12.7598 12.3686 12.7598 10.5529C12.7598 8.73723 10.4902 6.01367 10.4902 6.01367Z" fill="#31373D"/>
<path d="M8.51107 0.239673C8.10209 -0.0798911 7.43209 -0.0798911 7.0231 0.239673L0.339944 5.45801C-0.0690438 5.77758 -0.0690438 6.3005 0.339944 6.62006L7.02265 11.8379C7.43209 12.1575 8.10163 12.1575 8.51062 11.8379L15.1933 6.62006C15.6028 6.3005 15.6028 5.77758 15.1933 5.45801L8.51107 0.239673Z" fill="#292F33"/>
<path d="M8.51107 0.239673C8.10209 -0.0798911 7.43209 -0.0798911 7.0231 0.239673L0.339944 5.45801C-0.0690438 5.77758 -0.0690438 6.3005 0.339944 6.62006L7.02265 11.8379C7.43164 12.1575 8.10163 12.1575 8.51062 11.8379L15.1938 6.62006C15.6028 6.3005 15.6028 5.77758 15.1938 5.45801L8.51107 0.239673Z" fill="#394146"/>
<path d="M3.22719 11.0068C3.22719 11.0068 2.31934 11.9147 2.31934 12.3686V15.0922C2.31934 15.0922 2.31934 16 3.22719 16C4.13504 16 4.13504 15.0922 4.13504 15.0922V12.3686C4.13504 11.9147 3.22719 11.0068 3.22719 11.0068Z" fill="#FCAB40"/>
<path d="M3.22799 12.8232C3.98008 12.8232 4.58977 12.2135 4.58977 11.4614C4.58977 10.7093 3.98008 10.0996 3.22799 10.0996C2.4759 10.0996 1.86621 10.7093 1.86621 11.4614C1.86621 12.2135 2.4759 12.8232 3.22799 12.8232Z" fill="#FDD888"/>
<path d="M3.22849 11.9144C2.97792 11.9144 2.77456 11.7115 2.77456 11.4605V9.66388C2.75549 9.37609 2.85944 8.73968 3.37238 8.35475L7.4677 4.7642C7.65654 4.59851 7.94342 4.61758 8.10819 4.80641C8.27342 4.99479 8.25436 5.28167 8.06598 5.4469L3.94433 9.05925C3.67016 9.26624 3.68196 9.63664 3.68196 9.64027L3.68287 11.4605C3.68287 11.7115 3.47951 11.9144 3.22849 11.9144V11.9144Z" fill="#FCAB40"/>
<path d="M7.76705 6.92082C8.51914 6.92082 9.12883 6.31113 9.12883 5.55904C9.12883 4.80695 8.51914 4.19727 7.76705 4.19727C7.01496 4.19727 6.40527 4.80695 6.40527 5.55904C6.40527 6.31113 7.01496 6.92082 7.76705 6.92082Z" fill="#31373D"/>
</svg>
