<svg width="169" height="58" viewBox="0 0 169 58" fill="none" xmlns="http://www.w3.org/2000/svg">
<rect width="169" height="58" rx="5" fill="#1A1C20"/>
<path d="M37.7144 15.7429C38.7256 14.4752 39.4174 12.7503 39.2254 11C37.7618 11.065 35.9315 12.0149 34.8776 13.2549C33.9451 14.3476 33.112 16.1385 33.3272 17.8226C34.9713 17.9457 36.6593 16.991 37.7144 15.7429Z" fill="white"/>
<path d="M43.0569 29.1455C43.0235 25.4071 46.1102 23.5883 46.2513 23.5036C44.5031 20.9483 41.7936 20.5992 40.8414 20.5714C38.5657 20.3313 36.3583 21.9366 35.1989 21.9366C34.0166 21.9366 32.2314 20.5945 30.3074 20.634C27.8315 20.6723 25.5153 22.1094 24.245 24.3411C21.6234 28.8915 23.5786 35.5785 26.0903 39.2566C27.3468 41.058 28.8149 43.0692 30.7366 42.9985C32.6167 42.9208 33.3189 41.7968 35.5877 41.7968C37.8356 41.7968 38.4951 42.9985 40.4549 42.9533C42.4727 42.9208 43.743 41.1438 44.9555 39.3262C46.4075 37.2615 46.9906 35.2282 47.0138 35.1238C46.9663 35.1076 43.0952 33.6263 43.0569 29.1455Z" fill="white"/>
<path d="M68.0059 24.4902V34H66.3711V24.4902H68.0059ZM66.248 21.9678C66.248 21.7041 66.3271 21.4814 66.4854 21.2998C66.6494 21.1182 66.8896 21.0273 67.2061 21.0273C67.5166 21.0273 67.7539 21.1182 67.918 21.2998C68.0879 21.4814 68.1729 21.7041 68.1729 21.9678C68.1729 22.2197 68.0879 22.4365 67.918 22.6182C67.7539 22.7939 67.5166 22.8818 67.2061 22.8818C66.8896 22.8818 66.6494 22.7939 66.4854 22.6182C66.3271 22.4365 66.248 22.2197 66.248 21.9678ZM80.7148 27.1973V28.0059C80.7148 28.9668 80.5947 29.8281 80.3545 30.5898C80.1143 31.3516 79.7686 31.999 79.3174 32.5322C78.8662 33.0654 78.3242 33.4727 77.6914 33.7539C77.0645 34.0352 76.3613 34.1758 75.582 34.1758C74.8262 34.1758 74.1318 34.0352 73.499 33.7539C72.8721 33.4727 72.3271 33.0654 71.8643 32.5322C71.4072 31.999 71.0527 31.3516 70.8008 30.5898C70.5488 29.8281 70.4229 28.9668 70.4229 28.0059V27.1973C70.4229 26.2363 70.5459 25.3779 70.792 24.6221C71.0439 23.8604 71.3984 23.2129 71.8555 22.6797C72.3125 22.1406 72.8545 21.7305 73.4814 21.4492C74.1143 21.168 74.8086 21.0273 75.5645 21.0273C76.3438 21.0273 77.0469 21.168 77.6738 21.4492C78.3066 21.7305 78.8486 22.1406 79.2998 22.6797C79.7568 23.2129 80.1055 23.8604 80.3457 24.6221C80.5918 25.3779 80.7148 26.2363 80.7148 27.1973ZM79.0361 28.0059V27.1797C79.0361 26.418 78.957 25.7441 78.7988 25.1582C78.6465 24.5723 78.4209 24.0801 78.1221 23.6816C77.8232 23.2832 77.457 22.9814 77.0234 22.7764C76.5957 22.5713 76.1094 22.4688 75.5645 22.4688C75.0371 22.4688 74.5596 22.5713 74.1318 22.7764C73.71 22.9814 73.3467 23.2832 73.042 23.6816C72.7432 24.0801 72.5117 24.5723 72.3477 25.1582C72.1836 25.7441 72.1016 26.418 72.1016 27.1797V28.0059C72.1016 28.7734 72.1836 29.4531 72.3477 30.0449C72.5117 30.6309 72.7461 31.126 73.0508 31.5303C73.3613 31.9287 73.7275 32.2305 74.1494 32.4355C74.5771 32.6406 75.0547 32.7432 75.582 32.7432C76.1328 32.7432 76.6221 32.6406 77.0498 32.4355C77.4775 32.2305 77.8379 31.9287 78.1309 31.5303C78.4297 31.126 78.6553 30.6309 78.8076 30.0449C78.96 29.4531 79.0361 28.7734 79.0361 28.0059ZM90.0752 30.7656C90.0752 30.4668 90.0283 30.2031 89.9346 29.9746C89.8467 29.7402 89.6885 29.5293 89.46 29.3418C89.2373 29.1543 88.9268 28.9756 88.5283 28.8057C88.1357 28.6357 87.6377 28.4629 87.0342 28.2871C86.4014 28.0996 85.8301 27.8916 85.3203 27.6631C84.8105 27.4287 84.374 27.1621 84.0107 26.8633C83.6475 26.5645 83.3691 26.2217 83.1758 25.835C82.9824 25.4482 82.8857 25.0059 82.8857 24.5078C82.8857 24.0098 82.9883 23.5498 83.1934 23.1279C83.3984 22.7061 83.6914 22.3398 84.0723 22.0293C84.459 21.7129 84.9189 21.4668 85.4521 21.291C85.9854 21.1152 86.5801 21.0273 87.2363 21.0273C88.1973 21.0273 89.0117 21.2119 89.6797 21.5811C90.3535 21.9443 90.8662 22.4219 91.2178 23.0137C91.5693 23.5996 91.7451 24.2266 91.7451 24.8945H90.0576C90.0576 24.4141 89.9551 23.9893 89.75 23.6201C89.5449 23.2451 89.2344 22.9521 88.8184 22.7412C88.4023 22.5244 87.875 22.416 87.2363 22.416C86.6328 22.416 86.1348 22.5068 85.7422 22.6885C85.3496 22.8701 85.0566 23.1162 84.8633 23.4268C84.6758 23.7373 84.582 24.0918 84.582 24.4902C84.582 24.7598 84.6377 25.0059 84.749 25.2285C84.8662 25.4453 85.0449 25.6475 85.2852 25.835C85.5312 26.0225 85.8418 26.1953 86.2168 26.3535C86.5977 26.5117 87.0518 26.6641 87.5791 26.8105C88.3057 27.0156 88.9326 27.2441 89.46 27.4961C89.9873 27.748 90.4209 28.0322 90.7607 28.3486C91.1064 28.6592 91.3613 29.0137 91.5254 29.4121C91.6953 29.8047 91.7803 30.25 91.7803 30.748C91.7803 31.2695 91.6748 31.7412 91.4639 32.1631C91.2529 32.585 90.9512 32.9453 90.5586 33.2441C90.166 33.543 89.6943 33.7744 89.1436 33.9385C88.5986 34.0967 87.9893 34.1758 87.3154 34.1758C86.7236 34.1758 86.1406 34.0938 85.5664 33.9297C84.998 33.7656 84.4795 33.5195 84.0107 33.1914C83.5479 32.8633 83.1758 32.459 82.8945 31.9785C82.6191 31.4922 82.4814 30.9297 82.4814 30.291H84.1689C84.1689 30.7305 84.2539 31.1084 84.4238 31.4248C84.5938 31.7354 84.8252 31.9932 85.1182 32.1982C85.417 32.4033 85.7539 32.5557 86.1289 32.6553C86.5098 32.749 86.9053 32.7959 87.3154 32.7959C87.9072 32.7959 88.4082 32.7139 88.8184 32.5498C89.2285 32.3857 89.5391 32.1514 89.75 31.8467C89.9668 31.542 90.0752 31.1816 90.0752 30.7656Z" fill="white"/>
</svg>
