<svg width="169" height="58" viewBox="0 0 169 58" fill="none" xmlns="http://www.w3.org/2000/svg">
<rect width="169" height="58" rx="5" fill="#1A1C20"/>
<path d="M70.2461 30.6201V32H63.8477V30.6201H70.2461ZM64.1816 19.2031V32H62.4854V19.2031H64.1816ZM73.709 22.4902V32H72.0742V22.4902H73.709ZM71.9512 19.9678C71.9512 19.7041 72.0303 19.4814 72.1885 19.2998C72.3525 19.1182 72.5928 19.0273 72.9092 19.0273C73.2197 19.0273 73.457 19.1182 73.6211 19.2998C73.791 19.4814 73.876 19.7041 73.876 19.9678C73.876 20.2197 73.791 20.4365 73.6211 20.6182C73.457 20.7939 73.2197 20.8818 72.9092 20.8818C72.5928 20.8818 72.3525 20.7939 72.1885 20.6182C72.0303 20.4365 71.9512 20.2197 71.9512 19.9678ZM77.9453 24.5205V32H76.3193V22.4902H77.8574L77.9453 24.5205ZM77.5586 26.8848L76.8818 26.8584C76.8877 26.208 76.9844 25.6074 77.1719 25.0566C77.3594 24.5 77.623 24.0166 77.9629 23.6064C78.3027 23.1963 78.707 22.8799 79.1758 22.6572C79.6504 22.4287 80.1748 22.3145 80.749 22.3145C81.2178 22.3145 81.6396 22.3789 82.0146 22.5078C82.3896 22.6309 82.709 22.8301 82.9727 23.1055C83.2422 23.3809 83.4473 23.7383 83.5879 24.1777C83.7285 24.6113 83.7988 25.1416 83.7988 25.7686V32H82.1641V25.751C82.1641 25.2529 82.0908 24.8545 81.9443 24.5557C81.7979 24.251 81.584 24.0312 81.3027 23.8965C81.0215 23.7559 80.6758 23.6855 80.2656 23.6855C79.8613 23.6855 79.4922 23.7705 79.1582 23.9404C78.8301 24.1104 78.5459 24.3447 78.3057 24.6436C78.0713 24.9424 77.8867 25.2852 77.752 25.6719C77.623 26.0527 77.5586 26.457 77.5586 26.8848ZM92.0869 29.8027V22.4902H93.7217V32H92.166L92.0869 29.8027ZM92.3945 27.7988L93.0713 27.7812C93.0713 28.4141 93.0039 29 92.8691 29.5391C92.7402 30.0723 92.5293 30.5352 92.2363 30.9277C91.9434 31.3203 91.5596 31.6279 91.085 31.8506C90.6104 32.0674 90.0332 32.1758 89.3535 32.1758C88.8906 32.1758 88.4658 32.1084 88.0791 31.9736C87.6982 31.8389 87.3701 31.6309 87.0947 31.3496C86.8193 31.0684 86.6055 30.7021 86.4531 30.251C86.3066 29.7998 86.2334 29.2578 86.2334 28.625V22.4902H87.8594V28.6426C87.8594 29.0703 87.9062 29.4248 88 29.7061C88.0996 29.9814 88.2314 30.2012 88.3955 30.3652C88.5654 30.5234 88.7529 30.6348 88.958 30.6992C89.1689 30.7637 89.3857 30.7959 89.6084 30.7959C90.2998 30.7959 90.8477 30.6641 91.252 30.4004C91.6562 30.1309 91.9463 29.7705 92.1221 29.3193C92.3037 28.8623 92.3945 28.3555 92.3945 27.7988ZM97.2988 22.4902L99.3818 25.9531L101.491 22.4902H103.398L100.287 27.1836L103.495 32H101.614L99.417 28.4316L97.2197 32H95.3301L98.5293 27.1836L95.4268 22.4902H97.2988Z" fill="white"/>
<path fill-rule="evenodd" clip-rule="evenodd" d="M33.5004 46C42.6133 46 50 38.6126 50 29.4996C50 20.3871 42.6133 13 33.5004 13C24.3875 13 17 20.3872 17 29.4996C17 38.6126 24.3873 46 33.5004 46ZM23.2102 32.2173C24.4319 32.2173 25.4217 31.2164 25.4217 29.9823C25.4217 28.7485 24.4319 27.748 23.2102 27.748C21.9897 27.748 21 28.7485 21 29.9823C21 31.2165 21.9897 32.2173 23.2102 32.2173ZM41.0185 41.6663C39.9611 42.2827 38.6096 41.9164 37.9991 40.8483C37.3885 39.7795 37.7508 38.4135 38.8082 37.7963C39.8655 37.1791 41.217 37.5446 41.8275 38.6133C42.4379 39.6822 42.0757 41.0491 41.0185 41.6663ZM41.0184 18.2998C42.0764 18.9163 42.4378 20.2828 41.8274 21.3518C41.2176 22.4206 39.8655 22.7867 38.8081 22.1696C37.7507 21.5526 37.3884 20.1862 37.9989 19.1174C38.6096 18.0489 39.9617 17.6827 41.0184 18.2998ZM40.6251 29.4183C40.3427 26.1624 37.6397 23.6099 34.3456 23.6099C33.3972 23.6099 32.4962 23.8226 31.6894 24.2016L30.1326 21.3757C31.4026 20.7396 32.8327 20.382 34.3456 20.382C35.2081 20.382 36.0445 20.4989 36.8396 20.7171C36.9797 21.6251 37.5095 22.4632 38.3577 22.9583C39.2054 23.4534 40.1879 23.4983 41.0348 23.168C42.6344 24.7723 43.6724 26.9481 43.8244 29.3672L40.6251 29.4183ZM30.7217 24.7679C29.1005 25.9205 28.0409 27.8267 28.0409 29.9823C28.0409 32.1392 29.1005 34.0447 30.7217 35.1983L29.0791 37.9739C27.1763 36.6888 25.759 34.7294 25.161 32.4324C25.8686 31.8562 26.3219 30.9732 26.3219 29.9824C26.3219 28.9921 25.8687 28.1091 25.161 27.5331C25.759 25.236 27.1763 23.2766 29.0791 21.9922L30.7217 24.7679ZM31.6894 35.7636C32.4963 36.1433 33.3973 36.3559 34.3456 36.3559C37.6397 36.3559 40.3426 33.8028 40.6251 30.5477L43.8244 30.5979C43.6724 33.0171 42.6345 35.1929 41.0348 36.7978C40.1879 36.4677 39.2054 36.5126 38.3577 37.0077C37.5094 37.502 36.9796 38.3399 36.8396 39.2486C36.0445 39.4672 35.208 39.5833 34.3456 39.5833C32.8325 39.5833 31.4026 39.226 30.1326 38.5894L31.6894 35.7636Z" fill="white"/>
</svg>
