<svg width="67" height="22" viewBox="0 0 67 22" fill="none" xmlns="http://www.w3.org/2000/svg">
<path d="M17.2313 0H4.76611C2.13386 0 0 2.13386 0 4.76611V17.2313C0 19.8636 2.13386 21.9974 4.76611 21.9974H17.2313C19.8636 21.9974 21.9974 19.8636 21.9974 17.2313V4.76611C21.9974 2.13386 19.8636 0 17.2313 0Z" fill="#4E8AFF"/>
<path fill-rule="evenodd" clip-rule="evenodd" d="M11.2204 12.8333V13.5895C11.2204 14.9182 10.1371 15.9954 8.80072 15.9954C7.46435 15.9954 6.381 14.9182 6.381 13.5895V12.0341C7.04957 12.5361 7.87904 12.8333 8.77753 12.8333H11.2204ZM12.8336 12.8333V13.5895C12.8336 15.8041 11.028 17.5994 8.80072 17.5994C6.57343 17.5994 4.76786 15.8041 4.76786 13.5895L4.76786 8.84857C4.76767 8.83255 4.76758 8.81651 4.76758 8.80044C4.76758 8.77955 4.76774 8.7587 4.76805 8.73789C4.77846 7.66946 5.2091 6.70099 5.90353 5.98806C6.63202 5.23521 7.65048 4.76758 8.77753 4.76758H8.79951C8.79992 4.76758 8.80032 4.76758 8.80072 4.76758C8.80112 4.76758 8.80153 4.76758 8.80193 4.76758H13.5895C15.8041 4.76758 17.5994 6.57315 17.5994 8.80044C17.5994 11.0277 15.8041 12.8333 13.5895 12.8333H12.8336ZM12.0342 6.38072H13.5895C14.9182 6.38072 15.9954 7.46407 15.9954 8.80044C15.9954 10.1368 14.9182 11.2202 13.5895 11.2202H12.8336V8.77753C12.8336 7.87891 12.5363 7.04934 12.0342 6.38072ZM9.0134 6.38072C10.2502 6.48781 11.2204 7.52 11.2204 8.77753L11.2204 11.2202H8.77753C7.52109 11.2202 6.48959 10.2516 6.381 9.01633V8.77753C6.381 8.08239 6.67749 7.45611 7.15158 7.01688C7.57977 6.62184 8.15065 6.38072 8.77753 6.38072H9.0134Z" fill="white"/>
<path d="M27.8105 6.94902V7.98433C28.4372 7.26126 29.4103 6.80112 30.5483 6.80112C32.7088 6.80112 34.556 8.51021 34.556 11.0574C34.556 13.621 32.6923 15.3301 30.5483 15.3301C29.5422 15.3301 28.6351 14.9357 28.0084 14.3112V18.6168H26.0293V6.94902H27.8105ZM27.8105 11.4518C27.9589 12.7994 29.0639 13.6539 30.3174 13.6539C31.6368 13.6539 32.7583 12.5693 32.7583 11.0738C32.7583 9.54552 31.6368 8.46091 30.3174 8.46091C29.0639 8.46091 27.9589 9.34832 27.8105 10.6794V11.4518Z" fill="black"/>
<path d="M36.0822 3.30078H38.0613V15.1658H36.0822V3.30078Z" fill="black"/>
<path d="M43.8498 6.78469C46.0268 6.78469 47.4946 7.73783 47.4946 9.74272V15.2644L45.6639 15.2808V14.1305C45.0702 14.9028 43.9322 15.3465 42.7613 15.3465C41.046 15.3465 39.908 14.607 39.908 13.1938C39.908 11.9941 40.7327 11.156 42.25 10.7287C42.9592 10.4987 43.7508 10.4165 45.532 10.285V9.82489C45.532 8.88818 44.8393 8.28014 43.8003 8.28014C42.7613 8.28014 41.9201 8.72384 41.5903 9.69342L40.04 9.05251C40.4028 7.6721 41.7222 6.78469 43.8498 6.78469ZM41.8212 12.9966C41.8212 13.6046 42.4644 13.9497 43.2395 13.9497C44.3116 13.9497 45.532 13.3581 45.532 12.4214V11.4189C44.2291 11.5011 43.4869 11.6161 42.8932 11.7969C42.2335 11.9941 41.8212 12.4214 41.8212 12.9966Z" fill="black"/>
<path d="M57.3972 6.94902L54.2637 10.17L57.5952 15.1658H55.3192L52.8948 11.4025L51.328 13.0294V15.1658H49.3489V6.77008H51.328V10.8602L55.1048 6.94902H57.3972Z" fill="black"/>
<path d="M63.2446 15.9382C62.486 17.9923 61.5789 18.699 59.9791 18.699C59.0885 18.699 58.4618 18.5018 57.967 18.0416L58.4948 16.5955C58.8576 17.0392 59.3194 17.1542 59.8637 17.1542C60.4739 17.1542 60.9357 16.9406 61.2655 16.0532L61.5954 15.2315L60.7048 13.1609L58.1649 6.94902H60.3584L62.0737 11.764L62.5354 13.2266L63.0632 11.649L64.696 6.94902H66.7246L63.2446 15.9382Z" fill="black"/>
</svg>
