<svg width="84" height="22" viewBox="0 0 84 22" fill="none" xmlns="http://www.w3.org/2000/svg">
<path d="M17.7196 0H5.25439C2.62214 0 0.488281 2.13386 0.488281 4.76611V17.2313C0.488281 19.8636 2.62214 21.9974 5.25439 21.9974H17.7196C20.3519 21.9974 22.4857 19.8636 22.4857 17.2313V4.76611C22.4857 2.13386 20.3519 0 17.7196 0Z" fill="#673AB7"/>
<path d="M5.25586 16.8661C5.25586 16.4611 5.62518 16.1328 6.08076 16.1328H11.0302C11.4858 16.1328 11.8551 16.4611 11.8551 16.8661C11.8551 17.271 11.4858 17.5993 11.0302 17.5993H6.08076C5.62518 17.5993 5.25586 17.271 5.25586 16.8661Z" fill="white"/>
<path fill-rule="evenodd" clip-rule="evenodd" d="M9.26948 4.76758C7.05282 4.76758 5.25586 6.57315 5.25586 8.80044V11.2202C5.25586 12.1111 5.97465 12.8333 6.86131 12.8333H14.0741C16.2907 12.8333 18.0877 11.0277 18.0877 8.80044C18.0877 6.57315 16.2907 4.76758 14.0741 4.76758H9.26948ZM9.26354 6.37892C7.93354 6.37892 6.85537 7.46227 6.85537 8.79864V10.4118C6.85537 10.8572 7.21476 11.2184 7.65809 11.2184H14.0711C15.4011 11.2184 16.4792 10.135 16.4792 8.79864C16.4792 7.46227 15.4011 6.37892 14.0711 6.37892H9.26354Z" fill="white"/>
<path d="M28.3055 6.96859V8.00946C28.9346 7.28251 29.9114 6.8199 31.0537 6.8199C33.2224 6.8199 35.0766 8.53815 35.0766 11.099C35.0766 13.6764 33.2058 15.3947 31.0537 15.3947C30.0438 15.3947 29.1333 14.9981 28.5042 14.3703V18.699H26.5176V6.96859H28.3055ZM28.3055 11.4955C28.4545 12.8503 29.5637 13.7094 30.8219 13.7094C32.1463 13.7094 33.2721 12.619 33.2721 11.1155C33.2721 9.57902 32.1463 8.48859 30.8219 8.48859C29.5637 8.48859 28.4545 9.38076 28.3055 10.719V11.4955Z" fill="black"/>
<path d="M39.4064 15.4112C37.7012 15.4112 36.3768 14.5686 36.3768 12.3051V6.96859H38.3634V11.9086C38.3634 13.3625 38.9759 13.792 39.9527 13.792C41.1281 13.792 42.1049 13.0816 42.1049 11.4129V6.96859H44.0915V15.2294H42.2373L42.2207 14.139C41.7075 15.0312 40.7804 15.4112 39.4064 15.4112Z" fill="black"/>
<path d="M56.4945 6.80338C58.1003 6.80338 59.5241 7.77816 59.5075 9.84337L59.4909 15.2294H57.5209V10.2068C57.5209 8.90163 56.8421 8.40598 55.9316 8.40598C54.839 8.40598 53.9284 9.21554 53.9284 10.7521V15.2294H51.9418V10.2068C51.9418 8.90163 51.2631 8.40598 50.3525 8.40598C49.4089 8.40598 48.3494 9.09989 48.3494 10.8347V15.2294H46.3627V6.96859H48.1176L48.2004 8.38946C48.7798 7.31555 49.7897 6.80338 50.9154 6.80338C52.1074 6.80338 53.1834 7.33207 53.6635 8.45555C54.2099 7.34859 55.3687 6.80338 56.4945 6.80338Z" fill="black"/>
<path d="M61.5032 3.30078H63.4898V7.8112C64.1189 7.1999 65.0128 6.8199 66.0061 6.8199C68.1583 6.8199 70.029 8.53815 70.029 11.1155C70.029 13.6764 68.1749 15.3947 66.0061 15.3947C64.8473 15.3947 63.8705 14.932 63.2414 14.1886V15.2294H61.5032V3.30078ZM63.2414 11.1816C63.2414 12.7016 64.4169 13.726 65.7744 13.726C67.0988 13.726 68.2245 12.6355 68.2245 11.099C68.2245 9.59554 67.0988 8.50511 65.7744 8.50511C64.4169 8.50511 63.2414 9.49641 63.2414 11.0329V11.1816Z" fill="black"/>
<path d="M71.6588 3.30078H73.6454V15.2294H71.6588V3.30078Z" fill="black"/>
<path d="M79.7543 15.3947C77.0227 15.3947 75.3672 13.6764 75.3672 11.099C75.3672 8.73641 76.9068 6.80338 79.6384 6.80338C82.1713 6.80338 83.7109 8.45555 83.7109 10.9503C83.7109 11.2312 83.6778 11.6277 83.6447 11.8425H77.3538C77.6186 13.1807 78.612 13.8747 79.7543 13.8747C80.7476 13.8747 81.6581 13.4781 81.9064 12.7842L83.5288 13.4286C82.9659 14.7007 81.5588 15.3947 79.7543 15.3947ZM77.3538 10.4051H81.8568C81.6581 9.11641 80.7807 8.32337 79.6218 8.32337C78.4133 8.32337 77.569 9.09989 77.3538 10.4051Z" fill="black"/>
</svg>
