<svg width="152" height="40" viewBox="0 0 152 40" fill="none" xmlns="http://www.w3.org/2000/svg">
<path d="M31.3333 0H8.66667C3.8802 0 0 3.8802 0 8.66667V31.3333C0 36.1198 3.8802 40 8.66667 40H31.3333C36.1198 40 40 36.1198 40 31.3333V8.66667C40 3.8802 36.1198 0 31.3333 0Z" fill="#673AB7"/>
<path d="M8.40234 30.2667C8.40234 29.4567 9.05153 28.8 9.85234 28.8H18.5523C19.3532 28.8 20.0023 29.4567 20.0023 30.2667C20.0023 31.0767 19.3532 31.7334 18.5523 31.7334H9.85235C9.05153 31.7334 8.40234 31.0767 8.40234 30.2667Z" fill="white"/>
<path fill-rule="evenodd" clip-rule="evenodd" d="M15.7007 8.40015C11.6699 8.40015 8.40234 11.6535 8.40234 15.6668V20.0268C8.40234 21.6321 9.70938 22.9335 11.3217 22.9335H24.4373C28.4681 22.9335 31.7357 19.6801 31.7357 15.6668C31.7357 11.6535 28.4681 8.40015 24.4373 8.40015H15.7007ZM15.6899 11.3036C13.2714 11.3036 11.3109 13.2556 11.3109 15.6636V18.5702C11.3109 19.3729 11.9644 20.0236 12.7705 20.0236H24.4319C26.8503 20.0236 28.8109 18.0715 28.8109 15.6636C28.8109 13.2556 26.8503 11.3036 24.4319 11.3036H15.6899Z" fill="white"/>
<path d="M50.5945 9.66809V11.5698C51.741 10.2416 53.5211 9.39641 55.6029 9.39641C59.5554 9.39641 62.9346 12.5358 62.9346 17.2146C62.9346 21.9236 59.5252 25.0629 55.6029 25.0629C53.7625 25.0629 52.103 24.3385 50.9565 23.1914V31.1001H47.3359V9.66809H50.5945ZM50.5945 17.939C50.866 20.4143 52.8875 21.984 55.1805 21.984C57.5942 21.984 59.6459 19.9917 59.6459 17.2448C59.6459 14.4375 57.5942 12.4452 55.1805 12.4452C52.8875 12.4452 50.866 14.0752 50.5945 16.5203V17.939Z" fill="black"/>
<path d="M70.8256 25.0931C67.7179 25.0931 65.3042 23.5536 65.3042 19.4182V9.66809H68.9248V18.6937C68.9248 21.3501 70.0411 22.1349 71.8212 22.1349C73.9634 22.1349 75.7435 20.8369 75.7435 17.7881V9.66809H79.3641V24.7611H75.9849L75.9547 22.7688C75.0194 24.3988 73.3298 25.0931 70.8256 25.0931Z" fill="black"/>
<path d="M101.968 9.36623C104.895 9.36623 107.49 11.1472 107.46 14.9204L107.429 24.7611H103.839V15.5845C103.839 13.1998 102.602 12.2943 100.943 12.2943C98.9512 12.2943 97.2918 13.7734 97.2918 16.5807V24.7611H93.6712V15.5845C93.6712 13.1998 92.4342 12.2943 90.7748 12.2943C89.055 12.2943 87.124 13.5621 87.124 16.7316V24.7611H83.5035V9.66809H86.7016L86.8525 12.2641C87.9085 10.302 89.7489 9.36623 91.8006 9.36623C93.9729 9.36623 95.9341 10.3322 96.8091 12.3848C97.8047 10.3624 99.9167 9.36623 101.968 9.36623Z" fill="black"/>
<path d="M111.097 2.9668H114.717V11.2076C115.864 10.0907 117.493 9.39641 119.303 9.39641C123.226 9.39641 126.635 12.5358 126.635 17.2448C126.635 21.9236 123.256 25.0629 119.303 25.0629C117.191 25.0629 115.411 24.2177 114.265 22.8594V24.7611H111.097V2.9668ZM114.265 17.3655C114.265 20.1426 116.407 22.0142 118.881 22.0142C121.295 22.0142 123.346 20.0219 123.346 17.2146C123.346 14.4677 121.295 12.4754 118.881 12.4754C116.407 12.4754 114.265 14.2865 114.265 17.0938V17.3655Z" fill="black"/>
<path d="M129.605 2.9668H133.226V24.7611H129.605V2.9668Z" fill="black"/>
<path d="M144.359 25.0629C139.381 25.0629 136.364 21.9236 136.364 17.2146C136.364 12.898 139.169 9.36623 144.148 9.36623C148.764 9.36623 151.57 12.3848 151.57 16.9429C151.57 17.4561 151.51 18.1805 151.449 18.5729H139.984C140.467 21.018 142.277 22.2858 144.359 22.2858C146.169 22.2858 147.829 21.5614 148.281 20.2936L151.238 21.4708C150.212 23.7951 147.648 25.0629 144.359 25.0629ZM139.984 15.9468H148.191C147.829 13.5923 146.23 12.1433 144.118 12.1433C141.915 12.1433 140.376 13.5621 139.984 15.9468Z" fill="black"/>
<path d="M60.8008 36.2161C60.8008 37.7735 61.9942 38.9337 63.4834 38.9337C64.5238 38.9337 65.3806 38.4006 65.8192 37.4913L64.6865 36.9423C64.4519 37.3708 63.9832 37.6451 63.463 37.6451C62.7388 37.6451 62.096 36.9895 62.096 36.2161C62.096 35.4426 62.7388 34.7947 63.463 34.7947C63.9934 34.7947 64.5383 35.0767 64.7627 35.5366L65.8294 34.9722C65.3908 34.0524 64.534 33.467 63.4834 33.467C61.9942 33.467 60.8008 34.6691 60.8008 36.2161Z" fill="black"/>
<path d="M69.0889 33.467C67.6667 33.467 66.8438 34.0733 66.661 35.0454L67.9308 35.4217C68.073 34.8363 68.4997 34.6064 69.0279 34.6064C69.5562 34.6064 69.9422 34.9072 69.9422 35.4194V35.6928C68.8552 35.8182 68.4489 35.892 68.1543 35.9861C67.0876 36.2683 66.5898 36.7909 66.5898 37.5749C66.5898 38.4424 67.2197 38.9337 68.2864 38.9337C69.0686 38.9337 69.7492 38.644 70.0946 38.1528V38.9337H71.466V37.4495V35.4321C71.466 34.1046 70.5822 33.467 69.0889 33.467ZM68.1137 37.3328C68.1137 37.0505 68.2965 36.8118 68.6724 36.6969C68.9467 36.6132 69.3429 36.565 69.9422 36.5128V37.0594C69.9422 37.5716 69.3225 37.878 68.7943 37.878C68.4083 37.878 68.1137 37.6777 68.1137 37.3328Z" fill="black"/>
<path d="M77.6399 33.467H76.0399L73.9828 35.9661V33.467H72.5352V38.9337H73.9828V37.6842L74.859 36.6689L76.1161 38.9337H77.7923L75.8875 35.6928L77.6399 33.467Z" fill="black"/>
<path d="M80.6985 38.9337C81.8328 38.9337 82.7032 38.4675 83.0017 37.5983L81.757 37.1306C81.6277 37.5181 81.2059 37.7503 80.6786 37.7503C80.0915 37.7503 79.6504 37.4425 79.5011 36.7408H83.0795C83.0994 36.6047 83.1263 36.3155 83.1263 36.148C83.1263 34.4723 82.1711 33.467 80.6089 33.467C78.9175 33.467 77.9453 34.6871 77.9453 36.1952C77.9453 37.829 78.9374 38.9337 80.6985 38.9337ZM79.4233 35.7275C79.5427 34.9735 79.9832 34.6362 80.5902 34.6362C81.1573 34.6362 81.6376 35.0049 81.757 35.7275H79.4233Z" fill="black"/>
<path d="M84.3439 38.9336C84.6764 38.9336 84.9534 38.657 84.9534 38.3041C84.9534 37.9607 84.6764 37.6841 84.3439 37.6841C84.0114 37.6841 83.7344 37.9607 83.7344 38.3041C83.7344 38.657 84.0114 38.9336 84.3439 38.9336Z" fill="black"/>
<path d="M85.3359 36.1801C85.3359 35.8089 85.4026 35.458 85.5358 35.1273C85.6691 34.7966 85.8549 34.5098 86.0934 34.2668C86.3388 34.0171 86.6299 33.8214 86.9665 33.6796C87.3032 33.5379 87.6749 33.467 88.0817 33.467C88.6007 33.467 89.053 33.5818 89.4387 33.8112C89.8245 34.034 90.0919 34.3319 90.2883 34.7166L89.6026 34.9509C89.4483 34.6809 89.2494 34.4558 88.9759 34.3073C88.7023 34.1521 88.3973 34.0744 88.0606 34.0744C87.7801 34.0744 87.5171 34.1284 87.2716 34.2364C87.0332 34.3444 86.8228 34.4929 86.6404 34.6819C86.4651 34.8641 86.3248 35.0834 86.2196 35.3399C86.1214 35.5963 86.0723 35.8764 86.0723 36.1801C86.0723 36.4771 86.1249 36.7572 86.2301 37.0204C86.3353 37.2836 86.4791 37.513 86.6615 37.7088C86.8438 37.8977 87.0542 38.0496 87.2927 38.1643C87.5381 38.2723 87.7976 38.3263 88.0711 38.3263C88.2465 38.3263 88.4183 38.3027 88.5866 38.2554C88.762 38.2082 88.9233 38.1441 89.0705 38.0631C89.2178 37.9754 89.3441 37.8775 89.4493 37.7695C89.5545 37.6615 89.6026 37.6061 89.6788 37.4499L90.3645 37.6061C90.2874 37.7951 90.1751 37.9922 90.0279 38.1542C89.8806 38.3094 89.7053 38.4478 89.5019 38.5693C89.3055 38.684 89.0846 38.7717 88.8391 38.8325C88.6007 38.9 88.3517 38.9337 88.0922 38.9337C87.6924 38.9337 87.3242 38.8628 86.9876 38.7211C86.6509 38.5726 86.3599 38.3735 86.1144 38.1238C85.869 37.8674 85.6761 37.5738 85.5358 37.2431C85.4026 36.9124 85.3359 36.5581 85.3359 36.1801Z" fill="black"/>
<path d="M93.4108 38.9337C93.0307 38.9337 92.6807 38.8628 92.3606 38.7211C92.0472 38.5726 91.7738 38.3735 91.5404 38.1238C91.3137 37.8741 91.137 37.5839 91.0103 37.2532C90.8837 36.9225 90.8203 36.5749 90.8203 36.2105C90.8203 35.8393 90.8837 35.4884 91.0103 35.1577C91.1437 34.827 91.3237 34.5368 91.5504 34.287C91.7838 34.0373 92.0572 33.8382 92.3706 33.6898C92.6907 33.5413 93.0374 33.467 93.4108 33.467C93.7842 33.467 94.1276 33.5413 94.441 33.6898C94.761 33.8382 95.0344 34.0373 95.2611 34.287C95.4945 34.5368 95.6745 34.827 95.8012 35.1577C95.9346 35.4884 96.0013 35.8393 96.0013 36.2105C96.0013 36.5749 95.9346 36.9225 95.8012 37.2532C95.6745 37.5839 95.4945 37.8741 95.2611 38.1238C95.0344 38.3735 94.761 38.5726 94.441 38.7211C94.1276 38.8628 93.7842 38.9337 93.4108 38.9337ZM91.5204 36.2206C91.5204 36.5176 91.5671 36.7943 91.6605 37.0507C91.7605 37.3005 91.8938 37.5232 92.0605 37.7189C92.2339 37.9079 92.4339 38.0563 92.6607 38.1643C92.894 38.2723 93.1407 38.3263 93.4008 38.3263C93.6608 38.3263 93.9042 38.2723 94.1309 38.1643C94.3643 38.0496 94.5677 37.8977 94.741 37.7088C94.9144 37.513 95.0511 37.287 95.1511 37.0305C95.2511 36.774 95.3011 36.4973 95.3011 36.2004C95.3011 35.9102 95.2511 35.6368 95.1511 35.3804C95.0511 35.1172 94.9144 34.8911 94.741 34.7021C94.5677 34.5064 94.3676 34.3545 94.1409 34.2465C93.9142 34.1318 93.6708 34.0744 93.4108 34.0744C93.1507 34.0744 92.904 34.1318 92.6707 34.2465C92.4439 34.3545 92.2439 34.5064 92.0705 34.7021C91.9038 34.8978 91.7705 35.1273 91.6705 35.3905C91.5705 35.647 91.5204 35.9237 91.5204 36.2206Z" fill="black"/>
<path d="M102.652 33.4668C102.03 33.4668 101.241 33.7884 100.935 34.5173C100.609 33.7991 99.9281 33.4668 99.2372 33.4668C98.6253 33.4668 98.0352 33.7501 97.6799 34.4039V33.5449H96.918V38.9335H97.6939L97.7075 36.0715C97.7075 34.7424 98.5168 34.2171 99.1682 34.2171C99.8195 34.2171 100.333 34.6137 100.333 35.5892V38.9335H101.122V35.9965C101.122 34.8495 101.813 34.2171 102.583 34.2171C103.234 34.2171 103.747 34.6137 103.747 35.5892V38.9335H104.537V35.5034C104.537 34.0885 103.599 33.4668 102.652 33.4668Z" fill="black"/>
<path d="M52.1406 33.6001H52.8857L54.3758 36.0897H54.4388L55.9289 33.6001H56.674L54.7326 36.7355V38.9334H54.082V36.7355L52.1406 33.6001Z" fill="black"/>
<path d="M47.3398 38.9334V33.6001H49.217C49.591 33.6001 49.8995 33.6643 50.1425 33.7928C50.3854 33.9195 50.5663 34.0905 50.6852 34.3058C50.804 34.5194 50.8634 34.7563 50.8634 35.0168C50.8634 35.2459 50.8224 35.4352 50.7402 35.5845C50.6598 35.7338 50.5532 35.8518 50.4204 35.9386C50.2893 36.0254 50.1468 36.0897 49.993 36.1313V36.1834C50.1573 36.1938 50.3225 36.2511 50.4885 36.3553C50.6546 36.4595 50.7935 36.6088 50.9054 36.8032C51.0172 36.9977 51.0732 37.2355 51.0732 37.5168C51.0732 37.7841 51.012 38.0246 50.8897 38.2381C50.7673 38.4517 50.5742 38.6209 50.3103 38.7459C50.0463 38.8709 49.7029 38.9334 49.2799 38.9334H47.3398ZM47.99 38.3605H49.2799C49.7046 38.3605 50.0061 38.2789 50.1844 38.1157C50.3644 37.9508 50.4545 37.7511 50.4545 37.5168C50.4545 37.3362 50.4081 37.1695 50.3155 37.0168C50.2229 36.8623 50.0909 36.739 49.9196 36.647C49.7483 36.5532 49.5456 36.5063 49.3114 36.5063H47.99V38.3605ZM47.99 35.9438H49.196C49.3918 35.9438 49.5683 35.9057 49.7256 35.8293C49.8847 35.7529 50.0105 35.6452 50.1031 35.5063C50.1975 35.3675 50.2447 35.2043 50.2447 35.0168C50.2447 34.7824 50.1626 34.5836 49.9983 34.4204C49.834 34.2555 49.5736 34.173 49.217 34.173H47.99V35.9438Z" fill="black"/>
</svg>
