<svg width="87" height="22" viewBox="0 0 87 22" fill="none" xmlns="http://www.w3.org/2000/svg">
<path d="M17.7079 0H5.24267C2.61042 0 0.476562 2.13386 0.476562 4.76611V17.2313C0.476562 19.8636 2.61042 21.9974 5.24267 21.9974H17.7079C20.3401 21.9974 22.474 19.8636 22.474 17.2313V4.76611C22.474 2.13386 20.3401 0 17.7079 0Z" fill="#03A9F4"/>
<path d="M14.5331 6.42273C14.9201 6.03598 14.8368 5.38605 14.3257 5.19033C13.6126 4.91722 12.8384 4.76758 12.0291 4.76758C8.48359 4.76758 5.60938 7.64008 5.60938 11.1835C5.60938 14.7269 8.48359 17.5994 12.0291 17.5994C12.8334 17.5994 13.6031 17.4516 14.3125 17.1817C14.8249 16.9868 14.909 16.3356 14.5214 15.9481C14.2701 15.6971 13.89 15.6385 13.5528 15.7505C13.075 15.9092 12.564 15.9952 12.0328 15.9952C9.37368 15.9952 7.21802 13.8408 7.21802 11.1833C7.21802 8.52569 9.37368 6.37131 12.0328 6.37131C12.5678 6.37131 13.0824 6.45851 13.5632 6.61947C13.9006 6.73242 14.2815 6.67417 14.5331 6.42273Z" fill="white"/>
<path d="M12.5759 11.0008C12.5759 11.4058 12.2476 11.7341 11.8426 11.7341C11.4377 11.7341 11.1094 11.4058 11.1094 11.0008C11.1094 10.5959 11.4377 10.2676 11.8426 10.2676C12.2476 10.2676 12.5759 10.5959 12.5759 11.0008Z" fill="white"/>
<path d="M13.513 9.96353C13.2404 9.6699 13.2404 9.19384 13.513 8.90021L15.7833 6.45459C16.0559 6.16097 16.4978 6.16097 16.7704 6.45459C17.043 6.74822 17.043 7.22428 16.7704 7.51791L14.5001 9.96353C14.2275 10.2572 13.7856 10.2572 13.513 9.96353Z" fill="white"/>
<path d="M13.513 12.4041C13.2404 12.6977 13.2404 13.1738 13.513 13.4674L15.7833 15.913C16.0559 16.2066 16.4978 16.2066 16.7704 15.913C17.043 15.6194 17.043 15.1433 16.7704 14.8497L14.5001 12.4041C14.2275 12.1104 13.7856 12.1104 13.513 12.4041Z" fill="white"/>
<path d="M26.5078 11.1607C26.5078 8.76796 28.426 6.87981 30.7869 6.87981C32.3937 6.87981 33.7709 7.75877 34.4922 9.10978L33.0331 9.90736C32.5904 9.07722 31.7543 8.55635 30.7706 8.55635C29.3606 8.55635 28.2785 9.71203 28.2785 11.1444C28.2785 12.5931 29.3606 13.6837 30.7706 13.6837C31.7215 13.6837 32.5084 13.2605 32.9839 12.4792L34.4759 13.2605C33.7545 14.5789 32.3773 15.3765 30.7869 15.3765C28.426 15.3765 26.5078 13.5534 26.5078 11.1607Z" fill="black"/>
<path d="M35.9974 3.44532H37.9648V15.1974H35.9974V3.44532Z" fill="black"/>
<path d="M39.4732 11.1607C39.4732 8.76796 41.4078 6.87981 43.7687 6.87981C46.146 6.87981 48.0806 8.76796 48.0806 11.1607C48.0806 13.5534 46.146 15.3602 43.7687 15.3602C41.4078 15.3602 39.4732 13.5534 39.4732 11.1607ZM41.2602 11.1444C41.2602 12.5768 42.3587 13.6674 43.7687 13.6674C45.1787 13.6674 46.2936 12.5768 46.2936 11.1444C46.2936 9.72831 45.1787 8.55635 43.7687 8.55635C42.3587 8.55635 41.2602 9.72831 41.2602 11.1444Z" fill="black"/>
<path d="M49.1152 11.1607C49.1152 8.76796 51.0334 6.87981 53.3943 6.87981C55.001 6.87981 56.3782 7.75877 57.0996 9.10978L55.6404 9.90736C55.1978 9.07722 54.3616 8.55635 53.3779 8.55635C51.9679 8.55635 50.8859 9.71203 50.8859 11.1444C50.8859 12.5931 51.9679 13.6837 53.3779 13.6837C54.3288 13.6837 55.1158 13.2605 55.5913 12.4792L57.0832 13.2605C56.3618 14.5789 54.9846 15.3765 53.3943 15.3765C51.0334 15.3765 49.1152 13.5534 49.1152 11.1607Z" fill="black"/>
<path d="M66.4099 6.9559L63.2938 10.2492L66.6056 15.1974H64.3431L61.933 11.47L60.3754 13.0814V15.1974H58.408V6.87981H60.3754V10.9328L64.122 6.9559H66.4099Z" fill="black"/>
<path d="M68.9263 5.78924C68.2377 5.78924 67.6802 5.21953 67.6802 4.55217C67.6802 3.86853 68.2377 3.31511 68.9263 3.31511C69.6149 3.31511 70.1723 3.86853 70.1723 4.55217C70.1723 5.21953 69.6149 5.78924 68.9263 5.78924ZM67.9426 15.1974V7.05886H69.91V15.1974H67.9426Z" fill="black"/>
<path d="M75.9857 3.29883C76.6743 3.29883 77.1497 3.41277 77.494 3.62437V5.15443C77.2481 5.05676 76.7398 4.91027 76.3464 4.91027C75.4446 4.91027 74.92 5.33347 74.92 6.16361V7.14024H77.5432V8.63774H74.9856V15.1974H73.0181V8.63774H71.5262V7.14024H73.0181V5.96828C73.0181 4.2429 74.1658 3.29883 75.9857 3.29883Z" fill="black"/>
<path d="M83.5414 15.9625C82.7872 17.9971 81.8855 18.697 80.2952 18.697C79.4098 18.697 78.7868 18.5017 78.295 18.0459L78.8196 16.6136C79.1803 17.053 79.6394 17.167 80.1804 17.167C80.787 17.167 81.2461 16.9554 81.574 16.0764L81.9019 15.2626L81.0165 13.2116L78.4917 7.05886H80.6722L82.3773 11.8281L82.8364 13.2767L83.361 11.7141L84.9842 7.05886H87.0008L83.5414 15.9625Z" fill="black"/>
</svg>
