<svg width="169" height="58" viewBox="0 0 169 58" fill="none" xmlns="http://www.w3.org/2000/svg">
<rect width="169" height="58" rx="5" fill="#1A1C20"/>
<path d="M63.0215 23.2031H64.665L68.8574 33.6357L73.041 23.2031H74.6934L69.4902 36H68.207L63.0215 23.2031ZM62.4854 23.2031H63.9355L64.1729 31.0078V36H62.4854V23.2031ZM73.7705 23.2031H75.2207V36H73.5332V31.0078L73.7705 23.2031ZM83.5615 34.374V29.4785C83.5615 29.1035 83.4854 28.7783 83.333 28.5029C83.1865 28.2217 82.9639 28.0049 82.665 27.8525C82.3662 27.7002 81.9971 27.624 81.5576 27.624C81.1475 27.624 80.7871 27.6943 80.4766 27.835C80.1719 27.9756 79.9316 28.1602 79.7559 28.3887C79.5859 28.6172 79.501 28.8633 79.501 29.127H77.875C77.875 28.7871 77.9629 28.4502 78.1387 28.1162C78.3145 27.7822 78.5664 27.4805 78.8945 27.2109C79.2285 26.9355 79.627 26.7188 80.0898 26.5605C80.5586 26.3965 81.0801 26.3145 81.6543 26.3145C82.3457 26.3145 82.9551 26.4316 83.4824 26.666C84.0156 26.9004 84.4316 27.2549 84.7305 27.7295C85.0352 28.1982 85.1875 28.7871 85.1875 29.4961V33.9258C85.1875 34.2422 85.2139 34.5791 85.2666 34.9365C85.3252 35.2939 85.4102 35.6016 85.5215 35.8594V36H83.8252C83.7432 35.8125 83.6787 35.5635 83.6318 35.2529C83.585 34.9365 83.5615 34.6436 83.5615 34.374ZM83.8428 30.2344L83.8604 31.377H82.2168C81.7539 31.377 81.3408 31.415 80.9775 31.4912C80.6143 31.5615 80.3096 31.6699 80.0635 31.8164C79.8174 31.9629 79.6299 32.1475 79.501 32.3701C79.3721 32.5869 79.3076 32.8418 79.3076 33.1348C79.3076 33.4336 79.375 33.7061 79.5098 33.9521C79.6445 34.1982 79.8467 34.3945 80.1162 34.541C80.3916 34.6816 80.7285 34.752 81.127 34.752C81.625 34.752 82.0645 34.6465 82.4453 34.4355C82.8262 34.2246 83.1279 33.9668 83.3506 33.6621C83.5791 33.3574 83.7021 33.0615 83.7197 32.7744L84.4141 33.5566C84.373 33.8027 84.2617 34.0752 84.0801 34.374C83.8984 34.6729 83.6553 34.96 83.3506 35.2354C83.0518 35.5049 82.6943 35.7305 82.2783 35.9121C81.8682 36.0879 81.4053 36.1758 80.8896 36.1758C80.2451 36.1758 79.6797 36.0498 79.1934 35.7979C78.7129 35.5459 78.3379 35.209 78.0684 34.7871C77.8047 34.3594 77.6729 33.8818 77.6729 33.3545C77.6729 32.8447 77.7725 32.3965 77.9717 32.0098C78.1709 31.6172 78.458 31.292 78.833 31.0342C79.208 30.7705 79.6592 30.5713 80.1865 30.4365C80.7139 30.3018 81.3027 30.2344 81.9531 30.2344H83.8428ZM91.5508 34.8398C91.9375 34.8398 92.2949 34.7607 92.623 34.6025C92.9512 34.4443 93.2207 34.2275 93.4316 33.9521C93.6426 33.6709 93.7627 33.3516 93.792 32.9941H95.3389C95.3096 33.5566 95.1191 34.0811 94.7676 34.5674C94.4219 35.0479 93.9678 35.4375 93.4053 35.7363C92.8428 36.0293 92.2246 36.1758 91.5508 36.1758C90.8359 36.1758 90.2119 36.0498 89.6787 35.7979C89.1514 35.5459 88.7119 35.2002 88.3604 34.7607C88.0146 34.3213 87.7539 33.8174 87.5781 33.249C87.4082 32.6748 87.3232 32.0684 87.3232 31.4297V31.0605C87.3232 30.4219 87.4082 29.8184 87.5781 29.25C87.7539 28.6758 88.0146 28.1689 88.3604 27.7295C88.7119 27.29 89.1514 26.9443 89.6787 26.6924C90.2119 26.4404 90.8359 26.3145 91.5508 26.3145C92.2949 26.3145 92.9453 26.4668 93.502 26.7715C94.0586 27.0703 94.4951 27.4805 94.8115 28.002C95.1338 28.5176 95.3096 29.1035 95.3389 29.7598H93.792C93.7627 29.3672 93.6514 29.0127 93.458 28.6963C93.2705 28.3799 93.0127 28.1279 92.6846 27.9404C92.3623 27.7471 91.9844 27.6504 91.5508 27.6504C91.0527 27.6504 90.6338 27.75 90.2939 27.9492C89.96 28.1426 89.6934 28.4062 89.4941 28.7402C89.3008 29.0684 89.1602 29.4346 89.0723 29.8389C88.9902 30.2373 88.9492 30.6445 88.9492 31.0605V31.4297C88.9492 31.8457 88.9902 32.2559 89.0723 32.6602C89.1543 33.0645 89.292 33.4307 89.4854 33.7588C89.6846 34.0869 89.9512 34.3506 90.2852 34.5498C90.625 34.7432 91.0469 34.8398 91.5508 34.8398ZM101.309 32.0215V31.9531C101.309 30.9596 101.42 30.0618 101.644 29.2598C101.867 28.4531 102.152 27.7467 102.498 27.1406C102.844 26.5345 103.209 26.0332 103.592 25.6367C103.975 25.2357 104.328 24.9463 104.651 24.7686L104.918 25.6025C104.649 25.8076 104.376 26.0902 104.098 26.4502C103.824 26.8102 103.571 27.2523 103.339 27.7764C103.111 28.3005 102.926 28.9089 102.785 29.6016C102.644 30.2943 102.573 31.0736 102.573 31.9395V32.0352C102.573 32.901 102.644 33.6826 102.785 34.3799C102.926 35.0726 103.111 35.6833 103.339 36.2119C103.571 36.7406 103.824 37.1895 104.098 37.5586C104.376 37.9323 104.649 38.2285 104.918 38.4473L104.651 39.2129C104.328 39.0352 103.975 38.7458 103.592 38.3447C103.209 37.9482 102.844 37.4469 102.498 36.8408C102.152 36.2393 101.867 35.5352 101.644 34.7285C101.42 33.9219 101.309 33.0195 101.309 32.0215ZM106.764 26.0469H108.042L111.303 34.1611L114.557 26.0469H115.842L111.795 36H110.797L106.764 26.0469ZM106.347 26.0469H107.475L107.659 32.1172V36H106.347V26.0469ZM115.124 26.0469H116.252V36H114.939V32.1172L115.124 26.0469ZM122.397 25.9922V36H121.133V27.5713L118.583 28.501V27.3594L122.199 25.9922H122.397ZM129.165 31.9531V32.0215C129.165 33.0195 129.053 33.9219 128.83 34.7285C128.607 35.5352 128.322 36.2393 127.976 36.8408C127.629 37.4469 127.265 37.9482 126.882 38.3447C126.499 38.7458 126.146 39.0352 125.822 39.2129L125.556 38.4473C125.825 38.2422 126.096 37.9551 126.369 37.5859C126.643 37.2214 126.896 36.7702 127.128 36.2324C127.36 35.6992 127.547 35.084 127.688 34.3867C127.83 33.6849 127.9 32.901 127.9 32.0352V31.9395C127.9 31.0736 127.825 30.292 127.675 29.5947C127.524 28.8929 127.328 28.2754 127.087 27.7422C126.85 27.209 126.595 26.7601 126.321 26.3955C126.052 26.0264 125.797 25.7415 125.556 25.541L125.822 24.7686C126.146 24.9463 126.499 25.2357 126.882 25.6367C127.265 26.0332 127.629 26.5345 127.976 27.1406C128.322 27.7467 128.607 28.4531 128.83 29.2598C129.053 30.0618 129.165 30.9596 129.165 31.9531Z" fill="white"/>
<path d="M31.7144 15.7429C32.7256 14.4752 33.4174 12.7503 33.2254 11C31.7618 11.065 29.9315 12.0149 28.8776 13.2549C27.9451 14.3476 27.112 16.1385 27.3272 17.8226C28.9713 17.9457 30.6593 16.991 31.7144 15.7429Z" fill="white"/>
<path d="M37.0569 29.1455C37.0235 25.4071 40.1102 23.5883 40.2513 23.5036C38.5031 20.9483 35.7936 20.5992 34.8414 20.5714C32.5657 20.3313 30.3583 21.9366 29.1989 21.9366C28.0166 21.9366 26.2314 20.5945 24.3074 20.634C21.8315 20.6723 19.5153 22.1094 18.245 24.3411C15.6234 28.8915 17.5786 35.5785 20.0903 39.2566C21.3468 41.058 22.8149 43.0692 24.7366 42.9985C26.6167 42.9208 27.3189 41.7968 29.5877 41.7968C31.8356 41.7968 32.4951 42.9985 34.4549 42.9533C36.4727 42.9208 37.743 41.1438 38.9555 39.3262C40.4075 37.2615 40.9906 35.2282 41.0138 35.1238C40.9663 35.1076 37.0952 33.6263 37.0569 29.1455Z" fill="white"/>
</svg>
