<svg width="169" height="58" viewBox="0 0 169 58" fill="none" xmlns="http://www.w3.org/2000/svg">
<rect width="169" height="58" rx="5" fill="#1A1C20"/>
<path d="M67.0215 23.2031H68.665L72.8574 33.6357L77.041 23.2031H78.6934L73.4902 36H72.207L67.0215 23.2031ZM66.4854 23.2031H67.9355L68.1729 31.0078V36H66.4854V23.2031ZM77.7705 23.2031H79.2207V36H77.5332V31.0078L77.7705 23.2031ZM87.5615 34.374V29.4785C87.5615 29.1035 87.4854 28.7783 87.333 28.5029C87.1865 28.2217 86.9639 28.0049 86.665 27.8525C86.3662 27.7002 85.9971 27.624 85.5576 27.624C85.1475 27.624 84.7871 27.6943 84.4766 27.835C84.1719 27.9756 83.9316 28.1602 83.7559 28.3887C83.5859 28.6172 83.501 28.8633 83.501 29.127H81.875C81.875 28.7871 81.9629 28.4502 82.1387 28.1162C82.3145 27.7822 82.5664 27.4805 82.8945 27.2109C83.2285 26.9355 83.627 26.7188 84.0898 26.5605C84.5586 26.3965 85.0801 26.3145 85.6543 26.3145C86.3457 26.3145 86.9551 26.4316 87.4824 26.666C88.0156 26.9004 88.4316 27.2549 88.7305 27.7295C89.0352 28.1982 89.1875 28.7871 89.1875 29.4961V33.9258C89.1875 34.2422 89.2139 34.5791 89.2666 34.9365C89.3252 35.2939 89.4102 35.6016 89.5215 35.8594V36H87.8252C87.7432 35.8125 87.6787 35.5635 87.6318 35.2529C87.585 34.9365 87.5615 34.6436 87.5615 34.374ZM87.8428 30.2344L87.8604 31.377H86.2168C85.7539 31.377 85.3408 31.415 84.9775 31.4912C84.6143 31.5615 84.3096 31.6699 84.0635 31.8164C83.8174 31.9629 83.6299 32.1475 83.501 32.3701C83.3721 32.5869 83.3076 32.8418 83.3076 33.1348C83.3076 33.4336 83.375 33.7061 83.5098 33.9521C83.6445 34.1982 83.8467 34.3945 84.1162 34.541C84.3916 34.6816 84.7285 34.752 85.127 34.752C85.625 34.752 86.0645 34.6465 86.4453 34.4355C86.8262 34.2246 87.1279 33.9668 87.3506 33.6621C87.5791 33.3574 87.7021 33.0615 87.7197 32.7744L88.4141 33.5566C88.373 33.8027 88.2617 34.0752 88.0801 34.374C87.8984 34.6729 87.6553 34.96 87.3506 35.2354C87.0518 35.5049 86.6943 35.7305 86.2783 35.9121C85.8682 36.0879 85.4053 36.1758 84.8896 36.1758C84.2451 36.1758 83.6797 36.0498 83.1934 35.7979C82.7129 35.5459 82.3379 35.209 82.0684 34.7871C81.8047 34.3594 81.6729 33.8818 81.6729 33.3545C81.6729 32.8447 81.7725 32.3965 81.9717 32.0098C82.1709 31.6172 82.458 31.292 82.833 31.0342C83.208 30.7705 83.6592 30.5713 84.1865 30.4365C84.7139 30.3018 85.3027 30.2344 85.9531 30.2344H87.8428ZM95.5508 34.8398C95.9375 34.8398 96.2949 34.7607 96.623 34.6025C96.9512 34.4443 97.2207 34.2275 97.4316 33.9521C97.6426 33.6709 97.7627 33.3516 97.792 32.9941H99.3389C99.3096 33.5566 99.1191 34.0811 98.7676 34.5674C98.4219 35.0479 97.9678 35.4375 97.4053 35.7363C96.8428 36.0293 96.2246 36.1758 95.5508 36.1758C94.8359 36.1758 94.2119 36.0498 93.6787 35.7979C93.1514 35.5459 92.7119 35.2002 92.3604 34.7607C92.0146 34.3213 91.7539 33.8174 91.5781 33.249C91.4082 32.6748 91.3232 32.0684 91.3232 31.4297V31.0605C91.3232 30.4219 91.4082 29.8184 91.5781 29.25C91.7539 28.6758 92.0146 28.1689 92.3604 27.7295C92.7119 27.29 93.1514 26.9443 93.6787 26.6924C94.2119 26.4404 94.8359 26.3145 95.5508 26.3145C96.2949 26.3145 96.9453 26.4668 97.502 26.7715C98.0586 27.0703 98.4951 27.4805 98.8115 28.002C99.1338 28.5176 99.3096 29.1035 99.3389 29.7598H97.792C97.7627 29.3672 97.6514 29.0127 97.458 28.6963C97.2705 28.3799 97.0127 28.1279 96.6846 27.9404C96.3623 27.7471 95.9844 27.6504 95.5508 27.6504C95.0527 27.6504 94.6338 27.75 94.2939 27.9492C93.96 28.1426 93.6934 28.4062 93.4941 28.7402C93.3008 29.0684 93.1602 29.4346 93.0723 29.8389C92.9902 30.2373 92.9492 30.6445 92.9492 31.0605V31.4297C92.9492 31.8457 92.9902 32.2559 93.0723 32.6602C93.1543 33.0645 93.292 33.4307 93.4854 33.7588C93.6846 34.0869 93.9512 34.3506 94.2852 34.5498C94.625 34.7432 95.0469 34.8398 95.5508 34.8398Z" fill="white"/>
<path d="M37.7144 15.7429C38.7256 14.4752 39.4174 12.7503 39.2254 11C37.7618 11.065 35.9315 12.0149 34.8776 13.2549C33.9451 14.3476 33.112 16.1385 33.3272 17.8226C34.9713 17.9457 36.6593 16.991 37.7144 15.7429Z" fill="white"/>
<path d="M43.0569 29.1455C43.0235 25.4071 46.1102 23.5883 46.2513 23.5036C44.5031 20.9483 41.7936 20.5992 40.8414 20.5714C38.5657 20.3313 36.3583 21.9366 35.1989 21.9366C34.0166 21.9366 32.2314 20.5945 30.3074 20.634C27.8315 20.6723 25.5153 22.1094 24.245 24.3411C21.6234 28.8915 23.5786 35.5785 26.0903 39.2566C27.3468 41.058 28.8149 43.0692 30.7366 42.9985C32.6167 42.9208 33.3189 41.7968 35.5877 41.7968C37.8356 41.7968 38.4951 42.9985 40.4549 42.9533C42.4727 42.9208 43.743 41.1438 44.9555 39.3262C46.4075 37.2615 46.9906 35.2282 47.0138 35.1238C46.9663 35.1076 43.0952 33.6263 43.0569 29.1455Z" fill="white"/>
</svg>
