<svg width="56" height="57" viewBox="0 0 56 57" fill="none" xmlns="http://www.w3.org/2000/svg">
<path d="M35.7794 3.36112H35.7234C35.6674 3.41711 35.6114 3.41711 35.4994 3.52909C35.1635 3.86502 33.9877 5.43272 33.9877 5.43272L31.4122 8.62408L28.3888 12.2634L23.2379 18.7021C23.2379 18.7021 20.8863 21.6695 21.3902 25.3087C21.8941 28.948 24.6376 30.7397 26.7092 31.4115C28.7808 32.1394 32.0281 32.3633 34.6596 29.7878C37.2911 27.2124 37.1791 23.4051 37.1791 23.4051L36.9551 15.1748L36.7872 10.4157L36.6752 6.32853C36.6752 6.32853 36.6752 4.36893 36.6192 3.86503C36.6192 3.75305 36.5632 3.69706 36.5632 3.64107V3.58509C36.5072 3.47311 36.3952 3.36113 36.2273 3.30514C36.1713 3.30514 36.1153 3.24915 36.0033 3.24915C35.9473 3.30514 35.8354 3.30514 35.7794 3.36112ZM27.381 0.785645C15.9593 0.897622 5.32147 8.17617 1.45825 19.5979C-3.41278 34.099 4.31368 49.8318 18.7588 54.7589C21.6702 55.7667 24.6376 56.2146 27.605 56.2146H27.661C39.1947 56.2146 49.8885 48.936 53.8078 37.4023C57.7833 25.6447 53.4158 12.9912 43.8978 6.04859L44.1777 11.9274C48.9367 17.1904 50.8404 24.6369 48.4328 31.6915C44.9055 42.1614 33.2599 47.6483 22.398 44.009C11.5362 40.3137 5.6014 28.836 9.18468 18.3661C11.5362 11.3115 17.583 6.55249 24.5816 5.26475L28.3888 0.785645C28.2209 0.785645 28.0529 0.785645 27.8849 0.785645H27.381Z" fill="#0058CC"/>
</svg>
