<svg width="60" height="56" viewBox="0 0 60 56" fill="none" xmlns="http://www.w3.org/2000/svg">
<g clip-path="url(#clip0)">
<path d="M41.8514 20.9297H57.3496C58.8138 20.9297 60.0007 22.1166 60.0007 23.5808V37.6976C60.0007 43.0789 55.6383 47.4413 50.257 47.4413H50.2109C44.8296 47.4421 40.4666 43.0803 40.4658 37.699C40.4658 37.6985 40.4658 37.698 40.4658 37.6976V22.3153C40.4658 21.55 41.0862 20.9297 41.8514 20.9297Z" fill="#5059C9"/>
<path d="M52.3259 18.1392C55.7938 18.1392 58.605 15.328 58.605 11.8601C58.605 8.39229 55.7938 5.58105 52.3259 5.58105C48.8581 5.58105 46.0469 8.39229 46.0469 11.8601C46.0469 15.328 48.8581 18.1392 52.3259 18.1392Z" fill="#5059C9"/>
<path d="M32.7915 18.1396C37.8006 18.1396 41.8612 14.0789 41.8612 9.06978C41.8612 4.06068 37.8006 0 32.7915 0C27.7824 0 23.7217 4.06068 23.7217 9.06978C23.7217 14.0789 27.7824 18.1396 32.7915 18.1396Z" fill="#7B83EB"/>
<path d="M44.8846 20.9297H19.3022C17.8555 20.9655 16.711 22.1661 16.7446 23.613V39.7139C16.5425 48.3961 23.4115 55.6009 32.0934 55.8134C40.7754 55.6009 47.6443 48.3961 47.4423 39.7139V23.613C47.4758 22.1661 46.3313 20.9655 44.8846 20.9297Z" fill="#7B83EB"/>
<path opacity="0.1" d="M33.4881 20.9297V43.4925C33.4812 44.5271 32.8542 45.4567 31.8974 45.8506C31.5928 45.9795 31.2654 46.0459 30.9346 46.046H17.9718C17.7904 45.5855 17.623 45.125 17.4834 44.6506C16.995 43.0495 16.7458 41.3851 16.7439 39.7111V23.6088C16.7103 22.1643 17.8529 20.9655 19.2974 20.9297H33.4881Z" fill="black"/>
<path opacity="0.2" d="M32.0928 20.9297V44.8878C32.0927 45.2186 32.0263 45.546 31.8974 45.8506C31.5035 46.8074 30.5739 47.4344 29.5393 47.4413H18.6276C18.3904 46.9808 18.1672 46.5204 17.9718 46.046C17.7764 45.5716 17.623 45.125 17.4834 44.6506C16.995 43.0495 16.7458 41.3851 16.7439 39.7111V23.6088C16.7103 22.1643 17.8529 20.9655 19.2974 20.9297H32.0928Z" fill="black"/>
<path opacity="0.2" d="M32.0927 20.9297V42.0971C32.0821 43.503 30.9451 44.64 29.5392 44.6506H17.4834C16.995 43.0495 16.7458 41.3851 16.7439 39.7111V23.6088C16.7103 22.1643 17.8529 20.9655 19.2974 20.9297H32.0927Z" fill="black"/>
<path opacity="0.2" d="M30.6974 20.9297V42.0971C30.6867 43.503 29.5497 44.64 28.1439 44.6506H17.4834C16.995 43.0495 16.7458 41.3851 16.7439 39.7111V23.6088C16.7103 22.1643 17.8529 20.9655 19.2974 20.9297H30.6974Z" fill="black"/>
<path opacity="0.1" d="M33.488 13.7165V18.1119C33.2508 18.1258 33.0275 18.1398 32.7903 18.1398C32.5531 18.1398 32.3298 18.1259 32.0926 18.1119C31.6216 18.0806 31.1545 18.0059 30.6973 17.8887C27.8717 17.2195 25.5373 15.2379 24.4182 12.5584C24.2256 12.1085 24.0762 11.6412 23.9717 11.1631H30.9345C32.3425 11.1684 33.4826 12.3085 33.488 13.7165Z" fill="black"/>
<path opacity="0.2" d="M32.0934 15.1121V18.1121C31.6224 18.0808 31.1553 18.0061 30.698 17.8888C27.8724 17.2197 25.538 15.238 24.4189 12.5586H29.5399C30.9479 12.5639 32.088 13.704 32.0934 15.1121Z" fill="black"/>
<path opacity="0.2" d="M32.0934 15.1121V18.1121C31.6224 18.0808 31.1553 18.0061 30.698 17.8888C27.8724 17.2197 25.538 15.238 24.4189 12.5586H29.5399C30.9479 12.5639 32.088 13.704 32.0934 15.1121Z" fill="black"/>
<path opacity="0.2" d="M30.698 15.1121V17.8888C27.8724 17.2197 25.538 15.238 24.4189 12.5586H28.1445C29.5526 12.564 30.6927 13.7041 30.698 15.1121Z" fill="black"/>
<path d="M2.55766 12.5586H28.14C29.5526 12.5586 30.6976 13.7037 30.6976 15.1163V40.6986C30.6976 42.1111 29.5525 43.2562 28.14 43.2562H2.55766C1.14509 43.2562 0 42.1111 0 40.6986V15.1163C0 13.7037 1.14512 12.5586 2.55766 12.5586Z" fill="url(#paint0_linear)"/>
<path d="M22.0805 22.2951H16.9665V36.2207H13.7084V22.2951H8.61816V19.5938H22.0805V22.2951Z" fill="white"/>
</g>
<defs>
<linearGradient id="paint0_linear" x1="5.33281" y1="10.5601" x2="25.3649" y2="45.2548" gradientUnits="userSpaceOnUse">
<stop stop-color="#5A62C3"/>
<stop offset="0.5" stop-color="#4D55BD"/>
<stop offset="1" stop-color="#3940AB"/>
</linearGradient>
<clipPath id="clip0">
<rect width="60" height="55.814" fill="white"/>
</clipPath>
</defs>
</svg>
