<svg width="1438" height="326" viewBox="0 0 1438 326" fill="none" xmlns="http://www.w3.org/2000/svg">
<path opacity="0.4" d="M315.275 286.063C356.621 257.114 399.17 231.096 443.304 209.092C462.531 199.498 482.118 191.445 502.136 185.444C520.447 179.971 538.732 176.972 557.053 176.445C584.055 175.666 610.918 175.816 637.713 176.504C655.863 176.959 673.451 179.867 690.492 184.514C710.117 189.859 730.491 191.743 751.231 192.252C773.474 192.8 795.928 191.45 818.322 190.786C871.023 189.269 923.312 190.471 975.215 194.189C1005.51 196.359 1035.03 201.897 1063 212.061C1084.78 219.951 1104.97 230.921 1124.39 243.325C1158.16 264.837 1188.77 290.334 1214.45 322.253" stroke="#9A67EA" stroke-dasharray="10 20"/>
<path opacity="0.4" d="M199.955 315.696C224.416 288.384 250.974 264.081 280.244 243.61C325.069 212.225 371.201 184.016 419.049 160.161C439.895 149.759 461.13 141.029 482.833 134.522C502.685 128.589 522.509 125.337 542.372 124.766C571.648 123.921 600.771 124.084 629.822 124.83C649.499 125.324 668.568 128.476 687.043 133.514C708.32 139.309 730.409 141.352 752.895 141.904C777.01 142.497 801.354 141.034 825.633 140.315C882.769 138.669 939.46 139.972 995.732 144.004C1028.58 146.356 1060.58 152.36 1090.9 163.38C1114.52 171.934 1136.41 183.828 1157.46 197.275C1194.07 220.598 1227.26 248.241 1255.1 282.846" stroke="#9A67EA" stroke-dasharray="10 20"/>
<path opacity="0.4" d="M99.4854 297.808C128.577 265.325 160.163 236.421 194.974 212.075C248.286 174.748 303.151 141.199 360.058 112.828C384.85 100.456 410.106 90.0728 435.917 82.3349C459.528 75.2784 483.105 71.4109 506.729 70.7312C541.546 69.7268 576.183 69.9198 610.734 70.807C634.137 71.3946 656.815 75.1435 678.788 81.1352C704.093 88.0279 730.364 90.457 757.107 91.1137C785.788 91.8196 814.741 90.0793 843.615 89.2235C911.569 87.2669 978.992 88.8162 1045.92 93.6111C1084.99 96.4093 1123.04 103.55 1159.11 116.655C1187.2 126.829 1213.23 140.975 1238.27 156.967C1281.81 184.707 1321.28 217.583 1354.39 258.739" stroke="#9A67EA" stroke-dasharray="10 20"/>
<path opacity="0.4" d="M1 325.367C15.9072 304.034 30.8565 282.776 48.1786 263.441C79.6135 228.342 113.743 197.11 151.357 170.803C208.963 130.47 268.246 94.2192 329.736 63.5628C356.525 50.1952 383.815 38.9754 411.706 30.6143C437.217 22.9895 462.694 18.8105 488.22 18.076C525.841 16.9907 563.268 17.1994 600.601 18.158C625.889 18.7929 650.394 22.8439 674.136 29.3181C701.479 36.7659 729.866 39.3906 758.763 40.1002C789.754 40.8628 821.038 38.9825 852.238 38.0578C925.665 35.9436 998.518 37.6176 1070.83 42.7987C1113.05 45.8222 1154.17 53.538 1193.14 67.6988C1223.49 78.6915 1251.62 93.9766 1278.68 111.258C1325.72 141.231 1368.37 176.755 1404.15 221.226C1419.66 240.5 1430.04 255.5 1436.54 270" stroke="#9A67EA" stroke-dasharray="10 20"/>
<path d="M394.706 107.375V104.555C394.706 103.06 394.197 101.626 393.29 100.568C392.384 99.5106 391.155 98.9165 389.873 98.9165H380.206C378.924 98.9165 377.695 99.5106 376.788 100.568C375.882 101.626 375.373 103.06 375.373 104.555V107.375" fill="#D1BAF4"/>
<path d="M385.04 96.5002C387.709 96.5002 389.873 94.3362 389.873 91.6668C389.873 88.9975 387.709 86.8335 385.04 86.8335C382.37 86.8335 380.206 88.9975 380.206 91.6668C380.206 94.3362 382.37 96.5002 385.04 96.5002Z" fill="#D1BAF4"/>
<path d="M611.706 25.3748V22.5554C611.706 21.0599 611.197 19.6256 610.29 18.5681C609.384 17.5106 608.155 16.9165 606.873 16.9165H597.206C595.924 16.9165 594.695 17.5106 593.788 18.5681C592.882 19.6256 592.373 21.0599 592.373 22.5554V25.3748" fill="#D1BAF4"/>
<path d="M602.04 14.5002C604.709 14.5002 606.873 12.3362 606.873 9.66683C606.873 6.99745 604.709 4.8335 602.04 4.8335C599.37 4.8335 597.206 6.99745 597.206 9.66683C597.206 12.3362 599.37 14.5002 602.04 14.5002Z" fill="#D1BAF4"/>
<path d="M729.706 145.375V142.555C729.706 141.06 729.197 139.626 728.29 138.568C727.384 137.511 726.155 136.917 724.873 136.917H715.206C713.924 136.917 712.695 137.511 711.788 138.568C710.882 139.626 710.373 141.06 710.373 142.555V145.375" fill="#D1BAF4"/>
<path d="M720.04 134.5C722.709 134.5 724.873 132.336 724.873 129.667C724.873 126.997 722.709 124.833 720.04 124.833C717.37 124.833 715.206 126.997 715.206 129.667C715.206 132.336 717.37 134.5 720.04 134.5Z" fill="#D1BAF4"/>
<path d="M939.706 95.3748V92.5554C939.706 91.0599 939.197 89.6256 938.29 88.5681C937.384 87.5106 936.155 86.9165 934.873 86.9165H925.206C923.924 86.9165 922.695 87.5106 921.788 88.5681C920.882 89.6256 920.373 91.0599 920.373 92.5554V95.3748" fill="#D1BAF4"/>
<path d="M930.04 84.5002C932.709 84.5002 934.873 82.3362 934.873 79.6668C934.873 76.9975 932.709 74.8335 930.04 74.8335C927.37 74.8335 925.206 76.9975 925.206 79.6668C925.206 82.3362 927.37 84.5002 930.04 84.5002Z" fill="#D1BAF4"/>
<path d="M1202.71 74.3748V71.5554C1202.71 70.0599 1202.2 68.6256 1201.29 67.5681C1200.38 66.5106 1199.15 65.9165 1197.87 65.9165H1188.21C1186.92 65.9165 1185.69 66.5106 1184.79 67.5681C1183.88 68.6256 1183.37 70.0599 1183.37 71.5554V74.3748" fill="#D1BAF4"/>
<path d="M1193.04 63.5002C1195.71 63.5002 1197.87 61.3362 1197.87 58.6668C1197.87 55.9975 1195.71 53.8335 1193.04 53.8335C1190.37 53.8335 1188.21 55.9975 1188.21 58.6668C1188.21 61.3362 1190.37 63.5002 1193.04 63.5002Z" fill="#D1BAF4"/>
<path d="M1296.71 198.375V195.555C1296.71 194.06 1296.2 192.626 1295.29 191.568C1294.38 190.511 1293.15 189.917 1291.87 189.917H1282.21C1280.92 189.917 1279.69 190.511 1278.79 191.568C1277.88 192.626 1277.37 194.06 1277.37 195.555V198.375" fill="#D1BAF4"/>
<path d="M1287.04 187.5C1289.71 187.5 1291.87 185.336 1291.87 182.667C1291.87 179.997 1289.71 177.833 1287.04 177.833C1284.37 177.833 1282.21 179.997 1282.21 182.667C1282.21 185.336 1284.37 187.5 1287.04 187.5Z" fill="#D1BAF4"/>
<path d="M184.706 158.375V155.555C184.706 154.06 184.197 152.626 183.29 151.568C182.384 150.511 181.155 149.917 179.873 149.917H170.206C168.924 149.917 167.695 150.511 166.788 151.568C165.882 152.626 165.373 154.06 165.373 155.555V158.375" fill="#D1BAF4"/>
<path d="M175.04 147.5C177.709 147.5 179.873 145.336 179.873 142.667C179.873 139.997 177.709 137.833 175.04 137.833C172.37 137.833 170.206 139.997 170.206 142.667C170.206 145.336 172.37 147.5 175.04 147.5Z" fill="#D1BAF4"/>
</svg>
