<svg width="1598" height="179" viewBox="0 0 1598 179" fill="none" xmlns="http://www.w3.org/2000/svg">
<path d="M1 144C80 94.1668 267.9 6.00014 387.5 52.0001C537 109.5 575 135 678.5 137C782 139 887 0.500339 1032.5 0.5C1178 0.499661 1287.5 167 1406 167C1500.8 167 1574.5 90.3334 1599.5 52.0001" stroke="#9A67EA" stroke-dasharray="10 20"/>
<path d="M1417 165C1417 172 1408 178 1408 178C1408 178 1399 172 1399 165C1399 162.613 1399.95 160.324 1401.64 158.636C1403.32 156.948 1405.61 156 1408 156C1410.39 156 1412.68 156.948 1414.36 158.636C1416.05 160.324 1417 162.613 1417 165Z" fill="#D1BAF4"/>
<path d="M1408 168C1409.66 168 1411 166.657 1411 165C1411 163.343 1409.66 162 1408 162C1406.34 162 1405 163.343 1405 165C1405 166.657 1406.34 168 1408 168Z" fill="#F0ECF8"/>
<path d="M796 99C796 106 787 112 787 112C787 112 778 106 778 99C778 96.6131 778.948 94.3239 780.636 92.636C782.324 90.9482 784.613 90 787 90C789.387 90 791.676 90.9482 793.364 92.636C795.052 94.3239 796 96.6131 796 99Z" fill="#D1BAF4"/>
<path d="M787 102C788.657 102 790 100.657 790 99C790 97.3431 788.657 96 787 96C785.343 96 784 97.3431 784 99C784 100.657 785.343 102 787 102Z" fill="#F0ECF8"/>
<path d="M168 67C168 74 159 80 159 80C159 80 150 74 150 67C150 64.6131 150.948 62.3239 152.636 60.636C154.324 58.9482 156.613 58 159 58C161.387 58 163.676 58.9482 165.364 60.636C167.052 62.3239 168 64.6131 168 67Z" fill="#D1BAF4"/>
<path d="M159 70C160.657 70 162 68.6569 162 67C162 65.3431 160.657 64 159 64C157.343 64 156 65.3431 156 67C156 68.6569 157.343 70 159 70Z" fill="#F0ECF8"/>
</svg>
