<svg width="77" height="77" viewBox="0 0 77 77" fill="none" xmlns="http://www.w3.org/2000/svg">
<circle cx="38.5" cy="38.5" r="37.5" stroke="#673AB7" stroke-width="1.5" stroke-linecap="round" stroke-dasharray="3.75 15"/>
<circle cx="38.5" cy="38.5" r="29.2969" fill="#F0ECF8"/>
<path d="M49.5 27.5L28.5 48.5" stroke="#6F38BA" stroke-width="3" stroke-linecap="round" stroke-linejoin="round"/>
<path d="M30.75 33.5C32.8211 33.5 34.5 31.8211 34.5 29.75C34.5 27.6789 32.8211 26 30.75 26C28.6789 26 27 27.6789 27 29.75C27 31.8211 28.6789 33.5 30.75 33.5Z" stroke="#6F38BA" stroke-width="3" stroke-linecap="round" stroke-linejoin="round"/>
<path d="M47.25 50C49.3211 50 51 48.3211 51 46.25C51 44.1789 49.3211 42.5 47.25 42.5C45.1789 42.5 43.5 44.1789 43.5 46.25C43.5 48.3211 45.1789 50 47.25 50Z" stroke="#6F38BA" stroke-width="3" stroke-linecap="round" stroke-linejoin="round"/>
</svg>
