<svg width="32" height="32" viewBox="0 0 32 32" fill="none" xmlns="http://www.w3.org/2000/svg">
<path d="M25.0667 0H6.93333C3.10416 0 0 3.10409 0 6.93317V25.0661C0 28.8952 3.10416 31.9993 6.93333 31.9993H25.0667C28.8958 31.9993 32 28.8952 32 25.0661V6.93317C32 3.10409 28.8958 0 25.0667 0Z" fill="#4E8AFF"/>
<path fill-rule="evenodd" clip-rule="evenodd" d="M16.9177 9.4H19.375C21.239 9.4 22.75 11.0118 22.75 13C22.75 14.9882 21.239 16.6 19.375 16.6H18L18 12.9375C18 11.612 17.5977 10.388 16.9177 9.4ZM12.562 7.00037C12.5413 7.00012 12.5207 7 12.5 7C9.46243 7 7 9.65831 7 12.9375V13V20.0625C7 23.3417 9.46243 26 12.5 26C15.5376 26 18 23.3417 18 20.0625V19H19.375C22.4816 19 25 16.3137 25 13C25 9.68629 22.4816 7 19.375 7H12.625C12.604 7 12.5829 7.00012 12.562 7.00037ZM15.8 19V20.0625C15.8 22.03 14.3225 23.625 12.5 23.625C10.6775 23.625 9.2 22.03 9.2 20.0625V17.7599C10.1485 18.5376 11.3361 19 12.625 19H15.8ZM15.8 16.6H12.625C10.761 16.6 9.25 14.9882 9.25 13C9.25 11.0118 10.761 9.4 12.625 9.4H12.893C14.5303 9.60974 15.8 11.1135 15.8 12.9375V16.6Z" fill="white"/>
</svg>
