<svg width="192" height="192" viewBox="0 0 192 192" fill="none" xmlns="http://www.w3.org/2000/svg">
<path d="M150.4 0H41.6C18.625 0 0 18.6249 0 41.5998V150.399C0 173.374 18.625 191.999 41.6 191.999H150.4C173.375 191.999 192 173.374 192 150.399V41.5998C192 18.6249 173.375 0 150.4 0Z" fill="#673AB7"/>
<path d="M40 145C40 141.134 43.134 138 47 138H89C92.866 138 96 141.134 96 145C96 148.866 92.866 152 89 152H47C43.134 152 40 148.866 40 145Z" fill="white"/>
<path fill-rule="evenodd" clip-rule="evenodd" d="M75.032 40C55.6844 40 40 55.67 40 75V96C40 103.732 46.2738 110 54.0128 110H116.968C136.316 110 152 94.33 152 75C152 55.67 136.316 40 116.968 40H75.032ZM74.9802 53.9844C63.3716 53.9844 53.961 63.3864 53.961 74.9844V88.9844C53.961 92.8504 57.0978 95.9844 60.9674 95.9844H116.942C128.55 95.9844 137.961 86.5824 137.961 74.9844C137.961 63.3864 128.55 53.9844 116.942 53.9844H74.9802Z" fill="white"/>
</svg>
