<svg width="53" height="52" viewBox="0 0 53 52" fill="none" xmlns="http://www.w3.org/2000/svg">
<path d="M50.2805 30.3409C50.264 30.4325 50.2524 30.5249 50.2351 30.6166L50.1459 30.0914C50.1945 30.1733 50.2351 30.2582 50.2805 30.3409C50.5497 28.8765 50.6908 27.3773 50.6908 25.8791C50.6908 22.5565 50.0402 19.3329 48.755 16.2984C47.5152 13.3671 45.7411 10.7346 43.4793 8.47445C41.2208 6.21427 38.5867 4.44029 35.6568 3.20042C32.6232 1.91678 29.3998 1.2663 26.0772 1.2663C24.5112 1.2663 22.9427 1.41323 21.4164 1.70628C21.4132 1.70711 21.4091 1.70711 21.4048 1.70793C21.4907 1.75334 21.5775 1.79378 21.6616 1.84084L21.144 1.75994C21.2307 1.74343 21.3183 1.72527 21.4048 1.70793C19.3106 0.594352 16.9555 0 14.5715 0C10.6793 0 7.01995 1.5156 4.26777 4.2686C1.51642 7.02077 0 10.6802 0 14.5723C0 17.0496 0.637276 19.4848 1.83341 21.6369C1.84909 21.5478 1.85982 21.4578 1.87716 21.3686L1.96631 21.8845C1.92008 21.8037 1.87963 21.7194 1.83341 21.6369C1.59072 23.0311 1.46276 24.456 1.46276 25.8791C1.46276 29.2025 2.11326 32.4251 3.39854 35.4606C4.63676 38.3926 6.41157 41.0235 8.67092 43.2837C10.9328 45.5438 13.5636 47.3203 16.4966 48.5569C19.5302 49.8429 22.7546 50.4943 26.0772 50.4943C27.5234 50.4943 28.973 50.3621 30.3879 50.1113C30.3052 50.065 30.2211 50.0229 30.1368 49.9742L30.6628 50.0667C30.572 50.084 30.4803 50.0948 30.3879 50.1113C32.568 51.3446 35.0362 52 37.5564 52C41.4477 52 45.1054 50.4867 47.8577 47.733C50.6107 44.9824 52.1254 41.3222 52.1254 37.4301C52.1254 34.9446 51.4849 32.501 50.2805 30.3409ZM26.1753 40.9533C17.431 40.9533 13.519 36.6542 13.519 33.4324C13.519 31.7796 14.7391 30.6215 16.4206 30.6215C20.1625 30.6215 19.1934 35.9946 26.1753 35.9946C29.7498 35.9946 31.7234 34.0538 31.7234 32.0677C31.7234 30.8733 31.1342 29.5492 28.7806 28.9689L21.0029 27.0272C14.7391 25.4563 13.6024 22.0702 13.6024 18.8872C13.6024 12.2783 19.8249 9.79689 25.6685 9.79689C31.0515 9.79689 37.3971 12.772 37.3971 16.7368C37.3971 18.4356 35.926 19.4237 34.2454 19.4237C31.0515 19.4237 31.6393 15.0032 25.2063 15.0032C22.014 15.0032 20.2459 16.4487 20.2459 18.5173C20.2459 20.5818 22.767 21.2415 24.9561 21.74L30.7131 23.0179C37.019 24.4228 38.618 28.1046 38.618 31.5723C38.618 36.9431 34.4954 40.9533 26.1753 40.9533ZM30.1368 49.9742C30.2211 50.0229 30.3052 50.065 30.3879 50.1113C30.4803 50.0948 30.572 50.084 30.6628 50.0667L30.1368 49.9742ZM50.2351 30.6166C50.2524 30.5249 50.264 30.4325 50.2805 30.3409C50.2351 30.2582 50.1945 30.1733 50.1459 30.0914L50.2351 30.6166ZM1.87716 21.3686C1.85982 21.4578 1.84909 21.5478 1.83341 21.6369C1.87963 21.7194 1.92008 21.8037 1.96631 21.8845L1.87716 21.3686ZM21.6616 1.84084C21.5775 1.79378 21.4907 1.75334 21.4048 1.70793C21.3183 1.72527 21.2307 1.74343 21.144 1.75994L21.6616 1.84084Z" fill="#00AFF0"/>
</svg>
