<svg width="100" height="25" viewBox="0 0 100 25" fill="none" xmlns="http://www.w3.org/2000/svg">
<path d="M31.4167 19.6666L32.6334 16.8166C33.9667 17.7999 35.7001 18.3166 37.4334 18.3166C38.7001 18.3166 39.5167 17.8166 39.5167 17.0666C39.4834 14.9833 31.8501 16.5999 31.7834 11.3499C31.7501 8.68328 34.1334 6.61662 37.4834 6.61662C39.4834 6.61662 41.4834 7.11661 42.9001 8.23328L41.7667 11.1333C40.4667 10.3 38.8501 9.71662 37.3167 9.71662C36.2667 9.71662 35.5834 10.2166 35.5834 10.8499C35.6167 12.9166 43.3167 11.7833 43.4001 16.8C43.4001 19.5333 41.0834 21.4333 37.7834 21.4333C35.3501 21.4666 33.1167 20.8833 31.4167 19.6666ZM79.8334 15.8C79.2001 16.9166 78.0334 17.5999 76.7667 17.5999C74.8167 17.5999 73.2334 16.0166 73.2334 14.0666C73.2334 12.1166 74.8167 10.5333 76.7667 10.5333C78.0334 10.5333 79.2167 11.2166 79.8334 12.3333L83.2167 10.45C81.9501 8.18328 79.5334 6.64995 76.7667 6.64995C72.6834 6.64995 69.3667 9.96661 69.3667 14.0666C69.3667 18.1666 72.6834 21.4833 76.7667 21.4833C79.5334 21.4833 81.9501 19.9499 83.2167 17.6833L79.8334 15.8ZM45.6001 21.1666H49.8334V0.466616H45.6001V21.1666ZM85.3501 0.466616V21.1666H89.5834V14.9666L94.6001 21.1666H100L93.6334 13.8L99.5334 6.91662H94.3668L89.5834 12.6333V0.449951H85.3501V0.466616ZM62.8501 6.93328V8.61662C62.1501 7.44995 60.4501 6.64995 58.6501 6.64995C54.9501 6.64995 52.0167 9.93328 52.0167 14.05C52.0167 18.1666 54.9334 21.4833 58.6501 21.4833C60.4501 21.4833 62.1501 20.6666 62.8501 19.5166V21.1999H67.0834V6.94995H62.8501V6.93328ZM62.8501 15.8166C62.2501 16.8333 60.9667 17.5833 59.5501 17.5833C57.6001 17.5833 56.0167 16 56.0167 14.05C56.0167 12.1 57.6001 10.5166 59.5501 10.5166C60.9667 10.5166 62.2501 11.2999 62.8501 12.3499V15.8166Z" fill="black"/>
<path d="M9.08333 0.0168457C7.71667 0.0168457 6.6 1.13351 6.6 2.50018C6.6 3.86684 7.71667 4.98351 9.08333 4.98351H11.5667V2.50018C11.5667 1.13351 10.4667 0.0168457 9.08333 0.0168457ZM9.08333 6.63351H2.48333C1.11667 6.63351 0 7.75018 0 9.11685C0 10.4835 1.11667 11.6002 2.48333 11.6002H9.1C10.4667 11.6002 11.5833 10.4835 11.5833 9.11685C11.5667 7.75018 10.4667 6.63351 9.08333 6.63351Z" fill="#36C5F0"/>
<path d="M24.8 9.11667C24.8 7.75 23.6833 6.63334 22.3167 6.63334C20.95 6.63334 19.8333 7.75 19.8333 9.11667V11.6H22.3167C23.6833 11.6167 24.8 10.5 24.8 9.11667ZM18.1833 9.11667V2.48333C18.1833 1.11667 17.0667 0 15.7 0C14.3333 0 13.2167 1.11667 13.2167 2.48333V9.11667C13.2167 10.4833 14.3333 11.6 15.7 11.6C17.0833 11.6167 18.1833 10.5 18.1833 9.11667Z" fill="#2EB67D"/>
<path d="M15.7 24.8666C17.0667 24.8666 18.1833 23.7499 18.1833 22.3833C18.1833 21.0166 17.0667 19.8999 15.7 19.8999H13.2167V22.3833C13.2167 23.7499 14.3333 24.8666 15.7 24.8666ZM15.7 18.2333H22.3167C23.6833 18.2333 24.8 17.1166 24.8 15.7499C24.8 14.3833 23.6833 13.2666 22.3167 13.2666H15.7C14.3333 13.2666 13.2167 14.3833 13.2167 15.7499C13.2167 17.1166 14.3333 18.2333 15.7 18.2333Z" fill="#ECB22E"/>
<path d="M0 15.7499C0 17.1166 1.11667 18.2333 2.48333 18.2333C3.85 18.2333 4.96667 17.1166 4.96667 15.7499V13.2666H2.48333C1.1 13.2666 0 14.3833 0 15.7499ZM6.61667 15.7499V22.3833C6.61667 23.7499 7.73333 24.8666 9.1 24.8666C10.4667 24.8666 11.5833 23.7499 11.5833 22.3833V15.7499C11.5833 14.3833 10.4667 13.2666 9.1 13.2666C7.71667 13.2666 6.61667 14.3833 6.61667 15.7499Z" fill="#E01E5A"/>
</svg>
