<svg width="77" height="78" viewBox="0 0 77 78" fill="none" xmlns="http://www.w3.org/2000/svg">
<circle cx="38.5" cy="39" r="37.5" stroke="#673AB7" stroke-width="1.5" stroke-linecap="round" stroke-dasharray="3.75 15"/>
<circle cx="38.5" cy="39" r="29.2969" fill="#F0ECF8"/>
<path fill-rule="evenodd" clip-rule="evenodd" d="M23.8659 33.1406C23.8659 31.5293 25.1696 30.2109 26.7809 30.2109H44.359C45.9704 30.2109 47.2887 31.5293 47.2887 33.1406L47.2891 46.3242C47.2891 47.9355 45.9707 49.2539 44.3594 49.2539H29.7109L23.8516 55.1133L23.8659 33.1406ZM44.3559 33.1379H26.7778V48.0353L28.4917 46.3215H44.3559V33.1379ZM29.7109 40.465H37.0351V43.3947H29.7109V40.465ZM41.4296 36.0705H29.7109V39.0002H41.4296V36.0705Z" fill="#673AB7"/>
<path fill-rule="evenodd" clip-rule="evenodd" d="M50.2191 24.3513C51.8304 24.3513 53.1341 25.6697 53.1341 27.281L53.1484 49.2537L47.2891 43.3943V40.4621H48.5084L50.2223 42.176V27.2785H32.6442V30.2108H29.7112L29.7113 27.281C29.7113 25.6697 31.0296 24.3513 32.641 24.3513H50.2191Z" fill="#673AB7"/>
</svg>
