<svg width="77" height="78" viewBox="0 0 77 78" fill="none" xmlns="http://www.w3.org/2000/svg">
<circle cx="38.5" cy="39" r="37.5" stroke="#673AB7" stroke-width="1.5" stroke-linecap="round" stroke-dasharray="3.75 15"/>
<circle cx="38.5469" cy="39.0469" r="29.2969" fill="#F0ECF8"/>
<path fill-rule="evenodd" clip-rule="evenodd" d="M33.9063 39C36.9219 39 39.3751 36.5469 39.3751 33.5312C39.3751 30.5156 36.9219 28.0625 33.9063 28.0625C30.8907 28.0625 28.4376 30.5156 28.4376 33.5312C28.4376 36.5469 30.8907 39 33.9063 39ZM22.9688 47.2032C22.9688 43.5626 30.25 41.7344 33.9062 41.7344C37.5625 41.7344 44.8438 43.5626 44.8438 47.2032V49.9376H22.9688V47.2032ZM33.9061 44.8593C31.1092 44.8593 27.9373 45.9062 26.6248 46.8124H41.1873C39.8748 45.9062 36.7029 44.8593 33.9061 44.8593ZM36.2499 33.5313C36.2499 32.2344 35.2031 31.1876 33.9062 31.1876C32.6093 31.1876 31.5624 32.2344 31.5624 33.5313C31.5624 34.8282 32.6093 35.8751 33.9062 35.8751C35.2031 35.8751 36.2499 34.8282 36.2499 33.5313ZM44.9062 41.8282C46.7188 43.1407 47.9688 44.8907 47.9688 47.2032V49.9376H54.2188V47.2032C54.2188 44.0469 48.75 42.2501 44.9062 41.8282ZM48.7499 33.5312C48.7499 36.5469 46.2968 39 43.2812 39C42.4374 39 41.6562 38.7969 40.9374 38.4531C41.9218 37.0625 42.4999 35.3594 42.4999 33.5312C42.4999 31.7031 41.9218 30 40.9374 28.6094C41.6562 28.2656 42.4374 28.0625 43.2812 28.0625C46.2968 28.0625 48.7499 30.5156 48.7499 33.5312Z" fill="#673AB7"/>
</svg>
