<svg width="47" height="52" viewBox="0 0 47 52" fill="none" xmlns="http://www.w3.org/2000/svg">
<path d="M46.2395 29.9439C47.7312 17.3877 45.5228 9.46059 41.5395 5.87517L41.5416 5.87309C35.1124 -0.249827 13.3999 -1.15608 5.70826 6.14809C2.25409 9.72101 1.03742 14.9648 0.904088 21.4564C0.770755 27.9502 0.612421 40.1148 11.9478 43.4148H11.9583L11.9478 48.4543C11.9478 48.4543 11.8708 50.496 13.1749 50.9064C14.6666 51.3898 15.3416 50.4418 19.9812 44.9002C27.7395 45.5731 33.6978 44.0314 34.3749 43.8064C35.9416 43.2814 44.8062 42.1085 46.2395 29.9439ZM20.7458 41.3543C20.7458 41.3543 15.8353 47.4773 14.3083 49.0668C13.8083 49.5835 13.2603 49.5356 13.2687 48.5106C13.2687 47.8377 13.3062 40.1439 13.3062 40.1439C3.69575 37.3898 4.26242 27.0314 4.36659 21.6127C4.47075 16.1918 5.46242 11.7523 8.38742 8.76267C15.1353 2.43559 34.1708 3.85017 39.0208 8.40851C44.9499 13.6648 42.8395 28.5148 42.852 29.021C41.6333 39.1752 34.4499 39.8189 33.1291 40.2585C32.5645 40.446 27.3249 41.7939 20.7458 41.3543Z" fill="#8E24AA"/>
<path d="M23.4624 9.95166C22.6603 9.95166 22.6603 11.2017 23.4624 11.2121C29.6853 11.26 34.8103 15.5975 34.8666 23.5537C34.8666 24.3933 36.0957 24.3829 36.0853 23.5433H36.0832C36.0166 14.9704 30.4207 9.99958 23.4624 9.95166Z" fill="#8E24AA"/>
<path d="M31.6476 22.2355C31.6289 23.0647 32.856 23.1042 32.8664 22.2647C32.9685 17.5376 30.0539 13.6438 24.5768 13.2334C23.7747 13.1751 23.6914 14.4355 24.4914 14.4938C29.2414 14.8542 31.7435 18.0959 31.6476 22.2355Z" fill="#8E24AA"/>
<path d="M30.3358 27.6129C29.3066 27.017 28.2587 27.3879 27.8254 27.9733L26.9191 29.1462C26.4587 29.742 25.5983 29.6629 25.5983 29.6629C19.3191 28.0025 17.6399 21.4316 17.6399 21.4316C17.6399 21.4316 17.5629 20.542 18.1379 20.065L19.2712 19.1275C19.8379 18.6775 20.1962 17.5941 19.6191 16.5295C18.0774 13.7441 17.042 12.7837 16.5149 12.0462C15.9608 11.3525 15.1274 11.1962 14.2608 11.665H14.242C12.4399 12.7191 10.467 14.692 11.0983 16.7233C12.1754 18.865 14.1545 25.692 20.4629 30.8504C23.4274 33.29 28.1191 35.79 30.1108 36.367L30.1295 36.3962C32.092 37.0504 34.0004 35.0004 35.0191 33.1441V33.1295C35.4712 32.2316 35.3212 31.3816 34.6608 30.8254C33.4899 29.6837 31.7233 28.4233 30.3358 27.6129Z" fill="#8E24AA"/>
<path d="M25.4353 17.8833C27.4374 18 28.4082 19.0458 28.5124 21.1937C28.5499 22.0333 29.7686 21.975 29.7311 21.1354C29.5978 18.3312 28.1353 16.7687 25.502 16.6229C24.6999 16.575 24.6249 17.8354 25.4353 17.8833Z" fill="#8E24AA"/>
</svg>
