<svg width="77" height="78" viewBox="0 0 77 78" fill="none" xmlns="http://www.w3.org/2000/svg">
<circle cx="38.5" cy="39" r="37.5" stroke="#673AB7" stroke-width="1.5" stroke-linecap="round" stroke-dasharray="3.75 15"/>
<circle cx="38.5469" cy="39.0469" r="29.2969" fill="#F0ECF8"/>
<g clip-path="url(#clip0_9491_55184)">
<path d="M43.2656 28.0625C44.7918 28.3603 46.1943 29.1067 47.2938 30.2061C48.3933 31.3056 49.1397 32.7082 49.4375 34.2344M43.2656 21.8125C46.4364 22.1647 49.3931 23.5846 51.6504 25.8391C53.9076 28.0935 55.3313 31.0485 55.6875 34.2187M54.125 46.6875V51.375C54.1268 51.8102 54.0376 52.2409 53.8633 52.6396C53.689 53.0383 53.4333 53.3962 53.1126 53.6904C52.792 53.9846 52.4134 54.2086 52.0012 54.348C51.5889 54.4874 51.1521 54.5392 50.7187 54.5C45.9107 53.9776 41.2922 52.3346 37.2344 49.7031C33.4591 47.3042 30.2583 44.1034 27.8594 40.3281C25.2187 36.2519 23.5754 31.6109 23.0625 26.7812C23.0234 26.3492 23.0748 25.9137 23.2133 25.5025C23.3517 25.0914 23.5743 24.7136 23.8668 24.3932C24.1593 24.0727 24.5153 23.8167 24.9122 23.6414C25.309 23.4661 25.738 23.3754 26.1719 23.375H30.8594C31.6177 23.3675 32.3528 23.6361 32.9277 24.1305C33.5027 24.625 33.8782 25.3116 33.9844 26.0625C34.1822 27.5626 34.5491 29.0355 35.0781 30.4531C35.2883 31.0124 35.3338 31.6202 35.2092 32.2045C35.0846 32.7888 34.7951 33.3252 34.375 33.75L32.3906 35.7344C34.6149 39.6462 37.8538 42.8851 41.7656 45.1094L43.75 43.125C44.1748 42.7049 44.7112 42.4154 45.2955 42.2908C45.8798 42.1662 46.4876 42.2117 47.0469 42.4219C48.4645 42.9509 49.9374 43.3178 51.4375 43.5156C52.1965 43.6227 52.8897 44.005 53.3852 44.5898C53.8807 45.1747 54.144 45.9212 54.125 46.6875Z" stroke="#673AB7" stroke-width="3" stroke-linecap="round" stroke-linejoin="round"/>
</g>
<defs>
<clipPath id="clip0_9491_55184">
<rect width="37.5" height="37.5" fill="white" transform="translate(19.75 20.25)"/>
</clipPath>
</defs>
</svg>
