<svg width="358" height="58" viewBox="0 0 358 58" fill="none" xmlns="http://www.w3.org/2000/svg">
<rect width="358" height="58" rx="5" fill="#1A1C20"/>
<path d="M21.2682 33.5H28.2579C28.0892 32.0785 28 30.5667 28 29C28 27.4333 28.0892 25.9215 28.2579 24.5H21.2682C20.7707 25.9075 20.5 27.4221 20.5 29C20.5 30.5779 20.7707 32.0925 21.2682 33.5ZM21.9033 35C23.6889 38.593 27.0281 41.2777 31.042 42.1749C29.8733 40.5842 28.9782 38.0557 28.4706 35H21.9033ZM46.7318 33.5C47.2293 32.0925 47.5 30.5779 47.5 29C47.5 27.4221 47.2293 25.9075 46.7318 24.5H39.7421C39.9108 25.9215 40 27.4333 40 29C40 30.5667 39.9108 32.0785 39.7421 33.5H46.7318ZM46.0967 35H39.5294C39.0218 38.0557 38.1267 40.5842 36.958 42.1749C40.9719 41.2777 44.3111 38.593 46.0967 35ZM29.7766 33.5H38.2234C38.401 32.0936 38.5 30.5792 38.5 29C38.5 27.4208 38.401 25.9064 38.2234 24.5H29.7766C29.599 25.9064 29.5 27.4208 29.5 29C29.5 30.5792 29.599 32.0936 29.7766 33.5ZM30.0025 35C30.7858 39.4517 32.3771 42.5 34 42.5C35.6229 42.5 37.2142 39.4517 37.9975 35H30.0025ZM21.9033 23H28.4706C28.9782 19.9443 29.8733 17.4158 31.042 15.8251C27.0281 16.7223 23.6889 19.407 21.9033 23ZM46.0967 23C44.3111 19.407 40.9719 16.7223 36.958 15.8251C38.1267 17.4158 39.0218 19.9443 39.5294 23H46.0967ZM30.0025 23H37.9975C37.2142 18.5483 35.6229 15.5 34 15.5C32.3771 15.5 30.7858 18.5483 30.0025 23ZM34 44C25.7157 44 19 37.2843 19 29C19 20.7157 25.7157 14 34 14C42.2843 14 49 20.7157 49 29C49 37.2843 42.2843 44 34 44Z" fill="white"/>
<path d="M74.6074 34.1934V28.7539C74.6074 28.3372 74.5228 27.9759 74.3535 27.6699C74.1908 27.3574 73.9434 27.1165 73.6113 26.9473C73.2793 26.778 72.8691 26.6934 72.3809 26.6934C71.9251 26.6934 71.5247 26.7715 71.1797 26.9277C70.8411 27.084 70.5742 27.2891 70.3789 27.543C70.1901 27.7969 70.0957 28.0703 70.0957 28.3633H68.2891C68.2891 27.9857 68.3867 27.6113 68.582 27.2402C68.7773 26.8691 69.0573 26.5339 69.4219 26.2344C69.793 25.9284 70.2357 25.6875 70.75 25.5117C71.2708 25.3294 71.8503 25.2383 72.4883 25.2383C73.2565 25.2383 73.9336 25.3685 74.5195 25.6289C75.112 25.8893 75.5742 26.2832 75.9062 26.8105C76.2448 27.3314 76.4141 27.9857 76.4141 28.7734V33.6953C76.4141 34.0469 76.4434 34.4212 76.502 34.8184C76.5671 35.2155 76.6615 35.5573 76.7852 35.8438V36H74.9004C74.8092 35.7917 74.7376 35.515 74.6855 35.1699C74.6335 34.8184 74.6074 34.4928 74.6074 34.1934ZM74.9199 29.5938L74.9395 30.8633H73.1133C72.599 30.8633 72.14 30.9056 71.7363 30.9902C71.3327 31.0684 70.9941 31.1888 70.7207 31.3516C70.4473 31.5143 70.2389 31.7194 70.0957 31.9668C69.9525 32.2077 69.8809 32.4909 69.8809 32.8164C69.8809 33.1484 69.9557 33.4512 70.1055 33.7246C70.2552 33.998 70.4798 34.2161 70.7793 34.3789C71.0853 34.5352 71.4596 34.6133 71.9023 34.6133C72.4557 34.6133 72.944 34.4961 73.3672 34.2617C73.7904 34.0273 74.1257 33.7409 74.373 33.4023C74.627 33.0638 74.7637 32.735 74.7832 32.416L75.5547 33.2852C75.5091 33.5586 75.3854 33.8613 75.1836 34.1934C74.9818 34.5254 74.7116 34.8444 74.373 35.1504C74.041 35.4499 73.6439 35.7005 73.1816 35.9023C72.7259 36.0977 72.2116 36.1953 71.6387 36.1953C70.9225 36.1953 70.2943 36.0553 69.7539 35.7754C69.2201 35.4954 68.8034 35.1211 68.5039 34.6523C68.2109 34.1771 68.0645 33.6465 68.0645 33.0605C68.0645 32.4941 68.1751 31.9961 68.3965 31.5664C68.6178 31.1302 68.9368 30.7689 69.3535 30.4824C69.7702 30.1895 70.2715 29.9681 70.8574 29.8184C71.4434 29.6686 72.0977 29.5938 72.8203 29.5938H74.9199ZM81.0625 27.4648V40.0625H79.2461V25.4336H80.9062L81.0625 27.4648ZM88.1816 30.6289V30.834C88.1816 31.6022 88.0905 32.3151 87.9082 32.9727C87.7259 33.6237 87.459 34.1901 87.1074 34.6719C86.7624 35.1536 86.3359 35.528 85.8281 35.7949C85.3203 36.0618 84.7376 36.1953 84.0801 36.1953C83.4095 36.1953 82.8171 36.0846 82.3027 35.8633C81.7884 35.6419 81.3522 35.3197 80.9941 34.8965C80.6361 34.4733 80.3496 33.9655 80.1348 33.373C79.9264 32.7806 79.7832 32.1133 79.7051 31.3711V30.2773C79.7832 29.4961 79.9297 28.7962 80.1445 28.1777C80.3594 27.5592 80.6426 27.0319 80.9941 26.5957C81.3522 26.153 81.7852 25.8177 82.293 25.5898C82.8008 25.3555 83.3867 25.2383 84.0508 25.2383C84.7148 25.2383 85.304 25.3685 85.8184 25.6289C86.3327 25.8828 86.7656 26.2474 87.1172 26.7227C87.4688 27.1979 87.7324 27.7676 87.9082 28.4316C88.0905 29.0892 88.1816 29.8216 88.1816 30.6289ZM86.3652 30.834V30.6289C86.3652 30.1016 86.3099 29.6068 86.1992 29.1445C86.0885 28.6758 85.916 28.2656 85.6816 27.9141C85.4538 27.556 85.1608 27.276 84.8027 27.0742C84.4447 26.8659 84.0182 26.7617 83.5234 26.7617C83.0677 26.7617 82.6706 26.8398 82.332 26.9961C82 27.1523 81.7168 27.3639 81.4824 27.6309C81.248 27.8913 81.056 28.1908 80.9062 28.5293C80.763 28.8613 80.6556 29.2064 80.584 29.5645V32.0938C80.7142 32.5495 80.8965 32.9792 81.1309 33.3828C81.3652 33.7799 81.6777 34.1022 82.0684 34.3496C82.459 34.5905 82.9505 34.7109 83.543 34.7109C84.0312 34.7109 84.4512 34.61 84.8027 34.4082C85.1608 34.1999 85.4538 33.9167 85.6816 33.5586C85.916 33.2005 86.0885 32.7904 86.1992 32.3281C86.3099 31.8594 86.3652 31.3613 86.3652 30.834ZM92.293 27.4648V40.0625H90.4766V25.4336H92.1367L92.293 27.4648ZM99.4121 30.6289V30.834C99.4121 31.6022 99.321 32.3151 99.1387 32.9727C98.9564 33.6237 98.6895 34.1901 98.3379 34.6719C97.9928 35.1536 97.5664 35.528 97.0586 35.7949C96.5508 36.0618 95.9681 36.1953 95.3105 36.1953C94.64 36.1953 94.0475 36.0846 93.5332 35.8633C93.0189 35.6419 92.5827 35.3197 92.2246 34.8965C91.8665 34.4733 91.5801 33.9655 91.3652 33.373C91.1569 32.7806 91.0137 32.1133 90.9355 31.3711V30.2773C91.0137 29.4961 91.1602 28.7962 91.375 28.1777C91.5898 27.5592 91.873 27.0319 92.2246 26.5957C92.5827 26.153 93.0156 25.8177 93.5234 25.5898C94.0312 25.3555 94.6172 25.2383 95.2812 25.2383C95.9453 25.2383 96.5345 25.3685 97.0488 25.6289C97.5632 25.8828 97.9961 26.2474 98.3477 26.7227C98.6992 27.1979 98.9629 27.7676 99.1387 28.4316C99.321 29.0892 99.4121 29.8216 99.4121 30.6289ZM97.5957 30.834V30.6289C97.5957 30.1016 97.5404 29.6068 97.4297 29.1445C97.319 28.6758 97.1465 28.2656 96.9121 27.9141C96.6842 27.556 96.3913 27.276 96.0332 27.0742C95.6751 26.8659 95.2487 26.7617 94.7539 26.7617C94.2982 26.7617 93.901 26.8398 93.5625 26.9961C93.2305 27.1523 92.9473 27.3639 92.7129 27.6309C92.4785 27.8913 92.2865 28.1908 92.1367 28.5293C91.9935 28.8613 91.8861 29.2064 91.8145 29.5645V32.0938C91.9447 32.5495 92.127 32.9792 92.3613 33.3828C92.5957 33.7799 92.9082 34.1022 93.2988 34.3496C93.6895 34.5905 94.181 34.7109 94.7734 34.7109C95.2617 34.7109 95.6816 34.61 96.0332 34.4082C96.3913 34.1999 96.6842 33.9167 96.9121 33.5586C97.1465 33.2005 97.319 32.7904 97.4297 32.3281C97.5404 31.8594 97.5957 31.3613 97.5957 30.834ZM101.746 35.043C101.746 34.737 101.84 34.4798 102.029 34.2715C102.225 34.0566 102.505 33.9492 102.869 33.9492C103.234 33.9492 103.51 34.0566 103.699 34.2715C103.895 34.4798 103.992 34.737 103.992 35.043C103.992 35.3424 103.895 35.5964 103.699 35.8047C103.51 36.013 103.234 36.1172 102.869 36.1172C102.505 36.1172 102.225 36.013 102.029 35.8047C101.84 35.5964 101.746 35.3424 101.746 35.043ZM108.797 27.4648V40.0625H106.98V25.4336H108.641L108.797 27.4648ZM115.916 30.6289V30.834C115.916 31.6022 115.825 32.3151 115.643 32.9727C115.46 33.6237 115.193 34.1901 114.842 34.6719C114.497 35.1536 114.07 35.528 113.562 35.7949C113.055 36.0618 112.472 36.1953 111.814 36.1953C111.144 36.1953 110.551 36.0846 110.037 35.8633C109.523 35.6419 109.087 35.3197 108.729 34.8965C108.37 34.4733 108.084 33.9655 107.869 33.373C107.661 32.7806 107.518 32.1133 107.439 31.3711V30.2773C107.518 29.4961 107.664 28.7962 107.879 28.1777C108.094 27.5592 108.377 27.0319 108.729 26.5957C109.087 26.153 109.52 25.8177 110.027 25.5898C110.535 25.3555 111.121 25.2383 111.785 25.2383C112.449 25.2383 113.038 25.3685 113.553 25.6289C114.067 25.8828 114.5 26.2474 114.852 26.7227C115.203 27.1979 115.467 27.7676 115.643 28.4316C115.825 29.0892 115.916 29.8216 115.916 30.6289ZM114.1 30.834V30.6289C114.1 30.1016 114.044 29.6068 113.934 29.1445C113.823 28.6758 113.65 28.2656 113.416 27.9141C113.188 27.556 112.895 27.276 112.537 27.0742C112.179 26.8659 111.753 26.7617 111.258 26.7617C110.802 26.7617 110.405 26.8398 110.066 26.9961C109.734 27.1523 109.451 27.3639 109.217 27.6309C108.982 27.8913 108.79 28.1908 108.641 28.5293C108.497 28.8613 108.39 29.2064 108.318 29.5645V32.0938C108.449 32.5495 108.631 32.9792 108.865 33.3828C109.1 33.7799 109.412 34.1022 109.803 34.3496C110.193 34.5905 110.685 34.7109 111.277 34.7109C111.766 34.7109 112.186 34.61 112.537 34.4082C112.895 34.1999 113.188 33.9167 113.416 33.5586C113.65 33.2005 113.823 32.7904 113.934 32.3281C114.044 31.8594 114.1 31.3613 114.1 30.834ZM124.686 33.5586V25.4336H126.502V36H124.773L124.686 33.5586ZM125.027 31.332L125.779 31.3125C125.779 32.0156 125.704 32.6667 125.555 33.2656C125.411 33.8581 125.177 34.3724 124.852 34.8086C124.526 35.2448 124.1 35.5866 123.572 35.834C123.045 36.0749 122.404 36.1953 121.648 36.1953C121.134 36.1953 120.662 36.1204 120.232 35.9707C119.809 35.821 119.445 35.5898 119.139 35.2773C118.833 34.9648 118.595 34.5579 118.426 34.0566C118.263 33.5553 118.182 32.9531 118.182 32.25V25.4336H119.988V32.2695C119.988 32.7448 120.04 33.1387 120.145 33.4512C120.255 33.7572 120.402 34.0013 120.584 34.1836C120.773 34.3594 120.981 34.4831 121.209 34.5547C121.443 34.6263 121.684 34.6621 121.932 34.6621C122.7 34.6621 123.309 34.5156 123.758 34.2227C124.207 33.9232 124.529 33.5228 124.725 33.0215C124.926 32.5137 125.027 31.9505 125.027 31.332ZM131.053 27.5332V36H129.236V25.4336H130.955L131.053 27.5332ZM130.682 30.3164L129.842 30.2871C129.848 29.5645 129.943 28.8971 130.125 28.2852C130.307 27.6667 130.577 27.1296 130.936 26.6738C131.294 26.2181 131.74 25.8665 132.273 25.6191C132.807 25.3652 133.426 25.2383 134.129 25.2383C134.624 25.2383 135.079 25.3099 135.496 25.4531C135.913 25.5898 136.274 25.8079 136.58 26.1074C136.886 26.4069 137.124 26.791 137.293 27.2598C137.462 27.7285 137.547 28.2949 137.547 28.959V36H135.74V29.0469C135.74 28.4935 135.646 28.0508 135.457 27.7188C135.275 27.3867 135.014 27.1458 134.676 26.9961C134.337 26.8398 133.94 26.7617 133.484 26.7617C132.951 26.7617 132.505 26.8561 132.146 27.0449C131.788 27.2337 131.502 27.4941 131.287 27.8262C131.072 28.1582 130.916 28.5391 130.818 28.9688C130.727 29.3919 130.682 29.8411 130.682 30.3164ZM137.527 29.3203L136.316 29.6914C136.323 29.112 136.417 28.5553 136.6 28.0215C136.788 27.4876 137.059 27.0124 137.41 26.5957C137.768 26.179 138.208 25.8503 138.729 25.6094C139.249 25.362 139.845 25.2383 140.516 25.2383C141.082 25.2383 141.583 25.3132 142.02 25.4629C142.462 25.6126 142.833 25.8438 143.133 26.1562C143.439 26.4622 143.67 26.8561 143.826 27.3379C143.982 27.8197 144.061 28.3926 144.061 29.0566V36H142.244V29.0371C142.244 28.4447 142.15 27.9857 141.961 27.6602C141.779 27.3281 141.518 27.097 141.18 26.9668C140.848 26.8301 140.451 26.7617 139.988 26.7617C139.591 26.7617 139.24 26.8301 138.934 26.9668C138.628 27.1035 138.37 27.2923 138.162 27.5332C137.954 27.7676 137.794 28.0378 137.684 28.3438C137.579 28.6497 137.527 28.9753 137.527 29.3203ZM146.785 21H148.602V33.9492L148.445 36H146.785V21ZM155.74 30.6289V30.834C155.74 31.6022 155.649 32.3151 155.467 32.9727C155.285 33.6237 155.018 34.1901 154.666 34.6719C154.314 35.1536 153.885 35.528 153.377 35.7949C152.869 36.0618 152.286 36.1953 151.629 36.1953C150.958 36.1953 150.369 36.0814 149.861 35.8535C149.36 35.6191 148.937 35.2839 148.592 34.8477C148.247 34.4115 147.97 33.8841 147.762 33.2656C147.56 32.6471 147.42 31.9505 147.342 31.1758V30.2773C147.42 29.4961 147.56 28.7962 147.762 28.1777C147.97 27.5592 148.247 27.0319 148.592 26.5957C148.937 26.153 149.36 25.8177 149.861 25.5898C150.363 25.3555 150.945 25.2383 151.609 25.2383C152.273 25.2383 152.863 25.3685 153.377 25.6289C153.891 25.8828 154.321 26.2474 154.666 26.7227C155.018 27.1979 155.285 27.7676 155.467 28.4316C155.649 29.0892 155.74 29.8216 155.74 30.6289ZM153.924 30.834V30.6289C153.924 30.1016 153.875 29.6068 153.777 29.1445C153.68 28.6758 153.523 28.2656 153.309 27.9141C153.094 27.556 152.811 27.276 152.459 27.0742C152.107 26.8659 151.674 26.7617 151.16 26.7617C150.704 26.7617 150.307 26.8398 149.969 26.9961C149.637 27.1523 149.354 27.3639 149.119 27.6309C148.885 27.8913 148.693 28.1908 148.543 28.5293C148.4 28.8613 148.292 29.2064 148.221 29.5645V31.918C148.325 32.3737 148.494 32.8132 148.729 33.2363C148.969 33.653 149.288 33.9948 149.686 34.2617C150.089 34.5286 150.587 34.6621 151.18 34.6621C151.668 34.6621 152.085 34.5645 152.43 34.3691C152.781 34.1673 153.064 33.8906 153.279 33.5391C153.501 33.1875 153.663 32.7806 153.768 32.3184C153.872 31.8561 153.924 31.3613 153.924 30.834ZM159.988 21V36H158.172V21H159.988ZM167.273 36.1953C166.538 36.1953 165.87 36.0716 165.271 35.8242C164.679 35.5703 164.168 35.2155 163.738 34.7598C163.315 34.304 162.99 33.7637 162.762 33.1387C162.534 32.5137 162.42 31.8301 162.42 31.0879V30.6777C162.42 29.8184 162.547 29.0534 162.801 28.3828C163.055 27.7057 163.4 27.1328 163.836 26.6641C164.272 26.1953 164.767 25.8405 165.32 25.5996C165.874 25.3587 166.447 25.2383 167.039 25.2383C167.794 25.2383 168.445 25.3685 168.992 25.6289C169.546 25.8893 169.998 26.2539 170.35 26.7227C170.701 27.1849 170.962 27.7318 171.131 28.3633C171.3 28.9883 171.385 29.6719 171.385 30.4141V31.2246H163.494V29.75H169.578V29.6133C169.552 29.1445 169.454 28.6888 169.285 28.2461C169.122 27.8034 168.862 27.4388 168.504 27.1523C168.146 26.8659 167.658 26.7227 167.039 26.7227C166.629 26.7227 166.251 26.8105 165.906 26.9863C165.561 27.1556 165.265 27.4095 165.018 27.748C164.77 28.0866 164.578 28.5 164.441 28.9883C164.305 29.4766 164.236 30.0397 164.236 30.6777V31.0879C164.236 31.5892 164.305 32.0612 164.441 32.5039C164.585 32.9401 164.79 33.3242 165.057 33.6562C165.33 33.9883 165.659 34.2487 166.043 34.4375C166.434 34.6263 166.876 34.7207 167.371 34.7207C168.009 34.7207 168.549 34.5905 168.992 34.3301C169.435 34.0697 169.822 33.7214 170.154 33.2852L171.248 34.1543C171.02 34.4993 170.73 34.8281 170.379 35.1406C170.027 35.4531 169.594 35.707 169.08 35.9023C168.572 36.0977 167.97 36.1953 167.273 36.1953ZM173.523 35.043C173.523 34.737 173.618 34.4798 173.807 34.2715C174.002 34.0566 174.282 33.9492 174.646 33.9492C175.011 33.9492 175.288 34.0566 175.477 34.2715C175.672 34.4798 175.77 34.737 175.77 35.043C175.77 35.3424 175.672 35.5964 175.477 35.8047C175.288 36.013 175.011 36.1172 174.646 36.1172C174.282 36.1172 174.002 36.013 173.807 35.8047C173.618 35.5964 173.523 35.3424 173.523 35.043ZM182.996 34.7109C183.426 34.7109 183.823 34.623 184.188 34.4473C184.552 34.2715 184.852 34.0306 185.086 33.7246C185.32 33.4121 185.454 33.0573 185.486 32.6602H187.205C187.173 33.2852 186.961 33.8678 186.57 34.4082C186.186 34.9421 185.682 35.375 185.057 35.707C184.432 36.0326 183.745 36.1953 182.996 36.1953C182.202 36.1953 181.508 36.0553 180.916 35.7754C180.33 35.4954 179.842 35.1113 179.451 34.623C179.067 34.1348 178.777 33.5749 178.582 32.9434C178.393 32.3053 178.299 31.6315 178.299 30.9219V30.5117C178.299 29.8021 178.393 29.1315 178.582 28.5C178.777 27.862 179.067 27.2988 179.451 26.8105C179.842 26.3223 180.33 25.9382 180.916 25.6582C181.508 25.3783 182.202 25.2383 182.996 25.2383C183.823 25.2383 184.546 25.4076 185.164 25.7461C185.783 26.0781 186.268 26.5339 186.619 27.1133C186.977 27.6862 187.173 28.3372 187.205 29.0664H185.486C185.454 28.6302 185.33 28.2363 185.115 27.8848C184.907 27.5332 184.62 27.2533 184.256 27.0449C183.898 26.8301 183.478 26.7227 182.996 26.7227C182.443 26.7227 181.977 26.8333 181.6 27.0547C181.229 27.2695 180.932 27.5625 180.711 27.9336C180.496 28.2982 180.34 28.7051 180.242 29.1543C180.151 29.597 180.105 30.0495 180.105 30.5117V30.9219C180.105 31.3841 180.151 31.8398 180.242 32.2891C180.333 32.7383 180.486 33.1452 180.701 33.5098C180.923 33.8743 181.219 34.1673 181.59 34.3887C181.967 34.6035 182.436 34.7109 182.996 34.7109ZM188.758 30.834V30.6094C188.758 29.8477 188.868 29.1413 189.09 28.4902C189.311 27.8327 189.63 27.263 190.047 26.7812C190.464 26.293 190.968 25.9154 191.561 25.6484C192.153 25.375 192.817 25.2383 193.553 25.2383C194.295 25.2383 194.962 25.375 195.555 25.6484C196.154 25.9154 196.661 26.293 197.078 26.7812C197.501 27.263 197.824 27.8327 198.045 28.4902C198.266 29.1413 198.377 29.8477 198.377 30.6094V30.834C198.377 31.5957 198.266 32.3021 198.045 32.9531C197.824 33.6042 197.501 34.1738 197.078 34.6621C196.661 35.1439 196.157 35.5215 195.564 35.7949C194.979 36.0618 194.314 36.1953 193.572 36.1953C192.83 36.1953 192.163 36.0618 191.57 35.7949C190.978 35.5215 190.47 35.1439 190.047 34.6621C189.63 34.1738 189.311 33.6042 189.09 32.9531C188.868 32.3021 188.758 31.5957 188.758 30.834ZM190.564 30.6094V30.834C190.564 31.3613 190.626 31.8594 190.75 32.3281C190.874 32.7904 191.059 33.2005 191.307 33.5586C191.561 33.9167 191.876 34.1999 192.254 34.4082C192.632 34.61 193.071 34.7109 193.572 34.7109C194.067 34.7109 194.5 34.61 194.871 34.4082C195.249 34.1999 195.561 33.9167 195.809 33.5586C196.056 33.2005 196.242 32.7904 196.365 32.3281C196.495 31.8594 196.561 31.3613 196.561 30.834V30.6094C196.561 30.0885 196.495 29.597 196.365 29.1348C196.242 28.666 196.053 28.2526 195.799 27.8945C195.551 27.5299 195.239 27.2435 194.861 27.0352C194.49 26.8268 194.054 26.7227 193.553 26.7227C193.058 26.7227 192.622 26.8268 192.244 27.0352C191.873 27.2435 191.561 27.5299 191.307 27.8945C191.059 28.2526 190.874 28.666 190.75 29.1348C190.626 29.597 190.564 30.0885 190.564 30.6094ZM202.439 27.5332V36H200.623V25.4336H202.342L202.439 27.5332ZM202.068 30.3164L201.229 30.2871C201.235 29.5645 201.329 28.8971 201.512 28.2852C201.694 27.6667 201.964 27.1296 202.322 26.6738C202.68 26.2181 203.126 25.8665 203.66 25.6191C204.194 25.3652 204.812 25.2383 205.516 25.2383C206.01 25.2383 206.466 25.3099 206.883 25.4531C207.299 25.5898 207.661 25.8079 207.967 26.1074C208.273 26.4069 208.51 26.791 208.68 27.2598C208.849 27.7285 208.934 28.2949 208.934 28.959V36H207.127V29.0469C207.127 28.4935 207.033 28.0508 206.844 27.7188C206.661 27.3867 206.401 27.1458 206.062 26.9961C205.724 26.8398 205.327 26.7617 204.871 26.7617C204.337 26.7617 203.891 26.8561 203.533 27.0449C203.175 27.2337 202.889 27.4941 202.674 27.8262C202.459 28.1582 202.303 28.5391 202.205 28.9688C202.114 29.3919 202.068 29.8411 202.068 30.3164ZM208.914 29.3203L207.703 29.6914C207.71 29.112 207.804 28.5553 207.986 28.0215C208.175 27.4876 208.445 27.0124 208.797 26.5957C209.155 26.179 209.594 25.8503 210.115 25.6094C210.636 25.362 211.232 25.2383 211.902 25.2383C212.469 25.2383 212.97 25.3132 213.406 25.4629C213.849 25.6126 214.22 25.8438 214.52 26.1562C214.826 26.4622 215.057 26.8561 215.213 27.3379C215.369 27.8197 215.447 28.3926 215.447 29.0566V36H213.631V29.0371C213.631 28.4447 213.536 27.9857 213.348 27.6602C213.165 27.3281 212.905 27.097 212.566 26.9668C212.234 26.8301 211.837 26.7617 211.375 26.7617C210.978 26.7617 210.626 26.8301 210.32 26.9668C210.014 27.1035 209.757 27.2923 209.549 27.5332C209.34 27.7676 209.181 28.0378 209.07 28.3438C208.966 28.6497 208.914 28.9753 208.914 29.3203Z" fill="white"/>
</svg>
