<svg width="56" height="56" viewBox="0 0 56 56" fill="none" xmlns="http://www.w3.org/2000/svg">
<path d="M47.6272 8.13795C42.386 2.89317 35.4168 0.00319996 27.9916 0C12.6909 0 0.239174 12.4477 0.233048 27.7478C0.231266 32.6385 1.50915 37.4126 3.93805 41.6208L0 56L14.7151 52.1415C18.7694 54.3526 23.3343 55.5177 27.9797 55.5196H27.9915H27.9916C43.2899 55.5196 55.7435 43.0696 55.75 27.7703C55.7526 20.3552 52.8677 13.3831 47.6272 8.13795ZM27.9916 50.8328H27.9826C23.842 50.8307 19.7815 49.719 16.2398 47.6174L15.3969 47.1177L6.66464 49.4072L8.99604 40.8964L8.44688 40.0239C6.1372 36.3514 4.91788 32.1074 4.91962 27.7496C4.92469 15.0327 15.2741 4.68689 28.0004 4.68689C34.1631 4.68945 39.9554 7.09161 44.3116 11.4509C48.6677 15.8102 51.0648 21.6052 51.063 27.7683C51.0576 40.4856 40.7079 50.8328 27.9916 50.8328Z" fill="#E0E0E0"/>
<path d="M1.27441 54.4046L5.03258 40.6823C2.71403 36.6663 1.49475 32.1099 1.49622 27.4435C1.5023 12.8427 13.3853 0.963867 27.9859 0.963867C35.0722 0.967067 41.7232 3.72488 46.7238 8.73021C51.7256 13.7355 54.4784 20.3886 54.4755 27.4642C54.4694 42.0655 42.5856 53.9453 27.9869 53.9453C27.9859 53.9453 27.9877 53.9453 27.9869 53.9453H27.9751C23.542 53.9439 19.186 52.831 15.3171 50.7225L1.27441 54.4046Z" fill="url(#paint0_linear)"/>
<path fill-rule="evenodd" clip-rule="evenodd" d="M21.1323 15.9673C20.6187 14.8255 20.078 14.8027 19.5894 14.7827C19.1898 14.7656 18.7323 14.7666 18.2755 14.7666C17.8184 14.7666 17.0755 14.9384 16.4473 15.6245C15.8188 16.3105 14.0474 17.9691 14.0474 21.3423C14.0474 24.7158 16.5045 27.9754 16.847 28.4332C17.1898 28.8904 21.5901 36.0339 28.5589 38.782C34.3506 41.0659 35.5292 40.6116 36.7864 40.4973C38.0435 40.3831 40.8427 38.8392 41.4141 37.2381C41.9856 35.6374 41.9856 34.2653 41.8141 33.9785C41.6427 33.6928 41.1856 33.5213 40.4999 33.1785C39.8142 32.8356 36.4435 31.1767 35.8149 30.9482C35.1864 30.7196 34.7292 30.6053 34.2721 31.2917C33.815 31.9775 32.5018 33.5213 32.1018 33.9785C31.7018 34.4367 31.3018 34.4938 30.6161 34.151C29.9304 33.807 27.7222 33.0838 25.1026 30.7481C23.0644 28.931 21.6883 26.6867 21.2883 26.0003C20.8883 25.3146 21.2454 24.9432 21.5894 24.6014C21.8972 24.2943 22.2751 23.8011 22.6179 23.4007C22.9601 23.0003 23.0744 22.7146 23.3029 22.2575C23.5315 21.7996 23.4172 21.3993 23.2458 21.0565C23.0744 20.7136 21.7419 17.323 21.1323 15.9673Z" fill="white"/>
<path d="M47.4003 8.04944C42.2192 2.86487 35.3301 0.00812848 27.9902 0.00488281C12.865 0.00488281 0.556255 12.3097 0.550175 27.4341C0.548393 32.2688 1.8116 36.988 4.21262 41.1479L0.319824 55.362L14.8661 51.5478C18.8739 53.7334 23.3863 54.8852 27.9784 54.887H27.99H27.9902C43.1128 54.887 55.4234 42.58 55.4298 27.4563C55.4323 20.1264 52.5806 13.2344 47.4003 8.04944ZM27.9902 50.2542H27.9813C23.8881 50.2521 19.8742 49.1532 16.3732 47.0757L15.54 46.5818L6.90794 48.845L9.21255 40.4319L8.6697 39.5694C6.38653 35.9391 5.1812 31.7438 5.18298 27.436C5.18797 14.8651 15.4186 4.63806 27.9988 4.63806C34.0909 4.64057 39.8165 7.01517 44.1229 11.3244C48.4289 15.6337 50.7985 21.3621 50.7967 27.4546C50.7913 40.0258 40.5603 50.2542 27.9902 50.2542Z" fill="white"/>
<defs>
<linearGradient id="paint0_linear" x1="27.875" y1="54.4046" x2="27.875" y2="0.963956" gradientUnits="userSpaceOnUse">
<stop stop-color="#20B038"/>
<stop offset="1" stop-color="#60D66A"/>
</linearGradient>
</defs>
</svg>
