<svg width="169" height="58" viewBox="0 0 169 58" fill="none" xmlns="http://www.w3.org/2000/svg">
<rect width="169" height="58" rx="5" fill="#1A1C20"/>
<path d="M69.8516 30.1328L72.3916 21.2031H73.6221L72.9102 24.6748L70.1768 34H68.9551L69.8516 30.1328ZM67.2236 21.2031L69.2451 29.957L69.8516 34H68.6387L65.5361 21.2031H67.2236ZM76.9092 29.9482L78.8867 21.2031H80.583L77.4893 34H76.2764L76.9092 29.9482ZM73.8066 21.2031L76.2764 30.1328L77.1729 34H75.9512L73.3145 24.6748L72.5938 21.2031H73.8066ZM83.9844 24.4902V34H82.3496V24.4902H83.9844ZM82.2266 21.9678C82.2266 21.7041 82.3057 21.4814 82.4639 21.2998C82.6279 21.1182 82.8682 21.0273 83.1846 21.0273C83.4951 21.0273 83.7324 21.1182 83.8965 21.2998C84.0664 21.4814 84.1514 21.7041 84.1514 21.9678C84.1514 22.2197 84.0664 22.4365 83.8965 22.6182C83.7324 22.7939 83.4951 22.8818 83.1846 22.8818C82.8682 22.8818 82.6279 22.7939 82.4639 22.6182C82.3057 22.4365 82.2266 22.2197 82.2266 21.9678ZM88.2207 26.5205V34H86.5947V24.4902H88.1328L88.2207 26.5205ZM87.834 28.8848L87.1572 28.8584C87.1631 28.208 87.2598 27.6074 87.4473 27.0566C87.6348 26.5 87.8984 26.0166 88.2383 25.6064C88.5781 25.1963 88.9824 24.8799 89.4512 24.6572C89.9258 24.4287 90.4502 24.3145 91.0244 24.3145C91.4932 24.3145 91.915 24.3789 92.29 24.5078C92.665 24.6309 92.9844 24.8301 93.248 25.1055C93.5176 25.3809 93.7227 25.7383 93.8633 26.1777C94.0039 26.6113 94.0742 27.1416 94.0742 27.7686V34H92.4395V27.751C92.4395 27.2529 92.3662 26.8545 92.2197 26.5557C92.0732 26.251 91.8594 26.0312 91.5781 25.8965C91.2969 25.7559 90.9512 25.6855 90.541 25.6855C90.1367 25.6855 89.7676 25.7705 89.4336 25.9404C89.1055 26.1104 88.8213 26.3447 88.5811 26.6436C88.3467 26.9424 88.1621 27.2852 88.0273 27.6719C87.8984 28.0527 87.834 28.457 87.834 28.8848ZM102.538 32.1543V20.5H104.173V34H102.679L102.538 32.1543ZM96.1396 29.3506V29.166C96.1396 28.4395 96.2275 27.7803 96.4033 27.1885C96.585 26.5908 96.8398 26.0781 97.168 25.6504C97.502 25.2227 97.8975 24.8945 98.3545 24.666C98.8174 24.4316 99.333 24.3145 99.9014 24.3145C100.499 24.3145 101.021 24.4199 101.466 24.6309C101.917 24.8359 102.298 25.1377 102.608 25.5361C102.925 25.9287 103.174 26.4033 103.355 26.96C103.537 27.5166 103.663 28.1465 103.733 28.8496V29.6582C103.669 30.3555 103.543 30.9824 103.355 31.5391C103.174 32.0957 102.925 32.5703 102.608 32.9629C102.298 33.3555 101.917 33.6572 101.466 33.8682C101.015 34.0732 100.487 34.1758 99.8838 34.1758C99.3271 34.1758 98.8174 34.0557 98.3545 33.8154C97.8975 33.5752 97.502 33.2383 97.168 32.8047C96.8398 32.3711 96.585 31.8613 96.4033 31.2754C96.2275 30.6836 96.1396 30.042 96.1396 29.3506ZM97.7744 29.166V29.3506C97.7744 29.8252 97.8213 30.2705 97.915 30.6865C98.0146 31.1025 98.167 31.4688 98.3721 31.7852C98.5771 32.1016 98.8379 32.3506 99.1543 32.5322C99.4707 32.708 99.8486 32.7959 100.288 32.7959C100.827 32.7959 101.27 32.6816 101.615 32.4531C101.967 32.2246 102.248 31.9229 102.459 31.5479C102.67 31.1729 102.834 30.7656 102.951 30.3262V28.208C102.881 27.8857 102.778 27.5752 102.644 27.2764C102.515 26.9717 102.345 26.7021 102.134 26.4678C101.929 26.2275 101.674 26.0371 101.369 25.8965C101.07 25.7559 100.716 25.6855 100.306 25.6855C99.8604 25.6855 99.4766 25.7793 99.1543 25.9668C98.8379 26.1484 98.5771 26.4004 98.3721 26.7227C98.167 27.0391 98.0146 27.4082 97.915 27.8301C97.8213 28.2461 97.7744 28.6914 97.7744 29.166ZM106.273 29.3506V29.1484C106.273 28.4629 106.373 27.8271 106.572 27.2412C106.771 26.6494 107.059 26.1367 107.434 25.7031C107.809 25.2637 108.263 24.9238 108.796 24.6836C109.329 24.4375 109.927 24.3145 110.589 24.3145C111.257 24.3145 111.857 24.4375 112.391 24.6836C112.93 24.9238 113.387 25.2637 113.762 25.7031C114.143 26.1367 114.433 26.6494 114.632 27.2412C114.831 27.8271 114.931 28.4629 114.931 29.1484V29.3506C114.931 30.0361 114.831 30.6719 114.632 31.2578C114.433 31.8438 114.143 32.3564 113.762 32.7959C113.387 33.2295 112.933 33.5693 112.399 33.8154C111.872 34.0557 111.274 34.1758 110.606 34.1758C109.938 34.1758 109.338 34.0557 108.805 33.8154C108.271 33.5693 107.814 33.2295 107.434 32.7959C107.059 32.3564 106.771 31.8438 106.572 31.2578C106.373 30.6719 106.273 30.0361 106.273 29.3506ZM107.899 29.1484V29.3506C107.899 29.8252 107.955 30.2734 108.066 30.6953C108.178 31.1113 108.345 31.4805 108.567 31.8027C108.796 32.125 109.08 32.3799 109.42 32.5674C109.76 32.749 110.155 32.8398 110.606 32.8398C111.052 32.8398 111.441 32.749 111.775 32.5674C112.115 32.3799 112.396 32.125 112.619 31.8027C112.842 31.4805 113.009 31.1113 113.12 30.6953C113.237 30.2734 113.296 29.8252 113.296 29.3506V29.1484C113.296 28.6797 113.237 28.2373 113.12 27.8213C113.009 27.3994 112.839 27.0273 112.61 26.7051C112.388 26.377 112.106 26.1191 111.767 25.9316C111.433 25.7441 111.04 25.6504 110.589 25.6504C110.144 25.6504 109.751 25.7441 109.411 25.9316C109.077 26.1191 108.796 26.377 108.567 26.7051C108.345 27.0273 108.178 27.3994 108.066 27.8213C107.955 28.2373 107.899 28.6797 107.899 29.1484ZM119.378 32.3125L121.821 24.4902H122.894L122.683 26.0459L120.195 34H119.149L119.378 32.3125ZM117.734 24.4902L119.817 32.4004L119.967 34H118.868L116.108 24.4902H117.734ZM125.231 32.3389L127.218 24.4902H128.835L126.075 34H124.985L125.231 32.3389ZM123.131 24.4902L125.521 32.1807L125.794 34H124.757L122.199 26.0283L121.988 24.4902H123.131ZM136.042 31.4775C136.042 31.2432 135.989 31.0264 135.884 30.8271C135.784 30.6221 135.576 30.4375 135.26 30.2734C134.949 30.1035 134.48 29.957 133.854 29.834C133.326 29.7227 132.849 29.5908 132.421 29.4385C131.999 29.2861 131.639 29.1016 131.34 28.8848C131.047 28.668 130.821 28.4131 130.663 28.1201C130.505 27.8271 130.426 27.4844 130.426 27.0918C130.426 26.7168 130.508 26.3623 130.672 26.0283C130.842 25.6943 131.079 25.3984 131.384 25.1406C131.694 24.8828 132.066 24.6807 132.5 24.5342C132.934 24.3877 133.417 24.3145 133.95 24.3145C134.712 24.3145 135.362 24.4492 135.901 24.7188C136.44 24.9883 136.854 25.3486 137.141 25.7998C137.428 26.2451 137.571 26.7402 137.571 27.2852H135.945C135.945 27.0215 135.866 26.7666 135.708 26.5205C135.556 26.2686 135.33 26.0605 135.031 25.8965C134.738 25.7324 134.378 25.6504 133.95 25.6504C133.499 25.6504 133.133 25.7207 132.852 25.8613C132.576 25.9961 132.374 26.1689 132.245 26.3799C132.122 26.5908 132.061 26.8135 132.061 27.0479C132.061 27.2236 132.09 27.3818 132.148 27.5225C132.213 27.6572 132.324 27.7832 132.482 27.9004C132.641 28.0117 132.863 28.1172 133.15 28.2168C133.438 28.3164 133.804 28.416 134.249 28.5156C135.028 28.6914 135.67 28.9023 136.174 29.1484C136.678 29.3945 137.053 29.6963 137.299 30.0537C137.545 30.4111 137.668 30.8447 137.668 31.3545C137.668 31.7705 137.58 32.1514 137.404 32.4971C137.234 32.8428 136.985 33.1416 136.657 33.3936C136.335 33.6396 135.948 33.833 135.497 33.9736C135.052 34.1084 134.551 34.1758 133.994 34.1758C133.156 34.1758 132.447 34.0264 131.867 33.7275C131.287 33.4287 130.848 33.042 130.549 32.5674C130.25 32.0928 130.101 31.5918 130.101 31.0645H131.735C131.759 31.5098 131.888 31.8643 132.122 32.1279C132.356 32.3857 132.644 32.5703 132.983 32.6816C133.323 32.7871 133.66 32.8398 133.994 32.8398C134.439 32.8398 134.812 32.7812 135.11 32.6641C135.415 32.5469 135.646 32.3857 135.805 32.1807C135.963 31.9756 136.042 31.7412 136.042 31.4775Z" fill="white"/>
<g clip-path="url(#clip0_11537_118277)">
<path d="M23 17.5098L35.9771 15.7425L35.9828 28.2599L23.0119 28.3338L23 17.5098ZM35.9709 29.7022L35.981 42.2305L23.0101 40.4472L23.0093 29.6181L35.9709 29.7022ZM37.544 15.5113L54.7506 13V28.1007L37.544 28.2373V15.5113ZM54.7546 29.82L54.7505 44.8527L37.544 42.4242L37.5199 29.7919L54.7546 29.82Z" fill="white"/>
</g>
<defs>
<clipPath id="clip0_11537_118277">
<rect width="32" height="32" fill="white" transform="translate(23 13)"/>
</clipPath>
</defs>
</svg>
