<svg width="54" height="52" viewBox="0 0 54 52" fill="none" xmlns="http://www.w3.org/2000/svg">
<path d="M20.6221 0.51416H5.9651C2.71461 0.51416 0.0605469 3.15331 0.0605469 6.4187V34.8828C0.0605469 38.1333 2.6997 40.7872 5.9651 40.7872H17.5207C18.5048 40.7872 19.2951 39.9972 19.2951 39.0131C19.2951 38.0289 18.5048 37.2385 17.5207 37.2385H5.9651C4.66789 37.2385 3.60925 36.18 3.60925 34.8828V6.4187C3.60925 5.1215 4.66789 4.06285 5.9651 4.06285H20.6221C21.6062 4.06285 22.3965 3.2726 22.3965 2.28851C22.3965 1.30442 21.6062 0.51416 20.6221 0.51416ZM47.4312 0.51416H31.134C30.1499 0.51416 29.3596 1.30442 29.3596 2.28851C29.3596 3.2726 30.1499 4.06285 31.134 4.06285H47.4312C48.7283 4.06285 49.7869 5.1215 49.7869 6.4187V34.8977C49.7869 36.1949 48.7283 37.2535 47.4312 37.2535H31.8646C31.2533 37.2535 30.7016 37.5668 30.3736 38.0736L23.2016 49.2715C22.6797 50.0915 22.9183 51.1948 23.7384 51.7169C24.0366 51.9107 24.3646 52.0002 24.6927 52.0002C25.2742 52.0002 25.8557 51.7169 26.1837 51.1801L32.8189 40.8022H47.4312C50.6817 40.8022 53.3356 38.163 53.3356 34.8977V6.4187C53.3356 3.15331 50.6967 0.51416 47.4312 0.51416Z" fill="#2173B8"/>
<path d="M38.053 23.5361C39.6187 23.5361 40.8861 22.2687 40.8861 20.7031C40.8861 19.1375 39.6187 17.8701 38.053 17.8701C36.4875 17.8701 35.2201 19.1375 35.2201 20.7031C35.2052 22.2687 36.4875 23.5361 38.053 23.5361ZM29.5094 21.1653C29.7629 19.6146 28.7043 18.1683 27.1685 17.9149C25.6178 17.6614 24.1714 18.72 23.918 20.2558C23.6645 21.8065 24.7232 23.2528 26.2589 23.5063C27.7947 23.7597 29.2559 22.7011 29.5094 21.1653ZM15.3594 23.5361C16.925 23.5361 18.1923 22.2687 18.1923 20.7031C18.1923 19.1375 16.925 17.8701 15.3594 17.8701C13.7937 17.8701 12.5264 19.1375 12.5264 20.7031C12.5264 22.2687 13.7937 23.5361 15.3594 23.5361Z" fill="#F04845"/>
</svg>
