<svg width="90" height="90" viewBox="0 0 90 90" fill="none" xmlns="http://www.w3.org/2000/svg">
<g filter="url(#filter0_d_10470_90912)">
<circle cx="45" cy="45" r="25" fill="white"/>
</g>
<g clip-path="url(#clip0_10470_90912)">
<path fill-rule="evenodd" clip-rule="evenodd" d="M42.5006 45C45.2631 45 47.5006 42.7625 47.5006 40C47.5006 37.2375 45.2631 35 42.5006 35C39.7381 35 37.5006 37.2375 37.5006 40C37.5006 42.7625 39.7381 45 42.5006 45ZM42.5006 37.5C43.8756 37.5 45.0006 38.625 45.0006 40C45.0006 41.375 43.8756 42.5 42.5006 42.5C41.1256 42.5 40.0006 41.375 40.0006 40C40.0006 38.625 41.1256 37.5 42.5006 37.5ZM35 52.5V51.6875C35 51.2625 35.2 50.8625 35.5125 50.675C37.625 49.4125 40.0375 48.75 42.5 48.75C42.5375 48.75 42.5625 48.75 42.6 48.7625C42.725 47.8875 42.975 47.05 43.3375 46.2875C43.0625 46.2625 42.7875 46.25 42.5 46.25C39.475 46.25 36.65 47.0875 34.2375 48.525C33.1375 49.175 32.5 50.4 32.5 51.6875V55H44.075C43.55 54.25 43.1375 53.4 42.8625 52.5H35ZM52.4961 43.75V48.7539H57.5V51.2461H52.4961V56.25H50.0039V51.2461H45V48.7539L50.0039 48.7539V43.75H52.4961Z" fill="url(#paint0_linear_10470_90912)"/>
</g>
<defs>
<filter id="filter0_d_10470_90912" x="0" y="0" width="90" height="90" filterUnits="userSpaceOnUse" color-interpolation-filters="sRGB">
<feFlood flood-opacity="0" result="BackgroundImageFix"/>
<feColorMatrix in="SourceAlpha" type="matrix" values="0 0 0 0 0 0 0 0 0 0 0 0 0 0 0 0 0 0 127 0" result="hardAlpha"/>
<feOffset/>
<feGaussianBlur stdDeviation="10"/>
<feComposite in2="hardAlpha" operator="out"/>
<feColorMatrix type="matrix" values="0 0 0 0 0.603922 0 0 0 0 0.403922 0 0 0 0 0.917647 0 0 0 0.2 0"/>
<feBlend mode="normal" in2="BackgroundImageFix" result="effect1_dropShadow_10470_90912"/>
<feBlend mode="normal" in="SourceGraphic" in2="effect1_dropShadow_10470_90912" result="shape"/>
</filter>
<linearGradient id="paint0_linear_10470_90912" x1="46.2522" y1="47.9591" x2="47.1114" y2="37.0609" gradientUnits="userSpaceOnUse">
<stop stop-color="#FBA036"/>
<stop offset="1" stop-color="#985FFD"/>
</linearGradient>
<clipPath id="clip0_10470_90912">
<rect width="30" height="30" fill="white" transform="translate(30 30)"/>
</clipPath>
</defs>
</svg>
