<svg width="14" height="9" viewBox="0 0 14 9" fill="none" xmlns="http://www.w3.org/2000/svg">
<g clip-path="url(#clip0_6205_2759)">
<path d="M0 0H14V9H0V0Z" fill="white"/>
<path d="M0 0H14V0.692105H0V0ZM0 1.38421H14V2.07632H0V1.38421ZM0 2.76842H14V3.46053H0V2.76842ZM0 4.15263H14V4.84474H0V4.15263ZM0 5.53947H14V6.23158H0V5.53947ZM0 6.92368H14V7.61579H0V6.92368ZM0 8.3079H14V9H0V8.3079Z" fill="#D80027"/>
<path d="M0 0H7V4.84474H0V0Z" fill="#2E52B2"/>
<path d="M1.30432 3.65517L1.19516 3.31832L1.07508 3.65517H0.714844L1.00685 3.8578L0.89769 4.19464L1.19516 3.98674L1.48443 4.19464L1.37254 3.8578L1.67001 3.65517H1.30432ZM2.84077 3.65517L2.72888 3.31832L2.61426 3.65517H2.25402L2.54603 3.8578L2.43687 4.19464L2.72888 3.98674L3.02362 4.19464L2.91445 3.8578L3.20646 3.65517H2.84077ZM4.38268 3.65517L4.26533 3.31832L4.15617 3.65517H3.78775L4.08794 3.8578L3.97332 4.19464L4.26533 3.98674L4.56553 4.19464L4.45091 3.8578L4.74291 3.65517H4.38268ZM5.9164 3.65517L5.80724 3.31832L5.69262 3.65517H5.32966L5.6244 3.8578L5.51523 4.19464L5.80724 3.98674L6.10198 4.19464L5.98463 3.8578L6.28482 3.65517H5.9164ZM2.72888 1.98148L2.61426 2.31832H2.25402L2.54603 2.52622L2.43687 2.8578L2.72888 2.65253L3.02362 2.8578L2.91445 2.52622L3.20646 2.31832H2.84077L2.72888 1.98148ZM1.19516 1.98148L1.07508 2.31832H0.714844L1.00685 2.52622L0.89769 2.8578L1.19516 2.65253L1.48443 2.8578L1.37254 2.52622L1.67001 2.31832H1.30432L1.19516 1.98148ZM4.26533 1.98148L4.15617 2.31832H3.78775L4.08794 2.52622L3.97332 2.8578L4.26533 2.65253L4.56553 2.8578L4.45091 2.52622L4.74291 2.31832H4.38268L4.26533 1.98148ZM5.80724 1.98148L5.69262 2.31832H5.32966L5.6244 2.52622L5.51523 2.8578L5.80724 2.65253L6.10198 2.8578L5.98463 2.52622L6.28482 2.31832H5.9164L5.80724 1.98148ZM1.19516 0.649902L1.07508 0.981481H0.714844L1.00685 1.18938L0.89769 1.52359L1.19516 1.31569L1.48443 1.52359L1.37254 1.18938L1.67001 0.981481H1.30432L1.19516 0.649902ZM2.72888 0.649902L2.61426 0.981481H2.25402L2.54603 1.18938L2.43687 1.52359L2.72888 1.31569L3.02362 1.52359L2.91445 1.18938L3.20646 0.981481H2.84077L2.72888 0.649902ZM4.26533 0.649902L4.15617 0.981481H3.78775L4.08794 1.18938L3.97332 1.52359L4.26533 1.31569L4.56553 1.52359L4.45091 1.18938L4.74291 0.981481H4.38268L4.26533 0.649902ZM5.80724 0.649902L5.69262 0.981481H5.32966L5.6244 1.18938L5.51523 1.52359L5.80724 1.31569L6.10198 1.52359L5.98463 1.18938L6.28482 0.981481H5.9164L5.80724 0.649902Z" fill="white"/>
</g>
<defs>
<clipPath id="clip0_6205_2759">
<rect width="14" height="9" rx="1" fill="white"/>
</clipPath>
</defs>
</svg>
