<svg width="42" height="32" viewBox="0 0 42 32" fill="none" xmlns="http://www.w3.org/2000/svg">
<path d="M34.9699 2.8503C32.337 1.64222 29.5136 0.75215 26.5616 0.242373C26.5078 0.232534 26.4541 0.257121 26.4264 0.306297C26.0633 0.952121 25.6611 1.79465 25.3794 2.45688C22.2043 1.98153 19.0455 1.98153 15.9355 2.45688C15.6538 1.77993 15.237 0.952121 14.8723 0.306297C14.8446 0.258762 14.7909 0.234175 14.7371 0.242373C11.7867 0.750521 8.96332 1.64059 6.32879 2.8503C6.30598 2.86014 6.28643 2.87654 6.27346 2.89784C0.91808 10.8987 -0.548981 18.7028 0.17071 26.4102C0.173966 26.4479 0.195134 26.484 0.224443 26.5069C3.75777 29.1017 7.18039 30.677 10.5395 31.7211C10.5932 31.7375 10.6502 31.7179 10.6844 31.6736C11.479 30.5885 12.1873 29.4443 12.7946 28.2411C12.8304 28.1707 12.7962 28.0871 12.723 28.0592C11.5995 27.633 10.5297 27.1134 9.50063 26.5233C9.41923 26.4758 9.41271 26.3594 9.48759 26.3036C9.70415 26.1414 9.92076 25.9725 10.1275 25.802C10.1649 25.7709 10.2171 25.7643 10.2611 25.784C17.0216 28.8706 24.3406 28.8706 31.0213 25.784C31.0653 25.7627 31.1174 25.7693 31.1565 25.8004C31.3633 25.9709 31.5799 26.1414 31.7981 26.3036C31.8729 26.3594 31.868 26.4758 31.7867 26.5233C30.7576 27.1249 29.6878 27.633 28.5627 28.0576C28.4894 28.0855 28.4568 28.1707 28.4927 28.2411C29.113 29.4427 29.8213 30.5868 30.6013 31.672C30.6338 31.7179 30.6924 31.7375 30.7462 31.7211C34.1215 30.677 37.5442 29.1017 41.0775 26.5069C41.1084 26.484 41.128 26.4496 41.1312 26.4118C41.9926 17.5012 39.6886 9.76108 35.0236 2.89947C35.0122 2.87654 34.9927 2.86014 34.9699 2.8503ZM13.8042 21.7172C11.7688 21.7172 10.0917 19.8486 10.0917 17.5537C10.0917 15.2589 11.7363 13.3902 13.8042 13.3902C15.8883 13.3902 17.5492 15.2753 17.5166 17.5537C17.5166 19.8486 15.872 21.7172 13.8042 21.7172ZM27.5304 21.7172C25.495 21.7172 23.818 19.8486 23.818 17.5537C23.818 15.2589 25.4625 13.3902 27.5304 13.3902C29.6145 13.3902 31.2754 15.2753 31.2428 17.5537C31.2428 19.8486 29.6145 21.7172 27.5304 21.7172Z" fill="#5865F2"/>
</svg>
