<svg width="1137" height="300" viewBox="0 0 1137 300" fill="none" xmlns="http://www.w3.org/2000/svg">
<path d="M235 0H65C29.1015 0 0 29.1015 0 65V235C0 270.899 29.1015 300 65 300H235C270.899 300 300 270.899 300 235V65C300 29.1015 270.899 0 235 0Z" fill="#673AB7"/>
<path d="M63 227C63 220.925 67.9249 216 74 216H140C146.075 216 151 220.925 151 227C151 233.075 146.075 238 140 238H74C67.9249 238 63 233.075 63 227Z" fill="white"/>
<path fill-rule="evenodd" clip-rule="evenodd" d="M117.738 63C87.5068 63 63 87.4005 63 117.5V150.2C63 162.24 72.8028 172 84.8951 172H183.262C213.493 172 238 147.6 238 117.5C238 87.4005 213.493 63 183.262 63H117.738ZM117.657 84.7757C99.5181 84.7757 84.814 99.416 84.814 117.476V139.276C84.814 145.296 89.7154 150.176 95.7615 150.176H183.221C201.36 150.176 216.064 135.535 216.064 117.476C216.064 99.416 201.36 84.7757 183.221 84.7757H117.657Z" fill="white"/>
<path d="M379.447 95.2597V109.523C388.048 99.5612 401.403 93.2221 417.022 93.2221C446.674 93.2221 472.026 116.767 472.026 151.858C472.026 187.176 446.448 210.721 417.022 210.721C403.214 210.721 390.764 205.288 382.163 196.685V256H355V95.2597H379.447ZM379.447 157.292C381.484 175.856 396.65 187.629 413.853 187.629C431.961 187.629 447.353 172.687 447.353 152.085C447.353 131.03 431.961 116.088 413.853 116.088C396.65 116.088 381.484 128.313 379.447 146.651V157.292Z" fill="black"/>
<path d="M531.227 210.947C507.913 210.947 489.804 199.401 489.804 168.385V95.2597H516.967V162.952C516.967 182.874 525.342 188.761 538.697 188.761C554.769 188.761 568.124 179.026 568.124 156.16V95.2597H595.286V208.457H569.934L569.708 193.515C562.691 205.74 550.015 210.947 531.227 210.947Z" fill="black"/>
<path d="M764.872 92.9957C786.828 92.9957 806.295 106.353 806.068 134.652L805.842 208.457H778.906V139.633C778.906 121.748 769.625 114.956 757.175 114.956C742.236 114.956 729.786 126.049 729.786 147.104V208.457H702.624V139.633C702.624 121.748 693.343 114.956 680.893 114.956C667.991 114.956 653.504 124.465 653.504 148.236V208.457H626.341V95.2597H650.335L651.467 114.73C659.389 100.014 673.197 92.9957 688.589 92.9957C704.887 92.9957 719.6 100.24 726.165 115.635C733.634 100.467 749.479 92.9957 764.872 92.9957Z" fill="black"/>
<path d="M833.355 45H860.518V106.806C869.119 98.4292 881.343 93.2221 894.924 93.2221C924.35 93.2221 949.929 116.767 949.929 152.085C949.929 187.176 924.577 210.721 894.924 210.721C879.079 210.721 865.724 204.382 857.122 194.194V208.457H833.355V45ZM857.122 152.99C857.122 173.819 873.194 187.855 891.755 187.855C909.864 187.855 925.256 172.913 925.256 151.858C925.256 131.256 909.864 116.314 891.755 116.314C873.194 116.314 857.122 129.898 857.122 150.953V152.99Z" fill="black"/>
<path d="M972.212 45H999.375V208.457H972.212V45Z" fill="black"/>
<path d="M1082.9 210.721C1045.55 210.721 1022.92 187.176 1022.92 151.858C1022.92 119.484 1043.97 92.9957 1081.32 92.9957C1115.95 92.9957 1137 115.635 1137 149.821C1137 153.67 1136.55 159.103 1136.09 162.046H1050.08C1053.7 180.384 1067.28 189.893 1082.9 189.893C1096.48 189.893 1108.93 184.459 1112.33 174.951L1134.51 183.78C1126.81 201.212 1107.57 210.721 1082.9 210.721ZM1050.08 142.35H1111.65C1108.93 124.691 1096.93 113.824 1081.09 113.824C1064.57 113.824 1053.02 124.465 1050.08 142.35Z" fill="black"/>
</svg>
