<svg width="35" height="32" viewBox="0 0 35 32" fill="none" xmlns="http://www.w3.org/2000/svg">
<g clip-path="url(#clip0_12524_143106)">
<path d="M23.9936 12H32.8792C33.7187 12 34.3992 12.6805 34.3992 13.52V21.6136C34.3992 24.6989 31.8981 27.2 28.8128 27.2H28.7864C25.7011 27.2004 23.1997 24.6997 23.1992 21.6144C23.1992 21.6141 23.1992 21.6139 23.1992 21.6136V12.7944C23.1992 12.3557 23.5549 12 23.9936 12Z" fill="#5059C9"/>
<path d="M29.9994 10.3992C31.9876 10.3992 33.5994 8.78744 33.5994 6.79922C33.5994 4.81099 31.9876 3.19922 29.9994 3.19922C28.0112 3.19922 26.3994 4.81099 26.3994 6.79922C26.3994 8.78744 28.0112 10.3992 29.9994 10.3992Z" fill="#5059C9"/>
<path d="M18.7996 10.4C21.6715 10.4 23.9996 8.07189 23.9996 5.20001C23.9996 2.32812 21.6715 0 18.7996 0C15.9277 0 13.5996 2.32812 13.5996 5.20001C13.5996 8.07189 15.9277 10.4 18.7996 10.4Z" fill="#7B83EB"/>
<path d="M25.7337 12H11.0665C10.2371 12.0205 9.5809 12.7089 9.60015 13.5384V22.7696C9.48431 27.7474 13.4225 31.8782 18.4002 32C23.3778 31.8782 27.316 27.7474 27.2002 22.7696V13.5384C27.2194 12.7089 26.5632 12.0205 25.7337 12Z" fill="#7B83EB"/>
<path opacity="0.1" d="M19.1991 12V24.936C19.1951 25.5292 18.8356 26.0621 18.2871 26.288C18.1124 26.3619 17.9247 26.4 17.7351 26.4H10.3031C10.1991 26.136 10.1031 25.872 10.0231 25.6C9.74301 24.682 9.60013 23.7277 9.59905 22.768V13.536C9.57981 12.7078 10.2349 12.0205 11.063 12H19.1991Z" fill="black"/>
<path opacity="0.2" d="M18.3991 12V25.736C18.399 25.9256 18.3609 26.1133 18.2871 26.288C18.0612 26.8365 17.5283 27.196 16.9351 27.2H10.6791C10.5431 26.936 10.4151 26.672 10.3031 26.4C10.1911 26.128 10.1031 25.872 10.0231 25.6C9.74301 24.682 9.60013 23.7277 9.59905 22.768V13.536C9.57981 12.7078 10.2349 12.0205 11.063 12H18.3991Z" fill="black"/>
<path opacity="0.2" d="M18.3991 12V24.136C18.393 24.942 17.7411 25.5939 16.9351 25.6H10.0231C9.74301 24.6821 9.60013 23.7277 9.59905 22.768V13.536C9.57981 12.7078 10.2349 12.0205 11.063 12H18.3991Z" fill="black"/>
<path opacity="0.2" d="M17.599 12V24.136C17.5929 24.942 16.9411 25.5939 16.135 25.6H10.0231C9.74301 24.6821 9.60013 23.7277 9.59905 22.768V13.536C9.57981 12.7078 10.2349 12.0205 11.063 12H17.599Z" fill="black"/>
<path opacity="0.1" d="M19.1982 7.86242V10.3824C19.0622 10.3904 18.9342 10.3984 18.7982 10.3984C18.6622 10.3984 18.5342 10.3904 18.3982 10.3824C18.1282 10.3645 17.8603 10.3217 17.5982 10.2544C15.9782 9.87078 14.6398 8.73465 13.9982 7.19843C13.8878 6.94045 13.8021 6.67258 13.7422 6.39844H17.7342C18.5415 6.40149 19.1951 7.05514 19.1982 7.86242Z" fill="black"/>
<path opacity="0.2" d="M18.399 8.6632V10.3832C18.129 10.3653 17.8612 10.3224 17.599 10.2552C15.979 9.87157 14.6406 8.73544 13.999 7.19922H16.935C17.7423 7.20227 18.3959 7.85594 18.399 8.6632Z" fill="black"/>
<path opacity="0.2" d="M18.399 8.6632V10.3832C18.129 10.3653 17.8612 10.3224 17.599 10.2552C15.979 9.87157 14.6406 8.73544 13.999 7.19922H16.935C17.7423 7.20227 18.3959 7.85594 18.399 8.6632Z" fill="black"/>
<path opacity="0.2" d="M17.599 8.66322V10.2552C15.979 9.87157 14.6406 8.73544 13.999 7.19922H16.135C16.9423 7.20229 17.596 7.85595 17.599 8.66322Z" fill="black"/>
<path d="M1.46639 7.19922H16.1336C16.9435 7.19922 17.6 7.85575 17.6 8.66561V23.3328C17.6 24.1427 16.9434 24.7992 16.1336 24.7992H1.46639C0.65652 24.7992 0 24.1427 0 23.3328V8.66561C0 7.85575 0.656535 7.19922 1.46639 7.19922Z" fill="url(#paint0_linear_12524_143106)"/>
<path d="M12.6588 12.7812H9.72682V20.7652H7.85883V12.7812H4.94043V11.2324H12.6588V12.7812Z" fill="white"/>
</g>
<defs>
<linearGradient id="paint0_linear_12524_143106" x1="3.05748" y1="6.0534" x2="14.5425" y2="25.945" gradientUnits="userSpaceOnUse">
<stop stop-color="#5A62C3"/>
<stop offset="0.5" stop-color="#4D55BD"/>
<stop offset="1" stop-color="#3940AB"/>
</linearGradient>
<clipPath id="clip0_12524_143106">
<rect width="34.4" height="32" fill="white"/>
</clipPath>
</defs>
</svg>
