<svg width="32" height="32" viewBox="0 0 32 32" fill="none" xmlns="http://www.w3.org/2000/svg">
<path d="M31.0216 27.6415C30.0754 26.9463 28.8976 26.0002 28.7817 24.3396C28.7238 23.4514 28.9748 22.4569 29.2258 21.7329C29.3803 21.3949 29.5155 21.0474 29.641 20.6998V20.6902C32.3539 13.0341 28.3473 4.62494 20.6815 1.912C13.0158 -0.800936 4.62597 3.21537 1.91303 10.8715C-0.799907 18.5275 3.20673 26.9367 10.8725 29.6496C15.1012 31.1461 19.7836 30.6344 23.5876 28.2497C23.9737 28.0663 24.302 27.9601 24.4854 28.0373C26.4357 28.8579 28.5693 29.109 30.6547 28.7421C31.0216 28.6842 31.9581 28.3366 31.0216 27.6415Z" fill="#0ABE51"/>
<path d="M11.4418 9.10352H21.3281C22.2453 9.10352 22.9887 9.84692 22.9887 10.7641V10.8317C22.9887 11.7489 22.2453 12.4923 21.3281 12.4923H11.4418C10.5247 12.4923 9.78125 11.7489 9.78125 10.8317V10.7641C9.78125 9.84692 10.5247 9.10352 11.4418 9.10352Z" fill="white"/>
<path d="M11.4418 14.1367H17.6884C18.6055 14.1367 19.3489 14.8801 19.3489 15.7973V15.8745C19.3489 16.7917 18.6055 17.5351 17.6884 17.5351H11.4418C10.5247 17.5351 9.78125 16.7917 9.78125 15.8745V15.7973C9.78125 14.8801 10.5247 14.1367 11.4418 14.1367Z" fill="white"/>
<path d="M11.4418 19.0781H12.5714C13.4886 19.0781 14.232 19.8215 14.232 20.7387V20.8063C14.232 21.7235 13.4886 22.4669 12.5714 22.4669H11.4418C10.5247 22.4669 9.78125 21.7235 9.78125 20.8063V20.7387C9.78125 19.8215 10.5247 19.0781 11.4418 19.0781Z" fill="white"/>
</svg>
