<svg width="32" height="32" viewBox="0 0 32 32" fill="none" xmlns="http://www.w3.org/2000/svg">
<path fill-rule="evenodd" clip-rule="evenodd" d="M11.1409 24.953C11.12 24.6209 10.8585 24.353 10.5253 24.3236C10.277 24.3015 10.0255 24.2778 9.77051 24.2529C8.71725 24.1492 7.88815 23.3217 7.78363 22.2737C7.34238 17.8459 7.34303 14.1329 7.7862 9.70251C7.88911 8.67051 8.70921 7.85195 9.74639 7.74955C12.0488 7.52203 14.0755 7.42027 16.0795 7.42027C18.0831 7.42027 20.1095 7.52203 22.4112 7.74923C23.4484 7.85163 24.2711 8.66763 24.3743 9.69995C24.4084 10.0436 24.4402 10.3828 24.4692 10.7182C24.574 11.9374 25.5971 12.8689 26.8266 12.8689H28.6575C29.5544 12.8689 30.4096 12.4926 31.0139 11.8327C31.6178 11.1732 31.9179 10.29 31.834 9.40139C31.7561 8.57675 31.6642 7.73227 31.5583 6.86059C31.1599 3.57996 28.5542 0.994679 25.2571 0.598199C18.615 -0.19988 13.5336 -0.19924 6.89503 0.599159C3.59793 0.995959 0.99935 3.58828 0.601202 6.86891C-0.200883 13.4779 -0.20024 18.5339 0.602167 25.1393C1.00064 28.4202 3.60597 31.0055 6.90339 31.4017C13.5455 32.2001 18.6269 32.1991 25.2655 31.4007C28.5626 31.0042 31.1612 28.4119 31.5593 25.131C31.6648 24.2625 31.7561 23.4206 31.8336 22.5985C31.9176 21.7092 31.6207 20.826 31.0161 20.1662C30.4115 19.506 29.5551 19.131 28.6575 19.131H26.8266C25.5993 19.131 24.574 20.0651 24.4692 21.2817C24.4402 21.6174 24.4084 21.9566 24.3743 22.3003C24.2708 23.3345 23.4503 24.1482 22.4109 24.2506C21.1 24.3802 19.8795 24.4679 18.7012 24.5201C18.2734 24.539 17.8673 24.6983 17.5411 24.9738C15.4366 26.7527 13.4278 28.073 12.3141 28.7604C12.1253 28.8769 11.8889 28.8862 11.6911 28.785C11.4937 28.6836 11.3637 28.4865 11.3499 28.2657L11.1409 24.953Z" fill="#3079ED"/>
</svg>
