<svg width="93" height="32" viewBox="0 0 93 32" fill="none" xmlns="http://www.w3.org/2000/svg">
<path d="M28.9297 22.6918L30.0501 20.0557C31.2779 20.9652 32.8741 21.4431 34.4702 21.4431C35.6367 21.4431 36.3887 20.9807 36.3887 20.287C36.358 18.3601 29.3287 19.8553 29.2673 14.9995C29.2366 12.5331 31.4314 10.6216 34.5163 10.6216C36.358 10.6216 38.1998 11.0841 39.5043 12.1169L38.4607 14.7991C37.2635 14.0284 35.7748 13.4888 34.3628 13.4888C33.3959 13.4888 32.7666 13.9513 32.7666 14.5371C32.7973 16.4486 39.888 15.4003 39.9648 20.0403C39.9648 22.5684 37.8314 24.3258 34.7926 24.3258C32.5518 24.3566 30.4952 23.8171 28.9297 22.6918ZM73.5151 19.1154C72.9319 20.1482 71.8575 20.7803 70.6911 20.7803C68.8954 20.7803 67.4374 19.3158 67.4374 17.5122C67.4374 15.7086 68.8954 14.2442 70.6911 14.2442C71.8575 14.2442 72.9472 14.8762 73.5151 15.909L76.6307 14.1671C75.4643 12.0706 73.2388 10.6524 70.6911 10.6524C66.9309 10.6524 63.8767 13.7201 63.8767 17.5122C63.8767 21.3044 66.9309 24.372 70.6911 24.372C73.2388 24.372 75.4643 22.9538 76.6307 20.8573L73.5151 19.1154ZM41.9907 24.0791H45.889V4.93338H41.9907V24.0791ZM78.5952 4.93338V24.0791H82.4936V18.3447L87.1132 24.0791H92.0859L86.2231 17.2656L91.6562 10.8991H86.8984L82.4936 16.1865V4.91797H78.5952V4.93338ZM57.8757 10.9145V12.4714C57.2311 11.3924 55.6656 10.6524 54.008 10.6524C50.6008 10.6524 47.8996 13.6892 47.8996 17.4968C47.8996 21.3044 50.5855 24.372 54.008 24.372C55.6656 24.372 57.2311 23.6167 57.8757 22.553V24.11H61.774V10.9299H57.8757V10.9145ZM57.8757 19.1308C57.3231 20.0712 56.1414 20.7648 54.8368 20.7648C53.0411 20.7648 51.5831 19.3004 51.5831 17.4968C51.5831 15.6932 53.0411 14.2288 54.8368 14.2288C56.1414 14.2288 57.3231 14.9533 57.8757 15.9245V19.1308Z" fill="black"/>
<path d="M8.36456 4.51562C7.10604 4.51562 6.07773 5.54845 6.07773 6.8125C6.07773 8.07655 7.10604 9.10937 8.36456 9.10937H10.6514V6.8125C10.6514 5.54845 9.63843 4.51562 8.36456 4.51562ZM8.36456 10.6355H2.28682C1.0283 10.6355 0 11.6683 0 12.9324C0 14.1964 1.0283 15.2292 2.28682 15.2292H8.37991C9.63843 15.2292 10.6667 14.1964 10.6667 12.9324C10.6514 11.6683 9.63843 10.6355 8.36456 10.6355Z" fill="#36C5F0"/>
<path d="M22.8367 12.9321C22.8367 11.6681 21.8083 10.6353 20.5498 10.6353C19.2913 10.6353 18.263 11.6681 18.263 12.9321V15.229H20.5498C21.8083 15.2444 22.8367 14.2116 22.8367 12.9321ZM16.7436 12.9321V6.79687C16.7436 5.53282 15.7153 4.5 14.4567 4.5C13.1982 4.5 12.1699 5.53282 12.1699 6.79687V12.9321C12.1699 14.1962 13.1982 15.229 14.4567 15.229C15.7306 15.2444 16.7436 14.2116 16.7436 12.9321Z" fill="#2EB67D"/>
<path d="M14.4567 27.4985C15.7153 27.4985 16.7436 26.4657 16.7436 25.2017C16.7436 23.9376 15.7153 22.9048 14.4567 22.9048H12.1699V25.2017C12.1699 26.4657 13.1982 27.4985 14.4567 27.4985ZM14.4567 21.3633H20.5498C21.8083 21.3633 22.8367 20.3305 22.8367 19.0664C22.8367 17.8024 21.8083 16.7695 20.5498 16.7695H14.4567C13.1982 16.7695 12.1699 17.8024 12.1699 19.0664C12.1699 20.3305 13.1982 21.3633 14.4567 21.3633Z" fill="#ECB22E"/>
<path d="M0 19.0664C0 20.3305 1.0283 21.3633 2.28682 21.3633C3.54534 21.3633 4.57365 20.3305 4.57365 19.0664V16.7695H2.28682C1.01296 16.7695 0 17.8024 0 19.0664ZM6.09308 19.0664V25.2017C6.09308 26.4657 7.12139 27.4985 8.37991 27.4985C9.63843 27.4985 10.6667 26.4657 10.6667 25.2017V19.0664C10.6667 17.8024 9.63843 16.7695 8.37991 16.7695C7.10604 16.7695 6.09308 17.8024 6.09308 19.0664Z" fill="#E01E5A"/>
</svg>
