<svg width="32" height="32" viewBox="0 0 32 32" fill="none" xmlns="http://www.w3.org/2000/svg">
<path d="M20.1487 2.85992H20.1189C20.089 2.88978 20.0592 2.88978 19.9994 2.9495C19.8203 3.12866 19.1932 3.96477 19.1932 3.96477L17.8196 5.66683L16.2071 7.60777L13.4599 11.0418C13.4599 11.0418 12.2058 12.6244 12.4745 14.5653C12.7433 16.5063 14.2065 17.4618 15.3113 17.8201C16.4161 18.2083 18.1481 18.3278 19.5515 16.9542C20.955 15.5806 20.8953 13.5501 20.8953 13.5501L20.7758 9.16053L20.6862 6.62237L20.6265 4.44253C20.6265 4.44253 20.6265 3.39741 20.5966 3.12867C20.5966 3.06895 20.5668 3.03908 20.5668 3.00922V2.97936C20.5369 2.91964 20.4772 2.85992 20.3876 2.83006C20.3578 2.83006 20.3279 2.8002 20.2682 2.8002C20.2383 2.83006 20.1786 2.83006 20.1487 2.85992ZM15.6696 1.48633C9.57805 1.54605 3.90453 5.42794 1.84414 11.5195C-0.753744 19.2534 3.36703 27.6443 11.0711 30.272C12.6238 30.8095 14.2065 31.0484 15.7891 31.0484H15.8189C21.9702 31.0484 27.6736 27.1665 29.7639 21.0152C31.8841 14.7445 29.5549 7.99596 24.4785 4.29323L24.6278 7.42861C27.166 10.2355 28.1813 14.207 26.8973 17.9694C25.016 23.5534 18.805 26.4797 13.012 24.5388C7.21905 22.568 4.05382 16.4465 5.9649 10.8626C7.21905 7.10014 10.444 4.56198 14.1766 3.87518L16.2071 1.48633C16.1175 1.48633 16.028 1.48633 15.9384 1.48633H15.6696Z" fill="#0058CC"/>
</svg>
