<svg width="251" height="61" viewBox="0 0 251 61" fill="none" xmlns="http://www.w3.org/2000/svg">
<g filter="url(#filter0_d_5545_172112)">
<rect x="12" y="12" width="226.706" height="36.8824" rx="8.29412" fill="white" shape-rendering="crispEdges"/>
<rect x="12.5" y="12.5" width="225.706" height="35.8824" rx="7.79412" stroke="#D0D0D0" shape-rendering="crispEdges"/>
<mask id="mask0_5545_172112" style="mask-type:alpha" maskUnits="userSpaceOnUse" x="20" y="18" width="24" height="25">
<path d="M20.2939 18.6914H43.7939V42.1914H20.2939V18.6914Z" fill="#D9D9D9"/>
</mask>
<g mask="url(#mask0_5545_172112)">
<circle cx="32.0439" cy="30.4414" r="11.75" fill="white"/>
<path d="M29.1064 35.7289L37.3314 30.4414L29.1064 25.1539V35.7289ZM32.0439 42.1914C30.4185 42.1914 28.891 41.883 27.4614 41.2661C26.0319 40.6492 24.7883 39.812 23.7308 38.7545C22.6733 37.697 21.8361 36.4535 21.2193 35.0239C20.6024 33.5943 20.2939 32.0668 20.2939 30.4414C20.2939 28.816 20.6024 27.2885 21.2193 25.8589C21.8361 24.4293 22.6733 23.1858 23.7308 22.1283C24.7883 21.0708 26.0319 20.2336 27.4614 19.6167C28.891 18.9998 30.4185 18.6914 32.0439 18.6914C33.6694 18.6914 35.1969 18.9998 36.6264 19.6167C38.056 20.2336 39.2996 21.0708 40.3571 22.1283C41.4146 23.1858 42.2518 24.4293 42.8686 25.8589C43.4855 27.2885 43.7939 28.816 43.7939 30.4414C43.7939 32.0668 43.4855 33.5943 42.8686 35.0239C42.2518 36.4535 41.4146 37.697 40.3571 38.7545C39.2996 39.812 38.056 40.6492 36.6264 41.2661C35.1969 41.883 33.6694 42.1914 32.0439 42.1914Z" fill="#673AB7"/>
</g>
<rect x="52.0879" y="25.6035" width="2.07353" height="9.67647" rx="1.03676" fill="#D0D0D0"/>
<rect x="58.0059" y="26.2939" width="2.07353" height="8.29412" rx="1.03676" fill="#D0D0D0"/>
<rect x="63.9248" y="24.9121" width="2.07353" height="11.0588" rx="1.03676" fill="#D0D0D0"/>
<rect x="69.8428" y="25.6035" width="2.07353" height="9.67647" rx="1.03676" fill="#D0D0D0"/>
<rect x="75.7607" y="26.2939" width="2.07353" height="8.29412" rx="1.03676" fill="#D0D0D0"/>
<rect x="81.6787" y="26.9854" width="2.07353" height="6.91177" rx="1.03676" fill="#D0D0D0"/>
<rect x="87.5977" y="26.9854" width="2.07353" height="6.91177" rx="1.03676" fill="#D0D0D0"/>
<rect x="93.5156" y="27.6768" width="2.07353" height="5.52941" rx="1.03676" fill="#D0D0D0"/>
<rect x="99.4336" y="26.2939" width="2.07353" height="8.29412" rx="1.03676" fill="#D0D0D0"/>
<rect x="105.352" y="25.6035" width="2.07353" height="9.67647" rx="1.03676" fill="#D0D0D0"/>
<rect x="111.271" y="24.9121" width="2.07353" height="11.0588" rx="1.03676" fill="#D0D0D0"/>
<rect x="117.188" y="24.2207" width="2.07353" height="12.4412" rx="1.03676" fill="#D0D0D0"/>
<rect x="123.106" y="24.9121" width="2.07353" height="11.0588" rx="1.03676" fill="#D0D0D0"/>
<rect x="129.025" y="25.6035" width="2.07353" height="9.67647" rx="1.03676" fill="#D0D0D0"/>
<rect x="134.943" y="24.9121" width="2.07353" height="11.0588" rx="1.03676" fill="#D0D0D0"/>
<rect x="140.861" y="24.2207" width="2.07353" height="12.4412" rx="1.03676" fill="#D0D0D0"/>
<rect x="146.779" y="24.9121" width="2.07353" height="11.0588" rx="1.03676" fill="#D0D0D0"/>
<rect x="152.698" y="24.2207" width="2.07353" height="12.4412" rx="1.03676" fill="#D0D0D0"/>
<rect x="158.616" y="24.9121" width="2.07353" height="11.0588" rx="1.03676" fill="#D0D0D0"/>
<rect x="164.534" y="24.2207" width="2.07353" height="12.4412" rx="1.03676" fill="#D0D0D0"/>
<rect x="170.452" y="24.9121" width="2.07353" height="11.0588" rx="1.03676" fill="#D0D0D0"/>
<rect x="176.371" y="24.2207" width="2.07353" height="12.4412" rx="1.03676" fill="#D0D0D0"/>
<rect x="182.289" y="24.9121" width="2.07353" height="11.0588" rx="1.03676" fill="#D0D0D0"/>
<rect x="188.207" y="26.2939" width="2.07353" height="8.29412" rx="1.03676" fill="#D0D0D0"/>
<rect x="194.126" y="26.9854" width="2.07353" height="6.91177" rx="1.03676" fill="#D0D0D0"/>
<rect x="200.044" y="26.2939" width="2.07353" height="8.29412" rx="1.03676" fill="#D0D0D0"/>
<path d="M216.158 29.4253V30.5498C216.158 31.0884 216.104 31.5483 215.997 31.9295C215.893 32.3074 215.742 32.6146 215.544 32.8508C215.345 33.087 215.107 33.2603 214.83 33.3705C214.556 33.4808 214.249 33.5359 213.909 33.5359C213.638 33.5359 213.386 33.5013 213.153 33.432C212.923 33.3627 212.715 33.254 212.529 33.1059C212.343 32.9579 212.184 32.7673 212.052 32.5342C211.923 32.298 211.822 32.0161 211.75 31.6885C211.68 31.3609 211.646 30.9813 211.646 30.5498V29.4253C211.646 28.8835 211.699 28.4268 211.806 28.0551C211.913 27.6803 212.066 27.3763 212.265 27.1432C212.463 26.907 212.699 26.7353 212.973 26.6282C213.25 26.5211 213.559 26.4675 213.899 26.4675C214.173 26.4675 214.425 26.5022 214.655 26.5715C214.888 26.6376 215.096 26.7432 215.279 26.8881C215.465 27.033 215.622 27.2219 215.751 27.455C215.884 27.685 215.985 27.9637 216.054 28.2913C216.123 28.6158 216.158 28.9938 216.158 29.4253ZM215.019 30.7104V29.2552C215.019 28.9812 215.003 28.7402 214.972 28.5323C214.94 28.3213 214.893 28.1433 214.83 27.9984C214.77 27.8503 214.695 27.7307 214.603 27.6393C214.512 27.5448 214.408 27.4771 214.292 27.4361C214.175 27.392 214.044 27.37 213.899 27.37C213.723 27.37 213.565 27.4046 213.427 27.4739C213.288 27.5401 213.172 27.6472 213.077 27.7952C212.983 27.9433 212.91 28.1386 212.86 28.3811C212.813 28.6205 212.789 28.9119 212.789 29.2552V30.7104C212.789 30.9876 212.805 31.2318 212.836 31.4428C212.868 31.6538 212.915 31.835 212.978 31.9862C213.041 32.1342 213.117 32.257 213.205 32.3547C213.296 32.4492 213.4 32.5185 213.517 32.5626C213.636 32.6067 213.767 32.6287 213.909 32.6287C214.088 32.6287 214.247 32.5941 214.386 32.5248C214.525 32.4555 214.641 32.3452 214.736 32.194C214.83 32.0397 214.901 31.8397 214.948 31.594C214.996 31.3483 215.019 31.0538 215.019 30.7104ZM217.323 32.8744C217.323 32.698 217.383 32.55 217.503 32.4303C217.622 32.3074 217.785 32.246 217.989 32.246C218.197 32.246 218.359 32.3074 218.476 32.4303C218.596 32.55 218.655 32.698 218.655 32.8744C218.655 33.0508 218.596 33.1989 218.476 33.3186C218.359 33.4383 218.197 33.4981 217.989 33.4981C217.785 33.4981 217.622 33.4383 217.503 33.3186C217.383 33.1989 217.323 33.0508 217.323 32.8744ZM217.328 28.8489C217.328 28.6725 217.388 28.5244 217.507 28.4047C217.627 28.2819 217.789 28.2205 217.994 28.2205C218.202 28.2205 218.364 28.2819 218.481 28.4047C218.6 28.5244 218.66 28.6725 218.66 28.8489C218.66 29.0253 218.6 29.1733 218.481 29.293C218.364 29.4127 218.202 29.4725 217.994 29.4725C217.789 29.4725 217.627 29.4127 217.507 29.293C217.388 29.1733 217.328 29.0253 217.328 28.8489ZM222.972 26.5384V33.4414H221.834V27.8897L220.147 28.4614V27.5212L222.835 26.5384H222.972ZM230.044 32.5342V33.4414H225.432V32.6618L227.672 30.2191C227.917 29.9419 228.111 29.7025 228.253 29.5009C228.395 29.2993 228.494 29.1182 228.551 28.9575C228.61 28.7937 228.64 28.6347 228.64 28.4803C228.64 28.263 228.599 28.0724 228.517 27.9086C228.439 27.7417 228.322 27.611 228.168 27.5165C228.013 27.4188 227.826 27.37 227.606 27.37C227.35 27.37 227.136 27.4251 226.963 27.5354C226.79 27.6456 226.659 27.7984 226.571 27.9937C226.483 28.1858 226.439 28.4063 226.439 28.6551H225.3C225.3 28.2551 225.391 27.8897 225.574 27.559C225.757 27.2251 226.021 26.9605 226.368 26.7652C226.714 26.5668 227.131 26.4675 227.62 26.4675C228.08 26.4675 228.47 26.5447 228.791 26.6991C229.113 26.8534 229.357 27.0723 229.524 27.3558C229.694 27.6393 229.779 27.9748 229.779 28.3622C229.779 28.5764 229.744 28.789 229.675 29.0001C229.606 29.2111 229.507 29.4221 229.377 29.6332C229.251 29.8411 229.102 30.0505 228.929 30.2616C228.755 30.4695 228.565 30.6805 228.357 30.8947L226.868 32.5342H230.044Z" fill="#252525"/>
</g>
<defs>
<filter id="filter0_d_5545_172112" x="0" y="0" width="250.706" height="60.8828" filterUnits="userSpaceOnUse" color-interpolation-filters="sRGB">
<feFlood flood-opacity="0" result="BackgroundImageFix"/>
<feColorMatrix in="SourceAlpha" type="matrix" values="0 0 0 0 0 0 0 0 0 0 0 0 0 0 0 0 0 0 127 0" result="hardAlpha"/>
<feOffset/>
<feGaussianBlur stdDeviation="6"/>
<feComposite in2="hardAlpha" operator="out"/>
<feColorMatrix type="matrix" values="0 0 0 0 0.403922 0 0 0 0 0.227451 0 0 0 0 0.717647 0 0 0 0.1 0"/>
<feBlend mode="normal" in2="BackgroundImageFix" result="effect1_dropShadow_5545_172112"/>
<feBlend mode="normal" in="SourceGraphic" in2="effect1_dropShadow_5545_172112" result="shape"/>
</filter>
</defs>
</svg>
