<svg width="209" height="64" viewBox="0 0 209 64" fill="none" xmlns="http://www.w3.org/2000/svg">
<g filter="url(#filter0_d_5545_169186)">
<rect x="12.5" y="12.5" width="184" height="39" rx="7.5" fill="white" stroke="#D1D1D6"/>
<g clip-path="url(#clip0_5545_169186)">
<path d="M28.2429 21H43.7571C46.1143 21 48 22.8857 48 25.2429V39.9C48 42.2571 46.1143 44.1429 43.7571 44.1429H28.2429C25.8857 44.1429 24 42.2571 24 39.9V25.2429C24 22.8857 25.8857 21 28.2429 21Z" fill="#FA0F00"/>
<path d="M43.285 34.3718C42.1707 33.2147 39.1279 33.6861 38.3993 33.7718C37.3279 32.7433 36.5993 31.5004 36.3421 31.0718C36.7279 29.9147 36.985 28.7576 37.0279 27.5147C37.0279 26.4433 36.5993 25.2861 35.3993 25.2861C34.9707 25.2861 34.585 25.5433 34.3707 25.8861C33.8564 26.7861 34.0707 28.5861 34.885 30.429C34.4136 31.7576 33.985 33.0433 32.785 35.3147C31.5421 35.829 28.9279 37.029 28.7136 38.3147C28.6279 38.7004 28.7564 39.0861 29.0564 39.3861C29.3564 39.6433 29.7421 39.7718 30.1279 39.7718C31.7136 39.7718 33.2564 37.5861 34.3279 35.7433C35.2279 35.4433 36.6421 35.0147 38.0564 34.7576C39.7279 36.2147 41.185 36.429 41.9564 36.429C42.985 36.429 43.3707 36.0004 43.4993 35.6147C43.7136 35.1861 43.585 34.7147 43.285 34.3718ZM42.2136 35.1004C42.1707 35.4004 41.785 35.7004 41.0993 35.529C40.285 35.3147 39.5564 34.929 38.9136 34.4147C39.4707 34.329 40.7136 34.2004 41.6136 34.3718C41.9564 34.4576 42.2993 34.6718 42.2136 35.1004ZM35.0564 26.2718C35.1421 26.1433 35.2707 26.0576 35.3993 26.0576C35.785 26.0576 35.8707 26.529 35.8707 26.9147C35.8279 27.8147 35.6564 28.7147 35.3564 29.5718C34.7136 27.8576 34.8421 26.6576 35.0564 26.2718ZM34.9707 34.5861C35.3136 33.9004 35.785 32.7004 35.9564 32.1861C36.3421 32.829 36.985 33.6004 37.3279 33.9433C37.3279 33.9861 35.9993 34.2433 34.9707 34.5861ZM32.4421 36.3004C31.4564 37.929 30.4279 38.9576 29.8707 38.9576C29.785 38.9576 29.6993 38.9147 29.6136 38.8718C29.485 38.7861 29.4421 38.6576 29.485 38.4861C29.6136 37.8861 30.7279 37.0718 32.4421 36.3004Z" fill="white"/>
</g>
<path d="M59.792 27.9331H57.7026V27.0898H59.792C60.1966 27.0898 60.5243 27.0254 60.7749 26.8965C61.0256 26.7676 61.2082 26.5885 61.3228 26.3594C61.4409 26.1302 61.5 25.8688 61.5 25.5752C61.5 25.3066 61.4409 25.0542 61.3228 24.8179C61.2082 24.5815 61.0256 24.3918 60.7749 24.2485C60.5243 24.1017 60.1966 24.0283 59.792 24.0283H57.9443V31H56.9077V23.1797H59.792C60.3828 23.1797 60.8823 23.2817 61.2905 23.4858C61.6987 23.6899 62.0085 23.9728 62.2197 24.3345C62.431 24.6925 62.5366 25.1025 62.5366 25.5645C62.5366 26.0658 62.431 26.4937 62.2197 26.8481C62.0085 27.2026 61.6987 27.473 61.2905 27.6592C60.8823 27.8418 60.3828 27.9331 59.792 27.9331ZM64.6904 26.1016V31H63.6968V25.1885H64.6636L64.6904 26.1016ZM66.5059 25.1562L66.5005 26.0801C66.4181 26.0622 66.3394 26.0514 66.2642 26.0479C66.1925 26.0407 66.1102 26.0371 66.0171 26.0371C65.7879 26.0371 65.5856 26.0729 65.4102 26.1445C65.2347 26.2161 65.0861 26.3164 64.9644 26.4453C64.8426 26.5742 64.7459 26.7282 64.6743 26.9072C64.6063 27.0827 64.5615 27.276 64.54 27.4873L64.2607 27.6484C64.2607 27.2975 64.2948 26.9681 64.3628 26.6602C64.4344 26.3522 64.5436 26.0801 64.6904 25.8438C64.8372 25.6038 65.0234 25.4176 65.249 25.2852C65.4782 25.1491 65.7503 25.0811 66.0654 25.0811C66.137 25.0811 66.2194 25.09 66.3125 25.1079C66.4056 25.1222 66.4701 25.1383 66.5059 25.1562ZM67.0537 28.1587V28.0352C67.0537 27.6162 67.1146 27.2277 67.2363 26.8696C67.3581 26.508 67.5335 26.1947 67.7627 25.9297C67.9919 25.6611 68.2694 25.4535 68.5952 25.3066C68.9211 25.1562 69.2863 25.0811 69.6909 25.0811C70.0991 25.0811 70.4661 25.1562 70.792 25.3066C71.1214 25.4535 71.4007 25.6611 71.6299 25.9297C71.8626 26.1947 72.0399 26.508 72.1616 26.8696C72.2834 27.2277 72.3442 27.6162 72.3442 28.0352V28.1587C72.3442 28.5776 72.2834 28.9661 72.1616 29.3242C72.0399 29.6823 71.8626 29.9956 71.6299 30.2642C71.4007 30.5291 71.1232 30.7368 70.7974 30.8872C70.4751 31.034 70.1099 31.1074 69.7017 31.1074C69.2935 31.1074 68.9264 31.034 68.6006 30.8872C68.2747 30.7368 67.9954 30.5291 67.7627 30.2642C67.5335 29.9956 67.3581 29.6823 67.2363 29.3242C67.1146 28.9661 67.0537 28.5776 67.0537 28.1587ZM68.0474 28.0352V28.1587C68.0474 28.4487 68.0814 28.7227 68.1494 28.9805C68.2174 29.2347 68.3195 29.4603 68.4556 29.6572C68.5952 29.8542 68.7689 30.0099 68.9766 30.1245C69.1842 30.2355 69.4259 30.291 69.7017 30.291C69.9738 30.291 70.2119 30.2355 70.416 30.1245C70.6237 30.0099 70.7956 29.8542 70.9316 29.6572C71.0677 29.4603 71.1698 29.2347 71.2378 28.9805C71.3094 28.7227 71.3452 28.4487 71.3452 28.1587V28.0352C71.3452 27.7487 71.3094 27.4784 71.2378 27.2241C71.1698 26.9663 71.0659 26.7389 70.9263 26.542C70.7902 26.3415 70.6183 26.1839 70.4106 26.0693C70.2065 25.9548 69.9666 25.8975 69.6909 25.8975C69.4188 25.8975 69.1789 25.9548 68.9712 26.0693C68.7671 26.1839 68.5952 26.3415 68.4556 26.542C68.3195 26.7389 68.2174 26.9663 68.1494 27.2241C68.0814 27.4784 68.0474 27.7487 68.0474 28.0352ZM77.2534 29.8721V22.75H78.2524V31H77.3394L77.2534 29.8721ZM73.3433 28.1587V28.0459C73.3433 27.6019 73.397 27.1991 73.5044 26.8374C73.6154 26.4722 73.7712 26.1589 73.9717 25.8975C74.1758 25.6361 74.4175 25.4355 74.6968 25.2959C74.9797 25.1527 75.2948 25.0811 75.6421 25.0811C76.0073 25.0811 76.326 25.1455 76.5981 25.2744C76.8739 25.3997 77.1066 25.5841 77.2964 25.8276C77.4897 26.0675 77.6419 26.3576 77.7529 26.6978C77.8639 27.0379 77.9409 27.4229 77.9839 27.8525V28.3467C77.9445 28.7728 77.8675 29.1559 77.7529 29.4961C77.6419 29.8363 77.4897 30.1263 77.2964 30.3662C77.1066 30.6061 76.8739 30.7905 76.5981 30.9194C76.3224 31.0448 76.0002 31.1074 75.6313 31.1074C75.2912 31.1074 74.9797 31.034 74.6968 30.8872C74.4175 30.7404 74.1758 30.5345 73.9717 30.2695C73.7712 30.0046 73.6154 29.693 73.5044 29.335C73.397 28.9733 73.3433 28.5812 73.3433 28.1587ZM74.3423 28.0459V28.1587C74.3423 28.4487 74.3709 28.7209 74.4282 28.9751C74.4891 29.2293 74.5822 29.4531 74.7075 29.6465C74.8328 29.8398 74.9922 29.992 75.1855 30.103C75.3789 30.2104 75.6099 30.2642 75.8784 30.2642C76.2078 30.2642 76.4782 30.1943 76.6895 30.0547C76.9043 29.915 77.0762 29.7306 77.2051 29.5015C77.334 29.2723 77.4342 29.0234 77.5059 28.7549V27.4604C77.4629 27.2635 77.4002 27.0737 77.3179 26.8911C77.2391 26.7049 77.1353 26.5402 77.0063 26.397C76.881 26.2502 76.7253 26.1338 76.5391 26.0479C76.3564 25.9619 76.1398 25.9189 75.8892 25.9189C75.617 25.9189 75.3825 25.9762 75.1855 26.0908C74.9922 26.2018 74.8328 26.3558 74.7075 26.5527C74.5822 26.7461 74.4891 26.9717 74.4282 27.2295C74.3709 27.4837 74.3423 27.7559 74.3423 28.0459ZM83.355 29.6572V25.1885H84.354V31H83.4033L83.355 29.6572ZM83.543 28.4326L83.9565 28.4219C83.9565 28.8086 83.9154 29.1667 83.833 29.4961C83.7542 29.8219 83.6253 30.1048 83.4463 30.3447C83.2673 30.5846 83.0327 30.7726 82.7427 30.9087C82.4526 31.0412 82.0999 31.1074 81.6846 31.1074C81.4017 31.1074 81.1421 31.0662 80.9058 30.9839C80.673 30.9015 80.4725 30.7744 80.3042 30.6025C80.1359 30.4307 80.0052 30.2069 79.9121 29.9312C79.8226 29.6554 79.7778 29.3242 79.7778 28.9375V25.1885H80.7715V28.9482C80.7715 29.2096 80.8001 29.4263 80.8574 29.5981C80.9183 29.7664 80.9989 29.9007 81.0991 30.001C81.203 30.0977 81.3175 30.1657 81.4429 30.2051C81.5718 30.2445 81.7043 30.2642 81.8403 30.2642C82.2629 30.2642 82.5977 30.1836 82.8447 30.0225C83.0918 29.8577 83.269 29.6375 83.3765 29.3618C83.4875 29.0825 83.543 28.7728 83.543 28.4326ZM88.1943 30.291C88.4307 30.291 88.6491 30.2427 88.8496 30.146C89.0501 30.0493 89.2148 29.9168 89.3438 29.7485C89.4727 29.5767 89.5461 29.3815 89.564 29.1631H90.5093C90.4914 29.5068 90.375 29.8273 90.1602 30.1245C89.9489 30.4181 89.6714 30.6562 89.3276 30.8389C88.9839 31.0179 88.6061 31.1074 88.1943 31.1074C87.7575 31.1074 87.3761 31.0304 87.0503 30.8765C86.728 30.7225 86.4595 30.5112 86.2446 30.2427C86.0334 29.9741 85.874 29.6662 85.7666 29.3188C85.6628 28.9679 85.6108 28.5973 85.6108 28.207V27.9814C85.6108 27.5911 85.6628 27.2223 85.7666 26.875C85.874 26.5241 86.0334 26.2144 86.2446 25.9458C86.4595 25.6772 86.728 25.466 87.0503 25.312C87.3761 25.158 87.7575 25.0811 88.1943 25.0811C88.6491 25.0811 89.0465 25.1742 89.3867 25.3604C89.7269 25.543 89.9937 25.7936 90.187 26.1123C90.384 26.4274 90.4914 26.7855 90.5093 27.1865H89.564C89.5461 26.9466 89.478 26.73 89.3599 26.5366C89.2453 26.3433 89.0877 26.1893 88.8872 26.0747C88.6903 25.9565 88.4593 25.8975 88.1943 25.8975C87.89 25.8975 87.634 25.9583 87.4263 26.0801C87.2222 26.1982 87.0592 26.3594 86.9375 26.5635C86.8193 26.764 86.7334 26.9878 86.6797 27.2349C86.6296 27.4784 86.6045 27.7272 86.6045 27.9814V28.207C86.6045 28.4613 86.6296 28.7119 86.6797 28.959C86.7298 29.2061 86.814 29.4299 86.9321 29.6304C87.0539 29.8309 87.2168 29.992 87.4209 30.1138C87.6286 30.2319 87.8864 30.291 88.1943 30.291ZM94.0596 25.1885V25.9512H90.9175V25.1885H94.0596ZM91.981 23.7759H92.9746V29.5605C92.9746 29.7575 93.005 29.9061 93.0659 30.0063C93.1268 30.1066 93.2056 30.1729 93.3022 30.2051C93.3989 30.2373 93.5028 30.2534 93.6138 30.2534C93.6961 30.2534 93.7821 30.2463 93.8716 30.2319C93.9647 30.214 94.0345 30.1997 94.0811 30.189L94.0864 31C94.0076 31.0251 93.9038 31.0483 93.7749 31.0698C93.6496 31.0949 93.4974 31.1074 93.3184 31.1074C93.0749 31.1074 92.8511 31.0591 92.647 30.9624C92.4429 30.8657 92.2799 30.7046 92.1582 30.479C92.04 30.2498 91.981 29.9419 91.981 29.5552V23.7759ZM101.337 29.4585C101.337 29.3153 101.305 29.1828 101.241 29.061C101.18 28.9357 101.053 28.8229 100.859 28.7227C100.67 28.6188 100.383 28.5293 100 28.4541C99.6777 28.3861 99.3859 28.3055 99.1245 28.2124C98.8667 28.1193 98.6465 28.0065 98.4639 27.874C98.2848 27.7415 98.147 27.5858 98.0503 27.4067C97.9536 27.2277 97.9053 27.0182 97.9053 26.7783C97.9053 26.5492 97.9554 26.3325 98.0557 26.1284C98.1595 25.9243 98.3045 25.7435 98.4907 25.5859C98.6805 25.4284 98.9079 25.3049 99.1729 25.2153C99.4378 25.1258 99.7332 25.0811 100.059 25.0811C100.525 25.0811 100.922 25.1634 101.251 25.3281C101.581 25.4928 101.833 25.7131 102.009 25.9888C102.184 26.2609 102.272 26.5635 102.272 26.8965H101.278C101.278 26.7354 101.23 26.5796 101.133 26.4292C101.04 26.2752 100.902 26.1481 100.72 26.0479C100.541 25.9476 100.32 25.8975 100.059 25.8975C99.7834 25.8975 99.5596 25.9404 99.3877 26.0264C99.2194 26.1087 99.0959 26.2144 99.0171 26.3433C98.9419 26.4722 98.9043 26.6082 98.9043 26.7515C98.9043 26.8589 98.9222 26.9556 98.958 27.0415C98.9974 27.1239 99.0654 27.2008 99.1621 27.2725C99.2588 27.3405 99.3949 27.4049 99.5703 27.4658C99.7458 27.5267 99.9696 27.5876 100.242 27.6484C100.718 27.7559 101.11 27.8848 101.418 28.0352C101.726 28.1855 101.955 28.37 102.105 28.5884C102.256 28.8068 102.331 29.0718 102.331 29.3833C102.331 29.6375 102.277 29.8703 102.17 30.0815C102.066 30.2928 101.914 30.4754 101.713 30.6294C101.516 30.7798 101.28 30.8979 101.004 30.9839C100.732 31.0662 100.426 31.1074 100.086 31.1074C99.5739 31.1074 99.1406 31.0161 98.7861 30.8335C98.4316 30.6509 98.1631 30.4146 97.9805 30.1245C97.7979 29.8345 97.7065 29.5283 97.7065 29.2061H98.7056C98.7199 29.4782 98.7987 29.6948 98.9419 29.856C99.0851 30.0135 99.2606 30.1263 99.4683 30.1943C99.6759 30.2588 99.8818 30.291 100.086 30.291C100.358 30.291 100.585 30.2552 100.768 30.1836C100.954 30.112 101.096 30.0135 101.192 29.8882C101.289 29.7629 101.337 29.6196 101.337 29.4585ZM105.962 30.291C106.198 30.291 106.417 30.2427 106.617 30.146C106.818 30.0493 106.982 29.9168 107.111 29.7485C107.24 29.5767 107.314 29.3815 107.332 29.1631H108.277C108.259 29.5068 108.143 29.8273 107.928 30.1245C107.716 30.4181 107.439 30.6562 107.095 30.8389C106.751 31.0179 106.374 31.1074 105.962 31.1074C105.525 31.1074 105.144 31.0304 104.818 30.8765C104.496 30.7225 104.227 30.5112 104.012 30.2427C103.801 29.9741 103.642 29.6662 103.534 29.3188C103.43 28.9679 103.378 28.5973 103.378 28.207V27.9814C103.378 27.5911 103.43 27.2223 103.534 26.875C103.642 26.5241 103.801 26.2144 104.012 25.9458C104.227 25.6772 104.496 25.466 104.818 25.312C105.144 25.158 105.525 25.0811 105.962 25.0811C106.417 25.0811 106.814 25.1742 107.154 25.3604C107.494 25.543 107.761 25.7936 107.955 26.1123C108.152 26.4274 108.259 26.7855 108.277 27.1865H107.332C107.314 26.9466 107.246 26.73 107.127 26.5366C107.013 26.3433 106.855 26.1893 106.655 26.0747C106.458 25.9565 106.227 25.8975 105.962 25.8975C105.658 25.8975 105.402 25.9583 105.194 26.0801C104.99 26.1982 104.827 26.3594 104.705 26.5635C104.587 26.764 104.501 26.9878 104.447 27.2349C104.397 27.4784 104.372 27.7272 104.372 27.9814V28.207C104.372 28.4613 104.397 28.7119 104.447 28.959C104.497 29.2061 104.582 29.4299 104.7 29.6304C104.821 29.8309 104.984 29.992 105.188 30.1138C105.396 30.2319 105.654 30.291 105.962 30.291ZM110.388 26.1016V31H109.394V25.1885H110.361L110.388 26.1016ZM112.203 25.1562L112.198 26.0801C112.115 26.0622 112.037 26.0514 111.961 26.0479C111.89 26.0407 111.807 26.0371 111.714 26.0371C111.485 26.0371 111.283 26.0729 111.107 26.1445C110.932 26.2161 110.783 26.3164 110.662 26.4453C110.54 26.5742 110.443 26.7282 110.372 26.9072C110.304 27.0827 110.259 27.276 110.237 27.4873L109.958 27.6484C109.958 27.2975 109.992 26.9681 110.06 26.6602C110.132 26.3522 110.241 26.0801 110.388 25.8438C110.535 25.6038 110.721 25.4176 110.946 25.2852C111.175 25.1491 111.448 25.0811 111.763 25.0811C111.834 25.0811 111.917 25.09 112.01 25.1079C112.103 25.1222 112.167 25.1383 112.203 25.1562ZM114.201 25.1885V31H113.202V25.1885H114.201ZM113.127 23.647C113.127 23.4858 113.175 23.3498 113.272 23.2388C113.372 23.1278 113.519 23.0723 113.712 23.0723C113.902 23.0723 114.047 23.1278 114.147 23.2388C114.251 23.3498 114.303 23.4858 114.303 23.647C114.303 23.8009 114.251 23.9334 114.147 24.0444C114.047 24.1519 113.902 24.2056 113.712 24.2056C113.519 24.2056 113.372 24.1519 113.272 24.0444C113.175 23.9334 113.127 23.8009 113.127 23.647ZM116.79 26.3057V33.2344H115.791V25.1885H116.704L116.79 26.3057ZM120.706 28.0459V28.1587C120.706 28.5812 120.655 28.9733 120.555 29.335C120.455 29.693 120.308 30.0046 120.115 30.2695C119.925 30.5345 119.69 30.7404 119.411 30.8872C119.132 31.034 118.811 31.1074 118.45 31.1074C118.081 31.1074 117.755 31.0465 117.472 30.9248C117.189 30.8031 116.949 30.6258 116.752 30.3931C116.556 30.1603 116.398 29.881 116.28 29.5552C116.165 29.2293 116.086 28.8623 116.043 28.4541V27.8525C116.086 27.4229 116.167 27.0379 116.285 26.6978C116.403 26.3576 116.559 26.0675 116.752 25.8276C116.949 25.5841 117.188 25.3997 117.467 25.2744C117.746 25.1455 118.068 25.0811 118.434 25.0811C118.799 25.0811 119.123 25.1527 119.406 25.2959C119.689 25.4355 119.927 25.6361 120.12 25.8975C120.313 26.1589 120.458 26.4722 120.555 26.8374C120.655 27.1991 120.706 27.6019 120.706 28.0459ZM119.707 28.1587V28.0459C119.707 27.7559 119.676 27.4837 119.615 27.2295C119.554 26.9717 119.459 26.7461 119.331 26.5527C119.205 26.3558 119.044 26.2018 118.847 26.0908C118.65 25.9762 118.416 25.9189 118.144 25.9189C117.893 25.9189 117.674 25.9619 117.488 26.0479C117.306 26.1338 117.15 26.2502 117.021 26.397C116.892 26.5402 116.786 26.7049 116.704 26.8911C116.625 27.0737 116.566 27.2635 116.527 27.4604V28.8516C116.598 29.1022 116.699 29.3385 116.828 29.5605C116.957 29.779 117.128 29.9562 117.343 30.0923C117.558 30.2248 117.828 30.291 118.154 30.291C118.423 30.291 118.654 30.2355 118.847 30.1245C119.044 30.0099 119.205 29.8542 119.331 29.6572C119.459 29.4603 119.554 29.2347 119.615 28.9805C119.676 28.7227 119.707 28.4487 119.707 28.1587ZM124.406 25.1885V25.9512H121.264V25.1885H124.406ZM122.328 23.7759H123.321V29.5605C123.321 29.7575 123.352 29.9061 123.413 30.0063C123.473 30.1066 123.552 30.1729 123.649 30.2051C123.746 30.2373 123.849 30.2534 123.96 30.2534C124.043 30.2534 124.129 30.2463 124.218 30.2319C124.311 30.214 124.381 30.1997 124.428 30.189L124.433 31C124.354 31.0251 124.25 31.0483 124.122 31.0698C123.996 31.0949 123.844 31.1074 123.665 31.1074C123.422 31.1074 123.198 31.0591 122.994 30.9624C122.79 30.8657 122.627 30.7046 122.505 30.479C122.387 30.2498 122.328 29.9419 122.328 29.5552V23.7759ZM133.317 30.1836V31H128.198V30.2856L130.76 27.4336C131.075 27.0827 131.319 26.7855 131.491 26.542C131.666 26.2949 131.788 26.0747 131.856 25.8813C131.928 25.6844 131.963 25.4839 131.963 25.2798C131.963 25.022 131.91 24.7892 131.802 24.5815C131.698 24.3703 131.544 24.202 131.34 24.0767C131.136 23.9513 130.889 23.8887 130.599 23.8887C130.252 23.8887 129.962 23.9567 129.729 24.0928C129.5 24.2253 129.328 24.4115 129.213 24.6514C129.099 24.8913 129.042 25.167 129.042 25.4785H128.048C128.048 25.0381 128.145 24.6353 128.338 24.27C128.531 23.9048 128.818 23.6147 129.197 23.3999C129.577 23.1815 130.044 23.0723 130.599 23.0723C131.093 23.0723 131.516 23.16 131.867 23.3354C132.218 23.5073 132.486 23.7508 132.672 24.0659C132.862 24.3774 132.957 24.7427 132.957 25.1616C132.957 25.3908 132.918 25.6235 132.839 25.8599C132.764 26.0926 132.658 26.3254 132.522 26.5581C132.389 26.7909 132.234 27.02 132.055 27.2456C131.879 27.4712 131.691 27.6932 131.491 27.9116L129.396 30.1836H133.317ZM139.29 26.4668V27.6592C139.29 28.3001 139.232 28.8408 139.118 29.2812C139.003 29.7217 138.838 30.0762 138.624 30.3447C138.409 30.6133 138.149 30.8084 137.845 30.9302C137.544 31.0483 137.204 31.1074 136.824 31.1074C136.523 31.1074 136.246 31.0698 135.992 30.9946C135.737 30.9194 135.508 30.7995 135.304 30.6348C135.104 30.4665 134.932 30.248 134.789 29.9795C134.645 29.7109 134.536 29.3851 134.461 29.002C134.386 28.6188 134.348 28.1712 134.348 27.6592V26.4668C134.348 25.8258 134.405 25.2887 134.52 24.8555C134.638 24.4222 134.805 24.0749 135.02 23.8135C135.234 23.5485 135.492 23.3587 135.793 23.2441C136.097 23.1296 136.438 23.0723 136.813 23.0723C137.118 23.0723 137.397 23.1099 137.651 23.1851C137.909 23.2567 138.138 23.373 138.339 23.5342C138.539 23.6917 138.709 23.903 138.849 24.168C138.992 24.4294 139.102 24.7498 139.177 25.1294C139.252 25.509 139.29 25.9548 139.29 26.4668ZM138.291 27.8203V26.3003C138.291 25.9494 138.269 25.6414 138.226 25.3765C138.187 25.1079 138.128 24.8787 138.049 24.689C137.97 24.4992 137.87 24.3452 137.748 24.2271C137.63 24.1089 137.492 24.0229 137.334 23.9692C137.181 23.9119 137.007 23.8833 136.813 23.8833C136.577 23.8833 136.368 23.9281 136.185 24.0176C136.002 24.1035 135.848 24.2414 135.723 24.4312C135.601 24.6209 135.508 24.8698 135.444 25.1777C135.379 25.4857 135.347 25.8599 135.347 26.3003V27.8203C135.347 28.1712 135.367 28.481 135.406 28.7495C135.449 29.0181 135.512 29.2508 135.594 29.4478C135.677 29.6411 135.777 29.8005 135.895 29.9258C136.013 30.0511 136.149 30.1442 136.303 30.2051C136.461 30.2624 136.634 30.291 136.824 30.291C137.068 30.291 137.281 30.2445 137.463 30.1514C137.646 30.0583 137.798 29.9132 137.92 29.7163C138.045 29.5158 138.138 29.2598 138.199 28.9482C138.26 28.6331 138.291 28.2572 138.291 27.8203ZM145.692 30.1836V31H140.573V30.2856L143.135 27.4336C143.45 27.0827 143.694 26.7855 143.866 26.542C144.041 26.2949 144.163 26.0747 144.231 25.8813C144.303 25.6844 144.338 25.4839 144.338 25.2798C144.338 25.022 144.285 24.7892 144.177 24.5815C144.073 24.3703 143.919 24.202 143.715 24.0767C143.511 23.9513 143.264 23.8887 142.974 23.8887C142.627 23.8887 142.337 23.9567 142.104 24.0928C141.875 24.2253 141.703 24.4115 141.588 24.6514C141.474 24.8913 141.417 25.167 141.417 25.4785H140.423C140.423 25.0381 140.52 24.6353 140.713 24.27C140.906 23.9048 141.193 23.6147 141.572 23.3999C141.952 23.1815 142.419 23.0723 142.974 23.0723C143.468 23.0723 143.891 23.16 144.242 23.3354C144.593 23.5073 144.861 23.7508 145.047 24.0659C145.237 24.3774 145.332 24.7427 145.332 25.1616C145.332 25.3908 145.293 25.6235 145.214 25.8599C145.139 26.0926 145.033 26.3254 144.897 26.5581C144.764 26.7909 144.609 27.02 144.43 27.2456C144.254 27.4712 144.066 27.6932 143.866 27.9116L141.771 30.1836H145.692ZM148.206 26.6011H148.915C149.262 26.6011 149.548 26.5438 149.774 26.4292C150.003 26.311 150.173 26.1517 150.284 25.9512C150.399 25.7471 150.456 25.5179 150.456 25.2637C150.456 24.9629 150.406 24.7104 150.306 24.5063C150.205 24.3022 150.055 24.1483 149.854 24.0444C149.654 23.9406 149.4 23.8887 149.092 23.8887C148.812 23.8887 148.565 23.9442 148.351 24.0552C148.139 24.1626 147.973 24.3166 147.851 24.5171C147.733 24.7176 147.674 24.9539 147.674 25.2261H146.68C146.68 24.8286 146.78 24.467 146.981 24.1411C147.181 23.8153 147.463 23.5557 147.824 23.3623C148.189 23.1689 148.612 23.0723 149.092 23.0723C149.564 23.0723 149.978 23.1564 150.333 23.3247C150.687 23.4894 150.963 23.7365 151.16 24.0659C151.357 24.3918 151.455 24.7982 151.455 25.2852C151.455 25.4821 151.409 25.6934 151.315 25.9189C151.226 26.141 151.084 26.3486 150.891 26.542C150.701 26.7354 150.454 26.8947 150.15 27.02C149.846 27.1418 149.48 27.2026 149.054 27.2026H148.206V26.6011ZM148.206 27.4175V26.8213H149.054C149.552 26.8213 149.964 26.8804 150.29 26.9985C150.615 27.1167 150.871 27.2743 151.058 27.4712C151.247 27.6681 151.38 27.8848 151.455 28.1211C151.534 28.3538 151.573 28.5866 151.573 28.8193C151.573 29.1846 151.511 29.5086 151.385 29.7915C151.264 30.0744 151.09 30.3143 150.864 30.5112C150.642 30.7082 150.381 30.8568 150.08 30.957C149.779 31.0573 149.452 31.1074 149.097 31.1074C148.757 31.1074 148.437 31.0591 148.136 30.9624C147.839 30.8657 147.575 30.7261 147.346 30.5435C147.117 30.3573 146.938 30.1299 146.809 29.8613C146.68 29.5892 146.616 29.2795 146.616 28.9321H147.609C147.609 29.2043 147.668 29.4424 147.787 29.6465C147.908 29.8506 148.08 30.0099 148.302 30.1245C148.528 30.2355 148.793 30.291 149.097 30.291C149.402 30.291 149.663 30.2391 149.881 30.1353C150.103 30.0278 150.273 29.8667 150.392 29.6519C150.513 29.437 150.574 29.1667 150.574 28.8408C150.574 28.515 150.506 28.2482 150.37 28.0405C150.234 27.8293 150.041 27.6735 149.79 27.5732C149.543 27.4694 149.251 27.4175 148.915 27.4175H148.206Z" fill="black" fill-opacity="0.87"/>
<path d="M58.7578 41.7695H57.2383V41.1562H58.7578C59.0521 41.1562 59.2904 41.1094 59.4727 41.0156C59.6549 40.9219 59.7878 40.7917 59.8711 40.625C59.957 40.4583 60 40.2682 60 40.0547C60 39.8594 59.957 39.6758 59.8711 39.5039C59.7878 39.332 59.6549 39.194 59.4727 39.0898C59.2904 38.9831 59.0521 38.9297 58.7578 38.9297H57.4141V44H56.6602V38.3125H58.7578C59.1875 38.3125 59.5508 38.3867 59.8477 38.5352C60.1445 38.6836 60.3698 38.8893 60.5234 39.1523C60.6771 39.4128 60.7539 39.7109 60.7539 40.0469C60.7539 40.4115 60.6771 40.7227 60.5234 40.9805C60.3698 41.2383 60.1445 41.4349 59.8477 41.5703C59.5508 41.7031 59.1875 41.7695 58.7578 41.7695ZM63.2461 44H62.0586L62.0664 43.3867H63.2461C63.6523 43.3867 63.9909 43.3021 64.2617 43.1328C64.5326 42.9609 64.7357 42.7214 64.8711 42.4141C65.0091 42.1042 65.0781 41.7422 65.0781 41.3281V40.9805C65.0781 40.6549 65.0391 40.3659 64.9609 40.1133C64.8828 39.8581 64.7682 39.6432 64.6172 39.4688C64.4661 39.2917 64.2812 39.1576 64.0625 39.0664C63.8464 38.9753 63.5977 38.9297 63.3164 38.9297H62.0352V38.3125H63.3164C63.6888 38.3125 64.0286 38.375 64.3359 38.5C64.6432 38.6224 64.9076 38.8008 65.1289 39.0352C65.3529 39.2669 65.5247 39.5482 65.6445 39.8789C65.7643 40.207 65.8242 40.5768 65.8242 40.9883V41.3281C65.8242 41.7396 65.7643 42.1107 65.6445 42.4414C65.5247 42.7695 65.3516 43.0495 65.125 43.2812C64.901 43.513 64.6302 43.6914 64.3125 43.8164C63.9974 43.9388 63.6419 44 63.2461 44ZM62.4609 38.3125V44H61.707V38.3125H62.4609ZM67.7109 38.3125V44H66.957V38.3125H67.7109ZM70.0938 40.8711V41.4883H67.5469V40.8711H70.0938ZM70.4805 38.3125V38.9297H67.5469V38.3125H70.4805Z" fill="black" fill-opacity="0.54"/>
</g>
<defs>
<filter id="filter0_d_5545_169186" x="0" y="0" width="209" height="64" filterUnits="userSpaceOnUse" color-interpolation-filters="sRGB">
<feFlood flood-opacity="0" result="BackgroundImageFix"/>
<feColorMatrix in="SourceAlpha" type="matrix" values="0 0 0 0 0 0 0 0 0 0 0 0 0 0 0 0 0 0 127 0" result="hardAlpha"/>
<feOffset/>
<feGaussianBlur stdDeviation="6"/>
<feComposite in2="hardAlpha" operator="out"/>
<feColorMatrix type="matrix" values="0 0 0 0 0.403922 0 0 0 0 0.227451 0 0 0 0 0.717647 0 0 0 0.1 0"/>
<feBlend mode="normal" in2="BackgroundImageFix" result="effect1_dropShadow_5545_169186"/>
<feBlend mode="normal" in="SourceGraphic" in2="effect1_dropShadow_5545_169186" result="shape"/>
</filter>
<clipPath id="clip0_5545_169186">
<rect width="24" height="23.1429" fill="white" transform="translate(24 21)"/>
</clipPath>
</defs>
</svg>
