<svg width="348" height="40" viewBox="0 0 348 40" fill="none" xmlns="http://www.w3.org/2000/svg">
<path d="M1 8C1 4.13401 4.13401 1 8 1H340C343.866 1 347 4.13401 347 8V32C347 35.866 343.866 39 340 39H8C4.134 39 1 35.866 1 32V8Z" fill="#12191D"/>
<path d="M1 8C1 4.13401 4.13401 1 8 1H340C343.866 1 347 4.13401 347 8V32C347 35.866 343.866 39 340 39H8C4.134 39 1 35.866 1 32V8Z" stroke="#37474F" stroke-width="2"/>
<path fill-rule="evenodd" clip-rule="evenodd" d="M24.9659 22.2549H25.7559L30.7459 27.2549L29.2559 28.7449L24.2559 23.7549V22.9649L23.9859 22.6849C22.8459 23.6649 21.3659 24.2549 19.7559 24.2549C16.1659 24.2549 13.2559 21.3449 13.2559 17.7549C13.2559 14.1649 16.1659 11.2549 19.7559 11.2549C23.3459 11.2549 26.2559 14.1649 26.2559 17.7549C26.2559 19.3649 25.6659 20.8449 24.6859 21.9849L24.9659 22.2549ZM15.2559 17.7549C15.2559 20.2449 17.2659 22.2549 19.7559 22.2549C22.2459 22.2549 24.2559 20.2449 24.2559 17.7549C24.2559 15.2649 22.2459 13.2549 19.7559 13.2549C17.2659 13.2549 15.2559 15.2649 15.2559 17.7549Z" fill="white" fill-opacity="0.87"/>
<path d="M50.46 22.4844C50.46 22.252 50.4235 22.0469 50.3506 21.8691C50.2822 21.6868 50.1592 21.5228 49.9814 21.377C49.8083 21.2311 49.5667 21.0921 49.2568 20.96C48.9515 20.8278 48.5641 20.6934 48.0947 20.5566C47.6025 20.4108 47.1582 20.249 46.7617 20.0713C46.3652 19.889 46.0257 19.6816 45.7432 19.4492C45.4606 19.2168 45.2441 18.9502 45.0938 18.6494C44.9434 18.3486 44.8682 18.0046 44.8682 17.6172C44.8682 17.2298 44.9479 16.8721 45.1074 16.5439C45.2669 16.2158 45.4948 15.931 45.791 15.6895C46.0918 15.4434 46.4495 15.252 46.8643 15.1152C47.279 14.9785 47.7415 14.9102 48.252 14.9102C48.9993 14.9102 49.6328 15.0537 50.1523 15.3408C50.6764 15.6234 51.0752 15.9948 51.3486 16.4551C51.6221 16.9108 51.7588 17.3984 51.7588 17.918H50.4463C50.4463 17.5443 50.3665 17.2139 50.207 16.9268C50.0475 16.6351 49.806 16.4072 49.4824 16.2432C49.1589 16.0745 48.7487 15.9902 48.252 15.9902C47.7826 15.9902 47.3952 16.0609 47.0898 16.2021C46.7845 16.3434 46.5566 16.5348 46.4062 16.7764C46.2604 17.0179 46.1875 17.2936 46.1875 17.6035C46.1875 17.8132 46.2308 18.0046 46.3174 18.1777C46.4085 18.3464 46.5475 18.5036 46.7344 18.6494C46.9258 18.7952 47.1673 18.9297 47.459 19.0527C47.7552 19.1758 48.1084 19.2943 48.5186 19.4082C49.0837 19.5677 49.5713 19.7454 49.9814 19.9414C50.3916 20.1374 50.7288 20.3584 50.9932 20.6045C51.262 20.846 51.4603 21.1217 51.5879 21.4316C51.7201 21.737 51.7861 22.0833 51.7861 22.4707C51.7861 22.8763 51.7041 23.2432 51.54 23.5713C51.376 23.8994 51.1413 24.1797 50.8359 24.4121C50.5306 24.6445 50.1637 24.8245 49.7354 24.9521C49.3115 25.0752 48.8376 25.1367 48.3135 25.1367C47.8532 25.1367 47.3997 25.0729 46.9531 24.9453C46.5111 24.8177 46.1077 24.6263 45.7432 24.3711C45.3831 24.1159 45.0938 23.8014 44.875 23.4277C44.6608 23.0495 44.5537 22.612 44.5537 22.1152H45.8662C45.8662 22.457 45.9323 22.751 46.0645 22.9971C46.1966 23.2386 46.3766 23.4391 46.6045 23.5986C46.8369 23.7581 47.099 23.8766 47.3906 23.9541C47.6868 24.027 47.9945 24.0635 48.3135 24.0635C48.7738 24.0635 49.1634 23.9997 49.4824 23.8721C49.8014 23.7445 50.043 23.5622 50.207 23.3252C50.3757 23.0882 50.46 22.8079 50.46 22.4844ZM56.3457 25.1367C55.8307 25.1367 55.3636 25.0501 54.9443 24.877C54.5296 24.6992 54.1719 24.4508 53.8711 24.1318C53.5749 23.8128 53.347 23.4346 53.1875 22.9971C53.028 22.5596 52.9482 22.0811 52.9482 21.5615V21.2744C52.9482 20.6729 53.0371 20.1374 53.2148 19.668C53.3926 19.194 53.6341 18.793 53.9395 18.4648C54.2448 18.1367 54.5911 17.8883 54.9785 17.7197C55.3659 17.5511 55.7669 17.4668 56.1816 17.4668C56.7103 17.4668 57.166 17.5579 57.5488 17.7402C57.9362 17.9225 58.2529 18.1777 58.499 18.5059C58.7451 18.8294 58.9274 19.2122 59.0459 19.6543C59.1644 20.0918 59.2236 20.5703 59.2236 21.0898V21.6572H53.7002V20.625H57.959V20.5293C57.9408 20.2012 57.8724 19.8822 57.7539 19.5723C57.64 19.2624 57.4577 19.0072 57.207 18.8066C56.9564 18.6061 56.6146 18.5059 56.1816 18.5059C55.8945 18.5059 55.6302 18.5674 55.3887 18.6904C55.1471 18.8089 54.9398 18.9867 54.7666 19.2236C54.5934 19.4606 54.459 19.75 54.3633 20.0918C54.2676 20.4336 54.2197 20.8278 54.2197 21.2744V21.5615C54.2197 21.9124 54.2676 22.2428 54.3633 22.5527C54.4635 22.8581 54.6071 23.127 54.7939 23.3594C54.9854 23.5918 55.2155 23.7741 55.4844 23.9062C55.7578 24.0384 56.0677 24.1045 56.4141 24.1045C56.8607 24.1045 57.2389 24.0133 57.5488 23.8311C57.8587 23.6488 58.1299 23.4049 58.3623 23.0996L59.1279 23.708C58.9684 23.9495 58.7656 24.1797 58.5195 24.3984C58.2734 24.6172 57.9704 24.7949 57.6104 24.9316C57.2549 25.0684 56.8333 25.1367 56.3457 25.1367ZM65.0615 23.7354V19.9277C65.0615 19.6361 65.0023 19.3831 64.8838 19.1689C64.7699 18.9502 64.5967 18.7816 64.3643 18.6631C64.1318 18.5446 63.8447 18.4854 63.5029 18.4854C63.1839 18.4854 62.9036 18.54 62.6621 18.6494C62.4251 18.7588 62.2383 18.9023 62.1016 19.0801C61.9694 19.2578 61.9033 19.4492 61.9033 19.6543H60.6387C60.6387 19.39 60.707 19.1279 60.8438 18.8682C60.9805 18.6084 61.1764 18.3737 61.4316 18.1641C61.6914 17.9499 62.0013 17.7812 62.3613 17.6582C62.7259 17.5306 63.1315 17.4668 63.5781 17.4668C64.1159 17.4668 64.5898 17.5579 65 17.7402C65.4147 17.9225 65.7383 18.1982 65.9707 18.5674C66.2077 18.932 66.3262 19.39 66.3262 19.9414V23.3867C66.3262 23.6328 66.3467 23.8949 66.3877 24.1729C66.4333 24.4508 66.4993 24.6901 66.5859 24.8906V25H65.2666C65.2028 24.8542 65.1527 24.6605 65.1162 24.4189C65.0798 24.1729 65.0615 23.945 65.0615 23.7354ZM65.2803 20.5156L65.2939 21.4043H64.0156C63.6556 21.4043 63.3343 21.4339 63.0518 21.4932C62.7692 21.5479 62.5322 21.6322 62.3408 21.7461C62.1494 21.86 62.0036 22.0036 61.9033 22.1768C61.8031 22.3454 61.7529 22.5436 61.7529 22.7715C61.7529 23.0039 61.8053 23.2158 61.9102 23.4072C62.015 23.5986 62.1722 23.7513 62.3818 23.8652C62.596 23.9746 62.8581 24.0293 63.168 24.0293C63.5553 24.0293 63.8971 23.9473 64.1934 23.7832C64.4896 23.6191 64.7243 23.4186 64.8975 23.1816C65.0752 22.9447 65.1709 22.7145 65.1846 22.4912L65.7246 23.0996C65.6927 23.291 65.6061 23.5029 65.4648 23.7354C65.3236 23.9678 65.1344 24.1911 64.8975 24.4053C64.665 24.6149 64.387 24.7904 64.0635 24.9316C63.7445 25.0684 63.3844 25.1367 62.9834 25.1367C62.4821 25.1367 62.0423 25.0387 61.6641 24.8428C61.2904 24.6468 60.9987 24.3848 60.7891 24.0566C60.584 23.724 60.4814 23.3525 60.4814 22.9424C60.4814 22.5459 60.5589 22.1973 60.7139 21.8965C60.8688 21.5911 61.0921 21.3382 61.3838 21.1377C61.6755 20.9326 62.0264 20.7777 62.4365 20.6729C62.8467 20.568 63.3047 20.5156 63.8105 20.5156H65.2803ZM69.5801 18.7656V25H68.3154V17.6035H69.5459L69.5801 18.7656ZM71.8906 17.5625L71.8838 18.7383C71.779 18.7155 71.6787 18.7018 71.583 18.6973C71.4919 18.6882 71.387 18.6836 71.2686 18.6836C70.9769 18.6836 70.7194 18.7292 70.4961 18.8203C70.2728 18.9115 70.0837 19.0391 69.9287 19.2031C69.7738 19.3672 69.6507 19.5632 69.5596 19.791C69.473 20.0143 69.416 20.2604 69.3887 20.5293L69.0332 20.7344C69.0332 20.2878 69.0765 19.8685 69.1631 19.4766C69.2542 19.0846 69.3932 18.7383 69.5801 18.4375C69.7669 18.1322 70.0039 17.8952 70.291 17.7266C70.5827 17.5534 70.929 17.4668 71.3301 17.4668C71.4212 17.4668 71.526 17.4782 71.6445 17.501C71.763 17.5192 71.8451 17.5397 71.8906 17.5625ZM75.8828 24.0977C76.1836 24.0977 76.4616 24.0361 76.7168 23.9131C76.972 23.79 77.1816 23.6214 77.3457 23.4072C77.5098 23.1885 77.6032 22.9401 77.626 22.6621H78.8291C78.8063 23.0996 78.6582 23.5075 78.3848 23.8857C78.1159 24.2594 77.7627 24.5625 77.3252 24.7949C76.8877 25.0228 76.4069 25.1367 75.8828 25.1367C75.3268 25.1367 74.8415 25.0387 74.4268 24.8428C74.0166 24.6468 73.6748 24.3779 73.4014 24.0361C73.1325 23.6943 72.9297 23.3024 72.793 22.8604C72.6608 22.4137 72.5947 21.9421 72.5947 21.4453V21.1582C72.5947 20.6615 72.6608 20.1921 72.793 19.75C72.9297 19.3034 73.1325 18.9092 73.4014 18.5674C73.6748 18.2256 74.0166 17.9567 74.4268 17.7607C74.8415 17.5648 75.3268 17.4668 75.8828 17.4668C76.4616 17.4668 76.9674 17.5853 77.4004 17.8223C77.8333 18.0547 78.1729 18.3737 78.4189 18.7793C78.6696 19.1803 78.8063 19.6361 78.8291 20.1465H77.626C77.6032 19.8411 77.5166 19.5654 77.3662 19.3193C77.2204 19.0732 77.0199 18.8773 76.7646 18.7314C76.514 18.5811 76.2201 18.5059 75.8828 18.5059C75.4954 18.5059 75.1696 18.5833 74.9053 18.7383C74.6455 18.8887 74.4382 19.0938 74.2832 19.3535C74.1328 19.6087 74.0234 19.8936 73.9551 20.208C73.8913 20.5179 73.8594 20.8346 73.8594 21.1582V21.4453C73.8594 21.7689 73.8913 22.0879 73.9551 22.4023C74.0189 22.7168 74.126 23.0016 74.2764 23.2568C74.4313 23.512 74.6387 23.7171 74.8984 23.8721C75.1628 24.0225 75.4909 24.0977 75.8828 24.0977ZM81.5156 14.5V25H80.251V14.5H81.5156ZM81.2148 21.0215L80.6885 21.001C80.693 20.4951 80.7682 20.028 80.9141 19.5996C81.0599 19.1667 81.265 18.7907 81.5293 18.4717C81.7936 18.1527 82.1081 17.9066 82.4727 17.7334C82.8418 17.5557 83.2497 17.4668 83.6963 17.4668C84.0609 17.4668 84.389 17.5169 84.6807 17.6172C84.9723 17.7129 85.2207 17.8678 85.4258 18.082C85.6354 18.2962 85.7949 18.5742 85.9043 18.916C86.0137 19.2533 86.0684 19.6657 86.0684 20.1533V25H84.7969V20.1396C84.7969 19.7523 84.7399 19.4424 84.626 19.21C84.512 18.973 84.3457 18.8021 84.127 18.6973C83.9082 18.5879 83.6393 18.5332 83.3203 18.5332C83.0059 18.5332 82.7188 18.5993 82.459 18.7314C82.2038 18.8636 81.9827 19.0459 81.7959 19.2783C81.6136 19.5107 81.4701 19.7773 81.3652 20.0781C81.265 20.3743 81.2148 20.6888 81.2148 21.0215ZM87.9072 24.3301C87.9072 24.1159 87.9733 23.9359 88.1055 23.79C88.2422 23.6396 88.4382 23.5645 88.6934 23.5645C88.9486 23.5645 89.1423 23.6396 89.2744 23.79C89.4111 23.9359 89.4795 24.1159 89.4795 24.3301C89.4795 24.5397 89.4111 24.7174 89.2744 24.8633C89.1423 25.0091 88.9486 25.082 88.6934 25.082C88.4382 25.082 88.2422 25.0091 88.1055 24.8633C87.9733 24.7174 87.9072 24.5397 87.9072 24.3301ZM87.9141 18.2939C87.9141 18.0798 87.9801 17.8997 88.1123 17.7539C88.249 17.6035 88.445 17.5283 88.7002 17.5283C88.9554 17.5283 89.1491 17.6035 89.2812 17.7539C89.418 17.8997 89.4863 18.0798 89.4863 18.2939C89.4863 18.5036 89.418 18.6813 89.2812 18.8271C89.1491 18.973 88.9554 19.0459 88.7002 19.0459C88.445 19.0459 88.249 18.973 88.1123 18.8271C87.9801 18.6813 87.9141 18.5036 87.9141 18.2939ZM96.1992 17.6035V25H94.9277V17.6035H96.1992ZM94.832 15.6416C94.832 15.4365 94.8936 15.2633 95.0166 15.1221C95.1442 14.9808 95.3311 14.9102 95.5771 14.9102C95.8187 14.9102 96.0033 14.9808 96.1309 15.1221C96.263 15.2633 96.3291 15.4365 96.3291 15.6416C96.3291 15.8376 96.263 16.0062 96.1309 16.1475C96.0033 16.2842 95.8187 16.3525 95.5771 16.3525C95.3311 16.3525 95.1442 16.2842 95.0166 16.1475C94.8936 16.0062 94.832 15.8376 94.832 15.6416ZM99.4941 19.1826V25H98.2295V17.6035H99.4258L99.4941 19.1826ZM99.1934 21.0215L98.667 21.001C98.6715 20.4951 98.7467 20.028 98.8926 19.5996C99.0384 19.1667 99.2435 18.7907 99.5078 18.4717C99.7721 18.1527 100.087 17.9066 100.451 17.7334C100.82 17.5557 101.228 17.4668 101.675 17.4668C102.039 17.4668 102.368 17.5169 102.659 17.6172C102.951 17.7129 103.199 17.8678 103.404 18.082C103.614 18.2962 103.773 18.5742 103.883 18.916C103.992 19.2533 104.047 19.6657 104.047 20.1533V25H102.775V20.1396C102.775 19.7523 102.718 19.4424 102.604 19.21C102.491 18.973 102.324 18.8021 102.105 18.6973C101.887 18.5879 101.618 18.5332 101.299 18.5332C100.984 18.5332 100.697 18.5993 100.438 18.7314C100.182 18.8636 99.9613 19.0459 99.7744 19.2783C99.5921 19.5107 99.4486 19.7773 99.3438 20.0781C99.2435 20.3743 99.1934 20.6888 99.1934 21.0215ZM105.913 24.3301C105.913 24.1159 105.979 23.9359 106.111 23.79C106.248 23.6396 106.444 23.5645 106.699 23.5645C106.954 23.5645 107.148 23.6396 107.28 23.79C107.417 23.9359 107.485 24.1159 107.485 24.3301C107.485 24.5397 107.417 24.7174 107.28 24.8633C107.148 25.0091 106.954 25.082 106.699 25.082C106.444 25.082 106.248 25.0091 106.111 24.8633C105.979 24.7174 105.913 24.5397 105.913 24.3301ZM105.92 18.2939C105.92 18.0798 105.986 17.8997 106.118 17.7539C106.255 17.6035 106.451 17.5283 106.706 17.5283C106.961 17.5283 107.155 17.6035 107.287 17.7539C107.424 17.8997 107.492 18.0798 107.492 18.2939C107.492 18.5036 107.424 18.6813 107.287 18.8271C107.155 18.973 106.961 19.0459 106.706 19.0459C106.451 19.0459 106.255 18.973 106.118 18.8271C105.986 18.6813 105.92 18.5036 105.92 18.2939ZM110.623 19.0254V27.8438H109.352V17.6035H110.514L110.623 19.0254ZM115.606 21.2402V21.3838C115.606 21.9215 115.543 22.4206 115.415 22.8809C115.287 23.3366 115.101 23.7331 114.854 24.0703C114.613 24.4076 114.314 24.6696 113.959 24.8564C113.604 25.0433 113.196 25.1367 112.735 25.1367C112.266 25.1367 111.851 25.0592 111.491 24.9043C111.131 24.7493 110.826 24.5238 110.575 24.2275C110.325 23.9313 110.124 23.5758 109.974 23.1611C109.828 22.7464 109.728 22.2793 109.673 21.7598V20.9941C109.728 20.4473 109.83 19.9574 109.98 19.5244C110.131 19.0915 110.329 18.7223 110.575 18.417C110.826 18.1071 111.129 17.8724 111.484 17.7129C111.84 17.5488 112.25 17.4668 112.715 17.4668C113.18 17.4668 113.592 17.5579 113.952 17.7402C114.312 17.918 114.615 18.1732 114.861 18.5059C115.107 18.8385 115.292 19.2373 115.415 19.7021C115.543 20.1624 115.606 20.6751 115.606 21.2402ZM114.335 21.3838V21.2402C114.335 20.8711 114.296 20.5247 114.219 20.2012C114.141 19.873 114.021 19.5859 113.856 19.3398C113.697 19.0892 113.492 18.8932 113.241 18.752C112.991 18.6061 112.692 18.5332 112.346 18.5332C112.027 18.5332 111.749 18.5879 111.512 18.6973C111.279 18.8066 111.081 18.9548 110.917 19.1416C110.753 19.3239 110.618 19.5335 110.514 19.7705C110.413 20.0029 110.338 20.2445 110.288 20.4951V22.2656C110.379 22.5846 110.507 22.8854 110.671 23.168C110.835 23.446 111.054 23.6715 111.327 23.8447C111.601 24.0133 111.945 24.0977 112.359 24.0977C112.701 24.0977 112.995 24.027 113.241 23.8857C113.492 23.7399 113.697 23.5417 113.856 23.291C114.021 23.0404 114.141 22.7533 114.219 22.4297C114.296 22.1016 114.335 21.7529 114.335 21.3838ZM118.484 18.7656V25H117.22V17.6035H118.45L118.484 18.7656ZM120.795 17.5625L120.788 18.7383C120.683 18.7155 120.583 18.7018 120.487 18.6973C120.396 18.6882 120.291 18.6836 120.173 18.6836C119.881 18.6836 119.624 18.7292 119.4 18.8203C119.177 18.9115 118.988 19.0391 118.833 19.2031C118.678 19.3672 118.555 19.5632 118.464 19.791C118.377 20.0143 118.32 20.2604 118.293 20.5293L117.938 20.7344C117.938 20.2878 117.981 19.8685 118.067 19.4766C118.159 19.0846 118.298 18.7383 118.484 18.4375C118.671 18.1322 118.908 17.8952 119.195 17.7266C119.487 17.5534 119.833 17.4668 120.234 17.4668C120.326 17.4668 120.43 17.4782 120.549 17.501C120.667 17.5192 120.749 17.5397 120.795 17.5625ZM121.492 21.3838V21.2266C121.492 20.6934 121.57 20.1989 121.725 19.7432C121.88 19.2829 122.103 18.8841 122.395 18.5469C122.686 18.2051 123.039 17.9408 123.454 17.7539C123.869 17.5625 124.334 17.4668 124.849 17.4668C125.368 17.4668 125.835 17.5625 126.25 17.7539C126.669 17.9408 127.025 18.2051 127.316 18.5469C127.613 18.8841 127.838 19.2829 127.993 19.7432C128.148 20.1989 128.226 20.6934 128.226 21.2266V21.3838C128.226 21.917 128.148 22.4115 127.993 22.8672C127.838 23.3229 127.613 23.7217 127.316 24.0635C127.025 24.4007 126.672 24.665 126.257 24.8564C125.847 25.0433 125.382 25.1367 124.862 25.1367C124.343 25.1367 123.876 25.0433 123.461 24.8564C123.046 24.665 122.691 24.4007 122.395 24.0635C122.103 23.7217 121.88 23.3229 121.725 22.8672C121.57 22.4115 121.492 21.917 121.492 21.3838ZM122.757 21.2266V21.3838C122.757 21.7529 122.8 22.1016 122.887 22.4297C122.973 22.7533 123.103 23.0404 123.276 23.291C123.454 23.5417 123.675 23.7399 123.939 23.8857C124.204 24.027 124.511 24.0977 124.862 24.0977C125.209 24.0977 125.512 24.027 125.771 23.8857C126.036 23.7399 126.255 23.5417 126.428 23.291C126.601 23.0404 126.731 22.7533 126.817 22.4297C126.909 22.1016 126.954 21.7529 126.954 21.3838V21.2266C126.954 20.862 126.909 20.5179 126.817 20.1943C126.731 19.8662 126.599 19.5768 126.421 19.3262C126.248 19.071 126.029 18.8704 125.765 18.7246C125.505 18.5788 125.2 18.5059 124.849 18.5059C124.502 18.5059 124.197 18.5788 123.933 18.7246C123.673 18.8704 123.454 19.071 123.276 19.3262C123.103 19.5768 122.973 19.8662 122.887 20.1943C122.8 20.5179 122.757 20.862 122.757 21.2266ZM134.474 23.5645V14.5H135.745V25H134.583L134.474 23.5645ZM129.497 21.3838V21.2402C129.497 20.6751 129.565 20.1624 129.702 19.7021C129.843 19.2373 130.042 18.8385 130.297 18.5059C130.557 18.1732 130.864 17.918 131.22 17.7402C131.58 17.5579 131.981 17.4668 132.423 17.4668C132.888 17.4668 133.293 17.5488 133.64 17.7129C133.991 17.8724 134.287 18.1071 134.528 18.417C134.774 18.7223 134.968 19.0915 135.109 19.5244C135.251 19.9574 135.349 20.4473 135.403 20.9941V21.623C135.353 22.1654 135.255 22.653 135.109 23.0859C134.968 23.5189 134.774 23.888 134.528 24.1934C134.287 24.4987 133.991 24.7334 133.64 24.8975C133.289 25.057 132.879 25.1367 132.409 25.1367C131.976 25.1367 131.58 25.0433 131.22 24.8564C130.864 24.6696 130.557 24.4076 130.297 24.0703C130.042 23.7331 129.843 23.3366 129.702 22.8809C129.565 22.4206 129.497 21.9215 129.497 21.3838ZM130.769 21.2402V21.3838C130.769 21.7529 130.805 22.0993 130.878 22.4229C130.955 22.7464 131.074 23.0312 131.233 23.2773C131.393 23.5234 131.596 23.7171 131.842 23.8584C132.088 23.9951 132.382 24.0635 132.724 24.0635C133.143 24.0635 133.487 23.9746 133.756 23.7969C134.029 23.6191 134.248 23.3844 134.412 23.0928C134.576 22.8011 134.704 22.4844 134.795 22.1426V20.4951C134.74 20.2445 134.66 20.0029 134.556 19.7705C134.455 19.5335 134.323 19.3239 134.159 19.1416C134 18.9548 133.801 18.8066 133.564 18.6973C133.332 18.5879 133.056 18.5332 132.737 18.5332C132.391 18.5332 132.092 18.6061 131.842 18.752C131.596 18.8932 131.393 19.0892 131.233 19.3398C131.074 19.5859 130.955 19.873 130.878 20.2012C130.805 20.5247 130.769 20.8711 130.769 21.2402ZM142.239 23.291V17.6035H143.511V25H142.301L142.239 23.291ZM142.479 21.7324L143.005 21.7188C143.005 22.2109 142.952 22.6667 142.848 23.0859C142.747 23.5007 142.583 23.8607 142.355 24.166C142.128 24.4714 141.829 24.7106 141.46 24.8838C141.091 25.0524 140.642 25.1367 140.113 25.1367C139.753 25.1367 139.423 25.0843 139.122 24.9795C138.826 24.8747 138.571 24.7129 138.356 24.4941C138.142 24.2754 137.976 23.9906 137.857 23.6396C137.743 23.2887 137.687 22.8672 137.687 22.375V17.6035H138.951V22.3887C138.951 22.7214 138.988 22.9971 139.061 23.2158C139.138 23.43 139.241 23.6009 139.368 23.7285C139.5 23.8516 139.646 23.9382 139.806 23.9883C139.97 24.0384 140.138 24.0635 140.312 24.0635C140.849 24.0635 141.275 23.9609 141.59 23.7559C141.904 23.5462 142.13 23.266 142.267 22.915C142.408 22.5596 142.479 22.1654 142.479 21.7324ZM148.398 24.0977C148.699 24.0977 148.977 24.0361 149.232 23.9131C149.488 23.79 149.697 23.6214 149.861 23.4072C150.025 23.1885 150.119 22.9401 150.142 22.6621H151.345C151.322 23.0996 151.174 23.5075 150.9 23.8857C150.632 24.2594 150.278 24.5625 149.841 24.7949C149.403 25.0228 148.923 25.1367 148.398 25.1367C147.842 25.1367 147.357 25.0387 146.942 24.8428C146.532 24.6468 146.19 24.3779 145.917 24.0361C145.648 23.6943 145.445 23.3024 145.309 22.8604C145.176 22.4137 145.11 21.9421 145.11 21.4453V21.1582C145.11 20.6615 145.176 20.1921 145.309 19.75C145.445 19.3034 145.648 18.9092 145.917 18.5674C146.19 18.2256 146.532 17.9567 146.942 17.7607C147.357 17.5648 147.842 17.4668 148.398 17.4668C148.977 17.4668 149.483 17.5853 149.916 17.8223C150.349 18.0547 150.688 18.3737 150.935 18.7793C151.185 19.1803 151.322 19.6361 151.345 20.1465H150.142C150.119 19.8411 150.032 19.5654 149.882 19.3193C149.736 19.0732 149.535 18.8773 149.28 18.7314C149.03 18.5811 148.736 18.5059 148.398 18.5059C148.011 18.5059 147.685 18.5833 147.421 18.7383C147.161 18.8887 146.954 19.0938 146.799 19.3535C146.648 19.6087 146.539 19.8936 146.471 20.208C146.407 20.5179 146.375 20.8346 146.375 21.1582V21.4453C146.375 21.7689 146.407 22.0879 146.471 22.4023C146.535 22.7168 146.642 23.0016 146.792 23.2568C146.947 23.512 147.154 23.7171 147.414 23.8721C147.678 24.0225 148.007 24.0977 148.398 24.0977ZM155.863 17.6035V18.5742H151.864V17.6035H155.863ZM153.218 15.8057H154.482V23.168C154.482 23.4186 154.521 23.6077 154.599 23.7354C154.676 23.863 154.776 23.9473 154.899 23.9883C155.022 24.0293 155.155 24.0498 155.296 24.0498C155.401 24.0498 155.51 24.0407 155.624 24.0225C155.743 23.9997 155.831 23.9814 155.891 23.9678L155.897 25C155.797 25.0319 155.665 25.0615 155.501 25.0889C155.341 25.1208 155.148 25.1367 154.92 25.1367C154.61 25.1367 154.325 25.0752 154.065 24.9521C153.806 24.8291 153.598 24.624 153.443 24.3369C153.293 24.0452 153.218 23.6533 153.218 23.1611V15.8057ZM162.679 25V26.0391H156.41V25H162.679ZM165.037 14.5V25H163.766V14.5H165.037ZM171.429 23.7354V19.9277C171.429 19.6361 171.369 19.3831 171.251 19.1689C171.137 18.9502 170.964 18.7816 170.731 18.6631C170.499 18.5446 170.212 18.4854 169.87 18.4854C169.551 18.4854 169.271 18.54 169.029 18.6494C168.792 18.7588 168.605 18.9023 168.469 19.0801C168.337 19.2578 168.271 19.4492 168.271 19.6543H167.006C167.006 19.39 167.074 19.1279 167.211 18.8682C167.348 18.6084 167.544 18.3737 167.799 18.1641C168.059 17.9499 168.368 17.7812 168.729 17.6582C169.093 17.5306 169.499 17.4668 169.945 17.4668C170.483 17.4668 170.957 17.5579 171.367 17.7402C171.782 17.9225 172.105 18.1982 172.338 18.5674C172.575 18.932 172.693 19.39 172.693 19.9414V23.3867C172.693 23.6328 172.714 23.8949 172.755 24.1729C172.8 24.4508 172.867 24.6901 172.953 24.8906V25H171.634C171.57 24.8542 171.52 24.6605 171.483 24.4189C171.447 24.1729 171.429 23.945 171.429 23.7354ZM171.647 20.5156L171.661 21.4043H170.383C170.023 21.4043 169.701 21.4339 169.419 21.4932C169.136 21.5479 168.899 21.6322 168.708 21.7461C168.517 21.86 168.371 22.0036 168.271 22.1768C168.17 22.3454 168.12 22.5436 168.12 22.7715C168.12 23.0039 168.173 23.2158 168.277 23.4072C168.382 23.5986 168.539 23.7513 168.749 23.8652C168.963 23.9746 169.225 24.0293 169.535 24.0293C169.923 24.0293 170.264 23.9473 170.561 23.7832C170.857 23.6191 171.091 23.4186 171.265 23.1816C171.442 22.9447 171.538 22.7145 171.552 22.4912L172.092 23.0996C172.06 23.291 171.973 23.5029 171.832 23.7354C171.691 23.9678 171.502 24.1911 171.265 24.4053C171.032 24.6149 170.754 24.7904 170.431 24.9316C170.112 25.0684 169.752 25.1367 169.351 25.1367C168.849 25.1367 168.41 25.0387 168.031 24.8428C167.658 24.6468 167.366 24.3848 167.156 24.0566C166.951 23.724 166.849 23.3525 166.849 22.9424C166.849 22.5459 166.926 22.1973 167.081 21.8965C167.236 21.5911 167.459 21.3382 167.751 21.1377C168.043 20.9326 168.394 20.7777 168.804 20.6729C169.214 20.568 169.672 20.5156 170.178 20.5156H171.647ZM179.208 23.291V17.6035H180.479V25H179.27L179.208 23.291ZM179.447 21.7324L179.974 21.7188C179.974 22.2109 179.921 22.6667 179.816 23.0859C179.716 23.5007 179.552 23.8607 179.324 24.166C179.096 24.4714 178.798 24.7106 178.429 24.8838C178.06 25.0524 177.611 25.1367 177.082 25.1367C176.722 25.1367 176.392 25.0843 176.091 24.9795C175.795 24.8747 175.539 24.7129 175.325 24.4941C175.111 24.2754 174.945 23.9906 174.826 23.6396C174.712 23.2887 174.655 22.8672 174.655 22.375V17.6035H175.92V22.3887C175.92 22.7214 175.956 22.9971 176.029 23.2158C176.107 23.43 176.209 23.6009 176.337 23.7285C176.469 23.8516 176.615 23.9382 176.774 23.9883C176.938 24.0384 177.107 24.0635 177.28 24.0635C177.818 24.0635 178.244 23.9609 178.559 23.7559C178.873 23.5462 179.099 23.266 179.235 22.915C179.377 22.5596 179.447 22.1654 179.447 21.7324ZM183.672 19.1826V25H182.407V17.6035H183.604L183.672 19.1826ZM183.371 21.0215L182.845 21.001C182.849 20.4951 182.924 20.028 183.07 19.5996C183.216 19.1667 183.421 18.7907 183.686 18.4717C183.95 18.1527 184.264 17.9066 184.629 17.7334C184.998 17.5557 185.406 17.4668 185.853 17.4668C186.217 17.4668 186.545 17.5169 186.837 17.6172C187.129 17.7129 187.377 17.8678 187.582 18.082C187.792 18.2962 187.951 18.5742 188.061 18.916C188.17 19.2533 188.225 19.6657 188.225 20.1533V25H186.953V20.1396C186.953 19.7523 186.896 19.4424 186.782 19.21C186.668 18.973 186.502 18.8021 186.283 18.6973C186.064 18.5879 185.796 18.5332 185.477 18.5332C185.162 18.5332 184.875 18.5993 184.615 18.7314C184.36 18.8636 184.139 19.0459 183.952 19.2783C183.77 19.5107 183.626 19.7773 183.521 20.0781C183.421 20.3743 183.371 20.6888 183.371 21.0215ZM193.105 24.0977C193.406 24.0977 193.684 24.0361 193.939 23.9131C194.195 23.79 194.404 23.6214 194.568 23.4072C194.732 23.1885 194.826 22.9401 194.849 22.6621H196.052C196.029 23.0996 195.881 23.5075 195.607 23.8857C195.339 24.2594 194.985 24.5625 194.548 24.7949C194.11 25.0228 193.63 25.1367 193.105 25.1367C192.549 25.1367 192.064 25.0387 191.649 24.8428C191.239 24.6468 190.897 24.3779 190.624 24.0361C190.355 23.6943 190.152 23.3024 190.016 22.8604C189.883 22.4137 189.817 21.9421 189.817 21.4453V21.1582C189.817 20.6615 189.883 20.1921 190.016 19.75C190.152 19.3034 190.355 18.9092 190.624 18.5674C190.897 18.2256 191.239 17.9567 191.649 17.7607C192.064 17.5648 192.549 17.4668 193.105 17.4668C193.684 17.4668 194.19 17.5853 194.623 17.8223C195.056 18.0547 195.396 18.3737 195.642 18.7793C195.892 19.1803 196.029 19.6361 196.052 20.1465H194.849C194.826 19.8411 194.739 19.5654 194.589 19.3193C194.443 19.0732 194.243 18.8773 193.987 18.7314C193.737 18.5811 193.443 18.5059 193.105 18.5059C192.718 18.5059 192.392 18.5833 192.128 18.7383C191.868 18.8887 191.661 19.0938 191.506 19.3535C191.355 19.6087 191.246 19.8936 191.178 20.208C191.114 20.5179 191.082 20.8346 191.082 21.1582V21.4453C191.082 21.7689 191.114 22.0879 191.178 22.4023C191.242 22.7168 191.349 23.0016 191.499 23.2568C191.654 23.512 191.861 23.7171 192.121 23.8721C192.385 24.0225 192.714 24.0977 193.105 24.0977ZM198.738 14.5V25H197.474V14.5H198.738ZM198.438 21.0215L197.911 21.001C197.916 20.4951 197.991 20.028 198.137 19.5996C198.283 19.1667 198.488 18.7907 198.752 18.4717C199.016 18.1527 199.331 17.9066 199.695 17.7334C200.064 17.5557 200.472 17.4668 200.919 17.4668C201.284 17.4668 201.612 17.5169 201.903 17.6172C202.195 17.7129 202.443 17.8678 202.648 18.082C202.858 18.2962 203.018 18.5742 203.127 18.916C203.236 19.2533 203.291 19.6657 203.291 20.1533V25H202.02V20.1396C202.02 19.7523 201.963 19.4424 201.849 19.21C201.735 18.973 201.568 18.8021 201.35 18.6973C201.131 18.5879 200.862 18.5332 200.543 18.5332C200.229 18.5332 199.941 18.5993 199.682 18.7314C199.426 18.8636 199.205 19.0459 199.019 19.2783C198.836 19.5107 198.693 19.7773 198.588 20.0781C198.488 20.3743 198.438 20.6888 198.438 21.0215ZM212.964 23.0381C212.964 22.8558 212.923 22.6872 212.841 22.5322C212.763 22.3727 212.602 22.2292 212.355 22.1016C212.114 21.9694 211.749 21.8555 211.262 21.7598C210.852 21.6732 210.48 21.5706 210.147 21.4521C209.819 21.3337 209.539 21.1901 209.307 21.0215C209.079 20.8529 208.903 20.6546 208.78 20.4268C208.657 20.1989 208.596 19.9323 208.596 19.627C208.596 19.3353 208.66 19.0596 208.787 18.7998C208.919 18.54 209.104 18.3099 209.341 18.1094C209.582 17.9089 209.872 17.7516 210.209 17.6377C210.546 17.5238 210.922 17.4668 211.337 17.4668C211.929 17.4668 212.435 17.5716 212.854 17.7812C213.274 17.9909 213.595 18.2712 213.818 18.6221C214.042 18.9684 214.153 19.3535 214.153 19.7773H212.889C212.889 19.5723 212.827 19.374 212.704 19.1826C212.586 18.9867 212.41 18.8249 212.178 18.6973C211.95 18.5697 211.67 18.5059 211.337 18.5059C210.986 18.5059 210.701 18.5605 210.482 18.6699C210.268 18.7747 210.111 18.9092 210.011 19.0732C209.915 19.2373 209.867 19.4105 209.867 19.5928C209.867 19.7295 209.89 19.8525 209.936 19.9619C209.986 20.0667 210.072 20.1647 210.195 20.2559C210.318 20.3424 210.492 20.4245 210.715 20.502C210.938 20.5794 211.223 20.6569 211.569 20.7344C212.175 20.8711 212.674 21.0352 213.066 21.2266C213.458 21.418 213.75 21.6527 213.941 21.9307C214.133 22.2087 214.229 22.5459 214.229 22.9424C214.229 23.266 214.16 23.5622 214.023 23.8311C213.891 24.0999 213.698 24.3324 213.442 24.5283C213.192 24.7197 212.891 24.8701 212.54 24.9795C212.194 25.0843 211.804 25.1367 211.371 25.1367C210.719 25.1367 210.168 25.0205 209.717 24.7881C209.266 24.5557 208.924 24.2549 208.691 23.8857C208.459 23.5166 208.343 23.127 208.343 22.7168H209.614C209.632 23.0632 209.733 23.3389 209.915 23.5439C210.097 23.7445 210.321 23.888 210.585 23.9746C210.849 24.0566 211.111 24.0977 211.371 24.0977C211.717 24.0977 212.007 24.0521 212.239 23.9609C212.476 23.8698 212.656 23.7445 212.779 23.585C212.902 23.4255 212.964 23.2432 212.964 23.0381ZM218.85 24.0977C219.15 24.0977 219.428 24.0361 219.684 23.9131C219.939 23.79 220.148 23.6214 220.312 23.4072C220.477 23.1885 220.57 22.9401 220.593 22.6621H221.796C221.773 23.0996 221.625 23.5075 221.352 23.8857C221.083 24.2594 220.729 24.5625 220.292 24.7949C219.854 25.0228 219.374 25.1367 218.85 25.1367C218.294 25.1367 217.808 25.0387 217.394 24.8428C216.983 24.6468 216.642 24.3779 216.368 24.0361C216.099 23.6943 215.896 23.3024 215.76 22.8604C215.628 22.4137 215.562 21.9421 215.562 21.4453V21.1582C215.562 20.6615 215.628 20.1921 215.76 19.75C215.896 19.3034 216.099 18.9092 216.368 18.5674C216.642 18.2256 216.983 17.9567 217.394 17.7607C217.808 17.5648 218.294 17.4668 218.85 17.4668C219.428 17.4668 219.934 17.5853 220.367 17.8223C220.8 18.0547 221.14 18.3737 221.386 18.7793C221.636 19.1803 221.773 19.6361 221.796 20.1465H220.593C220.57 19.8411 220.483 19.5654 220.333 19.3193C220.187 19.0732 219.987 18.8773 219.731 18.7314C219.481 18.5811 219.187 18.5059 218.85 18.5059C218.462 18.5059 218.136 18.5833 217.872 18.7383C217.612 18.8887 217.405 19.0938 217.25 19.3535C217.1 19.6087 216.99 19.8936 216.922 20.208C216.858 20.5179 216.826 20.8346 216.826 21.1582V21.4453C216.826 21.7689 216.858 22.0879 216.922 22.4023C216.986 22.7168 217.093 23.0016 217.243 23.2568C217.398 23.512 217.605 23.7171 217.865 23.8721C218.13 24.0225 218.458 24.0977 218.85 24.0977ZM224.482 18.7656V25H223.218V17.6035H224.448L224.482 18.7656ZM226.793 17.5625L226.786 18.7383C226.681 18.7155 226.581 18.7018 226.485 18.6973C226.394 18.6882 226.289 18.6836 226.171 18.6836C225.879 18.6836 225.622 18.7292 225.398 18.8203C225.175 18.9115 224.986 19.0391 224.831 19.2031C224.676 19.3672 224.553 19.5632 224.462 19.791C224.375 20.0143 224.318 20.2604 224.291 20.5293L223.936 20.7344C223.936 20.2878 223.979 19.8685 224.065 19.4766C224.157 19.0846 224.296 18.7383 224.482 18.4375C224.669 18.1322 224.906 17.8952 225.193 17.7266C225.485 17.5534 225.831 17.4668 226.232 17.4668C226.324 17.4668 226.428 17.4782 226.547 17.501C226.665 17.5192 226.747 17.5397 226.793 17.5625ZM229.336 17.6035V25H228.064V17.6035H229.336ZM227.969 15.6416C227.969 15.4365 228.03 15.2633 228.153 15.1221C228.281 14.9808 228.468 14.9102 228.714 14.9102C228.955 14.9102 229.14 14.9808 229.268 15.1221C229.4 15.2633 229.466 15.4365 229.466 15.6416C229.466 15.8376 229.4 16.0062 229.268 16.1475C229.14 16.2842 228.955 16.3525 228.714 16.3525C228.468 16.3525 228.281 16.2842 228.153 16.1475C228.03 16.0062 227.969 15.8376 227.969 15.6416ZM232.631 19.0254V27.8438H231.359V17.6035H232.521L232.631 19.0254ZM237.614 21.2402V21.3838C237.614 21.9215 237.55 22.4206 237.423 22.8809C237.295 23.3366 237.108 23.7331 236.862 24.0703C236.621 24.4076 236.322 24.6696 235.967 24.8564C235.611 25.0433 235.203 25.1367 234.743 25.1367C234.274 25.1367 233.859 25.0592 233.499 24.9043C233.139 24.7493 232.834 24.5238 232.583 24.2275C232.332 23.9313 232.132 23.5758 231.981 23.1611C231.836 22.7464 231.735 22.2793 231.681 21.7598V20.9941C231.735 20.4473 231.838 19.9574 231.988 19.5244C232.139 19.0915 232.337 18.7223 232.583 18.417C232.834 18.1071 233.137 17.8724 233.492 17.7129C233.848 17.5488 234.258 17.4668 234.723 17.4668C235.188 17.4668 235.6 17.5579 235.96 17.7402C236.32 17.918 236.623 18.1732 236.869 18.5059C237.115 18.8385 237.3 19.2373 237.423 19.7021C237.55 20.1624 237.614 20.6751 237.614 21.2402ZM236.343 21.3838V21.2402C236.343 20.8711 236.304 20.5247 236.227 20.2012C236.149 19.873 236.028 19.5859 235.864 19.3398C235.705 19.0892 235.5 18.8932 235.249 18.752C234.998 18.6061 234.7 18.5332 234.354 18.5332C234.035 18.5332 233.757 18.5879 233.52 18.6973C233.287 18.8066 233.089 18.9548 232.925 19.1416C232.761 19.3239 232.626 19.5335 232.521 19.7705C232.421 20.0029 232.346 20.2445 232.296 20.4951V22.2656C232.387 22.5846 232.515 22.8854 232.679 23.168C232.843 23.446 233.062 23.6715 233.335 23.8447C233.608 24.0133 233.952 24.0977 234.367 24.0977C234.709 24.0977 235.003 24.027 235.249 23.8857C235.5 23.7399 235.705 23.5417 235.864 23.291C236.028 23.0404 236.149 22.7533 236.227 22.4297C236.304 22.1016 236.343 21.7529 236.343 21.3838ZM242.324 17.6035V18.5742H238.325V17.6035H242.324ZM239.679 15.8057H240.943V23.168C240.943 23.4186 240.982 23.6077 241.06 23.7354C241.137 23.863 241.237 23.9473 241.36 23.9883C241.483 24.0293 241.616 24.0498 241.757 24.0498C241.862 24.0498 241.971 24.0407 242.085 24.0225C242.203 23.9997 242.292 23.9814 242.352 23.9678L242.358 25C242.258 25.0319 242.126 25.0615 241.962 25.0889C241.802 25.1208 241.609 25.1367 241.381 25.1367C241.071 25.1367 240.786 25.0752 240.526 24.9521C240.267 24.8291 240.059 24.624 239.904 24.3369C239.754 24.0452 239.679 23.6533 239.679 23.1611V15.8057Z" fill="white" fill-opacity="0.87"/>
</svg>
